<svg width="331" height="343" viewBox="0 0 331 343" fill="none" xmlns="http://www.w3.org/2000/svg">
<path d="M7.488 159.889C6.16 159.889 5.008 159.681 4.032 159.265C3.072 158.849 2.336 158.305 1.824 157.633C1.312 156.945 1.04 156.209 1.008 155.425C1.008 155.297 1.056 155.185 1.152 155.089C1.264 154.977 1.392 154.921 1.536 154.921H2.76C3.064 154.921 3.272 155.081 3.384 155.401C3.528 156.073 3.936 156.649 4.608 157.129C5.296 157.609 6.256 157.849 7.488 157.849C8.816 157.849 9.816 157.617 10.488 157.153C11.16 156.673 11.496 156.009 11.496 155.161C11.496 154.617 11.328 154.177 10.992 153.841C10.672 153.505 10.192 153.209 9.552 152.953C8.912 152.697 7.952 152.377 6.672 151.993C5.424 151.641 4.432 151.265 3.696 150.865C2.96 150.465 2.408 149.969 2.04 149.377C1.672 148.785 1.488 148.041 1.488 147.145C1.488 146.281 1.72 145.505 2.184 144.817C2.664 144.129 3.344 143.593 4.224 143.209C5.104 142.809 6.152 142.609 7.368 142.609C8.616 142.609 9.688 142.833 10.584 143.281C11.48 143.713 12.16 144.265 12.624 144.937C13.088 145.609 13.336 146.281 13.368 146.953C13.368 147.081 13.32 147.193 13.224 147.289C13.144 147.385 13.024 147.433 12.864 147.433H11.592C11.256 147.433 11.048 147.281 10.968 146.977C10.872 146.305 10.496 145.753 9.84 145.321C9.184 144.873 8.36 144.649 7.368 144.649C6.28 144.649 5.424 144.857 4.8 145.273C4.176 145.689 3.864 146.305 3.864 147.121C3.864 147.665 4.008 148.113 4.296 148.465C4.6 148.817 5.056 149.129 5.664 149.401C6.272 149.657 7.16 149.953 8.328 150.289C9.688 150.657 10.76 151.041 11.544 151.441C12.328 151.825 12.912 152.313 13.296 152.905C13.68 153.481 13.872 154.217 13.872 155.113C13.872 156.601 13.296 157.769 12.144 158.617C10.992 159.465 9.44 159.889 7.488 159.889ZM21.3617 159.889C19.8417 159.889 18.6657 159.401 17.8337 158.425C17.0017 157.433 16.5857 156.121 16.5857 154.489V147.721C16.5857 147.561 16.6337 147.433 16.7297 147.337C16.8417 147.225 16.9777 147.169 17.1377 147.169H18.3377C18.4977 147.169 18.6257 147.225 18.7217 147.337C18.8337 147.433 18.8897 147.561 18.8897 147.721V154.369C18.8897 156.753 19.9297 157.945 22.0097 157.945C23.0177 157.945 23.8177 157.633 24.4097 157.009C25.0017 156.369 25.2977 155.489 25.2977 154.369V147.721C25.2977 147.561 25.3457 147.433 25.4417 147.337C25.5537 147.225 25.6897 147.169 25.8497 147.169H27.0497C27.2097 147.169 27.3377 147.225 27.4337 147.337C27.5297 147.433 27.5777 147.561 27.5777 147.721V159.097C27.5777 159.257 27.5297 159.393 27.4337 159.505C27.3377 159.601 27.2097 159.649 27.0497 159.649H25.9217C25.7617 159.649 25.6257 159.601 25.5137 159.505C25.4177 159.393 25.3697 159.257 25.3697 159.097V158.041C24.9217 158.649 24.3777 159.113 23.7377 159.433C23.0977 159.737 22.3057 159.889 21.3617 159.889ZM34.6232 159.889C33.8392 159.889 33.1112 159.729 32.4392 159.409C31.7672 159.089 31.2312 158.657 30.8312 158.113C30.4472 157.553 30.2552 156.937 30.2552 156.265C30.2552 155.209 30.6872 154.345 31.5512 153.673C32.4312 152.985 33.6152 152.537 35.1032 152.329L38.6792 151.825V151.129C38.6792 149.497 37.7432 148.681 35.8712 148.681C35.1672 148.681 34.5912 148.833 34.1432 149.137C33.6952 149.425 33.3592 149.769 33.1352 150.169C33.0872 150.313 33.0232 150.417 32.9432 150.481C32.8792 150.545 32.7832 150.577 32.6552 150.577H31.6232C31.4792 150.577 31.3512 150.529 31.2392 150.433C31.1432 150.321 31.0952 150.193 31.0952 150.049C31.1112 149.665 31.2872 149.233 31.6232 148.753C31.9752 148.257 32.5112 147.833 33.2312 147.481C33.9512 147.113 34.8392 146.929 35.8952 146.929C37.6872 146.929 38.9752 147.353 39.7592 148.201C40.5432 149.033 40.9352 150.073 40.9352 151.321V159.097C40.9352 159.257 40.8792 159.393 40.7672 159.505C40.6712 159.601 40.5432 159.649 40.3832 159.649H39.2792C39.1192 159.649 38.9832 159.601 38.8712 159.505C38.7752 159.393 38.7272 159.257 38.7272 159.097V158.065C38.3752 158.577 37.8632 159.009 37.1912 159.361C36.5192 159.713 35.6632 159.889 34.6232 159.889ZM35.1272 158.089C36.1672 158.089 37.0152 157.753 37.6712 157.081C38.3432 156.393 38.6792 155.409 38.6792 154.129V153.457L35.8952 153.865C34.7592 154.025 33.9032 154.297 33.3272 154.681C32.7512 155.049 32.4632 155.521 32.4632 156.097C32.4632 156.737 32.7272 157.233 33.2552 157.585C33.7832 157.921 34.4072 158.089 35.1272 158.089ZM48.7054 159.889C47.5854 159.889 46.6414 159.713 45.8734 159.361C45.1214 158.993 44.5534 158.577 44.1694 158.113C43.8014 157.649 43.6174 157.265 43.6174 156.961C43.6174 156.801 43.6734 156.681 43.7854 156.601C43.9134 156.505 44.0414 156.457 44.1694 156.457H45.2494C45.4094 156.457 45.5534 156.537 45.6814 156.697C46.0654 157.145 46.4814 157.497 46.9294 157.753C47.3774 158.009 47.9774 158.137 48.7294 158.137C49.5614 158.137 50.2334 157.977 50.7454 157.657C51.2734 157.321 51.5374 156.865 51.5374 156.289C51.5374 155.905 51.4254 155.593 51.2014 155.353C50.9934 155.097 50.6254 154.881 50.0974 154.705C49.5854 154.513 48.8174 154.305 47.7934 154.081C46.4014 153.777 45.4094 153.337 44.8174 152.761C44.2414 152.185 43.9534 151.441 43.9534 150.529C43.9534 149.921 44.1294 149.345 44.4814 148.801C44.8494 148.241 45.3774 147.793 46.0654 147.457C46.7694 147.105 47.6094 146.929 48.5854 146.929C49.6094 146.929 50.4814 147.097 51.2014 147.433C51.9214 147.769 52.4574 148.169 52.8094 148.633C53.1774 149.081 53.3614 149.457 53.3614 149.761C53.3614 149.905 53.3054 150.025 53.1934 150.121C53.0974 150.217 52.9774 150.265 52.8334 150.265H51.8254C51.6334 150.265 51.4734 150.185 51.3454 150.025C51.0894 149.721 50.8654 149.489 50.6734 149.329C50.4974 149.153 50.2334 149.001 49.8814 148.873C49.5454 148.745 49.1134 148.681 48.5854 148.681C47.8174 148.681 47.2254 148.849 46.8094 149.185C46.3934 149.505 46.1854 149.929 46.1854 150.457C46.1854 150.793 46.2734 151.081 46.4494 151.321C46.6254 151.545 46.9614 151.753 47.4574 151.945C47.9694 152.137 48.7054 152.337 49.6654 152.545C51.1854 152.865 52.2574 153.329 52.8814 153.937C53.5214 154.529 53.8414 155.289 53.8414 156.217C53.8414 156.905 53.6414 157.529 53.2414 158.089C52.8414 158.649 52.2494 159.089 51.4654 159.409C50.6974 159.729 49.7774 159.889 48.7054 159.889ZM159.899 164.209C159.739 164.209 159.603 164.153 159.491 164.041C159.395 163.945 159.347 163.817 159.347 163.657V147.721C159.347 147.561 159.395 147.433 159.491 147.337C159.603 147.225 159.739 147.169 159.899 147.169H161.003C161.163 147.169 161.291 147.225 161.387 147.337C161.499 147.433 161.555 147.561 161.555 147.721V148.777C162.451 147.545 163.763 146.929 165.491 146.929C167.171 146.929 168.427 147.457 169.259 148.513C170.107 149.569 170.563 150.929 170.627 152.593C170.643 152.769 170.651 153.041 170.651 153.409C170.651 153.777 170.643 154.049 170.627 154.225C170.563 155.873 170.107 157.233 169.259 158.305C168.411 159.361 167.155 159.889 165.491 159.889C163.827 159.889 162.531 159.289 161.603 158.089V163.657C161.603 163.817 161.555 163.945 161.459 164.041C161.363 164.153 161.235 164.209 161.075 164.209H159.899ZM164.987 157.945C166.123 157.945 166.947 157.593 167.459 156.889C167.987 156.185 168.275 155.257 168.323 154.105C168.339 153.945 168.347 153.713 168.347 153.409C168.347 150.385 167.227 148.873 164.987 148.873C163.883 148.873 163.051 149.241 162.491 149.977C161.947 150.697 161.651 151.561 161.603 152.569L161.579 153.481L161.603 154.417C161.635 155.361 161.939 156.185 162.515 156.889C163.091 157.593 163.915 157.945 164.987 157.945ZM178.732 159.889C176.972 159.889 175.604 159.393 174.628 158.401C173.668 157.409 173.156 156.089 173.092 154.441L173.068 153.409L173.092 152.377C173.156 150.745 173.676 149.433 174.652 148.441C175.628 147.433 176.988 146.929 178.732 146.929C180.476 146.929 181.836 147.433 182.812 148.441C183.788 149.433 184.308 150.745 184.372 152.377C184.388 152.553 184.396 152.897 184.396 153.409C184.396 153.921 184.388 154.265 184.372 154.441C184.308 156.089 183.788 157.409 182.812 158.401C181.852 159.393 180.492 159.889 178.732 159.889ZM178.732 158.041C179.74 158.041 180.532 157.721 181.108 157.081C181.7 156.441 182.02 155.521 182.068 154.321C182.084 154.161 182.092 153.857 182.092 153.409C182.092 152.961 182.084 152.657 182.068 152.497C182.02 151.297 181.7 150.377 181.108 149.737C180.532 149.097 179.74 148.777 178.732 148.777C177.724 148.777 176.924 149.097 176.332 149.737C175.74 150.377 175.428 151.297 175.396 152.497L175.372 153.409L175.396 154.321C175.428 155.521 175.74 156.441 176.332 157.081C176.924 157.721 177.724 158.041 178.732 158.041ZM191.961 159.889C190.297 159.889 189.041 159.345 188.193 158.257C187.345 157.169 186.897 155.793 186.849 154.129L186.825 153.409L186.849 152.689C186.897 151.041 187.345 149.673 188.193 148.585C189.041 147.481 190.297 146.929 191.961 146.929C193.609 146.929 194.905 147.513 195.849 148.681V143.161C195.849 143.001 195.897 142.873 195.993 142.777C196.105 142.665 196.241 142.609 196.401 142.609H197.553C197.713 142.609 197.841 142.665 197.937 142.777C198.049 142.873 198.105 143.001 198.105 143.161V159.097C198.105 159.257 198.049 159.393 197.937 159.505C197.841 159.601 197.713 159.649 197.553 159.649H196.473C196.313 159.649 196.177 159.601 196.065 159.505C195.969 159.393 195.921 159.257 195.921 159.097V158.089C194.993 159.289 193.673 159.889 191.961 159.889ZM192.465 157.945C193.569 157.945 194.393 157.585 194.937 156.865C195.497 156.129 195.801 155.257 195.849 154.249C195.865 154.073 195.873 153.769 195.873 153.337C195.873 152.889 195.865 152.577 195.849 152.401C195.817 151.457 195.513 150.633 194.937 149.929C194.361 149.225 193.537 148.873 192.465 148.873C191.329 148.873 190.497 149.225 189.969 149.929C189.457 150.633 189.177 151.561 189.129 152.713L189.105 153.409C189.105 156.433 190.225 157.945 192.465 157.945ZM206.666 159.889C205.018 159.889 203.698 159.385 202.706 158.377C201.73 157.353 201.194 155.961 201.098 154.201L201.074 153.385L201.098 152.593C201.21 150.865 201.754 149.489 202.73 148.465C203.722 147.441 205.026 146.929 206.642 146.929C208.418 146.929 209.794 147.497 210.77 148.633C211.746 149.753 212.234 151.273 212.234 153.193V153.601C212.234 153.761 212.178 153.897 212.066 154.009C211.97 154.105 211.842 154.153 211.682 154.153H203.378V154.369C203.426 155.409 203.738 156.297 204.314 157.033C204.906 157.753 205.682 158.113 206.642 158.113C207.378 158.113 207.978 157.969 208.442 157.681C208.922 157.377 209.274 157.065 209.498 156.745C209.642 156.553 209.746 156.441 209.81 156.409C209.89 156.361 210.026 156.337 210.218 156.337H211.394C211.538 156.337 211.658 156.377 211.754 156.457C211.85 156.537 211.898 156.649 211.898 156.793C211.898 157.145 211.674 157.569 211.226 158.065C210.794 158.561 210.178 158.993 209.378 159.361C208.594 159.713 207.69 159.889 206.666 159.889ZM209.954 152.497V152.425C209.954 151.321 209.65 150.425 209.042 149.737C208.45 149.033 207.65 148.681 206.642 148.681C205.634 148.681 204.834 149.033 204.242 149.737C203.666 150.425 203.378 151.321 203.378 152.425V152.497H209.954ZM215.656 159.649C215.496 159.649 215.36 159.601 215.248 159.505C215.152 159.393 215.104 159.257 215.104 159.097V147.721C215.104 147.561 215.152 147.433 215.248 147.337C215.36 147.225 215.496 147.169 215.656 147.169H216.736C216.896 147.169 217.024 147.225 217.12 147.337C217.232 147.433 217.288 147.561 217.288 147.721V148.561C218.12 147.473 219.28 146.929 220.768 146.929C222.544 146.929 223.8 147.665 224.536 149.137C224.92 148.465 225.464 147.929 226.168 147.529C226.872 147.129 227.664 146.929 228.544 146.929C229.856 146.929 230.928 147.377 231.76 148.273C232.592 149.169 233.008 150.465 233.008 152.161V159.097C233.008 159.257 232.952 159.393 232.84 159.505C232.744 159.601 232.616 159.649 232.456 159.649H231.328C231.168 159.649 231.032 159.601 230.92 159.505C230.824 159.393 230.776 159.257 230.776 159.097V152.377C230.776 151.129 230.512 150.233 229.984 149.689C229.472 149.145 228.792 148.873 227.944 148.873C227.192 148.873 226.544 149.153 226 149.713C225.456 150.257 225.184 151.145 225.184 152.377V159.097C225.184 159.257 225.128 159.393 225.016 159.505C224.92 159.601 224.792 159.649 224.632 159.649H223.504C223.344 159.649 223.208 159.601 223.096 159.505C223 159.393 222.952 159.257 222.952 159.097V152.377C222.952 151.129 222.68 150.233 222.136 149.689C221.608 149.145 220.936 148.873 220.12 148.873C219.368 148.873 218.72 149.153 218.176 149.713C217.632 150.257 217.36 151.137 217.36 152.353V159.097C217.36 159.257 217.304 159.393 217.192 159.505C217.096 159.601 216.968 159.649 216.808 159.649H215.656ZM242.915 144.841C242.755 144.841 242.619 144.793 242.507 144.697C242.411 144.585 242.363 144.449 242.363 144.289V142.993C242.363 142.833 242.411 142.697 242.507 142.585C242.619 142.473 242.755 142.417 242.915 142.417H244.451C244.611 142.417 244.747 142.473 244.859 142.585C244.971 142.697 245.027 142.833 245.027 142.993V144.289C245.027 144.449 244.971 144.585 244.859 144.697C244.747 144.793 244.611 144.841 244.451 144.841H242.915ZM240.275 164.209C240.115 164.209 239.987 164.153 239.891 164.041C239.779 163.945 239.723 163.817 239.723 163.657V162.841C239.723 162.681 239.779 162.545 239.891 162.433C239.987 162.337 240.115 162.289 240.275 162.289H240.611C241.395 162.289 241.915 162.089 242.171 161.689C242.427 161.289 242.555 160.697 242.555 159.913V147.721C242.555 147.561 242.603 147.433 242.699 147.337C242.811 147.225 242.947 147.169 243.107 147.169H244.283C244.443 147.169 244.571 147.225 244.667 147.337C244.779 147.433 244.835 147.561 244.835 147.721V159.937C244.835 162.785 243.467 164.209 240.731 164.209H240.275ZM251.889 159.889C251.105 159.889 250.377 159.729 249.705 159.409C249.033 159.089 248.497 158.657 248.097 158.113C247.713 157.553 247.521 156.937 247.521 156.265C247.521 155.209 247.953 154.345 248.817 153.673C249.697 152.985 250.881 152.537 252.369 152.329L255.945 151.825V151.129C255.945 149.497 255.009 148.681 253.137 148.681C252.433 148.681 251.857 148.833 251.409 149.137C250.961 149.425 250.625 149.769 250.401 150.169C250.353 150.313 250.289 150.417 250.209 150.481C250.145 150.545 250.049 150.577 249.921 150.577H248.889C248.745 150.577 248.617 150.529 248.505 150.433C248.409 150.321 248.361 150.193 248.361 150.049C248.377 149.665 248.553 149.233 248.889 148.753C249.241 148.257 249.777 147.833 250.497 147.481C251.217 147.113 252.105 146.929 253.161 146.929C254.953 146.929 256.241 147.353 257.025 148.201C257.809 149.033 258.201 150.073 258.201 151.321V159.097C258.201 159.257 258.145 159.393 258.033 159.505C257.937 159.601 257.809 159.649 257.649 159.649H256.545C256.385 159.649 256.249 159.601 256.137 159.505C256.041 159.393 255.993 159.257 255.993 159.097V158.065C255.641 158.577 255.129 159.009 254.457 159.361C253.785 159.713 252.929 159.889 251.889 159.889ZM252.393 158.089C253.433 158.089 254.281 157.753 254.937 157.081C255.609 156.393 255.945 155.409 255.945 154.129V153.457L253.161 153.865C252.025 154.025 251.169 154.297 250.593 154.681C250.017 155.049 249.729 155.521 249.729 156.097C249.729 156.737 249.993 157.233 250.521 157.585C251.049 157.921 251.673 158.089 252.393 158.089ZM252.129 145.369C251.873 145.369 251.745 145.241 251.745 144.985C251.745 144.857 251.785 144.753 251.865 144.673L253.665 142.513C253.825 142.337 253.953 142.217 254.049 142.153C254.161 142.089 254.329 142.057 254.553 142.057H256.185C256.329 142.057 256.441 142.105 256.521 142.201C256.601 142.281 256.641 142.393 256.641 142.537C256.641 142.649 256.601 142.745 256.521 142.825L253.737 145.105C253.609 145.217 253.489 145.289 253.377 145.321C253.265 145.353 253.121 145.369 252.945 145.369H252.129ZM6.768 187.889C5.12 187.889 3.8 187.385 2.808 186.377C1.832 185.353 1.296 183.961 1.2 182.201L1.176 181.385L1.2 180.593C1.312 178.865 1.856 177.489 2.832 176.465C3.824 175.441 5.128 174.929 6.744 174.929C8.52 174.929 9.896 175.497 10.872 176.633C11.848 177.753 12.336 179.273 12.336 181.193V181.601C12.336 181.761 12.28 181.897 12.168 182.009C12.072 182.105 11.944 182.153 11.784 182.153H3.48V182.369C3.528 183.409 3.84 184.297 4.416 185.033C5.008 185.753 5.784 186.113 6.744 186.113C7.48 186.113 8.08 185.969 8.544 185.681C9.024 185.377 9.376 185.065 9.6 184.745C9.744 184.553 9.848 184.441 9.912 184.409C9.992 184.361 10.128 184.337 10.32 184.337H11.496C11.64 184.337 11.76 184.377 11.856 184.457C11.952 184.537 12 184.649 12 184.793C12 185.145 11.776 185.569 11.328 186.065C10.896 186.561 10.28 186.993 9.48 187.361C8.696 187.713 7.792 187.889 6.768 187.889ZM10.056 180.497V180.425C10.056 179.321 9.752 178.425 9.144 177.737C8.552 177.033 7.752 176.681 6.744 176.681C5.736 176.681 4.936 177.033 4.344 177.737C3.768 178.425 3.48 179.321 3.48 180.425V180.497H10.056ZM14.3719 187.649C14.2439 187.649 14.1239 187.601 14.0119 187.505C13.9159 187.409 13.8679 187.289 13.8679 187.145C13.8679 187.001 13.9239 186.857 14.0359 186.713L18.2119 181.265L14.2999 176.105C14.1879 175.977 14.1319 175.833 14.1319 175.673C14.1319 175.529 14.1799 175.409 14.2759 175.313C14.3719 175.217 14.4919 175.169 14.6359 175.169H15.8599C16.0999 175.169 16.3079 175.297 16.4839 175.553L19.6759 179.705L22.8679 175.577C22.9639 175.449 23.0519 175.353 23.1319 175.289C23.2279 175.209 23.3479 175.169 23.4919 175.169H24.6679C24.8119 175.169 24.9319 175.217 25.0279 175.313C25.1239 175.409 25.1719 175.529 25.1719 175.673C25.1719 175.833 25.1159 175.977 25.0039 176.105L21.0439 181.313L25.2199 186.713C25.3319 186.857 25.3879 187.001 25.3879 187.145C25.3879 187.289 25.3399 187.409 25.2439 187.505C25.1479 187.601 25.0279 187.649 24.8839 187.649H23.6119C23.3719 187.649 23.1639 187.529 22.9879 187.289L19.6279 182.897L16.2199 187.289C16.1239 187.401 16.0279 187.489 15.9319 187.553C15.8519 187.617 15.7399 187.649 15.5959 187.649H14.3719ZM28.2454 172.841C28.0854 172.841 27.9494 172.793 27.8374 172.697C27.7414 172.585 27.6934 172.449 27.6934 172.289V170.993C27.6934 170.833 27.7414 170.697 27.8374 170.585C27.9494 170.473 28.0854 170.417 28.2454 170.417H29.7574C29.9174 170.417 30.0534 170.473 30.1654 170.585C30.2774 170.697 30.3334 170.833 30.3334 170.993V172.289C30.3334 172.449 30.2774 172.585 30.1654 172.697C30.0534 172.793 29.9174 172.841 29.7574 172.841H28.2454ZM28.4374 187.649C28.2774 187.649 28.1414 187.601 28.0294 187.505C27.9334 187.393 27.8854 187.257 27.8854 187.097V175.721C27.8854 175.561 27.9334 175.433 28.0294 175.337C28.1414 175.225 28.2774 175.169 28.4374 175.169H29.5894C29.7494 175.169 29.8774 175.225 29.9734 175.337C30.0854 175.433 30.1414 175.561 30.1414 175.721V187.097C30.1414 187.257 30.0854 187.393 29.9734 187.505C29.8774 187.601 29.7494 187.649 29.5894 187.649H28.4374ZM38.0179 187.889C36.8979 187.889 35.9539 187.713 35.1859 187.361C34.4339 186.993 33.8659 186.577 33.4819 186.113C33.1139 185.649 32.9299 185.265 32.9299 184.961C32.9299 184.801 32.9859 184.681 33.0979 184.601C33.2259 184.505 33.3539 184.457 33.4819 184.457H34.5619C34.7219 184.457 34.8659 184.537 34.9939 184.697C35.3779 185.145 35.7939 185.497 36.2419 185.753C36.6899 186.009 37.2899 186.137 38.0419 186.137C38.8739 186.137 39.5459 185.977 40.0579 185.657C40.5859 185.321 40.8499 184.865 40.8499 184.289C40.8499 183.905 40.7379 183.593 40.5139 183.353C40.3059 183.097 39.9379 182.881 39.4099 182.705C38.8979 182.513 38.1299 182.305 37.1059 182.081C35.7139 181.777 34.7219 181.337 34.1299 180.761C33.5539 180.185 33.2659 179.441 33.2659 178.529C33.2659 177.921 33.4419 177.345 33.7939 176.801C34.1619 176.241 34.6899 175.793 35.3779 175.457C36.0819 175.105 36.9219 174.929 37.8979 174.929C38.9219 174.929 39.7939 175.097 40.5139 175.433C41.2339 175.769 41.7699 176.169 42.1219 176.633C42.4899 177.081 42.6739 177.457 42.6739 177.761C42.6739 177.905 42.6179 178.025 42.5059 178.121C42.4099 178.217 42.2899 178.265 42.1459 178.265H41.1379C40.9459 178.265 40.7859 178.185 40.6579 178.025C40.4019 177.721 40.1779 177.489 39.9859 177.329C39.8099 177.153 39.5459 177.001 39.1939 176.873C38.8579 176.745 38.4259 176.681 37.8979 176.681C37.1299 176.681 36.5379 176.849 36.1219 177.185C35.7059 177.505 35.4979 177.929 35.4979 178.457C35.4979 178.793 35.5859 179.081 35.7619 179.321C35.9379 179.545 36.2739 179.753 36.7699 179.945C37.2819 180.137 38.0179 180.337 38.9779 180.545C40.4979 180.865 41.5699 181.329 42.1939 181.937C42.8339 182.529 43.1539 183.289 43.1539 184.217C43.1539 184.905 42.9539 185.529 42.5539 186.089C42.1539 186.649 41.5619 187.089 40.7779 187.409C40.0099 187.729 39.0899 187.889 38.0179 187.889ZM50.7808 187.649C48.2528 187.649 46.9888 186.241 46.9888 183.425V177.089H45.1168C44.9568 177.089 44.8208 177.041 44.7088 176.945C44.6128 176.833 44.5648 176.697 44.5648 176.537V175.721C44.5648 175.561 44.6128 175.433 44.7088 175.337C44.8208 175.225 44.9568 175.169 45.1168 175.169H46.9888V171.161C46.9888 171.001 47.0368 170.873 47.1328 170.777C47.2448 170.665 47.3808 170.609 47.5408 170.609H48.6688C48.8288 170.609 48.9568 170.665 49.0528 170.777C49.1648 170.873 49.2208 171.001 49.2208 171.161V175.169H52.1968C52.3568 175.169 52.4848 175.225 52.5808 175.337C52.6928 175.433 52.7488 175.561 52.7488 175.721V176.537C52.7488 176.697 52.6928 176.833 52.5808 176.945C52.4848 177.041 52.3568 177.089 52.1968 177.089H49.2208V183.257C49.2208 184.057 49.3568 184.665 49.6288 185.081C49.9008 185.481 50.3488 185.681 50.9728 185.681H52.4368C52.5968 185.681 52.7248 185.737 52.8208 185.849C52.9328 185.945 52.9888 186.073 52.9888 186.233V187.097C52.9888 187.257 52.9328 187.393 52.8208 187.505C52.7248 187.601 52.5968 187.649 52.4368 187.649H50.7808ZM55.6438 172.841C55.4838 172.841 55.3478 172.793 55.2358 172.697C55.1398 172.585 55.0918 172.449 55.0918 172.289V170.993C55.0918 170.833 55.1398 170.697 55.2358 170.585C55.3478 170.473 55.4838 170.417 55.6438 170.417H57.1558C57.3158 170.417 57.4518 170.473 57.5638 170.585C57.6758 170.697 57.7318 170.833 57.7318 170.993V172.289C57.7318 172.449 57.6758 172.585 57.5638 172.697C57.4518 172.793 57.3158 172.841 57.1558 172.841H55.6438ZM55.8358 187.649C55.6758 187.649 55.5398 187.601 55.4278 187.505C55.3318 187.393 55.2838 187.257 55.2838 187.097V175.721C55.2838 175.561 55.3318 175.433 55.4278 175.337C55.5398 175.225 55.6758 175.169 55.8358 175.169H56.9878C57.1478 175.169 57.2758 175.225 57.3718 175.337C57.4838 175.433 57.5398 175.561 57.5398 175.721V187.097C57.5398 187.257 57.4838 187.393 57.3718 187.505C57.2758 187.601 57.1478 187.649 56.9878 187.649H55.8358ZM61.6483 187.649C61.4883 187.649 61.3523 187.601 61.2403 187.505C61.1443 187.393 61.0963 187.257 61.0963 187.097V175.745C61.0963 175.585 61.1443 175.449 61.2403 175.337C61.3523 175.225 61.4883 175.169 61.6483 175.169H62.7523C62.9123 175.169 63.0483 175.225 63.1603 175.337C63.2723 175.449 63.3283 175.585 63.3283 175.745V176.801C63.9843 175.713 65.1043 175.169 66.6883 175.169H67.6243C67.7843 175.169 67.9123 175.225 68.0083 175.337C68.1203 175.433 68.1763 175.561 68.1763 175.721V176.705C68.1763 176.865 68.1203 176.993 68.0083 177.089C67.9123 177.185 67.7843 177.233 67.6243 177.233H66.1843C65.3203 177.233 64.6403 177.489 64.1443 178.001C63.6483 178.497 63.4003 179.177 63.4003 180.041V187.097C63.4003 187.257 63.3443 187.393 63.2323 187.505C63.1203 187.601 62.9843 187.649 62.8243 187.649H61.6483ZM69.3084 187.649C69.1484 187.649 69.0124 187.601 68.9004 187.505C68.8044 187.393 68.7564 187.257 68.7564 187.097V185.369C68.7564 185.209 68.8044 185.081 68.9004 184.985C69.0124 184.873 69.1484 184.817 69.3084 184.817H71.0364C71.1964 184.817 71.3324 184.873 71.4444 184.985C71.5564 185.081 71.6124 185.209 71.6124 185.369V187.097C71.6124 187.257 71.5564 187.393 71.4444 187.505C71.3324 187.601 71.1964 187.649 71.0364 187.649H69.3084Z" fill="#2E2B2B"/>
<path d="M66.9426 159.889C65.3266 159.889 64.0866 159.369 63.2226 158.329C62.3586 157.289 61.8946 155.905 61.8306 154.177L61.8066 153.385L61.8306 152.617C61.8786 150.937 62.3346 149.569 63.1986 148.513C64.0786 147.457 65.3266 146.929 66.9426 146.929C68.4946 146.929 69.7266 147.457 70.6386 148.513V143.185C70.6386 143.009 70.6946 142.873 70.8066 142.777C70.9186 142.665 71.0546 142.609 71.2146 142.609H73.2546C73.4306 142.609 73.5666 142.665 73.6626 142.777C73.7746 142.873 73.8306 143.009 73.8306 143.185V159.073C73.8306 159.233 73.7746 159.369 73.6626 159.481C73.5666 159.593 73.4306 159.649 73.2546 159.649H71.3586C71.1986 159.649 71.0626 159.593 70.9506 159.481C70.8386 159.369 70.7826 159.233 70.7826 159.073V158.185C69.8706 159.321 68.5906 159.889 66.9426 159.889ZM67.8306 157.321C68.7586 157.321 69.4466 157.025 69.8946 156.433C70.3426 155.841 70.5906 155.113 70.6386 154.249C70.6546 154.057 70.6626 153.745 70.6626 153.313C70.6626 152.897 70.6546 152.593 70.6386 152.401C70.6066 151.601 70.3506 150.921 69.8706 150.361C69.4066 149.785 68.7266 149.497 67.8306 149.497C66.1026 149.497 65.1826 150.561 65.0706 152.689L65.0466 153.409L65.0706 154.129C65.1826 156.257 66.1026 157.321 67.8306 157.321ZM81.6613 159.889C80.1893 159.889 79.0293 159.409 78.1813 158.449C77.3333 157.473 76.9093 156.153 76.9093 154.489V147.745C76.9093 147.585 76.9653 147.449 77.0773 147.337C77.1893 147.225 77.3253 147.169 77.4853 147.169H79.5973C79.7733 147.169 79.9093 147.225 80.0053 147.337C80.1173 147.433 80.1733 147.569 80.1733 147.745V154.345C80.1733 156.329 81.0453 157.321 82.7893 157.321C83.6213 157.321 84.2773 157.057 84.7573 156.529C85.2533 156.001 85.5013 155.273 85.5013 154.345V147.745C85.5013 147.585 85.5573 147.449 85.6693 147.337C85.7813 147.225 85.9173 147.169 86.0773 147.169H88.1893C88.3653 147.169 88.5013 147.225 88.5973 147.337C88.7093 147.433 88.7653 147.569 88.7653 147.745V159.073C88.7653 159.233 88.7093 159.369 88.5973 159.481C88.5013 159.593 88.3653 159.649 88.1893 159.649H86.2453C86.0853 159.649 85.9493 159.593 85.8373 159.481C85.7253 159.369 85.6693 159.233 85.6693 159.073V158.089C84.7733 159.289 83.4373 159.889 81.6613 159.889ZM81.7813 145.369C81.5253 145.369 81.3973 145.241 81.3973 144.985C81.3973 144.857 81.4373 144.753 81.5173 144.673L83.4613 142.297C83.6213 142.121 83.7573 142.009 83.8693 141.961C83.9973 141.897 84.1573 141.865 84.3493 141.865H86.7493C87.0533 141.865 87.2053 142.017 87.2053 142.321C87.2053 142.433 87.1653 142.529 87.0853 142.609L84.1093 145.057C83.9653 145.169 83.8293 145.249 83.7013 145.297C83.5893 145.345 83.4373 145.369 83.2453 145.369H81.7813ZM96.3516 159.649C96.1116 159.649 95.9276 159.601 95.7996 159.505C95.6716 159.393 95.5676 159.241 95.4876 159.049L90.9996 147.913L90.9516 147.697C90.9516 147.553 90.9996 147.433 91.0956 147.337C91.2076 147.225 91.3356 147.169 91.4796 147.169H93.4236C93.7276 147.169 93.9356 147.321 94.0476 147.625L97.2396 156.049L100.432 147.625C100.48 147.513 100.552 147.409 100.648 147.313C100.76 147.217 100.896 147.169 101.056 147.169H103.024C103.152 147.169 103.264 147.225 103.36 147.337C103.472 147.433 103.528 147.553 103.528 147.697C103.528 147.793 103.52 147.865 103.504 147.913L98.9916 159.049C98.9116 159.241 98.8076 159.393 98.6796 159.505C98.5516 159.601 98.3676 159.649 98.1276 159.649H96.3516ZM106.197 145.105C106.037 145.105 105.901 145.049 105.789 144.937C105.677 144.825 105.621 144.689 105.621 144.529V142.801C105.621 142.641 105.677 142.505 105.789 142.393C105.901 142.281 106.037 142.225 106.197 142.225H108.381C108.541 142.225 108.677 142.281 108.789 142.393C108.917 142.505 108.981 142.641 108.981 142.801V144.529C108.981 144.689 108.925 144.825 108.813 144.937C108.701 145.049 108.557 145.105 108.381 145.105H106.197ZM106.293 159.649C106.133 159.649 105.997 159.593 105.885 159.481C105.773 159.369 105.717 159.233 105.717 159.073V147.745C105.717 147.585 105.773 147.449 105.885 147.337C105.997 147.225 106.133 147.169 106.293 147.169H108.285C108.461 147.169 108.597 147.225 108.693 147.337C108.805 147.433 108.861 147.569 108.861 147.745V159.073C108.861 159.233 108.805 159.369 108.693 159.481C108.597 159.593 108.461 159.649 108.285 159.649H106.293ZM116.677 159.889C115.061 159.889 113.821 159.369 112.957 158.329C112.093 157.289 111.629 155.905 111.565 154.177L111.541 153.385L111.565 152.617C111.613 150.937 112.069 149.569 112.933 148.513C113.813 147.457 115.061 146.929 116.677 146.929C118.229 146.929 119.461 147.457 120.373 148.513V143.185C120.373 143.009 120.429 142.873 120.541 142.777C120.653 142.665 120.789 142.609 120.949 142.609H122.989C123.165 142.609 123.301 142.665 123.397 142.777C123.509 142.873 123.565 143.009 123.565 143.185V159.073C123.565 159.233 123.509 159.369 123.397 159.481C123.301 159.593 123.165 159.649 122.989 159.649H121.093C120.933 159.649 120.797 159.593 120.685 159.481C120.573 159.369 120.517 159.233 120.517 159.073V158.185C119.605 159.321 118.325 159.889 116.677 159.889ZM117.565 157.321C118.493 157.321 119.181 157.025 119.629 156.433C120.077 155.841 120.325 155.113 120.373 154.249C120.389 154.057 120.397 153.745 120.397 153.313C120.397 152.897 120.389 152.593 120.373 152.401C120.341 151.601 120.085 150.921 119.605 150.361C119.141 149.785 118.461 149.497 117.565 149.497C115.837 149.497 114.917 150.561 114.805 152.689L114.781 153.409L114.805 154.129C114.917 156.257 115.837 157.321 117.565 157.321ZM130.388 159.889C129.572 159.889 128.82 159.729 128.132 159.409C127.46 159.073 126.924 158.625 126.524 158.065C126.14 157.505 125.948 156.889 125.948 156.217C125.948 155.129 126.388 154.249 127.268 153.577C128.148 152.905 129.356 152.449 130.892 152.209L134.18 151.729V151.225C134.18 150.521 134.004 149.993 133.652 149.641C133.3 149.289 132.732 149.113 131.948 149.113C131.42 149.113 130.988 149.217 130.652 149.425C130.332 149.617 130.076 149.809 129.884 150.001C129.692 150.209 129.564 150.345 129.5 150.409C129.436 150.601 129.316 150.697 129.14 150.697H127.292C127.148 150.697 127.02 150.649 126.908 150.553C126.812 150.457 126.764 150.329 126.764 150.169C126.78 149.769 126.972 149.313 127.34 148.801C127.724 148.289 128.308 147.849 129.092 147.481C129.876 147.113 130.836 146.929 131.972 146.929C133.86 146.929 135.236 147.353 136.1 148.201C136.964 149.049 137.396 150.161 137.396 151.537V159.073C137.396 159.233 137.34 159.369 137.228 159.481C137.132 159.593 136.996 159.649 136.82 159.649H134.876C134.716 159.649 134.58 159.593 134.468 159.481C134.356 159.369 134.3 159.233 134.3 159.073V158.137C133.948 158.649 133.444 159.073 132.788 159.409C132.148 159.729 131.348 159.889 130.388 159.889ZM131.204 157.609C132.084 157.609 132.804 157.321 133.364 156.745C133.924 156.169 134.204 155.329 134.204 154.225V153.721L131.804 154.105C130.876 154.249 130.172 154.481 129.692 154.801C129.228 155.121 128.996 155.513 128.996 155.977C128.996 156.489 129.212 156.889 129.644 157.177C130.076 157.465 130.596 157.609 131.204 157.609ZM145.203 159.889C144.003 159.889 142.995 159.713 142.179 159.361C141.363 158.993 140.755 158.569 140.355 158.089C139.971 157.593 139.779 157.169 139.779 156.817C139.779 156.657 139.835 156.529 139.947 156.433C140.059 156.337 140.187 156.289 140.331 156.289H142.227C142.371 156.289 142.491 156.345 142.587 156.457C142.651 156.505 142.819 156.649 143.091 156.889C143.363 157.145 143.683 157.345 144.051 157.489C144.419 157.633 144.827 157.705 145.275 157.705C145.915 157.705 146.443 157.577 146.859 157.321C147.275 157.065 147.483 156.713 147.483 156.265C147.483 155.929 147.387 155.657 147.195 155.449C147.019 155.241 146.691 155.057 146.211 154.897C145.731 154.721 145.019 154.537 144.075 154.345C142.715 154.057 141.707 153.617 141.051 153.025C140.411 152.433 140.091 151.649 140.091 150.673C140.091 150.033 140.283 149.433 140.667 148.873C141.051 148.297 141.619 147.833 142.371 147.481C143.139 147.113 144.051 146.929 145.107 146.929C146.179 146.929 147.107 147.105 147.891 147.457C148.675 147.793 149.267 148.201 149.667 148.681C150.083 149.145 150.291 149.561 150.291 149.929C150.291 150.073 150.235 150.201 150.123 150.313C150.027 150.409 149.907 150.457 149.763 150.457H147.987C147.859 150.457 147.723 150.401 147.579 150.289C147.467 150.209 147.291 150.057 147.051 149.833C146.811 149.609 146.531 149.433 146.211 149.305C145.891 149.177 145.515 149.113 145.083 149.113C144.491 149.113 144.027 149.241 143.691 149.497C143.371 149.753 143.211 150.089 143.211 150.505C143.211 150.809 143.291 151.057 143.451 151.249C143.611 151.441 143.923 151.625 144.387 151.801C144.851 151.977 145.547 152.153 146.475 152.329C148.011 152.633 149.107 153.105 149.763 153.745C150.435 154.385 150.771 155.169 150.771 156.097C150.771 157.217 150.283 158.129 149.307 158.833C148.331 159.537 146.963 159.889 145.203 159.889Z" fill="#DA0E16"/>
<path d="M4.56 58C4.24 58 3.952 57.888 3.696 57.664C3.472 57.408 3.36 57.12 3.36 56.8V25.6C3.36 25.248 3.472 24.96 3.696 24.736C3.952 24.512 4.24 24.4 4.56 24.4H18C22.096 24.4 25.312 25.344 27.648 27.232C30.016 29.12 31.2 31.872 31.2 35.488C31.2 39.072 30.032 41.776 27.696 43.6C25.36 45.392 22.128 46.288 18 46.288H12.288V56.8C12.288 57.152 12.16 57.44 11.904 57.664C11.68 57.888 11.392 58 11.04 58H4.56ZM17.76 39.664C19.168 39.664 20.272 39.312 21.072 38.608C21.872 37.872 22.272 36.8 22.272 35.392C22.272 34.08 21.888 33.04 21.12 32.272C20.384 31.472 19.264 31.072 17.76 31.072H12.144V39.664H17.76ZM46.5083 58.48C42.6683 58.48 39.6443 57.44 37.4363 55.36C35.2283 53.28 34.0763 50.256 33.9803 46.288V44.608C34.1083 40.832 35.2763 37.888 37.4843 35.776C39.7243 33.632 42.7163 32.56 46.4603 32.56C49.1803 32.56 51.4683 33.12 53.3243 34.24C55.2123 35.328 56.6203 36.832 57.5483 38.752C58.5083 40.672 58.9883 42.88 58.9883 45.376V46.528C58.9883 46.848 58.8763 47.136 58.6523 47.392C58.4283 47.616 58.1403 47.728 57.7883 47.728H42.4283V48.064C42.4923 49.568 42.8603 50.784 43.5323 51.712C44.2043 52.64 45.1803 53.104 46.4603 53.104C47.2603 53.104 47.9163 52.944 48.4283 52.624C48.9403 52.272 49.4043 51.856 49.8203 51.376C50.1083 51.024 50.3323 50.816 50.4923 50.752C50.6843 50.656 50.9723 50.608 51.3563 50.608H57.3083C57.5963 50.608 57.8363 50.704 58.0283 50.896C58.2523 51.056 58.3643 51.28 58.3643 51.568C58.3643 52.4 57.8843 53.36 56.9243 54.448C55.9963 55.536 54.6363 56.48 52.8443 57.28C51.0523 58.08 48.9403 58.48 46.5083 58.48ZM50.5403 42.976V42.88C50.5403 41.312 50.1723 40.08 49.4363 39.184C48.7323 38.256 47.7403 37.792 46.4603 37.792C45.2123 37.792 44.2203 38.256 43.4843 39.184C42.7803 40.08 42.4283 41.312 42.4283 42.88V42.976H50.5403ZM64.6883 58C64.3363 58 64.0483 57.888 63.8242 57.664C63.6003 57.44 63.4883 57.152 63.4883 56.8V34.24C63.4883 33.888 63.6003 33.6 63.8242 33.376C64.0483 33.152 64.3363 33.04 64.6883 33.04H70.2083C70.5603 33.04 70.8483 33.168 71.0723 33.424C71.3283 33.648 71.4563 33.92 71.4563 34.24V36.16C73.2163 34.08 75.5843 33.04 78.5603 33.04H80.6723C81.0243 33.04 81.3123 33.152 81.5363 33.376C81.7603 33.6 81.8723 33.888 81.8723 34.24V39.184C81.8723 39.504 81.7603 39.792 81.5363 40.048C81.3123 40.272 81.0243 40.384 80.6723 40.384H76.0163C74.7043 40.384 73.6803 40.752 72.9443 41.488C72.2403 42.192 71.8883 43.2 71.8883 44.512V56.8C71.8883 57.152 71.7603 57.44 71.5043 57.664C71.2803 57.888 70.9923 58 70.6403 58H64.6883ZM97.2908 68.56C94.2508 68.56 91.7868 68.064 89.8988 67.072C88.0108 66.08 86.6508 64.944 85.8188 63.664C85.0188 62.384 84.6188 61.312 84.6188 60.448C84.6188 60.16 84.7468 59.904 85.0028 59.68C85.2588 59.456 85.5468 59.344 85.8668 59.344H91.9628C92.2828 59.344 92.5228 59.408 92.6828 59.536C92.8748 59.696 93.0508 59.952 93.2108 60.304C93.5308 61.04 93.9628 61.616 94.5068 62.032C95.0508 62.48 95.8988 62.704 97.0508 62.704C98.5228 62.704 99.6108 62.336 100.315 61.6C101.019 60.896 101.371 59.696 101.371 58V54.784C99.7388 56.576 97.4028 57.472 94.3628 57.472C91.1308 57.472 88.6508 56.528 86.9228 54.64C85.2268 52.72 84.2988 49.952 84.1388 46.336L84.0908 45.04C84.0908 41.168 84.9548 38.128 86.6828 35.92C88.4108 33.68 90.9708 32.56 94.3628 32.56C95.9948 32.56 97.4348 32.88 98.6828 33.52C99.9308 34.128 100.987 34.96 101.851 36.016V34.24C101.851 33.888 101.963 33.6 102.187 33.376C102.443 33.152 102.731 33.04 103.051 33.04H108.571C108.923 33.04 109.211 33.168 109.435 33.424C109.691 33.648 109.819 33.92 109.819 34.24V57.328C109.819 60.976 108.731 63.76 106.555 65.68C104.379 67.6 101.291 68.56 97.2908 68.56ZM96.9548 51.232C98.3948 51.232 99.4668 50.8 100.171 49.936C100.875 49.04 101.275 47.92 101.371 46.576C101.403 46.352 101.419 45.856 101.419 45.088C101.419 44.352 101.403 43.872 101.371 43.648C101.307 42.304 100.907 41.2 100.171 40.336C99.4668 39.44 98.3948 38.992 96.9548 38.992C95.4508 38.992 94.3628 39.44 93.6908 40.336C93.0188 41.232 92.6508 42.464 92.5868 44.032L92.5388 45.088C92.5388 46.976 92.8588 48.48 93.4988 49.6C94.1388 50.688 95.2908 51.232 96.9548 51.232ZM124.641 58.48C121.825 58.48 119.553 57.536 117.825 55.648C116.097 53.728 115.233 51.056 115.233 47.632V34.24C115.233 33.888 115.345 33.6 115.569 33.376C115.793 33.152 116.081 33.04 116.433 33.04H122.433C122.785 33.04 123.073 33.152 123.297 33.376C123.553 33.6 123.681 33.888 123.681 34.24V47.344C123.681 50.48 125.073 52.048 127.857 52.048C129.201 52.048 130.257 51.632 131.025 50.8C131.793 49.968 132.177 48.816 132.177 47.344V34.24C132.177 33.888 132.289 33.6 132.513 33.376C132.769 33.152 133.057 33.04 133.377 33.04H139.377C139.729 33.04 140.017 33.152 140.241 33.376C140.465 33.6 140.577 33.888 140.577 34.24V56.8C140.577 57.12 140.465 57.408 140.241 57.664C140.017 57.888 139.729 58 139.377 58H133.809C133.489 58 133.201 57.888 132.945 57.664C132.721 57.408 132.609 57.12 132.609 56.8V54.976C130.945 57.312 128.289 58.48 124.641 58.48ZM147.423 58C147.071 58 146.783 57.888 146.559 57.664C146.335 57.44 146.223 57.152 146.223 56.8V34.24C146.223 33.888 146.335 33.6 146.559 33.376C146.783 33.152 147.071 33.04 147.423 33.04H152.943C153.295 33.04 153.583 33.152 153.807 33.376C154.063 33.6 154.191 33.888 154.191 34.24V36.064C155.055 35.008 156.159 34.16 157.503 33.52C158.879 32.88 160.431 32.56 162.159 32.56C164.975 32.56 167.263 33.52 169.023 35.44C170.783 37.328 171.663 39.984 171.663 43.408V56.8C171.663 57.12 171.551 57.408 171.327 57.664C171.103 57.888 170.815 58 170.463 58H164.415C164.095 58 163.807 57.888 163.551 57.664C163.327 57.408 163.215 57.12 163.215 56.8V43.696C163.215 42.192 162.847 41.04 162.111 40.24C161.375 39.408 160.319 38.992 158.943 38.992C157.599 38.992 156.543 39.408 155.775 40.24C155.007 41.04 154.623 42.192 154.623 43.696V56.8C154.623 57.12 154.511 57.408 154.287 57.664C154.063 57.888 153.775 58 153.423 58H147.423ZM189.553 58C182.929 58 179.617 54.848 179.617 48.544V39.328H175.873C175.521 39.328 175.217 39.216 174.961 38.992C174.737 38.768 174.625 38.48 174.625 38.128V34.24C174.625 33.888 174.737 33.6 174.961 33.376C175.217 33.152 175.521 33.04 175.873 33.04H179.617V25.12C179.617 24.768 179.729 24.48 179.953 24.256C180.209 24.032 180.497 23.92 180.817 23.92H186.385C186.737 23.92 187.025 24.032 187.249 24.256C187.473 24.48 187.585 24.768 187.585 25.12V33.04H193.585C193.937 33.04 194.225 33.152 194.449 33.376C194.705 33.6 194.833 33.888 194.833 34.24V38.128C194.833 38.48 194.705 38.768 194.449 38.992C194.225 39.216 193.937 39.328 193.585 39.328H187.585V47.872C187.585 50.24 188.497 51.424 190.321 51.424H194.017C194.369 51.424 194.657 51.536 194.881 51.76C195.105 51.984 195.217 52.272 195.217 52.624V56.8C195.217 57.12 195.105 57.408 194.881 57.664C194.657 57.888 194.369 58 194.017 58H189.553ZM206.679 58.48C204.983 58.48 203.431 58.16 202.023 57.52C200.647 56.848 199.559 55.952 198.759 54.832C197.991 53.68 197.607 52.416 197.607 51.04C197.607 48.832 198.503 47.056 200.295 45.712C202.119 44.368 204.615 43.44 207.783 42.928L213.783 42.016V41.344C213.783 40.128 213.527 39.232 213.015 38.656C212.503 38.08 211.639 37.792 210.423 37.792C209.687 37.792 209.079 37.92 208.599 38.176C208.119 38.432 207.623 38.784 207.111 39.232C206.663 39.616 206.327 39.872 206.103 40C206.007 40.256 205.831 40.384 205.575 40.384H200.343C200.023 40.384 199.751 40.288 199.527 40.096C199.335 39.872 199.255 39.616 199.287 39.328C199.319 38.464 199.735 37.504 200.535 36.448C201.367 35.392 202.615 34.48 204.279 33.712C205.975 32.944 208.055 32.56 210.519 32.56C214.455 32.56 217.367 33.44 219.255 35.2C221.143 36.928 222.087 39.264 222.087 42.208V56.8C222.087 57.12 221.975 57.408 221.751 57.664C221.527 57.888 221.239 58 220.887 58H215.319C214.999 58 214.711 57.888 214.455 57.664C214.231 57.408 214.119 57.12 214.119 56.8V55.12C213.415 56.112 212.423 56.928 211.143 57.568C209.895 58.176 208.407 58.48 206.679 58.48ZM208.935 53.008C210.407 53.008 211.591 52.528 212.487 51.568C213.415 50.608 213.879 49.2 213.879 47.344V46.672L209.799 47.392C206.919 47.904 205.479 48.912 205.479 50.416C205.479 51.216 205.815 51.856 206.487 52.336C207.159 52.784 207.975 53.008 208.935 53.008ZM237.776 58.48C235.184 58.48 233.008 58.112 231.248 57.376C229.52 56.64 228.24 55.76 227.408 54.736C226.576 53.712 226.16 52.8 226.16 52C226.16 51.68 226.272 51.424 226.496 51.232C226.752 51.008 227.024 50.896 227.312 50.896H232.784C232.976 50.896 233.152 50.976 233.312 51.136C233.696 51.392 233.984 51.6 234.176 51.76C234.88 52.272 235.488 52.656 236 52.912C236.544 53.136 237.2 53.248 237.968 53.248C238.896 53.248 239.648 53.072 240.224 52.72C240.832 52.336 241.136 51.808 241.136 51.136C241.136 50.592 240.976 50.16 240.656 49.84C240.368 49.52 239.792 49.216 238.928 48.928C238.064 48.608 236.752 48.272 234.992 47.92C232.336 47.376 230.288 46.496 228.848 45.28C227.44 44.032 226.736 42.368 226.736 40.288C226.736 38.976 227.152 37.728 227.984 36.544C228.816 35.36 230.048 34.4 231.68 33.664C233.344 32.928 235.312 32.56 237.584 32.56C239.856 32.56 241.84 32.912 243.536 33.616C245.232 34.32 246.512 35.184 247.376 36.208C248.272 37.2 248.72 38.112 248.72 38.944C248.72 39.232 248.608 39.488 248.384 39.712C248.192 39.936 247.952 40.048 247.664 40.048H242.672C242.416 40.048 242.176 39.968 241.952 39.808C241.536 39.584 241.168 39.344 240.848 39.088C240.304 38.672 239.792 38.352 239.312 38.128C238.832 37.904 238.24 37.792 237.536 37.792C236.704 37.792 236.032 37.984 235.52 38.368C235.04 38.752 234.8 39.248 234.8 39.856C234.8 40.336 234.928 40.736 235.184 41.056C235.472 41.376 236.048 41.696 236.912 42.016C237.808 42.304 239.12 42.608 240.848 42.928C243.952 43.472 246.208 44.432 247.616 45.808C249.056 47.184 249.776 48.8 249.776 50.656C249.776 53.024 248.72 54.928 246.608 56.368C244.496 57.776 241.552 58.48 237.776 58.48ZM6.864 115C6.544 115 6.256 114.888 6 114.664C5.776 114.408 5.664 114.12 5.664 113.8V96.328H2.016C1.664 96.328 1.376 96.216 1.152 95.992C0.928 95.768 0.816 95.48 0.816 95.128V91.24C0.816 90.888 0.928 90.6 1.152 90.376C1.376 90.152 1.664 90.04 2.016 90.04H5.664V88.504C5.664 85.336 6.56 83.048 8.352 81.64C10.176 80.2 12.784 79.48 16.176 79.48H19.92C20.272 79.48 20.56 79.592 20.784 79.816C21.008 80.04 21.12 80.328 21.12 80.68V84.568C21.12 84.888 21.008 85.176 20.784 85.432C20.56 85.656 20.272 85.768 19.92 85.768H16.56C15.504 85.768 14.752 86.024 14.304 86.536C13.856 87.016 13.632 87.752 13.632 88.744V90.04H19.44C19.792 90.04 20.08 90.152 20.304 90.376C20.528 90.6 20.64 90.888 20.64 91.24V95.128C20.64 95.448 20.528 95.736 20.304 95.992C20.08 96.216 19.792 96.328 19.44 96.328H13.632V113.8C13.632 114.12 13.52 114.408 13.296 114.664C13.072 114.888 12.784 115 12.432 115H6.864ZM25.3133 115C24.9613 115 24.6733 114.888 24.4492 114.664C24.2253 114.44 24.1133 114.152 24.1133 113.8V91.24C24.1133 90.888 24.2253 90.6 24.4492 90.376C24.6733 90.152 24.9613 90.04 25.3133 90.04H30.8333C31.1853 90.04 31.4733 90.168 31.6973 90.424C31.9533 90.648 32.0813 90.92 32.0813 91.24V93.16C33.8413 91.08 36.2093 90.04 39.1853 90.04H41.2973C41.6493 90.04 41.9373 90.152 42.1613 90.376C42.3853 90.6 42.4973 90.888 42.4973 91.24V96.184C42.4973 96.504 42.3853 96.792 42.1613 97.048C41.9373 97.272 41.6493 97.384 41.2973 97.384H36.6413C35.3293 97.384 34.3053 97.752 33.5693 98.488C32.8653 99.192 32.5133 100.2 32.5133 101.512V113.8C32.5133 114.152 32.3853 114.44 32.1293 114.664C31.9053 114.888 31.6173 115 31.2653 115H25.3133ZM57.1958 115.48C53.3558 115.48 50.3318 114.44 48.1238 112.36C45.9158 110.28 44.7638 107.256 44.6678 103.288V101.608C44.7958 97.832 45.9638 94.888 48.1718 92.776C50.4118 90.632 53.4038 89.56 57.1478 89.56C59.8678 89.56 62.1558 90.12 64.0118 91.24C65.8998 92.328 67.3078 93.832 68.2358 95.752C69.1958 97.672 69.6758 99.88 69.6758 102.376V103.528C69.6758 103.848 69.5638 104.136 69.3398 104.392C69.1158 104.616 68.8278 104.728 68.4758 104.728H53.1158V105.064C53.1798 106.568 53.5478 107.784 54.2198 108.712C54.8918 109.64 55.8678 110.104 57.1478 110.104C57.9478 110.104 58.6038 109.944 59.1158 109.624C59.6278 109.272 60.0918 108.856 60.5078 108.376C60.7958 108.024 61.0198 107.816 61.1798 107.752C61.3718 107.656 61.6598 107.608 62.0438 107.608H67.9958C68.2838 107.608 68.5238 107.704 68.7158 107.896C68.9398 108.056 69.0518 108.28 69.0518 108.568C69.0518 109.4 68.5718 110.36 67.6118 111.448C66.6838 112.536 65.3238 113.48 63.5318 114.28C61.7398 115.08 59.6278 115.48 57.1958 115.48ZM61.2278 99.976V99.88C61.2278 98.312 60.8598 97.08 60.1238 96.184C59.4198 95.256 58.4278 94.792 57.1478 94.792C55.8998 94.792 54.9078 95.256 54.1718 96.184C53.4678 97.08 53.1158 98.312 53.1158 99.88V99.976H61.2278ZM91.7438 124.12C91.4238 124.12 91.1358 124.008 90.8798 123.784C90.6558 123.56 90.5438 123.272 90.5438 122.92V112.264C89.0078 114.408 86.6718 115.48 83.5358 115.48C80.4318 115.48 77.9838 114.488 76.1918 112.504C74.3998 110.488 73.4398 107.752 73.3118 104.296L73.2638 102.52L73.3118 100.744C73.4718 97.192 74.4318 94.44 76.1918 92.488C77.9518 90.536 80.3998 89.56 83.5358 89.56C86.7678 89.56 89.2478 90.696 90.9758 92.968V91.24C90.9758 90.888 91.0878 90.6 91.3118 90.376C91.5678 90.152 91.8558 90.04 92.1758 90.04H97.5998C97.9518 90.04 98.2398 90.152 98.4637 90.376C98.6878 90.6 98.7998 90.888 98.7998 91.24V122.92C98.7998 123.272 98.6878 123.56 98.4637 123.784C98.2398 124.008 97.9518 124.12 97.5998 124.12H91.7438ZM86.1278 109.048C87.5358 109.048 88.6078 108.616 89.3438 107.752C90.0798 106.888 90.4798 105.8 90.5438 104.488C90.6078 103.656 90.6398 103.048 90.6398 102.664C90.6398 102.312 90.6078 101.72 90.5438 100.888C90.4798 99.48 90.0958 98.312 89.3918 97.384C88.6878 96.456 87.5998 95.992 86.1278 95.992C84.6238 95.992 83.5358 96.44 82.8638 97.336C82.2238 98.232 81.8558 99.464 81.7598 101.032C81.7278 101.352 81.7118 101.848 81.7118 102.52C81.7118 103.192 81.7278 103.688 81.7598 104.008C81.8558 105.576 82.2238 106.808 82.8638 107.704C83.5358 108.6 84.6238 109.048 86.1278 109.048ZM113.625 115.48C110.809 115.48 108.537 114.536 106.809 112.648C105.081 110.728 104.217 108.056 104.217 104.632V91.24C104.217 90.888 104.329 90.6 104.553 90.376C104.777 90.152 105.065 90.04 105.417 90.04H111.417C111.769 90.04 112.057 90.152 112.281 90.376C112.537 90.6 112.665 90.888 112.665 91.24V104.344C112.665 107.48 114.057 109.048 116.841 109.048C118.185 109.048 119.241 108.632 120.009 107.8C120.777 106.968 121.161 105.816 121.161 104.344V91.24C121.161 90.888 121.273 90.6 121.497 90.376C121.753 90.152 122.041 90.04 122.361 90.04H128.361C128.713 90.04 129.001 90.152 129.225 90.376C129.449 90.6 129.561 90.888 129.561 91.24V113.8C129.561 114.12 129.449 114.408 129.225 114.664C129.001 114.888 128.713 115 128.361 115H122.793C122.473 115 122.185 114.888 121.929 114.664C121.705 114.408 121.593 114.12 121.593 113.8V111.976C119.929 114.312 117.273 115.48 113.625 115.48ZM146.727 115.48C142.887 115.48 139.863 114.44 137.655 112.36C135.447 110.28 134.295 107.256 134.199 103.288V101.608C134.327 97.832 135.495 94.888 137.703 92.776C139.943 90.632 142.935 89.56 146.679 89.56C149.399 89.56 151.687 90.12 153.543 91.24C155.431 92.328 156.839 93.832 157.767 95.752C158.727 97.672 159.207 99.88 159.207 102.376V103.528C159.207 103.848 159.095 104.136 158.871 104.392C158.647 104.616 158.359 104.728 158.007 104.728H142.647V105.064C142.711 106.568 143.079 107.784 143.751 108.712C144.423 109.64 145.399 110.104 146.679 110.104C147.479 110.104 148.135 109.944 148.647 109.624C149.159 109.272 149.623 108.856 150.039 108.376C150.327 108.024 150.551 107.816 150.711 107.752C150.903 107.656 151.191 107.608 151.575 107.608H157.527C157.815 107.608 158.055 107.704 158.247 107.896C158.471 108.056 158.583 108.28 158.583 108.568C158.583 109.4 158.103 110.36 157.143 111.448C156.215 112.536 154.855 113.48 153.063 114.28C151.271 115.08 149.159 115.48 146.727 115.48ZM150.759 99.976V99.88C150.759 98.312 150.391 97.08 149.655 96.184C148.951 95.256 147.959 94.792 146.679 94.792C145.431 94.792 144.439 95.256 143.703 96.184C142.999 97.08 142.647 98.312 142.647 99.88V99.976H150.759ZM164.907 115C164.555 115 164.267 114.888 164.043 114.664C163.819 114.44 163.707 114.152 163.707 113.8V91.24C163.707 90.888 163.819 90.6 164.043 90.376C164.267 90.152 164.555 90.04 164.907 90.04H170.427C170.779 90.04 171.067 90.152 171.291 90.376C171.547 90.6 171.675 90.888 171.675 91.24V93.064C172.539 92.008 173.643 91.16 174.987 90.52C176.363 89.88 177.915 89.56 179.643 89.56C182.459 89.56 184.747 90.52 186.507 92.44C188.267 94.328 189.147 96.984 189.147 100.408V113.8C189.147 114.12 189.035 114.408 188.811 114.664C188.587 114.888 188.299 115 187.947 115H181.899C181.579 115 181.291 114.888 181.035 114.664C180.811 114.408 180.699 114.12 180.699 113.8V100.696C180.699 99.192 180.331 98.04 179.595 97.24C178.859 96.408 177.803 95.992 176.427 95.992C175.083 95.992 174.027 96.408 173.259 97.24C172.491 98.04 172.107 99.192 172.107 100.696V113.8C172.107 114.12 171.995 114.408 171.771 114.664C171.547 114.888 171.259 115 170.907 115H164.907ZM207.038 115C200.414 115 197.102 111.848 197.102 105.544V96.328H193.358C193.006 96.328 192.702 96.216 192.446 95.992C192.222 95.768 192.11 95.48 192.11 95.128V91.24C192.11 90.888 192.222 90.6 192.446 90.376C192.702 90.152 193.006 90.04 193.358 90.04H197.102V82.12C197.102 81.768 197.214 81.48 197.438 81.256C197.694 81.032 197.982 80.92 198.302 80.92H203.87C204.222 80.92 204.51 81.032 204.734 81.256C204.958 81.48 205.07 81.768 205.07 82.12V90.04H211.07C211.422 90.04 211.71 90.152 211.934 90.376C212.19 90.6 212.318 90.888 212.318 91.24V95.128C212.318 95.48 212.19 95.768 211.934 95.992C211.71 96.216 211.422 96.328 211.07 96.328H205.07V104.872C205.07 107.24 205.982 108.424 207.806 108.424H211.502C211.854 108.424 212.142 108.536 212.366 108.76C212.59 108.984 212.702 109.272 212.702 109.624V113.8C212.702 114.12 212.59 114.408 212.366 114.664C212.142 114.888 211.854 115 211.502 115H207.038ZM228.196 115.48C224.356 115.48 221.332 114.44 219.124 112.36C216.916 110.28 215.764 107.256 215.668 103.288V101.608C215.796 97.832 216.964 94.888 219.172 92.776C221.412 90.632 224.404 89.56 228.148 89.56C230.868 89.56 233.156 90.12 235.012 91.24C236.9 92.328 238.308 93.832 239.236 95.752C240.196 97.672 240.676 99.88 240.676 102.376V103.528C240.676 103.848 240.564 104.136 240.34 104.392C240.116 104.616 239.828 104.728 239.476 104.728H224.116V105.064C224.18 106.568 224.548 107.784 225.22 108.712C225.892 109.64 226.868 110.104 228.148 110.104C228.948 110.104 229.604 109.944 230.116 109.624C230.628 109.272 231.092 108.856 231.508 108.376C231.796 108.024 232.02 107.816 232.18 107.752C232.372 107.656 232.66 107.608 233.044 107.608H238.996C239.284 107.608 239.524 107.704 239.716 107.896C239.94 108.056 240.052 108.28 240.052 108.568C240.052 109.4 239.572 110.36 238.612 111.448C237.684 112.536 236.324 113.48 234.532 114.28C232.74 115.08 230.628 115.48 228.196 115.48ZM232.228 99.976V99.88C232.228 98.312 231.86 97.08 231.124 96.184C230.42 95.256 229.428 94.792 228.148 94.792C226.9 94.792 225.908 95.256 225.172 96.184C224.468 97.08 224.116 98.312 224.116 99.88V99.976H232.228ZM255.448 115.48C252.856 115.48 250.68 115.112 248.92 114.376C247.192 113.64 245.912 112.76 245.08 111.736C244.248 110.712 243.832 109.8 243.832 109C243.832 108.68 243.944 108.424 244.168 108.232C244.424 108.008 244.696 107.896 244.984 107.896H250.456C250.648 107.896 250.824 107.976 250.984 108.136C251.368 108.392 251.656 108.6 251.848 108.76C252.552 109.272 253.16 109.656 253.672 109.912C254.216 110.136 254.872 110.248 255.64 110.248C256.568 110.248 257.32 110.072 257.896 109.72C258.504 109.336 258.808 108.808 258.808 108.136C258.808 107.592 258.648 107.16 258.328 106.84C258.04 106.52 257.464 106.216 256.6 105.928C255.736 105.608 254.424 105.272 252.664 104.92C250.008 104.376 247.96 103.496 246.52 102.28C245.112 101.032 244.408 99.368 244.408 97.288C244.408 95.976 244.824 94.728 245.656 93.544C246.488 92.36 247.72 91.4 249.352 90.664C251.016 89.928 252.984 89.56 255.256 89.56C257.528 89.56 259.512 89.912 261.208 90.616C262.904 91.32 264.184 92.184 265.048 93.208C265.944 94.2 266.392 95.112 266.392 95.944C266.392 96.232 266.28 96.488 266.056 96.712C265.864 96.936 265.624 97.048 265.336 97.048H260.344C260.088 97.048 259.848 96.968 259.624 96.808C259.208 96.584 258.84 96.344 258.52 96.088C257.976 95.672 257.464 95.352 256.984 95.128C256.504 94.904 255.912 94.792 255.208 94.792C254.376 94.792 253.704 94.984 253.192 95.368C252.712 95.752 252.472 96.248 252.472 96.856C252.472 97.336 252.6 97.736 252.856 98.056C253.144 98.376 253.72 98.696 254.584 99.016C255.48 99.304 256.792 99.608 258.52 99.928C261.624 100.472 263.88 101.432 265.288 102.808C266.728 104.184 267.448 105.8 267.448 107.656C267.448 110.024 266.392 111.928 264.28 113.368C262.168 114.776 259.224 115.48 255.448 115.48Z" fill="#2E2B2B"/>
<path d="M129.558 290.478C145.261 290.478 158.032 277.687 158.032 261.959C158.032 246.23 145.261 233.439 129.558 233.439C113.854 233.439 101.084 246.23 101.084 261.959C101.084 277.687 113.854 290.478 129.558 290.478Z" fill="#2E2B2B"/>
<path d="M105.346 296.139C94.3783 296.139 85.4878 305.043 85.4878 316.029V338.244C85.4878 340.356 87.1987 342.069 89.3067 342.069H169.81C171.918 342.069 173.629 340.356 173.629 338.244V316.579C173.965 315.998 174.27 315.371 174.515 314.713L190.096 273.403C190.615 272.026 190.89 270.557 190.89 269.073V222.714C190.89 215.952 185.421 210.474 178.669 210.474C171.918 210.474 166.449 215.952 166.449 222.714V266.839L155.405 296.139H105.346Z" fill="#2E2B2B"/>
<path d="M57.1818 229.767H66.1945C68.0886 229.767 69.6926 228.39 69.9675 226.523C70.4869 223.127 71.5409 220.617 73.0991 219.103C74.5503 217.695 76.5514 217.007 79.2399 217.007C82.0201 217.007 84.1434 217.772 85.7626 219.363C87.3818 220.954 88.1303 222.867 88.1303 225.406C88.1303 226.6 87.8554 227.701 87.2902 228.772C86.9999 229.308 85.8695 230.96 81.5618 234.617C77.5596 238.014 74.8558 241.211 73.2824 244.378C71.6784 247.607 70.8994 252.304 70.8994 258.699C70.8994 260.81 72.6102 262.524 74.7183 262.524H82.8602C84.9683 262.524 86.6791 260.81 86.6791 258.699C86.6791 253.757 87.2749 251.738 87.6262 250.973C87.9012 250.361 89.0469 248.555 93.5838 244.791C97.7998 241.288 100.641 238.09 102.26 235.03C103.925 231.894 104.766 228.451 104.766 224.81C104.766 218.307 102.306 212.876 97.4332 208.653C92.7283 204.583 86.5875 202.518 79.1788 202.518C72.1214 202.518 66.1486 204.629 61.459 208.775C56.7235 212.967 54.0197 218.644 53.4087 225.636C53.1948 227.839 54.9516 229.767 57.1818 229.767Z" fill="#2E2B2B"/>
<path d="M82.8295 284.158C84.9376 284.158 86.6484 282.445 86.6484 280.333V272.194C86.6484 270.082 84.9376 268.369 82.8295 268.369H74.7029C72.5948 268.369 70.8839 270.082 70.8839 272.194V280.333C70.8839 282.445 72.5948 284.158 74.7029 284.158H82.8295Z" fill="#2E2B2B"/>
</svg>
