<svg width="236" height="42" viewBox="0 0 236 42" fill="none" xmlns="http://www.w3.org/2000/svg">
<rect width="236" height="42" fill="#E5E5E5"/>
<rect x="-565" y="-3654" width="1366" height="3763" fill="white" fill-opacity="0.9"/>
<rect x="-565" y="-258" width="1366" height="367" fill="#E01F27"/>
<path fill-rule="evenodd" clip-rule="evenodd" d="M112.073 35.002H116.21L131.382 0H127.245L112.073 35.002ZM236 28.1671H228.683V34.9263H236V28.1671ZM25.0222 6.93394H30.3042L16.5593 38.0261C16.0405 39.1956 15.1393 40.1996 13.9724 40.9081C12.8055 41.6165 11.4266 41.9969 10.0141 42H2.8537V36.7558C2.8537 36.2922 3.06057 35.8476 3.42881 35.5198C3.79705 35.1919 4.29649 35.0078 4.81725 35.0078H8.47601C8.90266 35.0083 9.32301 34.9161 9.70046 34.739C10.0779 34.5619 10.401 34.3054 10.6417 33.9918C10.8824 33.6781 11.0333 33.3169 11.0813 32.9395C11.1294 32.5621 11.0731 32.1799 10.9174 31.8263L0 6.93394H5.69431C6.36486 6.93125 7.02016 7.11201 7.57153 7.45176C8.12291 7.79151 8.54374 8.27384 8.77709 8.8335L15.1848 24.0824L21.9656 8.78688C22.2058 8.23967 22.6263 7.7699 23.1718 7.43922C23.7173 7.10855 24.3623 6.93241 25.0222 6.93394ZM44.7366 6.8524C34.0287 6.99225 29.5518 13.1512 29.5518 20.9184C29.5518 28.6857 34.0287 34.9612 44.7366 34.9612C54.9144 34.9612 59.9214 28.6623 59.9214 20.901C59.9214 13.1396 56.0401 6.73586 44.7366 6.8524ZM44.7366 29.1751C39.1208 29.1751 37.4322 25.4809 37.4322 20.9184C37.4322 16.356 39.0358 12.656 44.7366 12.656C50.6273 12.656 52.041 16.3502 52.041 20.9184C52.041 25.4867 49.8222 29.1751 44.7366 29.1751ZM77.2198 28.9887C82.2793 29.0003 84.4195 25.5275 84.4195 21.2622L84.3541 8.51306C84.3558 8.07209 84.5538 7.64971 84.9047 7.33844C85.2555 7.02717 85.7307 6.8524 86.226 6.8524H92.4112V20.9767V21.1632C92.3065 28.8663 87.2209 35.0777 77.1871 35.0777C66.8523 35.0777 62.0743 28.8663 61.9696 21.1632V20.9767V6.8524H68.1548C68.6495 6.8524 69.124 7.02736 69.4738 7.3388C69.8236 7.65023 70.0201 8.07262 70.0201 8.51306V21.2622C70.0201 25.5275 71.8921 28.9887 77.2198 28.9887ZM110.569 6.69506H104.678C102.295 6.69506 100.009 7.53795 98.3235 9.03829C96.6382 10.5386 95.6914 12.5735 95.6914 14.6953V34.7922H100.81C101.582 34.7922 102.323 34.519 102.869 34.0327C103.415 33.5465 103.722 32.8869 103.722 32.1992V15.9656C103.722 15.4041 103.972 14.8655 104.418 14.4679C104.863 14.0703 105.467 13.8462 106.098 13.8446H107.538C108.34 13.8446 109.109 13.561 109.676 13.0562C110.243 12.5513 110.562 11.8666 110.562 11.1526L110.569 6.69506ZM153.577 0.0699955H159.245C159.832 0.0699933 160.396 0.277305 160.812 0.646488C161.228 1.01567 161.462 1.5166 161.464 2.03948V21.0991C161.464 28.8664 156.457 35.1652 146.273 35.1652C135.565 35.1652 131.088 28.8664 131.088 21.0991C131.088 13.3319 135.565 7.14963 146.273 7.03892C148.768 6.96024 151.255 7.34111 153.577 8.15768V0.0699955ZM138.975 21.1108C138.975 25.6732 140.663 29.3733 146.279 29.3733C151.391 29.3733 153.584 25.6732 153.584 21.1108C153.584 16.5484 152.17 12.8483 146.279 12.8483C140.578 12.8483 138.975 16.5484 138.975 21.1108ZM194.084 23.7328C194.509 23.7306 194.917 23.585 195.225 23.3254C195.534 23.0658 195.72 22.7116 195.747 22.3344C195.78 21.8973 195.793 21.4603 195.793 21.0117C195.8 19.8274 195.7 18.6445 195.492 17.4747C194.392 11.3915 190.131 6.85238 180.608 6.95143C169.9 7.06215 165.423 13.2444 165.423 21.0117C165.423 28.7789 169.9 35.0777 180.608 35.0777C187.578 35.0777 192.121 32.1235 194.294 27.765C194.342 27.6685 194.362 27.5628 194.353 27.4576C194.343 27.3523 194.304 27.2509 194.239 27.1627C194.174 27.0745 194.085 27.0023 193.98 26.9527C193.875 26.9032 193.758 26.878 193.639 26.8793H186.145C185.52 27.6579 184.685 28.2848 183.718 28.7031C182.751 29.1214 181.682 29.3177 180.608 29.2741C176.17 29.2741 174.187 26.9434 173.552 23.7328H194.084ZM180.608 12.7492C184.843 12.7492 186.76 14.6837 187.506 17.4747H173.762C174.521 14.6837 176.491 12.7492 180.608 12.7492ZM210.566 27.328L218.42 8.87431C218.651 8.329 219.062 7.85813 219.597 7.5226C220.133 7.18707 220.769 7.00232 221.424 6.99223H226.28L214.879 34.0697C214.754 34.3574 214.534 34.6043 214.247 34.7773C213.961 34.9502 213.621 35.0408 213.275 35.0369H207.751C207.406 35.0372 207.07 34.9435 206.787 34.7685C206.504 34.5935 206.287 34.3456 206.167 34.058L194.916 6.99223H199.825C200.485 6.99974 201.126 7.18459 201.666 7.52253C202.206 7.86048 202.618 8.33573 202.849 8.88596L210.566 27.328Z" fill="white"/>
</svg>
