<svg width="184" height="160" viewBox="0 0 184 160" fill="none" xmlns="http://www.w3.org/2000/svg">
<path d="M107.659 6.01324H101.07C99.8198 2.51353 96.4464 0 92.4904 0C88.5345 0 85.161 2.51353 83.905 6.01324H77.3219C75.6473 6.01324 74.2882 7.36021 74.2882 9.01986V21.0463C74.2882 22.706 75.6473 24.053 77.3219 24.053H107.659C109.334 24.053 110.693 22.706 110.693 21.0463V9.01986C110.693 7.36021 109.334 6.01324 107.659 6.01324Z" fill="#DA0E16"/>
<path d="M122.741 14H116.674V22.1512C116.674 26.6453 112.591 30.3025 107.573 30.3025H77.2359C72.2182 30.3025 68.1348 26.6453 68.1348 22.1512V14H62.0674C58.7243 14 56 16.4399 56 19.4342V84.644C56 87.6925 58.6636 90.0781 62.0674 90.0781H122.741C126.145 90.0781 128.809 87.6925 128.809 84.644V19.4342C128.809 16.3856 126.145 14 122.741 14ZM91.5186 62.114L79.3838 72.9823C78.7892 73.5094 78.0125 73.7757 77.2359 73.7757C76.4593 73.7757 75.6827 73.5094 75.0881 72.9823L69.0206 67.5481C67.8375 66.4885 67.8375 64.7658 69.0206 63.7062C70.2038 62.6465 72.1272 62.6465 73.3103 63.7062L77.2359 67.2166L87.2229 58.272C88.406 57.2124 90.3294 57.2124 91.5125 58.272C92.6957 59.3317 92.7017 61.0489 91.5186 62.114ZM91.5186 40.3774L79.3838 51.2457C78.7892 51.7728 78.0125 52.0391 77.2359 52.0391C76.4593 52.0391 75.6827 51.7728 75.0881 51.2457L69.0206 45.8115C67.8375 44.7519 67.8375 43.0292 69.0206 41.9696C70.2038 40.9099 72.1272 40.9099 73.3103 41.9696L77.2359 45.48L87.2229 36.5354C88.406 35.4758 90.3294 35.4758 91.5125 36.5354C92.6957 37.5951 92.7017 39.3123 91.5186 40.3774ZM113.64 68.3415H101.506C99.8309 68.3415 98.4718 67.1243 98.4718 65.6244C98.4718 64.1246 99.8309 62.9074 101.506 62.9074H113.64C115.315 62.9074 116.674 64.1246 116.674 65.6244C116.674 67.1243 115.315 68.3415 113.64 68.3415ZM113.64 46.6049H101.506C99.8309 46.6049 98.4718 45.3877 98.4718 43.8878C98.4718 42.388 99.8309 41.1708 101.506 41.1708H113.64C115.315 41.1708 116.674 42.388 116.674 43.8878C116.674 45.3877 115.315 46.6049 113.64 46.6049Z" fill="#DA0E16"/>
<path d="M20.3603 113.08C20.2403 113.08 20.1383 113.038 20.0543 112.954C19.9703 112.87 19.9283 112.768 19.9283 112.648V100.93C19.9283 100.798 19.9643 100.69 20.0363 100.606C20.1203 100.522 20.2283 100.48 20.3603 100.48H28.2803C28.4123 100.48 28.5203 100.522 28.6043 100.606C28.6883 100.69 28.7303 100.798 28.7303 100.93V102.118C28.7303 102.25 28.6883 102.358 28.6043 102.442C28.5203 102.514 28.4123 102.55 28.2803 102.55H22.3583V105.736H27.8843C28.0163 105.736 28.1243 105.778 28.2083 105.862C28.2923 105.934 28.3343 106.036 28.3343 106.168V107.284C28.3343 107.416 28.2923 107.524 28.2083 107.608C28.1243 107.68 28.0163 107.716 27.8843 107.716H22.3583V111.01H28.4243C28.5563 111.01 28.6643 111.052 28.7483 111.136C28.8323 111.22 28.8743 111.328 28.8743 111.46V112.648C28.8743 112.78 28.8323 112.888 28.7483 112.972C28.6643 113.044 28.5563 113.08 28.4243 113.08H20.3603ZM34.4556 113.26C33.5556 113.26 32.7996 113.128 32.1876 112.864C31.5756 112.588 31.1196 112.27 30.8196 111.91C30.5316 111.538 30.3876 111.22 30.3876 110.956C30.3876 110.836 30.4296 110.74 30.5136 110.668C30.5976 110.596 30.6936 110.56 30.8016 110.56H32.2236C32.3316 110.56 32.4216 110.602 32.4936 110.686C32.5416 110.722 32.6676 110.83 32.8716 111.01C33.0756 111.202 33.3156 111.352 33.5916 111.46C33.8676 111.568 34.1736 111.622 34.5096 111.622C34.9896 111.622 35.3856 111.526 35.6976 111.334C36.0096 111.142 36.1656 110.878 36.1656 110.542C36.1656 110.29 36.0936 110.086 35.9496 109.93C35.8176 109.774 35.5716 109.636 35.2116 109.516C34.8516 109.384 34.3176 109.246 33.6096 109.102C32.5896 108.886 31.8336 108.556 31.3416 108.112C30.8616 107.668 30.6216 107.08 30.6216 106.348C30.6216 105.868 30.7656 105.418 31.0536 104.998C31.3416 104.566 31.7676 104.218 32.3316 103.954C32.9076 103.678 33.5916 103.54 34.3836 103.54C35.1876 103.54 35.8836 103.672 36.4716 103.936C37.0596 104.188 37.5036 104.494 37.8036 104.854C38.1156 105.202 38.2716 105.514 38.2716 105.79C38.2716 105.898 38.2296 105.994 38.1456 106.078C38.0736 106.15 37.9836 106.186 37.8756 106.186H36.5436C36.4476 106.186 36.3456 106.144 36.2376 106.06C36.1536 106 36.0216 105.886 35.8416 105.718C35.6616 105.55 35.4516 105.418 35.2116 105.322C34.9716 105.226 34.6896 105.178 34.3656 105.178C33.9216 105.178 33.5736 105.274 33.3216 105.466C33.0816 105.658 32.9616 105.91 32.9616 106.222C32.9616 106.45 33.0216 106.636 33.1416 106.78C33.2616 106.924 33.4956 107.062 33.8436 107.194C34.1916 107.326 34.7136 107.458 35.4096 107.59C36.5616 107.818 37.3836 108.172 37.8756 108.652C38.3796 109.132 38.6316 109.72 38.6316 110.416C38.6316 111.256 38.2656 111.94 37.5336 112.468C36.8016 112.996 35.7756 113.26 34.4556 113.26ZM44.5397 113.26C43.2197 113.26 42.1637 112.894 41.3717 112.162C40.5917 111.43 40.1777 110.416 40.1297 109.12L40.1117 108.4L40.1297 107.68C40.1777 106.384 40.5917 105.37 41.3717 104.638C42.1637 103.906 43.2197 103.54 44.5397 103.54C45.4757 103.54 46.2677 103.708 46.9157 104.044C47.5757 104.38 48.0617 104.794 48.3737 105.286C48.6977 105.766 48.8717 106.222 48.8957 106.654C48.9077 106.774 48.8657 106.876 48.7697 106.96C48.6857 107.044 48.5837 107.086 48.4637 107.086H46.8797C46.7597 107.086 46.6637 107.062 46.5917 107.014C46.5317 106.954 46.4717 106.858 46.4117 106.726C46.2317 106.258 45.9917 105.922 45.6917 105.718C45.4037 105.514 45.0317 105.412 44.5757 105.412C43.9637 105.412 43.4837 105.61 43.1357 106.006C42.7877 106.39 42.6017 106.978 42.5777 107.77L42.5597 108.436L42.5777 109.03C42.6257 110.602 43.2917 111.388 44.5757 111.388C45.0437 111.388 45.4217 111.286 45.7097 111.082C45.9977 110.878 46.2317 110.542 46.4117 110.074C46.4717 109.942 46.5317 109.852 46.5917 109.804C46.6637 109.744 46.7597 109.714 46.8797 109.714H48.4637C48.5837 109.714 48.6857 109.756 48.7697 109.84C48.8657 109.924 48.9077 110.026 48.8957 110.146C48.8717 110.566 48.7037 111.016 48.3917 111.496C48.0797 111.976 47.5997 112.39 46.9517 112.738C46.3037 113.086 45.4997 113.26 44.5397 113.26ZM54.9129 113.26C53.5089 113.26 52.4229 112.9 51.6549 112.18C50.8869 111.448 50.4729 110.452 50.4129 109.192L50.3949 108.4L50.4129 107.608C50.4729 106.36 50.8929 105.37 51.6729 104.638C52.4529 103.906 53.5329 103.54 54.9129 103.54C56.2929 103.54 57.3729 103.906 58.1529 104.638C58.9329 105.37 59.3529 106.36 59.4129 107.608C59.4249 107.752 59.4309 108.016 59.4309 108.4C59.4309 108.784 59.4249 109.048 59.4129 109.192C59.3529 110.452 58.9389 111.448 58.1709 112.18C57.4029 112.9 56.3169 113.26 54.9129 113.26ZM54.9129 111.478C55.5489 111.478 56.0409 111.28 56.3889 110.884C56.7369 110.476 56.9289 109.882 56.9649 109.102C56.9769 108.982 56.9829 108.748 56.9829 108.4C56.9829 108.052 56.9769 107.818 56.9649 107.698C56.9289 106.918 56.7369 106.33 56.3889 105.934C56.0409 105.526 55.5489 105.322 54.9129 105.322C54.2769 105.322 53.7849 105.526 53.4369 105.934C53.0889 106.33 52.8969 106.918 52.8609 107.698L52.8429 108.4L52.8609 109.102C52.8969 109.882 53.0889 110.476 53.4369 110.884C53.7849 111.28 54.2769 111.478 54.9129 111.478ZM61.8752 113.08C61.7552 113.08 61.6532 113.038 61.5692 112.954C61.4852 112.87 61.4432 112.768 61.4432 112.648V100.732C61.4432 100.6 61.4852 100.498 61.5692 100.426C61.6532 100.342 61.7552 100.3 61.8752 100.3H63.3692C63.5012 100.3 63.6032 100.342 63.6752 100.426C63.7592 100.498 63.8012 100.6 63.8012 100.732V112.648C63.8012 112.768 63.7592 112.87 63.6752 112.954C63.6032 113.038 63.5012 113.08 63.3692 113.08H61.8752ZM66.6389 113.08C66.5189 113.08 66.4169 113.038 66.3329 112.954C66.2489 112.87 66.2069 112.768 66.2069 112.648V100.732C66.2069 100.6 66.2489 100.498 66.3329 100.426C66.4169 100.342 66.5189 100.3 66.6389 100.3H68.2409C68.3729 100.3 68.4749 100.342 68.5469 100.426C68.6309 100.498 68.6729 100.6 68.6729 100.732V104.836C69.3929 103.972 70.3649 103.54 71.5889 103.54C72.6929 103.54 73.5749 103.906 74.2349 104.638C74.8949 105.358 75.2249 106.342 75.2249 107.59V112.648C75.2249 112.768 75.1829 112.87 75.0989 112.954C75.0269 113.038 74.9249 113.08 74.7929 113.08H73.1729C73.0529 113.08 72.9509 113.038 72.8669 112.954C72.7829 112.87 72.7409 112.768 72.7409 112.648V107.698C72.7409 106.99 72.5669 106.444 72.2189 106.06C71.8829 105.664 71.3909 105.466 70.7429 105.466C70.1069 105.466 69.6029 105.664 69.2309 106.06C68.8589 106.456 68.6729 107.002 68.6729 107.698V112.648C68.6729 112.768 68.6309 112.87 68.5469 112.954C68.4749 113.038 68.3729 113.08 68.2409 113.08H66.6389ZM80.2272 113.26C79.6152 113.26 79.0512 113.14 78.5352 112.9C78.0312 112.648 77.6292 112.312 77.3292 111.892C77.0412 111.472 76.8972 111.01 76.8972 110.506C76.8972 109.69 77.2272 109.03 77.8872 108.526C78.5472 108.022 79.4532 107.68 80.6052 107.5L83.0712 107.14V106.762C83.0712 106.234 82.9392 105.838 82.6752 105.574C82.4112 105.31 81.9852 105.178 81.3972 105.178C81.0012 105.178 80.6772 105.256 80.4252 105.412C80.1852 105.556 79.9932 105.7 79.8492 105.844C79.7052 106 79.6092 106.102 79.5612 106.15C79.5132 106.294 79.4232 106.366 79.2912 106.366H77.9052C77.7972 106.366 77.7012 106.33 77.6172 106.258C77.5452 106.186 77.5092 106.09 77.5092 105.97C77.5212 105.67 77.6652 105.328 77.9412 104.944C78.2292 104.56 78.6672 104.23 79.2552 103.954C79.8432 103.678 80.5632 103.54 81.4152 103.54C82.8312 103.54 83.8632 103.858 84.5112 104.494C85.1592 105.13 85.4832 105.964 85.4832 106.996V112.648C85.4832 112.768 85.4412 112.87 85.3572 112.954C85.2852 113.038 85.1832 113.08 85.0512 113.08H83.5932C83.4732 113.08 83.3712 113.038 83.2872 112.954C83.2032 112.87 83.1612 112.768 83.1612 112.648V111.946C82.8972 112.33 82.5192 112.648 82.0272 112.9C81.5472 113.14 80.9472 113.26 80.2272 113.26ZM80.8392 111.55C81.4992 111.55 82.0392 111.334 82.4592 110.902C82.8792 110.47 83.0892 109.84 83.0892 109.012V108.634L81.2892 108.922C80.5932 109.03 80.0652 109.204 79.7052 109.444C79.3572 109.684 79.1832 109.978 79.1832 110.326C79.1832 110.71 79.3452 111.01 79.6692 111.226C79.9932 111.442 80.3832 111.55 80.8392 111.55ZM96.0457 113.26C94.6417 113.26 93.5557 112.9 92.7877 112.18C92.0197 111.448 91.6057 110.452 91.5457 109.192L91.5277 108.4L91.5457 107.608C91.6057 106.36 92.0257 105.37 92.8057 104.638C93.5857 103.906 94.6657 103.54 96.0457 103.54C97.4257 103.54 98.5057 103.906 99.2857 104.638C100.066 105.37 100.486 106.36 100.546 107.608C100.558 107.752 100.564 108.016 100.564 108.4C100.564 108.784 100.558 109.048 100.546 109.192C100.486 110.452 100.072 111.448 99.3037 112.18C98.5357 112.9 97.4497 113.26 96.0457 113.26ZM96.0457 111.478C96.6817 111.478 97.1737 111.28 97.5217 110.884C97.8697 110.476 98.0617 109.882 98.0977 109.102C98.1097 108.982 98.1157 108.748 98.1157 108.4C98.1157 108.052 98.1097 107.818 98.0977 107.698C98.0617 106.918 97.8697 106.33 97.5217 105.934C97.1737 105.526 96.6817 105.322 96.0457 105.322C95.4097 105.322 94.9177 105.526 94.5697 105.934C94.2217 106.33 94.0297 106.918 93.9937 107.698L93.9757 108.4L93.9937 109.102C94.0297 109.882 94.2217 110.476 94.5697 110.884C94.9177 111.28 95.4097 111.478 96.0457 111.478ZM107.103 113.08C106.983 113.08 106.881 113.038 106.797 112.954C106.713 112.87 106.671 112.768 106.671 112.648V104.152C106.671 104.032 106.713 103.93 106.797 103.846C106.881 103.762 106.983 103.72 107.103 103.72H108.507C108.627 103.72 108.729 103.762 108.813 103.846C108.897 103.93 108.939 104.032 108.939 104.152V104.764C109.563 103.948 110.433 103.54 111.549 103.54C112.881 103.54 113.811 104.074 114.339 105.142C114.627 104.662 115.035 104.278 115.563 103.99C116.091 103.69 116.661 103.54 117.273 103.54C118.257 103.54 119.061 103.876 119.685 104.548C120.309 105.22 120.621 106.198 120.621 107.482V112.648C120.621 112.768 120.579 112.87 120.495 112.954C120.423 113.038 120.321 113.08 120.189 113.08H118.713C118.593 113.08 118.491 113.038 118.407 112.954C118.323 112.87 118.281 112.768 118.281 112.648V107.626C118.281 106.87 118.119 106.324 117.795 105.988C117.483 105.64 117.063 105.466 116.535 105.466C116.067 105.466 115.665 105.64 115.329 105.988C115.005 106.336 114.843 106.882 114.843 107.626V112.648C114.843 112.768 114.801 112.87 114.717 112.954C114.633 113.038 114.531 113.08 114.411 113.08H112.935C112.815 113.08 112.713 113.038 112.629 112.954C112.545 112.87 112.503 112.768 112.503 112.648V107.626C112.503 106.87 112.335 106.324 111.999 105.988C111.675 105.64 111.261 105.466 110.757 105.466C110.277 105.466 109.869 105.64 109.533 105.988C109.209 106.336 109.047 106.882 109.047 107.626V112.648C109.047 112.768 109.005 112.87 108.921 112.954C108.837 113.038 108.735 113.08 108.615 113.08H107.103ZM126.945 113.26C125.613 113.26 124.551 112.876 123.759 112.108C122.979 111.328 122.565 110.236 122.517 108.832L122.499 108.382L122.517 107.932C122.577 106.564 122.997 105.49 123.777 104.71C124.569 103.93 125.625 103.54 126.945 103.54C128.361 103.54 129.453 103.972 130.221 104.836C131.001 105.7 131.391 106.852 131.391 108.292V108.67C131.391 108.79 131.349 108.892 131.265 108.976C131.181 109.06 131.073 109.102 130.941 109.102H124.965V109.246C124.989 109.906 125.169 110.464 125.505 110.92C125.853 111.364 126.327 111.586 126.927 111.586C127.635 111.586 128.205 111.31 128.637 110.758C128.745 110.626 128.829 110.542 128.889 110.506C128.961 110.47 129.063 110.452 129.195 110.452H130.743C130.851 110.452 130.941 110.488 131.013 110.56C131.097 110.62 131.139 110.698 131.139 110.794C131.139 111.082 130.965 111.424 130.617 111.82C130.281 112.204 129.795 112.54 129.159 112.828C128.523 113.116 127.785 113.26 126.945 113.26ZM128.943 107.59V107.536C128.943 106.828 128.763 106.258 128.403 105.826C128.055 105.394 127.569 105.178 126.945 105.178C126.321 105.178 125.835 105.394 125.487 105.826C125.139 106.258 124.965 106.828 124.965 107.536V107.59H128.943ZM133.752 113.08C133.632 113.08 133.53 113.038 133.446 112.954C133.362 112.87 133.32 112.768 133.32 112.648V100.732C133.32 100.6 133.362 100.498 133.446 100.426C133.53 100.342 133.632 100.3 133.752 100.3H135.246C135.378 100.3 135.48 100.342 135.552 100.426C135.636 100.498 135.678 100.6 135.678 100.732V112.648C135.678 112.768 135.636 112.87 135.552 112.954C135.48 113.038 135.378 113.08 135.246 113.08H133.752ZM138.516 113.08C138.396 113.08 138.294 113.038 138.21 112.954C138.126 112.87 138.084 112.768 138.084 112.648V100.732C138.084 100.6 138.126 100.498 138.21 100.426C138.294 100.342 138.396 100.3 138.516 100.3H140.118C140.25 100.3 140.352 100.342 140.424 100.426C140.508 100.498 140.55 100.6 140.55 100.732V104.836C141.27 103.972 142.242 103.54 143.466 103.54C144.57 103.54 145.452 103.906 146.112 104.638C146.772 105.358 147.102 106.342 147.102 107.59V112.648C147.102 112.768 147.06 112.87 146.976 112.954C146.904 113.038 146.802 113.08 146.67 113.08H145.05C144.93 113.08 144.828 113.038 144.744 112.954C144.66 112.87 144.618 112.768 144.618 112.648V107.698C144.618 106.99 144.444 106.444 144.096 106.06C143.76 105.664 143.268 105.466 142.62 105.466C141.984 105.466 141.48 105.664 141.108 106.06C140.736 106.456 140.55 107.002 140.55 107.698V112.648C140.55 112.768 140.508 112.87 140.424 112.954C140.352 113.038 140.25 113.08 140.118 113.08H138.516ZM153.526 113.26C152.122 113.26 151.036 112.9 150.268 112.18C149.5 111.448 149.086 110.452 149.026 109.192L149.008 108.4L149.026 107.608C149.086 106.36 149.506 105.37 150.286 104.638C151.066 103.906 152.146 103.54 153.526 103.54C154.906 103.54 155.986 103.906 156.766 104.638C157.546 105.37 157.966 106.36 158.026 107.608C158.038 107.752 158.044 108.016 158.044 108.4C158.044 108.784 158.038 109.048 158.026 109.192C157.966 110.452 157.552 111.448 156.784 112.18C156.016 112.9 154.93 113.26 153.526 113.26ZM153.526 111.478C154.162 111.478 154.654 111.28 155.002 110.884C155.35 110.476 155.542 109.882 155.578 109.102C155.59 108.982 155.596 108.748 155.596 108.4C155.596 108.052 155.59 107.818 155.578 107.698C155.542 106.918 155.35 106.33 155.002 105.934C154.654 105.526 154.162 105.322 153.526 105.322C152.89 105.322 152.398 105.526 152.05 105.934C151.702 106.33 151.51 106.918 151.474 107.698L151.456 108.4L151.474 109.102C151.51 109.882 151.702 110.476 152.05 110.884C152.398 111.28 152.89 111.478 153.526 111.478ZM160.47 113.08C160.35 113.08 160.248 113.038 160.164 112.954C160.08 112.87 160.038 112.768 160.038 112.648V104.17C160.038 104.05 160.08 103.948 160.164 103.864C160.248 103.768 160.35 103.72 160.47 103.72H161.928C162.06 103.72 162.168 103.762 162.252 103.846C162.336 103.93 162.378 104.038 162.378 104.17V104.908C162.666 104.524 163.026 104.23 163.458 104.026C163.902 103.822 164.406 103.72 164.97 103.72H165.708C165.84 103.72 165.942 103.762 166.014 103.846C166.098 103.918 166.14 104.02 166.14 104.152V105.448C166.14 105.568 166.098 105.67 166.014 105.754C165.942 105.838 165.84 105.88 165.708 105.88H164.304C163.74 105.88 163.296 106.042 162.972 106.366C162.648 106.69 162.486 107.134 162.486 107.698V112.648C162.486 112.768 162.444 112.87 162.36 112.954C162.276 113.038 162.168 113.08 162.036 113.08H160.47ZM30.7092 137.5C30.5892 137.5 30.4872 137.458 30.4032 137.374C30.3192 137.302 30.2772 137.2 30.2772 137.068V125.152C30.2772 125.02 30.3192 124.918 30.4032 124.846C30.4872 124.762 30.5892 124.72 30.7092 124.72H32.1312C32.2632 124.72 32.3652 124.762 32.4372 124.846C32.5212 124.918 32.5632 125.02 32.5632 125.152V125.872C33.2352 124.984 34.1952 124.54 35.4432 124.54C36.6552 124.54 37.5852 124.924 38.2332 125.692C38.8812 126.448 39.2292 127.474 39.2772 128.77C39.2892 128.914 39.2952 129.124 39.2952 129.4C39.2952 129.688 39.2892 129.904 39.2772 130.048C39.2292 131.308 38.8812 132.328 38.2332 133.108C37.5852 133.876 36.6552 134.26 35.4432 134.26C34.2312 134.26 33.3072 133.834 32.6712 132.982V137.068C32.6712 137.2 32.6292 137.302 32.5452 137.374C32.4732 137.458 32.3712 137.5 32.2392 137.5H30.7092ZM34.7772 132.334C36.0732 132.334 36.7632 131.536 36.8472 129.94C36.8592 129.82 36.8652 129.64 36.8652 129.4C36.8652 129.16 36.8592 128.98 36.8472 128.86C36.7632 127.264 36.0732 126.466 34.7772 126.466C34.0812 126.466 33.5652 126.688 33.2292 127.132C32.8932 127.576 32.7072 128.122 32.6712 128.77L32.6532 129.454L32.6712 130.156C32.6952 130.756 32.8812 131.272 33.2292 131.704C33.5892 132.124 34.1052 132.334 34.7772 132.334ZM41.7658 134.08C41.6458 134.08 41.5438 134.038 41.4598 133.954C41.3758 133.87 41.3338 133.768 41.3338 133.648V121.732C41.3338 121.6 41.3758 121.498 41.4598 121.426C41.5438 121.342 41.6458 121.3 41.7658 121.3H43.2598C43.3918 121.3 43.4938 121.342 43.5658 121.426C43.6498 121.498 43.6918 121.6 43.6918 121.732V133.648C43.6918 133.768 43.6498 133.87 43.5658 133.954C43.4938 134.038 43.3918 134.08 43.2598 134.08H41.7658ZM48.7975 134.26C48.1855 134.26 47.6215 134.14 47.1055 133.9C46.6015 133.648 46.1995 133.312 45.8995 132.892C45.6115 132.472 45.4675 132.01 45.4675 131.506C45.4675 130.69 45.7975 130.03 46.4575 129.526C47.1175 129.022 48.0235 128.68 49.1755 128.5L51.6415 128.14V127.762C51.6415 127.234 51.5095 126.838 51.2455 126.574C50.9815 126.31 50.5555 126.178 49.9675 126.178C49.5715 126.178 49.2475 126.256 48.9955 126.412C48.7555 126.556 48.5635 126.7 48.4195 126.844C48.2755 127 48.1795 127.102 48.1315 127.15C48.0835 127.294 47.9935 127.366 47.8615 127.366H46.4755C46.3675 127.366 46.2715 127.33 46.1875 127.258C46.1155 127.186 46.0795 127.09 46.0795 126.97C46.0915 126.67 46.2355 126.328 46.5115 125.944C46.7995 125.56 47.2375 125.23 47.8255 124.954C48.4135 124.678 49.1335 124.54 49.9855 124.54C51.4015 124.54 52.4335 124.858 53.0815 125.494C53.7295 126.13 54.0535 126.964 54.0535 127.996V133.648C54.0535 133.768 54.0115 133.87 53.9275 133.954C53.8555 134.038 53.7535 134.08 53.6215 134.08H52.1635C52.0435 134.08 51.9415 134.038 51.8575 133.954C51.7735 133.87 51.7315 133.768 51.7315 133.648V132.946C51.4675 133.33 51.0895 133.648 50.5975 133.9C50.1175 134.14 49.5175 134.26 48.7975 134.26ZM49.4095 132.55C50.0695 132.55 50.6095 132.334 51.0295 131.902C51.4495 131.47 51.6595 130.84 51.6595 130.012V129.634L49.8595 129.922C49.1635 130.03 48.6355 130.204 48.2755 130.444C47.9275 130.684 47.7535 130.978 47.7535 131.326C47.7535 131.71 47.9155 132.01 48.2395 132.226C48.5635 132.442 48.9535 132.55 49.4095 132.55ZM56.7947 134.08C56.6747 134.08 56.5727 134.038 56.4887 133.954C56.4047 133.87 56.3627 133.768 56.3627 133.648V125.152C56.3627 125.032 56.4047 124.93 56.4887 124.846C56.5727 124.762 56.6747 124.72 56.7947 124.72H58.2707C58.3907 124.72 58.4927 124.762 58.5767 124.846C58.6607 124.93 58.7027 125.032 58.7027 125.152V125.89C59.4107 124.99 60.4127 124.54 61.7087 124.54C62.8127 124.54 63.6887 124.906 64.3367 125.638C64.9847 126.358 65.3087 127.342 65.3087 128.59V133.648C65.3087 133.768 65.2667 133.87 65.1827 133.954C65.1107 134.038 65.0087 134.08 64.8767 134.08H63.2927C63.1727 134.08 63.0707 134.038 62.9867 133.954C62.9027 133.87 62.8607 133.768 62.8607 133.648V128.698C62.8607 127.99 62.6867 127.444 62.3387 127.06C62.0027 126.664 61.5107 126.466 60.8627 126.466C60.2267 126.466 59.7227 126.664 59.3507 127.06C58.9907 127.456 58.8107 128.002 58.8107 128.698V133.648C58.8107 133.768 58.7687 133.87 58.6847 133.954C58.6127 134.038 58.5107 134.08 58.3787 134.08H56.7947ZM71.7351 134.26C70.3311 134.26 69.2451 133.9 68.4771 133.18C67.7091 132.448 67.2951 131.452 67.2351 130.192L67.2171 129.4L67.2351 128.608C67.2951 127.36 67.7151 126.37 68.4951 125.638C69.2751 124.906 70.3551 124.54 71.7351 124.54C73.1151 124.54 74.1951 124.906 74.9751 125.638C75.7551 126.37 76.1751 127.36 76.2351 128.608C76.2471 128.752 76.2531 129.016 76.2531 129.4C76.2531 129.784 76.2471 130.048 76.2351 130.192C76.1751 131.452 75.7611 132.448 74.9931 133.18C74.2251 133.9 73.1391 134.26 71.7351 134.26ZM71.7351 132.478C72.3711 132.478 72.8631 132.28 73.2111 131.884C73.5591 131.476 73.7511 130.882 73.7871 130.102C73.7991 129.982 73.8051 129.748 73.8051 129.4C73.8051 129.052 73.7991 128.818 73.7871 128.698C73.7511 127.918 73.5591 127.33 73.2111 126.934C72.8631 126.526 72.3711 126.322 71.7351 126.322C71.0991 126.322 70.6071 126.526 70.2591 126.934C69.9111 127.33 69.7191 127.918 69.6831 128.698L69.6651 129.4L69.6831 130.102C69.7191 130.882 69.9111 131.476 70.2591 131.884C70.6071 132.28 71.0991 132.478 71.7351 132.478ZM82.8107 137.5C82.6907 137.5 82.5887 137.458 82.5047 137.374C82.4207 137.302 82.3787 137.2 82.3787 137.068V125.152C82.3787 125.02 82.4207 124.918 82.5047 124.846C82.5887 124.762 82.6907 124.72 82.8107 124.72H84.2327C84.3647 124.72 84.4667 124.762 84.5387 124.846C84.6227 124.918 84.6647 125.02 84.6647 125.152V125.872C85.3367 124.984 86.2967 124.54 87.5447 124.54C88.7567 124.54 89.6867 124.924 90.3347 125.692C90.9827 126.448 91.3307 127.474 91.3787 128.77C91.3907 128.914 91.3967 129.124 91.3967 129.4C91.3967 129.688 91.3907 129.904 91.3787 130.048C91.3307 131.308 90.9827 132.328 90.3347 133.108C89.6867 133.876 88.7567 134.26 87.5447 134.26C86.3327 134.26 85.4087 133.834 84.7727 132.982V137.068C84.7727 137.2 84.7307 137.302 84.6467 137.374C84.5747 137.458 84.4727 137.5 84.3407 137.5H82.8107ZM86.8787 132.334C88.1747 132.334 88.8647 131.536 88.9487 129.94C88.9607 129.82 88.9667 129.64 88.9667 129.4C88.9667 129.16 88.9607 128.98 88.9487 128.86C88.8647 127.264 88.1747 126.466 86.8787 126.466C86.1827 126.466 85.6667 126.688 85.3307 127.132C84.9947 127.576 84.8087 128.122 84.7727 128.77L84.7547 129.454L84.7727 130.156C84.7967 130.756 84.9827 131.272 85.3307 131.704C85.6907 132.124 86.2067 132.334 86.8787 132.334ZM96.1354 134.26C95.5234 134.26 94.9594 134.14 94.4434 133.9C93.9394 133.648 93.5374 133.312 93.2374 132.892C92.9494 132.472 92.8054 132.01 92.8054 131.506C92.8054 130.69 93.1354 130.03 93.7954 129.526C94.4554 129.022 95.3614 128.68 96.5134 128.5L98.9794 128.14V127.762C98.9794 127.234 98.8474 126.838 98.5834 126.574C98.3194 126.31 97.8934 126.178 97.3054 126.178C96.9094 126.178 96.5854 126.256 96.3334 126.412C96.0934 126.556 95.9014 126.7 95.7574 126.844C95.6134 127 95.5174 127.102 95.4694 127.15C95.4214 127.294 95.3314 127.366 95.1994 127.366H93.8134C93.7054 127.366 93.6094 127.33 93.5254 127.258C93.4534 127.186 93.4174 127.09 93.4174 126.97C93.4294 126.67 93.5734 126.328 93.8494 125.944C94.1374 125.56 94.5754 125.23 95.1634 124.954C95.7514 124.678 96.4714 124.54 97.3234 124.54C98.7394 124.54 99.7714 124.858 100.419 125.494C101.067 126.13 101.391 126.964 101.391 127.996V133.648C101.391 133.768 101.349 133.87 101.265 133.954C101.193 134.038 101.091 134.08 100.959 134.08H99.5014C99.3814 134.08 99.2794 134.038 99.1954 133.954C99.1114 133.87 99.0694 133.768 99.0694 133.648V132.946C98.8054 133.33 98.4274 133.648 97.9354 133.9C97.4554 134.14 96.8554 134.26 96.1354 134.26ZM96.7474 132.55C97.4074 132.55 97.9474 132.334 98.3674 131.902C98.7874 131.47 98.9974 130.84 98.9974 130.012V129.634L97.1974 129.922C96.5014 130.03 95.9734 130.204 95.6134 130.444C95.2654 130.684 95.0914 130.978 95.0914 131.326C95.0914 131.71 95.2534 132.01 95.5774 132.226C95.9014 132.442 96.2914 132.55 96.7474 132.55ZM104.133 134.08C104.013 134.08 103.911 134.038 103.827 133.954C103.743 133.87 103.701 133.768 103.701 133.648V125.17C103.701 125.05 103.743 124.948 103.827 124.864C103.911 124.768 104.013 124.72 104.133 124.72H105.591C105.723 124.72 105.831 124.762 105.915 124.846C105.999 124.93 106.041 125.038 106.041 125.17V125.908C106.329 125.524 106.689 125.23 107.121 125.026C107.565 124.822 108.069 124.72 108.633 124.72H109.371C109.503 124.72 109.605 124.762 109.677 124.846C109.761 124.918 109.803 125.02 109.803 125.152V126.448C109.803 126.568 109.761 126.67 109.677 126.754C109.605 126.838 109.503 126.88 109.371 126.88H107.967C107.403 126.88 106.959 127.042 106.635 127.366C106.311 127.69 106.149 128.134 106.149 128.698V133.648C106.149 133.768 106.107 133.87 106.023 133.954C105.939 134.038 105.831 134.08 105.699 134.08H104.133ZM113.784 134.26C113.172 134.26 112.608 134.14 112.092 133.9C111.588 133.648 111.186 133.312 110.886 132.892C110.598 132.472 110.454 132.01 110.454 131.506C110.454 130.69 110.784 130.03 111.444 129.526C112.104 129.022 113.01 128.68 114.162 128.5L116.628 128.14V127.762C116.628 127.234 116.496 126.838 116.232 126.574C115.968 126.31 115.542 126.178 114.954 126.178C114.558 126.178 114.234 126.256 113.982 126.412C113.742 126.556 113.55 126.7 113.406 126.844C113.262 127 113.166 127.102 113.118 127.15C113.07 127.294 112.98 127.366 112.848 127.366H111.462C111.354 127.366 111.258 127.33 111.174 127.258C111.102 127.186 111.066 127.09 111.066 126.97C111.078 126.67 111.222 126.328 111.498 125.944C111.786 125.56 112.224 125.23 112.812 124.954C113.4 124.678 114.12 124.54 114.972 124.54C116.388 124.54 117.42 124.858 118.068 125.494C118.716 126.13 119.04 126.964 119.04 127.996V133.648C119.04 133.768 118.998 133.87 118.914 133.954C118.842 134.038 118.74 134.08 118.608 134.08H117.15C117.03 134.08 116.928 134.038 116.844 133.954C116.76 133.87 116.718 133.768 116.718 133.648V132.946C116.454 133.33 116.076 133.648 115.584 133.9C115.104 134.14 114.504 134.26 113.784 134.26ZM114.396 132.55C115.056 132.55 115.596 132.334 116.016 131.902C116.436 131.47 116.646 130.84 116.646 130.012V129.634L114.846 129.922C114.15 130.03 113.622 130.204 113.262 130.444C112.914 130.684 112.74 130.978 112.74 131.326C112.74 131.71 112.902 132.01 113.226 132.226C113.55 132.442 113.94 132.55 114.396 132.55ZM129.008 134.26C128.108 134.26 127.352 134.128 126.74 133.864C126.128 133.588 125.672 133.27 125.372 132.91C125.084 132.538 124.94 132.22 124.94 131.956C124.94 131.836 124.982 131.74 125.066 131.668C125.15 131.596 125.246 131.56 125.354 131.56H126.776C126.884 131.56 126.974 131.602 127.046 131.686C127.094 131.722 127.22 131.83 127.424 132.01C127.628 132.202 127.868 132.352 128.144 132.46C128.42 132.568 128.726 132.622 129.062 132.622C129.542 132.622 129.938 132.526 130.25 132.334C130.562 132.142 130.718 131.878 130.718 131.542C130.718 131.29 130.646 131.086 130.502 130.93C130.37 130.774 130.124 130.636 129.764 130.516C129.404 130.384 128.87 130.246 128.162 130.102C127.142 129.886 126.386 129.556 125.894 129.112C125.414 128.668 125.174 128.08 125.174 127.348C125.174 126.868 125.318 126.418 125.606 125.998C125.894 125.566 126.32 125.218 126.884 124.954C127.46 124.678 128.144 124.54 128.936 124.54C129.74 124.54 130.436 124.672 131.024 124.936C131.612 125.188 132.056 125.494 132.356 125.854C132.668 126.202 132.824 126.514 132.824 126.79C132.824 126.898 132.782 126.994 132.698 127.078C132.626 127.15 132.536 127.186 132.428 127.186H131.096C131 127.186 130.898 127.144 130.79 127.06C130.706 127 130.574 126.886 130.394 126.718C130.214 126.55 130.004 126.418 129.764 126.322C129.524 126.226 129.242 126.178 128.918 126.178C128.474 126.178 128.126 126.274 127.874 126.466C127.634 126.658 127.514 126.91 127.514 127.222C127.514 127.45 127.574 127.636 127.694 127.78C127.814 127.924 128.048 128.062 128.396 128.194C128.744 128.326 129.266 128.458 129.962 128.59C131.114 128.818 131.936 129.172 132.428 129.652C132.932 130.132 133.184 130.72 133.184 131.416C133.184 132.256 132.818 132.94 132.086 133.468C131.354 133.996 130.328 134.26 129.008 134.26ZM139.074 134.26C137.742 134.26 136.68 133.876 135.888 133.108C135.108 132.328 134.694 131.236 134.646 129.832L134.628 129.382L134.646 128.932C134.706 127.564 135.126 126.49 135.906 125.71C136.698 124.93 137.754 124.54 139.074 124.54C140.49 124.54 141.582 124.972 142.35 125.836C143.13 126.7 143.52 127.852 143.52 129.292V129.67C143.52 129.79 143.478 129.892 143.394 129.976C143.31 130.06 143.202 130.102 143.07 130.102H137.094V130.246C137.118 130.906 137.298 131.464 137.634 131.92C137.982 132.364 138.456 132.586 139.056 132.586C139.764 132.586 140.334 132.31 140.766 131.758C140.874 131.626 140.958 131.542 141.018 131.506C141.09 131.47 141.192 131.452 141.324 131.452H142.872C142.98 131.452 143.07 131.488 143.142 131.56C143.226 131.62 143.268 131.698 143.268 131.794C143.268 132.082 143.094 132.424 142.746 132.82C142.41 133.204 141.924 133.54 141.288 133.828C140.652 134.116 139.914 134.26 139.074 134.26ZM141.072 128.59V128.536C141.072 127.828 140.892 127.258 140.532 126.826C140.184 126.394 139.698 126.178 139.074 126.178C138.45 126.178 137.964 126.394 137.616 126.826C137.268 127.258 137.094 127.828 137.094 128.536V128.59H141.072ZM148.905 134.26C147.801 134.26 146.931 133.9 146.295 133.18C145.659 132.448 145.341 131.458 145.341 130.21V125.152C145.341 125.032 145.383 124.93 145.467 124.846C145.551 124.762 145.653 124.72 145.773 124.72H147.357C147.489 124.72 147.591 124.762 147.663 124.846C147.747 124.918 147.789 125.02 147.789 125.152V130.102C147.789 131.59 148.443 132.334 149.751 132.334C150.375 132.334 150.867 132.136 151.227 131.74C151.599 131.344 151.785 130.798 151.785 130.102V125.152C151.785 125.032 151.827 124.93 151.911 124.846C151.995 124.762 152.097 124.72 152.217 124.72H153.801C153.933 124.72 154.035 124.762 154.107 124.846C154.191 124.918 154.233 125.02 154.233 125.152V133.648C154.233 133.768 154.191 133.87 154.107 133.954C154.035 134.038 153.933 134.08 153.801 134.08H152.343C152.223 134.08 152.121 134.038 152.037 133.954C151.953 133.87 151.911 133.768 151.911 133.648V132.91C151.239 133.81 150.237 134.26 148.905 134.26ZM59.3435 155.08C59.2235 155.08 59.1215 155.038 59.0375 154.954C58.9535 154.87 58.9115 154.768 58.9115 154.648V146.152C58.9115 146.032 58.9535 145.93 59.0375 145.846C59.1215 145.762 59.2235 145.72 59.3435 145.72H60.8195C60.9395 145.72 61.0415 145.762 61.1255 145.846C61.2095 145.93 61.2515 146.032 61.2515 146.152V146.89C61.9595 145.99 62.9615 145.54 64.2575 145.54C65.3615 145.54 66.2375 145.906 66.8855 146.638C67.5335 147.358 67.8575 148.342 67.8575 149.59V154.648C67.8575 154.768 67.8155 154.87 67.7315 154.954C67.6595 155.038 67.5575 155.08 67.4255 155.08H65.8415C65.7215 155.08 65.6195 155.038 65.5355 154.954C65.4515 154.87 65.4095 154.768 65.4095 154.648V149.698C65.4095 148.99 65.2355 148.444 64.8875 148.06C64.5515 147.664 64.0595 147.466 63.4115 147.466C62.7755 147.466 62.2715 147.664 61.8995 148.06C61.5395 148.456 61.3595 149.002 61.3595 149.698V154.648C61.3595 154.768 61.3175 154.87 61.2335 154.954C61.1615 155.038 61.0595 155.08 60.9275 155.08H59.3435ZM74.1759 155.26C72.8439 155.26 71.7819 154.876 70.9899 154.108C70.2099 153.328 69.7959 152.236 69.7479 150.832L69.7299 150.382L69.7479 149.932C69.8079 148.564 70.2279 147.49 71.0079 146.71C71.7999 145.93 72.8559 145.54 74.1759 145.54C75.5919 145.54 76.6839 145.972 77.4519 146.836C78.2319 147.7 78.6219 148.852 78.6219 150.292V150.67C78.6219 150.79 78.5799 150.892 78.4959 150.976C78.4119 151.06 78.3039 151.102 78.1719 151.102H72.1959V151.246C72.2199 151.906 72.3999 152.464 72.7359 152.92C73.0839 153.364 73.5579 153.586 74.1579 153.586C74.8659 153.586 75.4359 153.31 75.8679 152.758C75.9759 152.626 76.0599 152.542 76.1199 152.506C76.1919 152.47 76.2939 152.452 76.4259 152.452H77.9739C78.0819 152.452 78.1719 152.488 78.2439 152.56C78.3279 152.62 78.3699 152.698 78.3699 152.794C78.3699 153.082 78.1959 153.424 77.8479 153.82C77.5119 154.204 77.0259 154.54 76.3899 154.828C75.7539 155.116 75.0159 155.26 74.1759 155.26ZM76.1739 149.59V149.536C76.1739 148.828 75.9939 148.258 75.6339 147.826C75.2859 147.394 74.7999 147.178 74.1759 147.178C73.5519 147.178 73.0659 147.394 72.7179 147.826C72.3699 148.258 72.1959 148.828 72.1959 149.536V149.59H76.1739ZM84.7626 159.04C83.6946 159.04 82.8306 158.86 82.1706 158.5C81.5106 158.152 81.0426 157.75 80.7666 157.294C80.4906 156.838 80.3526 156.448 80.3526 156.124C80.3526 156.016 80.3946 155.92 80.4786 155.836C80.5746 155.752 80.6766 155.71 80.7846 155.71H82.3506C82.4586 155.71 82.5486 155.734 82.6206 155.782C82.7046 155.842 82.7706 155.944 82.8186 156.088C82.9386 156.412 83.1306 156.682 83.3946 156.898C83.6706 157.126 84.0966 157.24 84.6726 157.24C85.3926 157.24 85.9206 157.078 86.2566 156.754C86.6046 156.43 86.7786 155.872 86.7786 155.08V153.856C86.1186 154.636 85.1946 155.026 84.0066 155.026C82.7586 155.026 81.8166 154.642 81.1806 153.874C80.5566 153.106 80.2206 152.074 80.1726 150.778L80.1546 150.292L80.1726 149.806C80.2206 148.534 80.5626 147.508 81.1986 146.728C81.8346 145.936 82.7706 145.54 84.0066 145.54C84.6426 145.54 85.2006 145.66 85.6806 145.9C86.1606 146.14 86.5626 146.47 86.8866 146.89V146.17C86.8866 146.038 86.9286 145.93 87.0126 145.846C87.0966 145.762 87.1986 145.72 87.3186 145.72H88.7766C88.8966 145.72 88.9986 145.768 89.0826 145.864C89.1666 145.948 89.2086 146.05 89.2086 146.17L89.2266 154.846C89.2266 156.178 88.8546 157.21 88.1106 157.942C87.3666 158.674 86.2506 159.04 84.7626 159.04ZM84.6726 153.118C85.3566 153.118 85.8666 152.902 86.2026 152.47C86.5506 152.038 86.7426 151.51 86.7786 150.886C86.7906 150.79 86.7966 150.592 86.7966 150.292C86.7966 150.004 86.7906 149.812 86.7786 149.716C86.7426 149.08 86.5506 148.546 86.2026 148.114C85.8666 147.682 85.3566 147.466 84.6726 147.466C83.3766 147.466 82.6926 148.264 82.6206 149.86L82.6026 150.292C82.6026 151.144 82.7526 151.828 83.0526 152.344C83.3646 152.86 83.9046 153.118 84.6726 153.118ZM95.7644 155.26C94.3604 155.26 93.2744 154.9 92.5064 154.18C91.7384 153.448 91.3244 152.452 91.2644 151.192L91.2464 150.4L91.2644 149.608C91.3244 148.36 91.7444 147.37 92.5244 146.638C93.3044 145.906 94.3844 145.54 95.7644 145.54C97.1444 145.54 98.2244 145.906 99.0044 146.638C99.7844 147.37 100.204 148.36 100.264 149.608C100.276 149.752 100.282 150.016 100.282 150.4C100.282 150.784 100.276 151.048 100.264 151.192C100.204 152.452 99.7904 153.448 99.0224 154.18C98.2544 154.9 97.1684 155.26 95.7644 155.26ZM95.7644 153.478C96.4004 153.478 96.8924 153.28 97.2404 152.884C97.5884 152.476 97.7804 151.882 97.8164 151.102C97.8284 150.982 97.8344 150.748 97.8344 150.4C97.8344 150.052 97.8284 149.818 97.8164 149.698C97.7804 148.918 97.5884 148.33 97.2404 147.934C96.8924 147.526 96.4004 147.322 95.7644 147.322C95.1284 147.322 94.6364 147.526 94.2884 147.934C93.9404 148.33 93.7484 148.918 93.7124 149.698L93.6944 150.4L93.7124 151.102C93.7484 151.882 93.9404 152.476 94.2884 152.884C94.6364 153.28 95.1284 153.478 95.7644 153.478ZM94.9724 144.37C94.7804 144.37 94.6844 144.274 94.6844 144.082C94.6844 143.986 94.7144 143.908 94.7744 143.848L96.2324 142.066C96.3524 141.934 96.4544 141.85 96.5384 141.814C96.6344 141.766 96.7544 141.742 96.8984 141.742H98.6984C98.9264 141.742 99.0404 141.856 99.0404 142.084C99.0404 142.168 99.0104 142.24 98.9504 142.3L96.7184 144.136C96.6104 144.22 96.5084 144.28 96.4124 144.316C96.3284 144.352 96.2144 144.37 96.0704 144.37H94.9724ZM106.327 155.26C105.007 155.26 103.951 154.894 103.159 154.162C102.379 153.43 101.965 152.416 101.917 151.12L101.899 150.4L101.917 149.68C101.965 148.384 102.379 147.37 103.159 146.638C103.951 145.906 105.007 145.54 106.327 145.54C107.263 145.54 108.055 145.708 108.703 146.044C109.363 146.38 109.849 146.794 110.161 147.286C110.485 147.766 110.659 148.222 110.683 148.654C110.695 148.774 110.653 148.876 110.557 148.96C110.473 149.044 110.371 149.086 110.251 149.086H108.667C108.547 149.086 108.451 149.062 108.379 149.014C108.319 148.954 108.259 148.858 108.199 148.726C108.019 148.258 107.779 147.922 107.479 147.718C107.191 147.514 106.819 147.412 106.363 147.412C105.751 147.412 105.271 147.61 104.923 148.006C104.575 148.39 104.389 148.978 104.365 149.77L104.347 150.436L104.365 151.03C104.413 152.602 105.079 153.388 106.363 153.388C106.831 153.388 107.209 153.286 107.497 153.082C107.785 152.878 108.019 152.542 108.199 152.074C108.259 151.942 108.319 151.852 108.379 151.804C108.451 151.744 108.547 151.714 108.667 151.714H110.251C110.371 151.714 110.473 151.756 110.557 151.84C110.653 151.924 110.695 152.026 110.683 152.146C110.659 152.566 110.491 153.016 110.179 153.496C109.867 153.976 109.387 154.39 108.739 154.738C108.091 155.086 107.287 155.26 106.327 155.26ZM112.92 144.172C112.8 144.172 112.698 144.13 112.614 144.046C112.53 143.962 112.488 143.86 112.488 143.74V142.444C112.488 142.324 112.53 142.222 112.614 142.138C112.698 142.054 112.8 142.012 112.92 142.012H114.558C114.678 142.012 114.78 142.054 114.864 142.138C114.96 142.222 115.008 142.324 115.008 142.444V143.74C115.008 143.86 114.966 143.962 114.882 144.046C114.798 144.13 114.69 144.172 114.558 144.172H112.92ZM112.992 155.08C112.872 155.08 112.77 155.038 112.686 154.954C112.602 154.87 112.56 154.768 112.56 154.648V146.152C112.56 146.032 112.602 145.93 112.686 145.846C112.77 145.762 112.872 145.72 112.992 145.72H114.486C114.618 145.72 114.72 145.762 114.792 145.846C114.876 145.918 114.918 146.02 114.918 146.152V154.648C114.918 154.768 114.876 154.87 114.792 154.954C114.72 155.038 114.618 155.08 114.486 155.08H112.992ZM121.446 155.26C120.042 155.26 118.956 154.9 118.188 154.18C117.42 153.448 117.006 152.452 116.946 151.192L116.928 150.4L116.946 149.608C117.006 148.36 117.426 147.37 118.206 146.638C118.986 145.906 120.066 145.54 121.446 145.54C122.826 145.54 123.906 145.906 124.686 146.638C125.466 147.37 125.886 148.36 125.946 149.608C125.958 149.752 125.964 150.016 125.964 150.4C125.964 150.784 125.958 151.048 125.946 151.192C125.886 152.452 125.472 153.448 124.704 154.18C123.936 154.9 122.85 155.26 121.446 155.26ZM121.446 153.478C122.082 153.478 122.574 153.28 122.922 152.884C123.27 152.476 123.462 151.882 123.498 151.102C123.51 150.982 123.516 150.748 123.516 150.4C123.516 150.052 123.51 149.818 123.498 149.698C123.462 148.918 123.27 148.33 122.922 147.934C122.574 147.526 122.082 147.322 121.446 147.322C120.81 147.322 120.318 147.526 119.97 147.934C119.622 148.33 119.43 148.918 119.394 149.698L119.376 150.4L119.394 151.102C119.43 151.882 119.622 152.476 119.97 152.884C120.318 153.28 120.81 153.478 121.446 153.478Z" fill="#2E2B2B"/>
</svg>
