<svg width="152" height="145" viewBox="0 0 152 145" fill="none" xmlns="http://www.w3.org/2000/svg">
<path d="M48.2515 55.5848C47.7706 56.5538 47.9579 57.725 48.7155 58.491L49.324 59.1057C51.0823 57.0009 53.1315 54.7167 55.6168 52.2067C55.7924 52.0293 55.9732 51.9435 56.1495 51.7798L52.2345 47.8242C49.9585 51.9828 48.6313 54.8241 48.2515 55.5848Z" fill="#2E2B2B"/>
<path d="M69.6943 66.4288C67.2031 68.9454 64.9478 71.0194 62.8759 72.7969L63.7003 73.6296C64.465 74.4022 65.6354 74.5881 66.5978 74.0879C67.8868 73.4169 69.914 72.4532 74.2171 70.0322L70.1174 65.8906C69.9554 66.0694 69.8705 66.2514 69.6943 66.4288V66.4288Z" fill="#2E2B2B"/>
<path d="M68.3675 53.5505C66.5691 51.7337 61.5115 53.3626 59.1357 55.762C51.1878 63.791 47.5981 69.4835 45.9864 72.8446C45.5243 73.8077 45.7168 74.9606 46.4659 75.7174C47.2164 76.4762 48.3596 76.6687 49.3136 76.2019C52.5662 74.6064 58.1325 70.9971 66.175 62.8732C68.7874 60.2328 70.0764 55.2775 68.3694 53.5524L68.3675 53.5505Z" fill="#2E2B2B"/>
<path d="M43.619 34.0717L36.5803 41.1822C35.7845 41.9862 35.6212 43.2307 36.185 44.2167C36.7352 45.1895 37.8875 45.6851 38.984 45.3886C42.7882 44.3581 46.1355 43.9227 48.3895 44.5067C51.5961 38.7474 55.0419 33.4458 58.6912 28.63C56.5804 27.263 49.6052 28.0244 43.619 34.0717V34.0717Z" fill="#2E2B2B"/>
<path d="M77.9738 86.1415C78.9323 86.6312 80.0929 86.442 80.8518 85.6747L87.8912 78.5641C93.3408 73.0576 94.2999 65.953 93.0634 63.7002C87.7466 67.7481 82.3605 71.1662 77.3354 74.0278C77.6821 76.0056 77.4514 77.9245 76.6316 83.5286C76.4715 84.6134 77.0263 85.6629 77.9738 86.1415V86.1415Z" fill="#2E2B2B"/>
<path d="M85.2582 25.8189C82.3478 28.7598 82.3478 33.5435 85.2582 36.4844C88.1694 39.4252 92.9055 39.4252 95.8166 36.4844C98.7277 33.5435 98.7277 28.7598 95.8166 25.8189C92.9055 22.8781 88.1694 22.8781 85.2582 25.8189Z" fill="#2E2B2B"/>
<path d="M120.649 3.05281C120.559 1.80957 119.579 0.826889 118.353 0.733924C112.241 0.269098 106.153 1.02853 100.185 2.87212C100.634 7.01365 102.755 11.4956 106.375 15.1527C110.039 18.853 114.596 20.9944 118.769 21.3951C120.376 15.7052 121.138 9.61144 120.649 3.05281V3.05281Z" fill="#2E2B2B"/>
<path d="M102.856 18.7092C98.715 14.5258 96.1862 9.5083 95.3748 4.62305C80.431 10.8144 66.1255 24.3349 54.8212 43.3286L60.4374 49.0021C64.2746 47.4283 68.9329 47.0125 71.8875 49.9966C74.8459 52.9859 74.4266 57.6898 72.8693 61.5609L78.6702 67.421C93.1364 58.6135 109.978 44.7375 117.14 26.2761C112.186 25.5199 107.065 22.9607 102.856 18.7092V18.7092ZM99.3358 40.0408C94.485 44.9411 86.5909 44.9411 81.7394 40.0408C76.888 35.1398 76.888 27.1645 81.7394 22.2642C86.5909 17.3639 94.485 17.3639 99.3358 22.2642C104.187 27.1651 104.187 35.1398 99.3358 40.0408Z" fill="#2E2B2B"/>
<path d="M46.376 111.261C44.744 111.261 43.472 110.847 42.56 110.019C41.648 109.191 41.168 107.961 41.12 106.329C41.108 105.981 41.102 105.471 41.102 104.799C41.102 104.115 41.108 103.599 41.12 103.251C41.168 101.655 41.66 100.431 42.596 99.5786C43.532 98.7266 44.792 98.3006 46.376 98.3006C47.96 98.3006 49.22 98.7266 50.156 99.5786C51.104 100.431 51.602 101.655 51.65 103.251C51.674 103.947 51.686 104.463 51.686 104.799C51.686 105.123 51.674 105.633 51.65 106.329C51.59 107.961 51.104 109.191 50.192 110.019C49.28 110.847 48.008 111.261 46.376 111.261ZM46.376 109.191C47.18 109.191 47.822 108.951 48.302 108.471C48.782 107.979 49.04 107.235 49.076 106.239C49.1 105.519 49.112 105.033 49.112 104.781C49.112 104.505 49.1 104.019 49.076 103.323C49.04 102.327 48.782 101.589 48.302 101.109C47.822 100.617 47.18 100.371 46.376 100.371C45.584 100.371 44.948 100.617 44.468 101.109C43.988 101.589 43.73 102.327 43.694 103.323C43.682 103.671 43.676 104.157 43.676 104.781C43.676 105.393 43.682 105.879 43.694 106.239C43.73 107.235 43.982 107.979 44.45 108.471C44.93 108.951 45.572 109.191 46.376 109.191ZM59.0176 111.261C57.7816 111.261 56.8216 110.835 56.1376 109.983V110.649C56.1376 110.769 56.0956 110.871 56.0116 110.955C55.9396 111.039 55.8376 111.081 55.7056 111.081H54.2836C54.1636 111.081 54.0616 111.039 53.9776 110.955C53.8936 110.871 53.8516 110.769 53.8516 110.649V98.7326C53.8516 98.6006 53.8936 98.4986 53.9776 98.4266C54.0616 98.3426 54.1636 98.3006 54.2836 98.3006H55.8136C55.9456 98.3006 56.0476 98.3426 56.1196 98.4266C56.2036 98.4986 56.2456 98.6006 56.2456 98.7326V102.729C56.9296 101.937 57.8536 101.541 59.0176 101.541C60.2296 101.541 61.1596 101.937 61.8076 102.729C62.4556 103.521 62.8036 104.547 62.8516 105.807C62.8636 105.951 62.8696 106.143 62.8696 106.383C62.8696 106.635 62.8636 106.833 62.8516 106.977C62.8036 108.273 62.4556 109.311 61.8076 110.091C61.1596 110.871 60.2296 111.261 59.0176 111.261ZM58.3516 109.335C59.6476 109.335 60.3376 108.537 60.4216 106.941C60.4336 106.821 60.4396 106.641 60.4396 106.401C60.4396 106.161 60.4336 105.981 60.4216 105.861C60.3376 104.265 59.6476 103.467 58.3516 103.467C57.6796 103.467 57.1636 103.683 56.8036 104.115C56.4556 104.535 56.2696 105.045 56.2456 105.645L56.2276 106.329L56.2456 107.031C56.2816 107.679 56.4676 108.225 56.8036 108.669C57.1396 109.113 57.6556 109.335 58.3516 109.335ZM65.4307 100.173C65.3107 100.173 65.2087 100.131 65.1247 100.047C65.0407 99.9626 64.9987 99.8606 64.9987 99.7406V98.4446C64.9987 98.3246 65.0407 98.2226 65.1247 98.1386C65.2087 98.0546 65.3107 98.0126 65.4307 98.0126H67.1227C67.2427 98.0126 67.3447 98.0546 67.4287 98.1386C67.5247 98.2226 67.5727 98.3246 67.5727 98.4446V99.7406C67.5727 99.8606 67.5307 99.9626 67.4467 100.047C67.3627 100.131 67.2547 100.173 67.1227 100.173H65.4307ZM63.3247 114.501C63.1927 114.501 63.0907 114.459 63.0187 114.375C62.9347 114.303 62.8927 114.201 62.8927 114.069V113.043C62.8927 112.911 62.9347 112.803 63.0187 112.719C63.1027 112.635 63.2047 112.593 63.3247 112.593H63.7927C64.2967 112.593 64.6327 112.461 64.8007 112.197C64.9807 111.945 65.0707 111.567 65.0707 111.063V102.153C65.0707 102.021 65.1127 101.919 65.1967 101.847C65.2807 101.763 65.3827 101.721 65.5027 101.721H67.0687C67.1887 101.721 67.2907 101.763 67.3747 101.847C67.4587 101.931 67.5007 102.033 67.5007 102.153V111.099C67.5007 112.179 67.2067 113.013 66.6187 113.601C66.0427 114.201 65.1727 114.501 64.0087 114.501H63.3247ZM73.9321 111.261C72.6001 111.261 71.5381 110.877 70.7461 110.109C69.9661 109.329 69.5521 108.237 69.5041 106.833L69.4861 106.383L69.5041 105.933C69.5641 104.565 69.9841 103.491 70.7641 102.711C71.5561 101.931 72.6121 101.541 73.9321 101.541C75.3481 101.541 76.4401 101.973 77.2081 102.837C77.9881 103.701 78.3781 104.853 78.3781 106.293V106.671C78.3781 106.791 78.3361 106.893 78.2521 106.977C78.1681 107.061 78.0601 107.103 77.9281 107.103H71.9521V107.247C71.9761 107.907 72.1561 108.465 72.4921 108.921C72.8401 109.365 73.3141 109.587 73.9141 109.587C74.6221 109.587 75.1921 109.311 75.6241 108.759C75.7321 108.627 75.8161 108.543 75.8761 108.507C75.9481 108.471 76.0501 108.453 76.1821 108.453H77.7301C77.8381 108.453 77.9281 108.489 78.0001 108.561C78.0841 108.621 78.1261 108.699 78.1261 108.795C78.1261 109.083 77.9521 109.425 77.6041 109.821C77.2681 110.205 76.7821 110.541 76.1461 110.829C75.5101 111.117 74.7721 111.261 73.9321 111.261ZM75.9301 105.591V105.537C75.9301 104.829 75.7501 104.259 75.3901 103.827C75.0421 103.395 74.5561 103.179 73.9321 103.179C73.3081 103.179 72.8221 103.395 72.4741 103.827C72.1261 104.259 71.9521 104.829 71.9521 105.537V105.591H75.9301ZM84.4836 111.081C83.3916 111.081 82.5696 110.799 82.0176 110.235C81.4776 109.659 81.2076 108.819 81.2076 107.715V103.629H79.7856C79.6656 103.629 79.5636 103.587 79.4796 103.503C79.3956 103.407 79.3536 103.299 79.3536 103.179V102.153C79.3536 102.033 79.3956 101.931 79.4796 101.847C79.5636 101.763 79.6656 101.721 79.7856 101.721H81.2076V98.7326C81.2076 98.6006 81.2496 98.4986 81.3336 98.4266C81.4176 98.3426 81.5196 98.3006 81.6396 98.3006H83.0976C83.2296 98.3006 83.3316 98.3426 83.4036 98.4266C83.4876 98.4986 83.5296 98.6006 83.5296 98.7326V101.721H85.7796C85.9116 101.721 86.0136 101.763 86.0856 101.847C86.1696 101.919 86.2116 102.021 86.2116 102.153V103.179C86.2116 103.311 86.1696 103.419 86.0856 103.503C86.0016 103.587 85.8996 103.629 85.7796 103.629H83.5296V107.535C83.5296 108.051 83.6196 108.441 83.7996 108.705C83.9796 108.969 84.2796 109.101 84.6996 109.101H85.9416C86.0616 109.101 86.1636 109.143 86.2476 109.227C86.3316 109.311 86.3736 109.413 86.3736 109.533V110.649C86.3736 110.769 86.3316 110.871 86.2476 110.955C86.1756 111.039 86.0736 111.081 85.9416 111.081H84.4836ZM88.3304 100.173C88.2104 100.173 88.1084 100.131 88.0244 100.047C87.9404 99.9626 87.8984 99.8606 87.8984 99.7406V98.4446C87.8984 98.3246 87.9404 98.2226 88.0244 98.1386C88.1084 98.0546 88.2104 98.0126 88.3304 98.0126H89.9684C90.0884 98.0126 90.1904 98.0546 90.2744 98.1386C90.3704 98.2226 90.4184 98.3246 90.4184 98.4446V99.7406C90.4184 99.8606 90.3764 99.9626 90.2924 100.047C90.2084 100.131 90.1004 100.173 89.9684 100.173H88.3304ZM88.4024 111.081C88.2824 111.081 88.1804 111.039 88.0964 110.955C88.0124 110.871 87.9704 110.769 87.9704 110.649V102.153C87.9704 102.033 88.0124 101.931 88.0964 101.847C88.1804 101.763 88.2824 101.721 88.4024 101.721H89.8964C90.0284 101.721 90.1304 101.763 90.2024 101.847C90.2864 101.919 90.3284 102.021 90.3284 102.153V110.649C90.3284 110.769 90.2864 110.871 90.2024 110.955C90.1304 111.039 90.0284 111.081 89.8964 111.081H88.4024ZM96.0285 111.081C95.8485 111.081 95.7105 111.045 95.6145 110.973C95.5185 110.889 95.4405 110.775 95.3805 110.631L92.0145 102.279L91.9785 102.117C91.9785 102.009 92.0145 101.919 92.0865 101.847C92.1705 101.763 92.2665 101.721 92.3745 101.721H93.8325C94.0605 101.721 94.2165 101.835 94.3005 102.063L96.6945 108.381L99.0885 102.063C99.1245 101.979 99.1785 101.901 99.2505 101.829C99.3345 101.757 99.4365 101.721 99.5565 101.721H101.032C101.128 101.721 101.212 101.763 101.284 101.847C101.368 101.919 101.41 102.009 101.41 102.117C101.41 102.189 101.404 102.243 101.392 102.279L98.0085 110.631C97.9485 110.775 97.8705 110.889 97.7745 110.973C97.6785 111.045 97.5405 111.081 97.3605 111.081H96.0285ZM106.858 111.261C105.454 111.261 104.368 110.901 103.6 110.181C102.832 109.449 102.418 108.453 102.358 107.193L102.34 106.401L102.358 105.609C102.418 104.361 102.838 103.371 103.618 102.639C104.398 101.907 105.478 101.541 106.858 101.541C108.238 101.541 109.318 101.907 110.098 102.639C110.878 103.371 111.298 104.361 111.358 105.609C111.37 105.753 111.376 106.017 111.376 106.401C111.376 106.785 111.37 107.049 111.358 107.193C111.298 108.453 110.884 109.449 110.116 110.181C109.348 110.901 108.262 111.261 106.858 111.261ZM106.858 109.479C107.494 109.479 107.986 109.281 108.334 108.885C108.682 108.477 108.874 107.883 108.91 107.103C108.922 106.983 108.928 106.749 108.928 106.401C108.928 106.053 108.922 105.819 108.91 105.699C108.874 104.919 108.682 104.331 108.334 103.935C107.986 103.527 107.494 103.323 106.858 103.323C106.222 103.323 105.73 103.527 105.382 103.935C105.034 104.331 104.842 104.919 104.806 105.699L104.788 106.401L104.806 107.103C104.842 107.883 105.034 108.477 105.382 108.885C105.73 109.281 106.222 109.479 106.858 109.479ZM31.0458 132.261C30.4338 132.261 29.8698 132.141 29.3538 131.901C28.8498 131.649 28.4478 131.313 28.1478 130.893C27.8598 130.473 27.7158 130.011 27.7158 129.507C27.7158 128.691 28.0458 128.031 28.7058 127.527C29.3658 127.023 30.2718 126.681 31.4238 126.501L33.8898 126.141V125.763C33.8898 125.235 33.7578 124.839 33.4938 124.575C33.2298 124.311 32.8038 124.179 32.2158 124.179C31.8198 124.179 31.4958 124.257 31.2438 124.413C31.0038 124.557 30.8118 124.701 30.6678 124.845C30.5238 125.001 30.4278 125.103 30.3798 125.151C30.3318 125.295 30.2418 125.367 30.1098 125.367H28.7238C28.6158 125.367 28.5198 125.331 28.4358 125.259C28.3638 125.187 28.3278 125.091 28.3278 124.971C28.3398 124.671 28.4838 124.329 28.7598 123.945C29.0478 123.561 29.4858 123.231 30.0738 122.955C30.6618 122.679 31.3818 122.541 32.2338 122.541C33.6498 122.541 34.6818 122.859 35.3298 123.495C35.9778 124.131 36.3018 124.965 36.3018 125.997V131.649C36.3018 131.769 36.2598 131.871 36.1758 131.955C36.1038 132.039 36.0018 132.081 35.8698 132.081H34.4118C34.2918 132.081 34.1898 132.039 34.1058 131.955C34.0218 131.871 33.9798 131.769 33.9798 131.649V130.947C33.7158 131.331 33.3378 131.649 32.8458 131.901C32.3658 132.141 31.7658 132.261 31.0458 132.261ZM31.6578 130.551C32.3178 130.551 32.8578 130.335 33.2778 129.903C33.6978 129.471 33.9078 128.841 33.9078 128.013V127.635L32.1078 127.923C31.4118 128.031 30.8838 128.205 30.5238 128.445C30.1758 128.685 30.0018 128.979 30.0018 129.327C30.0018 129.711 30.1638 130.011 30.4878 130.227C30.8118 130.443 31.2018 130.551 31.6578 130.551ZM39.061 132.081C38.941 132.081 38.839 132.039 38.755 131.955C38.671 131.871 38.629 131.769 38.629 131.649V119.733C38.629 119.601 38.671 119.499 38.755 119.427C38.839 119.343 38.941 119.301 39.061 119.301H40.555C40.687 119.301 40.789 119.343 40.861 119.427C40.945 119.499 40.987 119.601 40.987 119.733V131.649C40.987 131.769 40.945 131.871 40.861 131.955C40.789 132.039 40.687 132.081 40.555 132.081H39.061ZM47.4247 132.261C46.1047 132.261 45.0487 131.895 44.2567 131.163C43.4767 130.431 43.0627 129.417 43.0147 128.121L42.9967 127.401L43.0147 126.681C43.0627 125.385 43.4767 124.371 44.2567 123.639C45.0487 122.907 46.1047 122.541 47.4247 122.541C48.3607 122.541 49.1527 122.709 49.8007 123.045C50.4607 123.381 50.9467 123.795 51.2587 124.287C51.5827 124.767 51.7567 125.223 51.7807 125.655C51.7927 125.775 51.7507 125.877 51.6547 125.961C51.5707 126.045 51.4687 126.087 51.3487 126.087H49.7647C49.6447 126.087 49.5487 126.063 49.4767 126.015C49.4167 125.955 49.3567 125.859 49.2967 125.727C49.1167 125.259 48.8767 124.923 48.5767 124.719C48.2887 124.515 47.9167 124.413 47.4607 124.413C46.8487 124.413 46.3687 124.611 46.0207 125.007C45.6727 125.391 45.4867 125.979 45.4627 126.771L45.4447 127.437L45.4627 128.031C45.5107 129.603 46.1767 130.389 47.4607 130.389C47.9287 130.389 48.3067 130.287 48.5947 130.083C48.8827 129.879 49.1167 129.543 49.2967 129.075C49.3567 128.943 49.4167 128.853 49.4767 128.805C49.5487 128.745 49.6447 128.715 49.7647 128.715H51.3487C51.4687 128.715 51.5707 128.757 51.6547 128.841C51.7507 128.925 51.7927 129.027 51.7807 129.147C51.7567 129.567 51.5887 130.017 51.2767 130.497C50.9647 130.977 50.4847 131.391 49.8367 131.739C49.1887 132.087 48.3847 132.261 47.4247 132.261ZM56.3759 132.261C55.7639 132.261 55.1999 132.141 54.6839 131.901C54.1799 131.649 53.7779 131.313 53.4779 130.893C53.1899 130.473 53.0459 130.011 53.0459 129.507C53.0459 128.691 53.3759 128.031 54.0359 127.527C54.6959 127.023 55.6019 126.681 56.7539 126.501L59.2199 126.141V125.763C59.2199 125.235 59.0879 124.839 58.8239 124.575C58.5599 124.311 58.1339 124.179 57.5459 124.179C57.1499 124.179 56.8259 124.257 56.5739 124.413C56.3339 124.557 56.1419 124.701 55.9979 124.845C55.8539 125.001 55.7579 125.103 55.7099 125.151C55.6619 125.295 55.5719 125.367 55.4399 125.367H54.0539C53.9459 125.367 53.8499 125.331 53.7659 125.259C53.6939 125.187 53.6579 125.091 53.6579 124.971C53.6699 124.671 53.8139 124.329 54.0899 123.945C54.3779 123.561 54.8159 123.231 55.4039 122.955C55.9919 122.679 56.7119 122.541 57.5639 122.541C58.9799 122.541 60.0119 122.859 60.6599 123.495C61.3079 124.131 61.6319 124.965 61.6319 125.997V131.649C61.6319 131.769 61.5899 131.871 61.5059 131.955C61.4339 132.039 61.3319 132.081 61.1999 132.081H59.7419C59.6219 132.081 59.5199 132.039 59.4359 131.955C59.3519 131.871 59.3099 131.769 59.3099 131.649V130.947C59.0459 131.331 58.6679 131.649 58.1759 131.901C57.6959 132.141 57.0959 132.261 56.3759 132.261ZM56.9879 130.551C57.6479 130.551 58.1879 130.335 58.6079 129.903C59.0279 129.471 59.2379 128.841 59.2379 128.013V127.635L57.4379 127.923C56.7419 128.031 56.2139 128.205 55.8539 128.445C55.5059 128.685 55.3319 128.979 55.3319 129.327C55.3319 129.711 55.4939 130.011 55.8179 130.227C56.1419 130.443 56.5319 130.551 56.9879 130.551ZM64.3731 132.081C64.2531 132.081 64.1511 132.039 64.0671 131.955C63.9831 131.871 63.9411 131.769 63.9411 131.649V123.153C63.9411 123.033 63.9831 122.931 64.0671 122.847C64.1511 122.763 64.2531 122.721 64.3731 122.721H65.8491C65.9691 122.721 66.0711 122.763 66.1551 122.847C66.2391 122.931 66.2811 123.033 66.2811 123.153V123.891C66.9891 122.991 67.9911 122.541 69.2871 122.541C70.3911 122.541 71.2671 122.907 71.9151 123.639C72.5631 124.359 72.8871 125.343 72.8871 126.591V131.649C72.8871 131.769 72.8451 131.871 72.7611 131.955C72.6891 132.039 72.5871 132.081 72.4551 132.081H70.8711C70.7511 132.081 70.6491 132.039 70.5651 131.955C70.4811 131.871 70.4391 131.769 70.4391 131.649V126.699C70.4391 125.991 70.2651 125.445 69.9171 125.061C69.5811 124.665 69.0891 124.467 68.4411 124.467C67.8051 124.467 67.3011 124.665 66.9291 125.061C66.5691 125.457 66.3891 126.003 66.3891 126.699V131.649C66.3891 131.769 66.3471 131.871 66.2631 131.955C66.1911 132.039 66.0891 132.081 65.9571 132.081H64.3731ZM79.2415 136.041C78.8335 136.041 78.4675 135.957 78.1435 135.789C77.8315 135.621 77.6755 135.453 77.6755 135.285C77.6755 135.237 77.7055 135.183 77.7655 135.123L78.0715 134.853C78.1315 134.793 78.1915 134.763 78.2515 134.763C78.2995 134.763 78.4135 134.817 78.5935 134.925C78.7735 135.021 78.9775 135.069 79.2055 135.069C79.3975 135.069 79.5535 135.009 79.6735 134.889C79.8055 134.781 79.8715 134.637 79.8715 134.457C79.8715 134.289 79.8055 134.151 79.6735 134.043C79.5535 133.935 79.3975 133.881 79.2055 133.881C79.0735 133.881 78.9235 133.905 78.7555 133.953C78.5875 134.001 78.4735 134.025 78.4135 134.025C78.3055 134.025 78.2215 133.989 78.1615 133.917L77.8375 133.593C77.7895 133.533 77.7655 133.467 77.7655 133.395C77.7655 133.299 77.8015 133.179 77.8735 133.035L78.2515 132.171C77.2075 132.003 76.3855 131.571 75.7855 130.875C75.1855 130.179 74.8615 129.261 74.8135 128.121L74.7955 127.401L74.8135 126.681C74.8615 125.385 75.2755 124.371 76.0555 123.639C76.8475 122.907 77.9035 122.541 79.2235 122.541C80.1595 122.541 80.9515 122.709 81.5995 123.045C82.2595 123.381 82.7455 123.795 83.0575 124.287C83.3815 124.767 83.5555 125.223 83.5795 125.655C83.5915 125.775 83.5495 125.877 83.4535 125.961C83.3695 126.045 83.2675 126.087 83.1475 126.087H81.5635C81.4435 126.087 81.3475 126.063 81.2755 126.015C81.2155 125.955 81.1555 125.859 81.0955 125.727C80.9155 125.259 80.6755 124.923 80.3755 124.719C80.0875 124.515 79.7155 124.413 79.2595 124.413C78.6475 124.413 78.1675 124.611 77.8195 125.007C77.4715 125.391 77.2855 125.979 77.2615 126.771L77.2435 127.437L77.2615 128.031C77.3095 129.603 77.9755 130.389 79.2595 130.389C79.7275 130.389 80.1055 130.287 80.3935 130.083C80.6815 129.879 80.9155 129.543 81.0955 129.075C81.1555 128.943 81.2155 128.853 81.2755 128.805C81.3475 128.745 81.4435 128.715 81.5635 128.715H83.1475C83.2675 128.715 83.3695 128.757 83.4535 128.841C83.5495 128.925 83.5915 129.027 83.5795 129.147C83.5555 129.567 83.3875 130.017 83.0755 130.497C82.7755 130.977 82.3015 131.391 81.6535 131.739C81.0175 132.087 80.2255 132.261 79.2775 132.261L78.8995 133.035C78.9715 132.999 79.0675 132.969 79.1875 132.945C79.3075 132.921 79.4215 132.909 79.5295 132.909C79.9375 132.909 80.2735 133.047 80.5375 133.323C80.8015 133.611 80.9335 133.983 80.9335 134.439C80.9335 134.895 80.7835 135.273 80.4835 135.573C80.1835 135.885 79.7695 136.041 79.2415 136.041ZM88.1747 132.261C87.5627 132.261 86.9987 132.141 86.4827 131.901C85.9787 131.649 85.5767 131.313 85.2767 130.893C84.9887 130.473 84.8447 130.011 84.8447 129.507C84.8447 128.691 85.1747 128.031 85.8347 127.527C86.4947 127.023 87.4007 126.681 88.5527 126.501L91.0187 126.141V125.763C91.0187 125.235 90.8867 124.839 90.6227 124.575C90.3587 124.311 89.9327 124.179 89.3447 124.179C88.9487 124.179 88.6247 124.257 88.3727 124.413C88.1327 124.557 87.9407 124.701 87.7967 124.845C87.6527 125.001 87.5567 125.103 87.5087 125.151C87.4607 125.295 87.3707 125.367 87.2387 125.367H85.8527C85.7447 125.367 85.6487 125.331 85.5647 125.259C85.4927 125.187 85.4567 125.091 85.4567 124.971C85.4687 124.671 85.6127 124.329 85.8887 123.945C86.1767 123.561 86.6147 123.231 87.2027 122.955C87.7907 122.679 88.5107 122.541 89.3627 122.541C90.7787 122.541 91.8107 122.859 92.4587 123.495C93.1067 124.131 93.4307 124.965 93.4307 125.997V131.649C93.4307 131.769 93.3887 131.871 93.3047 131.955C93.2327 132.039 93.1307 132.081 92.9987 132.081H91.5407C91.4207 132.081 91.3187 132.039 91.2347 131.955C91.1507 131.871 91.1087 131.769 91.1087 131.649V130.947C90.8447 131.331 90.4667 131.649 89.9747 131.901C89.4947 132.141 88.8947 132.261 88.1747 132.261ZM88.7867 130.551C89.4467 130.551 89.9867 130.335 90.4067 129.903C90.8267 129.471 91.0367 128.841 91.0367 128.013V127.635L89.2367 127.923C88.5407 128.031 88.0127 128.205 87.6527 128.445C87.3047 128.685 87.1307 128.979 87.1307 129.327C87.1307 129.711 87.2927 130.011 87.6167 130.227C87.9407 130.443 88.3307 130.551 88.7867 130.551ZM99.2139 132.261C98.0019 132.261 97.0719 131.871 96.4239 131.091C95.7759 130.311 95.4279 129.273 95.3799 127.977L95.3619 127.383L95.3799 126.807C95.4159 125.547 95.7579 124.521 96.4059 123.729C97.0659 122.937 98.0019 122.541 99.2139 122.541C100.378 122.541 101.302 122.937 101.986 123.729V119.733C101.986 119.601 102.028 119.499 102.112 119.427C102.196 119.343 102.298 119.301 102.418 119.301H103.948C104.08 119.301 104.182 119.343 104.254 119.427C104.338 119.499 104.38 119.601 104.38 119.733V131.649C104.38 131.769 104.338 131.871 104.254 131.955C104.182 132.039 104.08 132.081 103.948 132.081H102.526C102.406 132.081 102.304 132.039 102.22 131.955C102.136 131.871 102.094 131.769 102.094 131.649V130.983C101.41 131.835 100.45 132.261 99.2139 132.261ZM99.8799 130.335C100.576 130.335 101.092 130.113 101.428 129.669C101.764 129.225 101.95 128.679 101.986 128.031C101.998 127.887 102.004 127.653 102.004 127.329C102.004 127.017 101.998 126.789 101.986 126.645C101.962 126.045 101.77 125.535 101.41 125.115C101.062 124.683 100.552 124.467 99.8799 124.467C98.5839 124.467 97.8939 125.265 97.8099 126.861L97.7919 127.401L97.8099 127.941C97.8939 129.537 98.5839 130.335 99.8799 130.335ZM110.919 132.261C109.515 132.261 108.429 131.901 107.661 131.181C106.893 130.449 106.479 129.453 106.419 128.193L106.401 127.401L106.419 126.609C106.479 125.361 106.899 124.371 107.679 123.639C108.459 122.907 109.539 122.541 110.919 122.541C112.299 122.541 113.379 122.907 114.159 123.639C114.939 124.371 115.359 125.361 115.419 126.609C115.431 126.753 115.437 127.017 115.437 127.401C115.437 127.785 115.431 128.049 115.419 128.193C115.359 129.453 114.945 130.449 114.177 131.181C113.409 131.901 112.323 132.261 110.919 132.261ZM110.919 130.479C111.555 130.479 112.047 130.281 112.395 129.885C112.743 129.477 112.935 128.883 112.971 128.103C112.983 127.983 112.989 127.749 112.989 127.401C112.989 127.053 112.983 126.819 112.971 126.699C112.935 125.919 112.743 125.331 112.395 124.935C112.047 124.527 111.555 124.323 110.919 124.323C110.283 124.323 109.791 124.527 109.443 124.935C109.095 125.331 108.903 125.919 108.867 126.699L108.849 127.401L108.867 128.103C108.903 128.883 109.095 129.477 109.443 129.885C109.791 130.281 110.283 130.479 110.919 130.479ZM117.917 128.589C117.797 128.589 117.695 128.547 117.611 128.463C117.527 128.379 117.485 128.277 117.485 128.157V119.913C117.485 119.793 117.527 119.691 117.611 119.607C117.695 119.523 117.797 119.481 117.917 119.481H119.375C119.507 119.481 119.609 119.523 119.681 119.607C119.765 119.679 119.807 119.781 119.807 119.913V128.157C119.807 128.277 119.765 128.379 119.681 128.463C119.609 128.547 119.507 128.589 119.375 128.589H117.917ZM117.809 132.081C117.689 132.081 117.587 132.039 117.503 131.955C117.419 131.871 117.377 131.769 117.377 131.649V129.975C117.377 129.843 117.419 129.735 117.503 129.651C117.587 129.567 117.689 129.525 117.809 129.525H119.483C119.615 129.525 119.723 129.567 119.807 129.651C119.891 129.735 119.933 129.843 119.933 129.975V131.649C119.933 131.769 119.891 131.871 119.807 131.955C119.723 132.039 119.615 132.081 119.483 132.081H117.809Z" fill="#2E2B2B"/>
</svg>
