<svg width="183" height="147" viewBox="0 0 183 147" fill="none" xmlns="http://www.w3.org/2000/svg">
<path d="M144.464 79.1045H40.3787C37.7671 79.1045 35.6475 81.1844 35.6475 83.7576C35.6475 86.3308 37.7671 88.4108 40.3787 88.4108H144.464C147.075 88.4108 149.195 86.3308 149.195 83.7576C149.195 81.1844 147.075 79.1045 144.464 79.1045Z" fill="#2E2B2B"/>
<path d="M85.3246 29.083C85.3246 30.2928 85.4666 31.4561 85.7978 32.5729H54.5722V79.1042H45.11V32.5729C45.11 27.4544 49.368 23.2666 54.5722 23.2666H85.3246V29.083Z" fill="#2E2B2B"/>
<path d="M139.733 42.3915V79.1047H130.27V43.7874C132.778 43.229 135.049 42.0192 136.894 40.3906L139.26 42.1123C139.402 42.2053 139.543 42.3449 139.733 42.3915Z" fill="#2E2B2B"/>
<path d="M87.6903 60.4919C92.9162 60.4919 97.1526 56.3254 97.1526 51.1857C97.1526 46.046 92.9162 41.8794 87.6903 41.8794C82.4644 41.8794 78.228 46.046 78.228 51.1857C78.228 56.3254 82.4644 60.4919 87.6903 60.4919Z" fill="#2E2B2B"/>
<path d="M106.614 77.9411V79.1044H68.7652V77.9411C68.7652 70.8684 74.5845 65.145 81.7758 65.145H93.6036C100.795 65.145 106.614 70.8684 106.614 77.9411Z" fill="#2E2B2B"/>
<path d="M145.647 37.2263C144.894 37.2263 144.142 36.989 143.517 36.5283L134.926 30.1908C134.377 34.1599 130.904 37.2263 126.722 37.2263H100.701C96.1351 37.2263 92.4212 33.5736 92.4212 29.0833V6.98093C92.4212 3.76096 94.5881 0.00122707 100.701 0.00122707H126.722C131.131 0.00122707 134.746 3.40732 134.987 7.68355L143.376 0.810872C144.426 -0.0592637 145.902 -0.245389 147.151 0.3316C148.4 0.908588 149.195 2.13702 149.195 3.49108V33.7365C149.195 35.0579 148.433 36.2678 147.231 36.8587C146.73 37.1053 146.186 37.2263 145.647 37.2263V37.2263Z" fill="#2E2B2B"/>
<path d="M14.462 124.08C14.342 124.08 14.24 124.038 14.156 123.954C14.072 123.87 14.03 123.768 14.03 123.648V113.694H10.7C10.58 113.694 10.478 113.652 10.394 113.568C10.31 113.484 10.268 113.382 10.268 113.262V111.93C10.268 111.798 10.304 111.69 10.376 111.606C10.46 111.522 10.568 111.48 10.7 111.48H19.88C20.012 111.48 20.12 111.522 20.204 111.606C20.288 111.69 20.33 111.798 20.33 111.93V113.262C20.33 113.382 20.288 113.484 20.204 113.568C20.12 113.652 20.012 113.694 19.88 113.694H16.568V123.648C16.568 123.768 16.526 123.87 16.442 123.954C16.358 124.038 16.25 124.08 16.118 124.08H14.462ZM24.3201 124.26C22.9881 124.26 21.9261 123.876 21.1341 123.108C20.3541 122.328 19.9401 121.236 19.8921 119.832L19.8741 119.382L19.8921 118.932C19.9521 117.564 20.3721 116.49 21.1521 115.71C21.9441 114.93 23.0001 114.54 24.3201 114.54C25.7361 114.54 26.8281 114.972 27.5961 115.836C28.3761 116.7 28.7661 117.852 28.7661 119.292V119.67C28.7661 119.79 28.7241 119.892 28.6401 119.976C28.5561 120.06 28.4481 120.102 28.3161 120.102H22.3401V120.246C22.3641 120.906 22.5441 121.464 22.8801 121.92C23.2281 122.364 23.7021 122.586 24.3021 122.586C25.0101 122.586 25.5801 122.31 26.0121 121.758C26.1201 121.626 26.2041 121.542 26.2641 121.506C26.3361 121.47 26.4381 121.452 26.5701 121.452H28.1181C28.2261 121.452 28.3161 121.488 28.3881 121.56C28.4721 121.62 28.5141 121.698 28.5141 121.794C28.5141 122.082 28.3401 122.424 27.9921 122.82C27.6561 123.204 27.1701 123.54 26.5341 123.828C25.8981 124.116 25.1601 124.26 24.3201 124.26ZM26.3181 118.59V118.536C26.3181 117.828 26.1381 117.258 25.7781 116.826C25.4301 116.394 24.9441 116.178 24.3201 116.178C23.6961 116.178 23.2101 116.394 22.8621 116.826C22.5141 117.258 22.3401 117.828 22.3401 118.536V118.59H26.3181ZM31.1088 124.08C30.9888 124.08 30.8868 124.038 30.8028 123.954C30.7188 123.87 30.6768 123.768 30.6768 123.648V115.152C30.6768 115.032 30.7188 114.93 30.8028 114.846C30.8868 114.762 30.9888 114.72 31.1088 114.72H32.5848C32.7048 114.72 32.8068 114.762 32.8908 114.846C32.9748 114.93 33.0168 115.032 33.0168 115.152V115.89C33.7248 114.99 34.7268 114.54 36.0228 114.54C37.1268 114.54 38.0028 114.906 38.6508 115.638C39.2988 116.358 39.6228 117.342 39.6228 118.59V123.648C39.6228 123.768 39.5808 123.87 39.4968 123.954C39.4248 124.038 39.3228 124.08 39.1908 124.08H37.6068C37.4868 124.08 37.3848 124.038 37.3008 123.954C37.2168 123.87 37.1748 123.768 37.1748 123.648V118.698C37.1748 117.99 37.0008 117.444 36.6528 117.06C36.3168 116.664 35.8248 116.466 35.1768 116.466C34.5408 116.466 34.0368 116.664 33.6648 117.06C33.3048 117.456 33.1248 118.002 33.1248 118.698V123.648C33.1248 123.768 33.0828 123.87 32.9988 123.954C32.9268 124.038 32.8248 124.08 32.6928 124.08H31.1088ZM42.3592 124.08C42.2392 124.08 42.1372 124.038 42.0532 123.954C41.9692 123.87 41.9272 123.768 41.9272 123.648V111.732C41.9272 111.6 41.9692 111.498 42.0532 111.426C42.1372 111.342 42.2392 111.3 42.3592 111.3H43.9612C44.0932 111.3 44.1952 111.342 44.2672 111.426C44.3512 111.498 44.3932 111.6 44.3932 111.732V115.836C45.1132 114.972 46.0852 114.54 47.3092 114.54C48.4132 114.54 49.2952 114.906 49.9552 115.638C50.6152 116.358 50.9452 117.342 50.9452 118.59V123.648C50.9452 123.768 50.9032 123.87 50.8192 123.954C50.7472 124.038 50.6452 124.08 50.5132 124.08H48.8932C48.7732 124.08 48.6712 124.038 48.5872 123.954C48.5032 123.87 48.4612 123.768 48.4612 123.648V118.698C48.4612 117.99 48.2872 117.444 47.9392 117.06C47.6032 116.664 47.1112 116.466 46.4632 116.466C45.8272 116.466 45.3232 116.664 44.9512 117.06C44.5792 117.456 44.3932 118.002 44.3932 118.698V123.648C44.3932 123.768 44.3512 123.87 44.2672 123.954C44.1952 124.038 44.0932 124.08 43.9612 124.08H42.3592ZM55.9475 124.26C55.3355 124.26 54.7715 124.14 54.2555 123.9C53.7515 123.648 53.3495 123.312 53.0495 122.892C52.7615 122.472 52.6175 122.01 52.6175 121.506C52.6175 120.69 52.9475 120.03 53.6075 119.526C54.2675 119.022 55.1735 118.68 56.3255 118.5L58.7915 118.14V117.762C58.7915 117.234 58.6595 116.838 58.3955 116.574C58.1315 116.31 57.7055 116.178 57.1175 116.178C56.7215 116.178 56.3975 116.256 56.1455 116.412C55.9055 116.556 55.7135 116.7 55.5695 116.844C55.4255 117 55.3295 117.102 55.2815 117.15C55.2335 117.294 55.1435 117.366 55.0115 117.366H53.6255C53.5175 117.366 53.4215 117.33 53.3375 117.258C53.2655 117.186 53.2295 117.09 53.2295 116.97C53.2415 116.67 53.3855 116.328 53.6615 115.944C53.9495 115.56 54.3875 115.23 54.9755 114.954C55.5635 114.678 56.2835 114.54 57.1355 114.54C58.5515 114.54 59.5835 114.858 60.2315 115.494C60.8795 116.13 61.2035 116.964 61.2035 117.996V123.648C61.2035 123.768 61.1615 123.87 61.0775 123.954C61.0055 124.038 60.9035 124.08 60.7715 124.08H59.3135C59.1935 124.08 59.0915 124.038 59.0075 123.954C58.9235 123.87 58.8815 123.768 58.8815 123.648V122.946C58.6175 123.33 58.2395 123.648 57.7475 123.9C57.2675 124.14 56.6675 124.26 55.9475 124.26ZM56.5595 122.55C57.2195 122.55 57.7595 122.334 58.1795 121.902C58.5995 121.47 58.8095 120.84 58.8095 120.012V119.634L57.0095 119.922C56.3135 120.03 55.7855 120.204 55.4255 120.444C55.0775 120.684 54.9035 120.978 54.9035 121.326C54.9035 121.71 55.0655 122.01 55.3895 122.226C55.7135 122.442 56.1035 122.55 56.5595 122.55ZM71.1 124.26C69.996 124.26 69.126 123.9 68.49 123.18C67.854 122.448 67.536 121.458 67.536 120.21V115.152C67.536 115.032 67.578 114.93 67.662 114.846C67.746 114.762 67.848 114.72 67.968 114.72H69.552C69.684 114.72 69.786 114.762 69.858 114.846C69.942 114.918 69.984 115.02 69.984 115.152V120.102C69.984 121.59 70.638 122.334 71.946 122.334C72.57 122.334 73.062 122.136 73.422 121.74C73.794 121.344 73.98 120.798 73.98 120.102V115.152C73.98 115.032 74.022 114.93 74.106 114.846C74.19 114.762 74.292 114.72 74.412 114.72H75.996C76.128 114.72 76.23 114.762 76.302 114.846C76.386 114.918 76.428 115.02 76.428 115.152V123.648C76.428 123.768 76.386 123.87 76.302 123.954C76.23 124.038 76.128 124.08 75.996 124.08H74.538C74.418 124.08 74.316 124.038 74.232 123.954C74.148 123.87 74.106 123.768 74.106 123.648V122.91C73.434 123.81 72.432 124.26 71.1 124.26ZM79.2377 124.08C79.1177 124.08 79.0157 124.038 78.9317 123.954C78.8477 123.87 78.8057 123.768 78.8057 123.648V115.152C78.8057 115.032 78.8477 114.93 78.9317 114.846C79.0157 114.762 79.1177 114.72 79.2377 114.72H80.6417C80.7617 114.72 80.8637 114.762 80.9477 114.846C81.0317 114.93 81.0737 115.032 81.0737 115.152V115.764C81.6977 114.948 82.5677 114.54 83.6837 114.54C85.0157 114.54 85.9457 115.074 86.4737 116.142C86.7617 115.662 87.1697 115.278 87.6977 114.99C88.2257 114.69 88.7957 114.54 89.4077 114.54C90.3917 114.54 91.1957 114.876 91.8197 115.548C92.4437 116.22 92.7557 117.198 92.7557 118.482V123.648C92.7557 123.768 92.7137 123.87 92.6297 123.954C92.5577 124.038 92.4557 124.08 92.3237 124.08H90.8477C90.7277 124.08 90.6257 124.038 90.5417 123.954C90.4577 123.87 90.4157 123.768 90.4157 123.648V118.626C90.4157 117.87 90.2537 117.324 89.9297 116.988C89.6177 116.64 89.1977 116.466 88.6697 116.466C88.2017 116.466 87.7997 116.64 87.4637 116.988C87.1397 117.336 86.9777 117.882 86.9777 118.626V123.648C86.9777 123.768 86.9357 123.87 86.8517 123.954C86.7677 124.038 86.6657 124.08 86.5457 124.08H85.0697C84.9497 124.08 84.8477 124.038 84.7637 123.954C84.6797 123.87 84.6377 123.768 84.6377 123.648V118.626C84.6377 117.87 84.4697 117.324 84.1337 116.988C83.8097 116.64 83.3957 116.466 82.8917 116.466C82.4117 116.466 82.0037 116.64 81.6677 116.988C81.3437 117.336 81.1817 117.882 81.1817 118.626V123.648C81.1817 123.768 81.1397 123.87 81.0557 123.954C80.9717 124.038 80.8697 124.08 80.7497 124.08H79.2377ZM97.7659 124.26C97.1539 124.26 96.5899 124.14 96.0739 123.9C95.5699 123.648 95.1679 123.312 94.8679 122.892C94.5799 122.472 94.4359 122.01 94.4359 121.506C94.4359 120.69 94.7659 120.03 95.4259 119.526C96.0859 119.022 96.9919 118.68 98.1439 118.5L100.61 118.14V117.762C100.61 117.234 100.478 116.838 100.214 116.574C99.9499 116.31 99.5239 116.178 98.9359 116.178C98.5399 116.178 98.2159 116.256 97.9639 116.412C97.7239 116.556 97.5319 116.7 97.3879 116.844C97.2439 117 97.1479 117.102 97.0999 117.15C97.0519 117.294 96.9619 117.366 96.8299 117.366H95.4439C95.3359 117.366 95.2399 117.33 95.1559 117.258C95.0839 117.186 95.0479 117.09 95.0479 116.97C95.0599 116.67 95.2039 116.328 95.4799 115.944C95.7679 115.56 96.2059 115.23 96.7939 114.954C97.3819 114.678 98.1019 114.54 98.9539 114.54C100.37 114.54 101.402 114.858 102.05 115.494C102.698 116.13 103.022 116.964 103.022 117.996V123.648C103.022 123.768 102.98 123.87 102.896 123.954C102.824 124.038 102.722 124.08 102.59 124.08H101.132C101.012 124.08 100.91 124.038 100.826 123.954C100.742 123.87 100.7 123.768 100.7 123.648V122.946C100.436 123.33 100.058 123.648 99.5659 123.9C99.0859 124.14 98.4859 124.26 97.7659 124.26ZM98.3779 122.55C99.0379 122.55 99.5779 122.334 99.9979 121.902C100.418 121.47 100.628 120.84 100.628 120.012V119.634L98.8279 119.922C98.1319 120.03 97.6039 120.204 97.2439 120.444C96.8959 120.684 96.7219 120.978 96.7219 121.326C96.7219 121.71 96.8839 122.01 97.2079 122.226C97.5319 122.442 97.9219 122.55 98.3779 122.55ZM109.876 124.08C109.756 124.08 109.654 124.038 109.57 123.954C109.486 123.87 109.444 123.768 109.444 123.648V115.17C109.444 115.05 109.486 114.948 109.57 114.864C109.654 114.768 109.756 114.72 109.876 114.72H111.334C111.466 114.72 111.574 114.762 111.658 114.846C111.742 114.93 111.784 115.038 111.784 115.17V115.908C112.072 115.524 112.432 115.23 112.864 115.026C113.308 114.822 113.812 114.72 114.376 114.72H115.114C115.246 114.72 115.348 114.762 115.42 114.846C115.504 114.918 115.546 115.02 115.546 115.152V116.448C115.546 116.568 115.504 116.67 115.42 116.754C115.348 116.838 115.246 116.88 115.114 116.88H113.71C113.146 116.88 112.702 117.042 112.378 117.366C112.054 117.69 111.892 118.134 111.892 118.698V123.648C111.892 123.768 111.85 123.87 111.766 123.954C111.682 124.038 111.574 124.08 111.442 124.08H109.876ZM120.859 124.26C119.527 124.26 118.465 123.876 117.673 123.108C116.893 122.328 116.479 121.236 116.431 119.832L116.413 119.382L116.431 118.932C116.491 117.564 116.911 116.49 117.691 115.71C118.483 114.93 119.539 114.54 120.859 114.54C122.275 114.54 123.367 114.972 124.135 115.836C124.915 116.7 125.305 117.852 125.305 119.292V119.67C125.305 119.79 125.263 119.892 125.179 119.976C125.095 120.06 124.987 120.102 124.855 120.102H118.879V120.246C118.903 120.906 119.083 121.464 119.419 121.92C119.767 122.364 120.241 122.586 120.841 122.586C121.549 122.586 122.119 122.31 122.551 121.758C122.659 121.626 122.743 121.542 122.803 121.506C122.875 121.47 122.977 121.452 123.109 121.452H124.657C124.765 121.452 124.855 121.488 124.927 121.56C125.011 121.62 125.053 121.698 125.053 121.794C125.053 122.082 124.879 122.424 124.531 122.82C124.195 123.204 123.709 123.54 123.073 123.828C122.437 124.116 121.699 124.26 120.859 124.26ZM122.857 118.59V118.536C122.857 117.828 122.677 117.258 122.317 116.826C121.969 116.394 121.483 116.178 120.859 116.178C120.235 116.178 119.749 116.394 119.401 116.826C119.053 117.258 118.879 117.828 118.879 118.536V118.59H122.857ZM130.69 124.26C129.586 124.26 128.716 123.9 128.08 123.18C127.444 122.448 127.126 121.458 127.126 120.21V115.152C127.126 115.032 127.168 114.93 127.252 114.846C127.336 114.762 127.438 114.72 127.558 114.72H129.142C129.274 114.72 129.376 114.762 129.448 114.846C129.532 114.918 129.574 115.02 129.574 115.152V120.102C129.574 121.59 130.228 122.334 131.536 122.334C132.16 122.334 132.652 122.136 133.012 121.74C133.384 121.344 133.57 120.798 133.57 120.102V115.152C133.57 115.032 133.612 114.93 133.696 114.846C133.78 114.762 133.882 114.72 134.002 114.72H135.586C135.718 114.72 135.82 114.762 135.892 114.846C135.976 114.918 136.018 115.02 136.018 115.152V123.648C136.018 123.768 135.976 123.87 135.892 123.954C135.82 124.038 135.718 124.08 135.586 124.08H134.128C134.008 124.08 133.906 124.038 133.822 123.954C133.738 123.87 133.696 123.768 133.696 123.648V122.91C133.024 123.81 132.022 124.26 130.69 124.26ZM138.828 124.08C138.708 124.08 138.606 124.038 138.522 123.954C138.438 123.87 138.396 123.768 138.396 123.648V115.152C138.396 115.032 138.438 114.93 138.522 114.846C138.606 114.762 138.708 114.72 138.828 114.72H140.304C140.424 114.72 140.526 114.762 140.61 114.846C140.694 114.93 140.736 115.032 140.736 115.152V115.89C141.444 114.99 142.446 114.54 143.742 114.54C144.846 114.54 145.722 114.906 146.37 115.638C147.018 116.358 147.342 117.342 147.342 118.59V123.648C147.342 123.768 147.3 123.87 147.216 123.954C147.144 124.038 147.042 124.08 146.91 124.08H145.326C145.206 124.08 145.104 124.038 145.02 123.954C144.936 123.87 144.894 123.768 144.894 123.648V118.698C144.894 117.99 144.72 117.444 144.372 117.06C144.036 116.664 143.544 116.466 142.896 116.466C142.26 116.466 141.756 116.664 141.384 117.06C141.024 117.456 140.844 118.002 140.844 118.698V123.648C140.844 123.768 140.802 123.87 140.718 123.954C140.646 124.038 140.544 124.08 140.412 124.08H138.828ZM149.988 113.172C149.868 113.172 149.766 113.13 149.682 113.046C149.598 112.962 149.556 112.86 149.556 112.74V111.444C149.556 111.324 149.598 111.222 149.682 111.138C149.766 111.054 149.868 111.012 149.988 111.012H151.626C151.746 111.012 151.848 111.054 151.932 111.138C152.028 111.222 152.076 111.324 152.076 111.444V112.74C152.076 112.86 152.034 112.962 151.95 113.046C151.866 113.13 151.758 113.172 151.626 113.172H149.988ZM150.06 124.08C149.94 124.08 149.838 124.038 149.754 123.954C149.67 123.87 149.628 123.768 149.628 123.648V115.152C149.628 115.032 149.67 114.93 149.754 114.846C149.838 114.762 149.94 114.72 150.06 114.72H151.554C151.686 114.72 151.788 114.762 151.86 114.846C151.944 114.918 151.986 115.02 151.986 115.152V123.648C151.986 123.768 151.944 123.87 151.86 123.954C151.788 124.038 151.686 124.08 151.554 124.08H150.06ZM157.092 124.26C156.48 124.26 155.916 124.14 155.4 123.9C154.896 123.648 154.494 123.312 154.194 122.892C153.906 122.472 153.762 122.01 153.762 121.506C153.762 120.69 154.092 120.03 154.752 119.526C155.412 119.022 156.318 118.68 157.47 118.5L159.936 118.14V117.762C159.936 117.234 159.804 116.838 159.54 116.574C159.276 116.31 158.85 116.178 158.262 116.178C157.866 116.178 157.542 116.256 157.29 116.412C157.05 116.556 156.858 116.7 156.714 116.844C156.57 117 156.474 117.102 156.426 117.15C156.378 117.294 156.288 117.366 156.156 117.366H154.77C154.662 117.366 154.566 117.33 154.482 117.258C154.41 117.186 154.374 117.09 154.374 116.97C154.386 116.67 154.53 116.328 154.806 115.944C155.094 115.56 155.532 115.23 156.12 114.954C156.708 114.678 157.428 114.54 158.28 114.54C159.696 114.54 160.728 114.858 161.376 115.494C162.024 116.13 162.348 116.964 162.348 117.996V123.648C162.348 123.768 162.306 123.87 162.222 123.954C162.15 124.038 162.048 124.08 161.916 124.08H160.458C160.338 124.08 160.236 124.038 160.152 123.954C160.068 123.87 160.026 123.768 160.026 123.648V122.946C159.762 123.33 159.384 123.648 158.892 123.9C158.412 124.14 157.812 124.26 157.092 124.26ZM157.704 122.55C158.364 122.55 158.904 122.334 159.324 121.902C159.744 121.47 159.954 120.84 159.954 120.012V119.634L158.154 119.922C157.458 120.03 156.93 120.204 156.57 120.444C156.222 120.684 156.048 120.978 156.048 121.326C156.048 121.71 156.21 122.01 156.534 122.226C156.858 122.442 157.248 122.55 157.704 122.55ZM159.234 113.46C159.006 113.46 158.808 113.43 158.64 113.37C158.472 113.298 158.292 113.202 158.1 113.082C158.076 113.07 157.992 113.022 157.848 112.938C157.704 112.866 157.56 112.83 157.416 112.83C157.308 112.83 157.224 112.854 157.164 112.902C157.104 112.95 157.038 113.022 156.966 113.118C156.906 113.214 156.852 113.28 156.804 113.316C156.756 113.352 156.69 113.37 156.606 113.37H155.778C155.694 113.37 155.622 113.34 155.562 113.28C155.502 113.22 155.472 113.148 155.472 113.064C155.472 112.788 155.532 112.5 155.652 112.2C155.784 111.9 155.982 111.648 156.246 111.444C156.51 111.24 156.834 111.138 157.218 111.138C157.458 111.138 157.662 111.174 157.83 111.246C157.998 111.306 158.178 111.396 158.37 111.516C158.478 111.576 158.586 111.636 158.694 111.696C158.814 111.744 158.934 111.768 159.054 111.768C159.162 111.768 159.246 111.744 159.306 111.696C159.378 111.636 159.444 111.558 159.504 111.462C159.564 111.378 159.618 111.318 159.666 111.282C159.714 111.234 159.78 111.21 159.864 111.21H160.692C160.788 111.21 160.86 111.246 160.908 111.318C160.968 111.378 160.998 111.45 160.998 111.534C160.998 111.81 160.932 112.098 160.8 112.398C160.668 112.686 160.47 112.938 160.206 113.154C159.942 113.358 159.618 113.46 159.234 113.46ZM168.797 124.26C167.393 124.26 166.307 123.9 165.539 123.18C164.771 122.448 164.357 121.452 164.297 120.192L164.279 119.4L164.297 118.608C164.357 117.36 164.777 116.37 165.557 115.638C166.337 114.906 167.417 114.54 168.797 114.54C170.177 114.54 171.257 114.906 172.037 115.638C172.817 116.37 173.237 117.36 173.297 118.608C173.309 118.752 173.315 119.016 173.315 119.4C173.315 119.784 173.309 120.048 173.297 120.192C173.237 121.452 172.823 122.448 172.055 123.18C171.287 123.9 170.201 124.26 168.797 124.26ZM168.797 122.478C169.433 122.478 169.925 122.28 170.273 121.884C170.621 121.476 170.813 120.882 170.849 120.102C170.861 119.982 170.867 119.748 170.867 119.4C170.867 119.052 170.861 118.818 170.849 118.698C170.813 117.918 170.621 117.33 170.273 116.934C169.925 116.526 169.433 116.322 168.797 116.322C168.161 116.322 167.669 116.526 167.321 116.934C166.973 117.33 166.781 117.918 166.745 118.698L166.727 119.4L166.745 120.102C166.781 120.882 166.973 121.476 167.321 121.884C167.669 122.28 168.161 122.478 168.797 122.478ZM29.6752 145.26C28.2712 145.26 27.1852 144.9 26.4172 144.18C25.6492 143.448 25.2352 142.452 25.1752 141.192L25.1572 140.4L25.1752 139.608C25.2352 138.36 25.6552 137.37 26.4352 136.638C27.2152 135.906 28.2952 135.54 29.6752 135.54C31.0552 135.54 32.1352 135.906 32.9152 136.638C33.6952 137.37 34.1152 138.36 34.1752 139.608C34.1872 139.752 34.1932 140.016 34.1932 140.4C34.1932 140.784 34.1872 141.048 34.1752 141.192C34.1152 142.452 33.7012 143.448 32.9332 144.18C32.1652 144.9 31.0792 145.26 29.6752 145.26ZM29.6752 143.478C30.3112 143.478 30.8032 143.28 31.1512 142.884C31.4992 142.476 31.6912 141.882 31.7272 141.102C31.7392 140.982 31.7452 140.748 31.7452 140.4C31.7452 140.052 31.7392 139.818 31.7272 139.698C31.6912 138.918 31.4992 138.33 31.1512 137.934C30.8032 137.526 30.3112 137.322 29.6752 137.322C29.0392 137.322 28.5472 137.526 28.1992 137.934C27.8512 138.33 27.6592 138.918 27.6232 139.698L27.6052 140.4L27.6232 141.102C27.6592 141.882 27.8512 142.476 28.1992 142.884C28.5472 143.28 29.0392 143.478 29.6752 143.478ZM36.6195 145.08C36.4995 145.08 36.3975 145.038 36.3135 144.954C36.2295 144.87 36.1875 144.768 36.1875 144.648V136.152C36.1875 136.032 36.2295 135.93 36.3135 135.846C36.3975 135.762 36.4995 135.72 36.6195 135.72H38.0955C38.2155 135.72 38.3175 135.762 38.4015 135.846C38.4855 135.93 38.5275 136.032 38.5275 136.152V136.89C39.2355 135.99 40.2375 135.54 41.5335 135.54C42.6375 135.54 43.5135 135.906 44.1615 136.638C44.8095 137.358 45.1335 138.342 45.1335 139.59V144.648C45.1335 144.768 45.0915 144.87 45.0075 144.954C44.9355 145.038 44.8335 145.08 44.7015 145.08H43.1175C42.9975 145.08 42.8955 145.038 42.8115 144.954C42.7275 144.87 42.6855 144.768 42.6855 144.648V139.698C42.6855 138.99 42.5115 138.444 42.1635 138.06C41.8275 137.664 41.3355 137.466 40.6875 137.466C40.0515 137.466 39.5475 137.664 39.1755 138.06C38.8155 138.456 38.6355 139.002 38.6355 139.698V144.648C38.6355 144.768 38.5935 144.87 38.5095 144.954C38.4375 145.038 38.3355 145.08 38.2035 145.08H36.6195ZM47.8699 145.08C47.7499 145.08 47.6479 145.038 47.5639 144.954C47.4799 144.87 47.4379 144.768 47.4379 144.648V132.732C47.4379 132.6 47.4799 132.498 47.5639 132.426C47.6479 132.342 47.7499 132.3 47.8699 132.3H49.3639C49.4959 132.3 49.5979 132.342 49.6699 132.426C49.7539 132.498 49.7959 132.6 49.7959 132.732V144.648C49.7959 144.768 49.7539 144.87 49.6699 144.954C49.5979 145.038 49.4959 145.08 49.3639 145.08H47.8699ZM52.5436 134.172C52.4236 134.172 52.3216 134.13 52.2376 134.046C52.1536 133.962 52.1116 133.86 52.1116 133.74V132.444C52.1116 132.324 52.1536 132.222 52.2376 132.138C52.3216 132.054 52.4236 132.012 52.5436 132.012H54.1816C54.3016 132.012 54.4036 132.054 54.4876 132.138C54.5836 132.222 54.6316 132.324 54.6316 132.444V133.74C54.6316 133.86 54.5896 133.962 54.5056 134.046C54.4216 134.13 54.3136 134.172 54.1816 134.172H52.5436ZM52.6156 145.08C52.4956 145.08 52.3936 145.038 52.3096 144.954C52.2256 144.87 52.1836 144.768 52.1836 144.648V136.152C52.1836 136.032 52.2256 135.93 52.3096 135.846C52.3936 135.762 52.4956 135.72 52.6156 135.72H54.1096C54.2416 135.72 54.3436 135.762 54.4156 135.846C54.4996 135.918 54.5416 136.02 54.5416 136.152V144.648C54.5416 144.768 54.4996 144.87 54.4156 144.954C54.3436 145.038 54.2416 145.08 54.1096 145.08H52.6156ZM57.3617 145.08C57.2417 145.08 57.1397 145.038 57.0557 144.954C56.9717 144.87 56.9297 144.768 56.9297 144.648V136.152C56.9297 136.032 56.9717 135.93 57.0557 135.846C57.1397 135.762 57.2417 135.72 57.3617 135.72H58.8377C58.9577 135.72 59.0597 135.762 59.1437 135.846C59.2277 135.93 59.2697 136.032 59.2697 136.152V136.89C59.9777 135.99 60.9797 135.54 62.2757 135.54C63.3797 135.54 64.2557 135.906 64.9037 136.638C65.5517 137.358 65.8757 138.342 65.8757 139.59V144.648C65.8757 144.768 65.8337 144.87 65.7497 144.954C65.6777 145.038 65.5757 145.08 65.4437 145.08H63.8597C63.7397 145.08 63.6377 145.038 63.5537 144.954C63.4697 144.87 63.4277 144.768 63.4277 144.648V139.698C63.4277 138.99 63.2537 138.444 62.9057 138.06C62.5697 137.664 62.0777 137.466 61.4297 137.466C60.7937 137.466 60.2897 137.664 59.9177 138.06C59.5577 138.456 59.3777 139.002 59.3777 139.698V144.648C59.3777 144.768 59.3357 144.87 59.2517 144.954C59.1797 145.038 59.0777 145.08 58.9457 145.08H57.3617ZM72.1941 145.26C70.8621 145.26 69.8001 144.876 69.0081 144.108C68.2281 143.328 67.8141 142.236 67.7661 140.832L67.7481 140.382L67.7661 139.932C67.8261 138.564 68.2461 137.49 69.0261 136.71C69.8181 135.93 70.8741 135.54 72.1941 135.54C73.6101 135.54 74.7021 135.972 75.4701 136.836C76.2501 137.7 76.6401 138.852 76.6401 140.292V140.67C76.6401 140.79 76.5981 140.892 76.5141 140.976C76.4301 141.06 76.3221 141.102 76.1901 141.102H70.2141V141.246C70.2381 141.906 70.4181 142.464 70.7541 142.92C71.1021 143.364 71.5761 143.586 72.1761 143.586C72.8841 143.586 73.4541 143.31 73.8861 142.758C73.9941 142.626 74.0781 142.542 74.1381 142.506C74.2101 142.47 74.3121 142.452 74.4441 142.452H75.9921C76.1001 142.452 76.1901 142.488 76.2621 142.56C76.3461 142.62 76.3881 142.698 76.3881 142.794C76.3881 143.082 76.2141 143.424 75.8661 143.82C75.5301 144.204 75.0441 144.54 74.4081 144.828C73.7721 145.116 73.0341 145.26 72.1941 145.26ZM74.1921 139.59V139.536C74.1921 138.828 74.0121 138.258 73.6521 137.826C73.3041 137.394 72.8181 137.178 72.1941 137.178C71.5701 137.178 71.0841 137.394 70.7361 137.826C70.3881 138.258 70.2141 138.828 70.2141 139.536V139.59H74.1921ZM86.7141 145.26C85.3941 145.26 84.3381 144.894 83.5461 144.162C82.7661 143.43 82.3521 142.416 82.3041 141.12L82.2861 140.4L82.3041 139.68C82.3521 138.384 82.7661 137.37 83.5461 136.638C84.3381 135.906 85.3941 135.54 86.7141 135.54C87.6501 135.54 88.4421 135.708 89.0901 136.044C89.7501 136.38 90.2361 136.794 90.5481 137.286C90.8721 137.766 91.0461 138.222 91.0701 138.654C91.0821 138.774 91.0401 138.876 90.9441 138.96C90.8601 139.044 90.7581 139.086 90.6381 139.086H89.0541C88.9341 139.086 88.8381 139.062 88.7661 139.014C88.7061 138.954 88.6461 138.858 88.5861 138.726C88.4061 138.258 88.1661 137.922 87.8661 137.718C87.5781 137.514 87.2061 137.412 86.7501 137.412C86.1381 137.412 85.6581 137.61 85.3101 138.006C84.9621 138.39 84.7761 138.978 84.7521 139.77L84.7341 140.436L84.7521 141.03C84.8001 142.602 85.4661 143.388 86.7501 143.388C87.2181 143.388 87.5961 143.286 87.8841 143.082C88.1721 142.878 88.4061 142.542 88.5861 142.074C88.6461 141.942 88.7061 141.852 88.7661 141.804C88.8381 141.744 88.9341 141.714 89.0541 141.714H90.6381C90.7581 141.714 90.8601 141.756 90.9441 141.84C91.0401 141.924 91.0821 142.026 91.0701 142.146C91.0461 142.566 90.8781 143.016 90.5661 143.496C90.2541 143.976 89.7741 144.39 89.1261 144.738C88.4781 145.086 87.6741 145.26 86.7141 145.26ZM97.0873 145.26C95.6833 145.26 94.5973 144.9 93.8293 144.18C93.0613 143.448 92.6473 142.452 92.5873 141.192L92.5693 140.4L92.5873 139.608C92.6473 138.36 93.0673 137.37 93.8473 136.638C94.6273 135.906 95.7073 135.54 97.0873 135.54C98.4673 135.54 99.5473 135.906 100.327 136.638C101.107 137.37 101.527 138.36 101.587 139.608C101.599 139.752 101.605 140.016 101.605 140.4C101.605 140.784 101.599 141.048 101.587 141.192C101.527 142.452 101.113 143.448 100.345 144.18C99.5773 144.9 98.4913 145.26 97.0873 145.26ZM97.0873 143.478C97.7233 143.478 98.2153 143.28 98.5633 142.884C98.9113 142.476 99.1033 141.882 99.1393 141.102C99.1513 140.982 99.1573 140.748 99.1573 140.4C99.1573 140.052 99.1513 139.818 99.1393 139.698C99.1033 138.918 98.9113 138.33 98.5633 137.934C98.2153 137.526 97.7233 137.322 97.0873 137.322C96.4513 137.322 95.9593 137.526 95.6113 137.934C95.2633 138.33 95.0713 138.918 95.0353 139.698L95.0173 140.4L95.0353 141.102C95.0713 141.882 95.2633 142.476 95.6113 142.884C95.9593 143.28 96.4513 143.478 97.0873 143.478ZM104.032 145.08C103.912 145.08 103.81 145.038 103.726 144.954C103.642 144.87 103.6 144.768 103.6 144.648V136.152C103.6 136.032 103.642 135.93 103.726 135.846C103.81 135.762 103.912 135.72 104.032 135.72H105.508C105.628 135.72 105.73 135.762 105.814 135.846C105.898 135.93 105.94 136.032 105.94 136.152V136.89C106.648 135.99 107.65 135.54 108.946 135.54C110.05 135.54 110.926 135.906 111.574 136.638C112.222 137.358 112.546 138.342 112.546 139.59V144.648C112.546 144.768 112.504 144.87 112.42 144.954C112.348 145.038 112.246 145.08 112.114 145.08H110.53C110.41 145.08 110.308 145.038 110.224 144.954C110.14 144.87 110.098 144.768 110.098 144.648V139.698C110.098 138.99 109.924 138.444 109.576 138.06C109.24 137.664 108.748 137.466 108.1 137.466C107.464 137.466 106.96 137.664 106.588 138.06C106.228 138.456 106.048 139.002 106.048 139.698V144.648C106.048 144.768 106.006 144.87 105.922 144.954C105.85 145.038 105.748 145.08 105.616 145.08H104.032ZM118.972 145.26C117.568 145.26 116.482 144.9 115.714 144.18C114.946 143.448 114.532 142.452 114.472 141.192L114.454 140.4L114.472 139.608C114.532 138.36 114.952 137.37 115.732 136.638C116.512 135.906 117.592 135.54 118.972 135.54C120.352 135.54 121.432 135.906 122.212 136.638C122.992 137.37 123.412 138.36 123.472 139.608C123.484 139.752 123.49 140.016 123.49 140.4C123.49 140.784 123.484 141.048 123.472 141.192C123.412 142.452 122.998 143.448 122.23 144.18C121.462 144.9 120.376 145.26 118.972 145.26ZM118.972 143.478C119.608 143.478 120.1 143.28 120.448 142.884C120.796 142.476 120.988 141.882 121.024 141.102C121.036 140.982 121.042 140.748 121.042 140.4C121.042 140.052 121.036 139.818 121.024 139.698C120.988 138.918 120.796 138.33 120.448 137.934C120.1 137.526 119.608 137.322 118.972 137.322C118.336 137.322 117.844 137.526 117.496 137.934C117.148 138.33 116.956 138.918 116.92 139.698L116.902 140.4L116.92 141.102C116.956 141.882 117.148 142.476 117.496 142.884C117.844 143.28 118.336 143.478 118.972 143.478ZM129.03 145.26C128.13 145.26 127.374 145.128 126.762 144.864C126.15 144.588 125.694 144.27 125.394 143.91C125.106 143.538 124.962 143.22 124.962 142.956C124.962 142.836 125.004 142.74 125.088 142.668C125.172 142.596 125.268 142.56 125.376 142.56H126.798C126.906 142.56 126.996 142.602 127.068 142.686C127.116 142.722 127.242 142.83 127.446 143.01C127.65 143.202 127.89 143.352 128.166 143.46C128.442 143.568 128.748 143.622 129.084 143.622C129.564 143.622 129.96 143.526 130.272 143.334C130.584 143.142 130.74 142.878 130.74 142.542C130.74 142.29 130.668 142.086 130.524 141.93C130.392 141.774 130.146 141.636 129.786 141.516C129.426 141.384 128.892 141.246 128.184 141.102C127.164 140.886 126.408 140.556 125.916 140.112C125.436 139.668 125.196 139.08 125.196 138.348C125.196 137.868 125.34 137.418 125.628 136.998C125.916 136.566 126.342 136.218 126.906 135.954C127.482 135.678 128.166 135.54 128.958 135.54C129.762 135.54 130.458 135.672 131.046 135.936C131.634 136.188 132.078 136.494 132.378 136.854C132.69 137.202 132.846 137.514 132.846 137.79C132.846 137.898 132.804 137.994 132.72 138.078C132.648 138.15 132.558 138.186 132.45 138.186H131.118C131.022 138.186 130.92 138.144 130.812 138.06C130.728 138 130.596 137.886 130.416 137.718C130.236 137.55 130.026 137.418 129.786 137.322C129.546 137.226 129.264 137.178 128.94 137.178C128.496 137.178 128.148 137.274 127.896 137.466C127.656 137.658 127.536 137.91 127.536 138.222C127.536 138.45 127.596 138.636 127.716 138.78C127.836 138.924 128.07 139.062 128.418 139.194C128.766 139.326 129.288 139.458 129.984 139.59C131.136 139.818 131.958 140.172 132.45 140.652C132.954 141.132 133.206 141.72 133.206 142.416C133.206 143.256 132.84 143.94 132.108 144.468C131.376 144.996 130.35 145.26 129.03 145.26ZM139.114 145.26C137.794 145.26 136.738 144.894 135.946 144.162C135.166 143.43 134.752 142.416 134.704 141.12L134.686 140.4L134.704 139.68C134.752 138.384 135.166 137.37 135.946 136.638C136.738 135.906 137.794 135.54 139.114 135.54C140.05 135.54 140.842 135.708 141.49 136.044C142.15 136.38 142.636 136.794 142.948 137.286C143.272 137.766 143.446 138.222 143.47 138.654C143.482 138.774 143.44 138.876 143.344 138.96C143.26 139.044 143.158 139.086 143.038 139.086H141.454C141.334 139.086 141.238 139.062 141.166 139.014C141.106 138.954 141.046 138.858 140.986 138.726C140.806 138.258 140.566 137.922 140.266 137.718C139.978 137.514 139.606 137.412 139.15 137.412C138.538 137.412 138.058 137.61 137.71 138.006C137.362 138.39 137.176 138.978 137.152 139.77L137.134 140.436L137.152 141.03C137.2 142.602 137.866 143.388 139.15 143.388C139.618 143.388 139.996 143.286 140.284 143.082C140.572 142.878 140.806 142.542 140.986 142.074C141.046 141.942 141.106 141.852 141.166 141.804C141.238 141.744 141.334 141.714 141.454 141.714H143.038C143.158 141.714 143.26 141.756 143.344 141.84C143.44 141.924 143.482 142.026 143.47 142.146C143.446 142.566 143.278 143.016 142.966 143.496C142.654 143.976 142.174 144.39 141.526 144.738C140.878 145.086 140.074 145.26 139.114 145.26ZM149.488 145.26C148.084 145.26 146.998 144.9 146.23 144.18C145.462 143.448 145.048 142.452 144.988 141.192L144.97 140.4L144.988 139.608C145.048 138.36 145.468 137.37 146.248 136.638C147.028 135.906 148.108 135.54 149.488 135.54C150.868 135.54 151.948 135.906 152.728 136.638C153.508 137.37 153.928 138.36 153.988 139.608C154 139.752 154.006 140.016 154.006 140.4C154.006 140.784 154 141.048 153.988 141.192C153.928 142.452 153.514 143.448 152.746 144.18C151.978 144.9 150.892 145.26 149.488 145.26ZM149.488 143.478C150.124 143.478 150.616 143.28 150.964 142.884C151.312 142.476 151.504 141.882 151.54 141.102C151.552 140.982 151.558 140.748 151.558 140.4C151.558 140.052 151.552 139.818 151.54 139.698C151.504 138.918 151.312 138.33 150.964 137.934C150.616 137.526 150.124 137.322 149.488 137.322C148.852 137.322 148.36 137.526 148.012 137.934C147.664 138.33 147.472 138.918 147.436 139.698L147.418 140.4L147.436 141.102C147.472 141.882 147.664 142.476 148.012 142.884C148.36 143.28 148.852 143.478 149.488 143.478ZM156.486 141.588C156.366 141.588 156.264 141.546 156.18 141.462C156.096 141.378 156.054 141.276 156.054 141.156V132.912C156.054 132.792 156.096 132.69 156.18 132.606C156.264 132.522 156.366 132.48 156.486 132.48H157.944C158.076 132.48 158.178 132.522 158.25 132.606C158.334 132.678 158.376 132.78 158.376 132.912V141.156C158.376 141.276 158.334 141.378 158.25 141.462C158.178 141.546 158.076 141.588 157.944 141.588H156.486ZM156.378 145.08C156.258 145.08 156.156 145.038 156.072 144.954C155.988 144.87 155.946 144.768 155.946 144.648V142.974C155.946 142.842 155.988 142.734 156.072 142.65C156.156 142.566 156.258 142.524 156.378 142.524H158.052C158.184 142.524 158.292 142.566 158.376 142.65C158.46 142.734 158.502 142.842 158.502 142.974V144.648C158.502 144.768 158.46 144.87 158.376 144.954C158.292 145.038 158.184 145.08 158.052 145.08H156.378Z" fill="#2E2B2B"/>
</svg>
