<svg width="184" height="147" viewBox="0 0 184 147" fill="none" xmlns="http://www.w3.org/2000/svg">
<path d="M20.9271 124.08C20.8071 124.08 20.7051 124.038 20.6211 123.954C20.5371 123.87 20.4951 123.768 20.4951 123.648V111.93C20.4951 111.798 20.5311 111.69 20.6031 111.606C20.6871 111.522 20.7951 111.48 20.9271 111.48H25.5891C27.0531 111.48 28.1991 111.822 29.0271 112.506C29.8671 113.19 30.2871 114.162 30.2871 115.422C30.2871 116.298 30.0711 117.036 29.6391 117.636C29.2191 118.224 28.6311 118.65 27.8751 118.914L30.5031 123.504C30.5391 123.576 30.5571 123.642 30.5571 123.702C30.5571 123.81 30.5151 123.9 30.4311 123.972C30.3591 124.044 30.2751 124.08 30.1791 124.08H28.5411C28.3491 124.08 28.1991 124.038 28.0911 123.954C27.9951 123.87 27.9051 123.75 27.8211 123.594L25.4991 119.328H22.9971V123.648C22.9971 123.768 22.9551 123.87 22.8711 123.954C22.7991 124.038 22.6971 124.08 22.5651 124.08H20.9271ZM25.5351 117.294C26.2551 117.294 26.7951 117.132 27.1551 116.808C27.5271 116.484 27.7131 116.016 27.7131 115.404C27.7131 114.792 27.5271 114.318 27.1551 113.982C26.7951 113.646 26.2551 113.478 25.5351 113.478H22.9971V117.294H25.5351ZM36.317 124.26C34.985 124.26 33.923 123.876 33.131 123.108C32.351 122.328 31.937 121.236 31.889 119.832L31.871 119.382L31.889 118.932C31.949 117.564 32.369 116.49 33.149 115.71C33.941 114.93 34.997 114.54 36.317 114.54C37.733 114.54 38.825 114.972 39.593 115.836C40.373 116.7 40.763 117.852 40.763 119.292V119.67C40.763 119.79 40.721 119.892 40.637 119.976C40.553 120.06 40.445 120.102 40.313 120.102H34.337V120.246C34.361 120.906 34.541 121.464 34.877 121.92C35.225 122.364 35.699 122.586 36.299 122.586C37.007 122.586 37.577 122.31 38.009 121.758C38.117 121.626 38.201 121.542 38.261 121.506C38.333 121.47 38.435 121.452 38.567 121.452H40.115C40.223 121.452 40.313 121.488 40.385 121.56C40.469 121.62 40.511 121.698 40.511 121.794C40.511 122.082 40.337 122.424 39.989 122.82C39.653 123.204 39.167 123.54 38.531 123.828C37.895 124.116 37.157 124.26 36.317 124.26ZM38.315 118.59V118.536C38.315 117.828 38.135 117.258 37.775 116.826C37.427 116.394 36.941 116.178 36.317 116.178C35.693 116.178 35.207 116.394 34.859 116.826C34.511 117.258 34.337 117.828 34.337 118.536V118.59H38.315ZM46.7237 124.26C45.4037 124.26 44.3477 123.894 43.5557 123.162C42.7757 122.43 42.3617 121.416 42.3137 120.12L42.2957 119.4L42.3137 118.68C42.3617 117.384 42.7757 116.37 43.5557 115.638C44.3477 114.906 45.4037 114.54 46.7237 114.54C47.6597 114.54 48.4517 114.708 49.0997 115.044C49.7597 115.38 50.2457 115.794 50.5577 116.286C50.8817 116.766 51.0557 117.222 51.0797 117.654C51.0917 117.774 51.0497 117.876 50.9537 117.96C50.8697 118.044 50.7677 118.086 50.6477 118.086H49.0637C48.9437 118.086 48.8477 118.062 48.7757 118.014C48.7157 117.954 48.6557 117.858 48.5957 117.726C48.4157 117.258 48.1757 116.922 47.8757 116.718C47.5877 116.514 47.2157 116.412 46.7597 116.412C46.1477 116.412 45.6677 116.61 45.3197 117.006C44.9717 117.39 44.7857 117.978 44.7617 118.77L44.7437 119.436L44.7617 120.03C44.8097 121.602 45.4757 122.388 46.7597 122.388C47.2277 122.388 47.6057 122.286 47.8937 122.082C48.1817 121.878 48.4157 121.542 48.5957 121.074C48.6557 120.942 48.7157 120.852 48.7757 120.804C48.8477 120.744 48.9437 120.714 49.0637 120.714H50.6477C50.7677 120.714 50.8697 120.756 50.9537 120.84C51.0497 120.924 51.0917 121.026 51.0797 121.146C51.0557 121.566 50.8877 122.016 50.5757 122.496C50.2637 122.976 49.7837 123.39 49.1357 123.738C48.4877 124.086 47.6837 124.26 46.7237 124.26ZM56.9889 124.26C55.6569 124.26 54.5949 123.876 53.8029 123.108C53.0229 122.328 52.6089 121.236 52.5609 119.832L52.5429 119.382L52.5609 118.932C52.6209 117.564 53.0409 116.49 53.8209 115.71C54.6129 114.93 55.6689 114.54 56.9889 114.54C58.4049 114.54 59.4969 114.972 60.2649 115.836C61.0449 116.7 61.4349 117.852 61.4349 119.292V119.67C61.4349 119.79 61.3929 119.892 61.3089 119.976C61.2249 120.06 61.1169 120.102 60.9849 120.102H55.0089V120.246C55.0329 120.906 55.2129 121.464 55.5489 121.92C55.8969 122.364 56.3709 122.586 56.9709 122.586C57.6789 122.586 58.2489 122.31 58.6809 121.758C58.7889 121.626 58.8729 121.542 58.9329 121.506C59.0049 121.47 59.1069 121.452 59.2389 121.452H60.7869C60.8949 121.452 60.9849 121.488 61.0569 121.56C61.1409 121.62 61.1829 121.698 61.1829 121.794C61.1829 122.082 61.0089 122.424 60.6609 122.82C60.3249 123.204 59.8389 123.54 59.2029 123.828C58.5669 124.116 57.8289 124.26 56.9889 124.26ZM58.9869 118.59V118.536C58.9869 117.828 58.8069 117.258 58.4469 116.826C58.0989 116.394 57.6129 116.178 56.9889 116.178C56.3649 116.178 55.8789 116.394 55.5309 116.826C55.1829 117.258 55.0089 117.828 55.0089 118.536V118.59H58.9869ZM68.5295 124.26C67.2935 124.26 66.3335 123.834 65.6495 122.982V123.648C65.6495 123.768 65.6075 123.87 65.5235 123.954C65.4515 124.038 65.3495 124.08 65.2175 124.08H63.7955C63.6755 124.08 63.5735 124.038 63.4895 123.954C63.4055 123.87 63.3635 123.768 63.3635 123.648V111.732C63.3635 111.6 63.4055 111.498 63.4895 111.426C63.5735 111.342 63.6755 111.3 63.7955 111.3H65.3255C65.4575 111.3 65.5595 111.342 65.6315 111.426C65.7155 111.498 65.7575 111.6 65.7575 111.732V115.728C66.4415 114.936 67.3655 114.54 68.5295 114.54C69.7415 114.54 70.6715 114.936 71.3195 115.728C71.9675 116.52 72.3155 117.546 72.3635 118.806C72.3755 118.95 72.3815 119.142 72.3815 119.382C72.3815 119.634 72.3755 119.832 72.3635 119.976C72.3155 121.272 71.9675 122.31 71.3195 123.09C70.6715 123.87 69.7415 124.26 68.5295 124.26ZM67.8635 122.334C69.1595 122.334 69.8495 121.536 69.9335 119.94C69.9455 119.82 69.9515 119.64 69.9515 119.4C69.9515 119.16 69.9455 118.98 69.9335 118.86C69.8495 117.264 69.1595 116.466 67.8635 116.466C67.1915 116.466 66.6755 116.682 66.3155 117.114C65.9675 117.534 65.7815 118.044 65.7575 118.644L65.7395 119.328L65.7575 120.03C65.7935 120.678 65.9795 121.224 66.3155 121.668C66.6515 122.112 67.1675 122.334 67.8635 122.334ZM77.1026 124.26C76.4906 124.26 75.9266 124.14 75.4106 123.9C74.9066 123.648 74.5046 123.312 74.2046 122.892C73.9166 122.472 73.7726 122.01 73.7726 121.506C73.7726 120.69 74.1026 120.03 74.7626 119.526C75.4226 119.022 76.3286 118.68 77.4806 118.5L79.9466 118.14V117.762C79.9466 117.234 79.8146 116.838 79.5506 116.574C79.2866 116.31 78.8606 116.178 78.2726 116.178C77.8766 116.178 77.5526 116.256 77.3006 116.412C77.0606 116.556 76.8686 116.7 76.7246 116.844C76.5806 117 76.4846 117.102 76.4366 117.15C76.3886 117.294 76.2986 117.366 76.1666 117.366H74.7806C74.6726 117.366 74.5766 117.33 74.4926 117.258C74.4206 117.186 74.3846 117.09 74.3846 116.97C74.3966 116.67 74.5406 116.328 74.8166 115.944C75.1046 115.56 75.5426 115.23 76.1306 114.954C76.7186 114.678 77.4386 114.54 78.2906 114.54C79.7066 114.54 80.7386 114.858 81.3866 115.494C82.0346 116.13 82.3586 116.964 82.3586 117.996V123.648C82.3586 123.768 82.3166 123.87 82.2326 123.954C82.1606 124.038 82.0586 124.08 81.9266 124.08H80.4686C80.3486 124.08 80.2466 124.038 80.1626 123.954C80.0786 123.87 80.0366 123.768 80.0366 123.648V122.946C79.7726 123.33 79.3946 123.648 78.9026 123.9C78.4226 124.14 77.8226 124.26 77.1026 124.26ZM77.7146 122.55C78.3746 122.55 78.9146 122.334 79.3346 121.902C79.7546 121.47 79.9646 120.84 79.9646 120.012V119.634L78.1646 119.922C77.4686 120.03 76.9406 120.204 76.5806 120.444C76.2326 120.684 76.0586 120.978 76.0586 121.326C76.0586 121.71 76.2206 122.01 76.5446 122.226C76.8686 122.442 77.2586 122.55 77.7146 122.55ZM92.8131 124.26C91.4811 124.26 90.4191 123.876 89.6271 123.108C88.8471 122.328 88.4331 121.236 88.3851 119.832L88.3671 119.382L88.3851 118.932C88.4451 117.564 88.8651 116.49 89.6451 115.71C90.4371 114.93 91.4931 114.54 92.8131 114.54C94.2291 114.54 95.3211 114.972 96.0891 115.836C96.8691 116.7 97.2591 117.852 97.2591 119.292V119.67C97.2591 119.79 97.2171 119.892 97.1331 119.976C97.0491 120.06 96.9411 120.102 96.8091 120.102H90.8331V120.246C90.8571 120.906 91.0371 121.464 91.3731 121.92C91.7211 122.364 92.1951 122.586 92.7951 122.586C93.5031 122.586 94.0731 122.31 94.5051 121.758C94.6131 121.626 94.6971 121.542 94.7571 121.506C94.8291 121.47 94.9311 121.452 95.0631 121.452H96.6111C96.7191 121.452 96.8091 121.488 96.8811 121.56C96.9651 121.62 97.0071 121.698 97.0071 121.794C97.0071 122.082 96.8331 122.424 96.4851 122.82C96.1491 123.204 95.6631 123.54 95.0271 123.828C94.3911 124.116 93.6531 124.26 92.8131 124.26ZM94.8111 118.59V118.536C94.8111 117.828 94.6311 117.258 94.2711 116.826C93.9231 116.394 93.4371 116.178 92.8131 116.178C92.1891 116.178 91.7031 116.394 91.3551 116.826C91.0071 117.258 90.8331 117.828 90.8331 118.536V118.59H94.8111ZM99.6018 124.08C99.4818 124.08 99.3798 124.038 99.2958 123.954C99.2118 123.87 99.1698 123.768 99.1698 123.648V115.152C99.1698 115.032 99.2118 114.93 99.2958 114.846C99.3798 114.762 99.4818 114.72 99.6018 114.72H101.078C101.198 114.72 101.3 114.762 101.384 114.846C101.468 114.93 101.51 115.032 101.51 115.152V115.89C102.218 114.99 103.22 114.54 104.516 114.54C105.62 114.54 106.496 114.906 107.144 115.638C107.792 116.358 108.116 117.342 108.116 118.59V123.648C108.116 123.768 108.074 123.87 107.99 123.954C107.918 124.038 107.816 124.08 107.684 124.08H106.1C105.98 124.08 105.878 124.038 105.794 123.954C105.71 123.87 105.668 123.768 105.668 123.648V118.698C105.668 117.99 105.494 117.444 105.146 117.06C104.81 116.664 104.318 116.466 103.67 116.466C103.034 116.466 102.53 116.664 102.158 117.06C101.798 117.456 101.618 118.002 101.618 118.698V123.648C101.618 123.768 101.576 123.87 101.492 123.954C101.42 124.038 101.318 124.08 101.186 124.08H99.6018ZM114.527 124.08C113.435 124.08 112.613 123.798 112.061 123.234C111.521 122.658 111.251 121.818 111.251 120.714V116.628H109.829C109.709 116.628 109.607 116.586 109.523 116.502C109.439 116.406 109.397 116.298 109.397 116.178V115.152C109.397 115.032 109.439 114.93 109.523 114.846C109.607 114.762 109.709 114.72 109.829 114.72H111.251V111.732C111.251 111.6 111.293 111.498 111.377 111.426C111.461 111.342 111.563 111.3 111.683 111.3H113.141C113.273 111.3 113.375 111.342 113.447 111.426C113.531 111.498 113.573 111.6 113.573 111.732V114.72H115.823C115.955 114.72 116.057 114.762 116.129 114.846C116.213 114.918 116.255 115.02 116.255 115.152V116.178C116.255 116.31 116.213 116.418 116.129 116.502C116.045 116.586 115.943 116.628 115.823 116.628H113.573V120.534C113.573 121.05 113.663 121.44 113.843 121.704C114.023 121.968 114.323 122.1 114.743 122.1H115.985C116.105 122.1 116.207 122.142 116.291 122.226C116.375 122.31 116.417 122.412 116.417 122.532V123.648C116.417 123.768 116.375 123.87 116.291 123.954C116.219 124.038 116.117 124.08 115.985 124.08H114.527ZM118.446 124.08C118.326 124.08 118.224 124.038 118.14 123.954C118.056 123.87 118.014 123.768 118.014 123.648V115.17C118.014 115.05 118.056 114.948 118.14 114.864C118.224 114.768 118.326 114.72 118.446 114.72H119.904C120.036 114.72 120.144 114.762 120.228 114.846C120.312 114.93 120.354 115.038 120.354 115.17V115.908C120.642 115.524 121.002 115.23 121.434 115.026C121.878 114.822 122.382 114.72 122.946 114.72H123.684C123.816 114.72 123.918 114.762 123.99 114.846C124.074 114.918 124.116 115.02 124.116 115.152V116.448C124.116 116.568 124.074 116.67 123.99 116.754C123.918 116.838 123.816 116.88 123.684 116.88H122.28C121.716 116.88 121.272 117.042 120.948 117.366C120.624 117.69 120.462 118.134 120.462 118.698V123.648C120.462 123.768 120.42 123.87 120.336 123.954C120.252 124.038 120.144 124.08 120.012 124.08H118.446ZM129.428 124.26C128.096 124.26 127.034 123.876 126.242 123.108C125.462 122.328 125.048 121.236 125 119.832L124.982 119.382L125 118.932C125.06 117.564 125.48 116.49 126.26 115.71C127.052 114.93 128.108 114.54 129.428 114.54C130.844 114.54 131.936 114.972 132.704 115.836C133.484 116.7 133.874 117.852 133.874 119.292V119.67C133.874 119.79 133.832 119.892 133.748 119.976C133.664 120.06 133.556 120.102 133.424 120.102H127.448V120.246C127.472 120.906 127.652 121.464 127.988 121.92C128.336 122.364 128.81 122.586 129.41 122.586C130.118 122.586 130.688 122.31 131.12 121.758C131.228 121.626 131.312 121.542 131.372 121.506C131.444 121.47 131.546 121.452 131.678 121.452H133.226C133.334 121.452 133.424 121.488 133.496 121.56C133.58 121.62 133.622 121.698 133.622 121.794C133.622 122.082 133.448 122.424 133.1 122.82C132.764 123.204 132.278 123.54 131.642 123.828C131.006 124.116 130.268 124.26 129.428 124.26ZM131.426 118.59V118.536C131.426 117.828 131.246 117.258 130.886 116.826C130.538 116.394 130.052 116.178 129.428 116.178C128.804 116.178 128.318 116.394 127.97 116.826C127.622 117.258 127.448 117.828 127.448 118.536V118.59H131.426ZM140.015 128.04C138.947 128.04 138.083 127.86 137.423 127.5C136.763 127.152 136.295 126.75 136.019 126.294C135.743 125.838 135.605 125.448 135.605 125.124C135.605 125.016 135.647 124.92 135.731 124.836C135.827 124.752 135.929 124.71 136.037 124.71H137.603C137.711 124.71 137.801 124.734 137.873 124.782C137.957 124.842 138.023 124.944 138.071 125.088C138.191 125.412 138.383 125.682 138.647 125.898C138.923 126.126 139.349 126.24 139.925 126.24C140.645 126.24 141.173 126.078 141.509 125.754C141.857 125.43 142.031 124.872 142.031 124.08V122.856C141.371 123.636 140.447 124.026 139.259 124.026C138.011 124.026 137.069 123.642 136.433 122.874C135.809 122.106 135.473 121.074 135.425 119.778L135.407 119.292L135.425 118.806C135.473 117.534 135.815 116.508 136.451 115.728C137.087 114.936 138.023 114.54 139.259 114.54C139.895 114.54 140.453 114.66 140.933 114.9C141.413 115.14 141.815 115.47 142.139 115.89V115.17C142.139 115.038 142.181 114.93 142.265 114.846C142.349 114.762 142.451 114.72 142.571 114.72H144.029C144.149 114.72 144.251 114.768 144.335 114.864C144.419 114.948 144.461 115.05 144.461 115.17L144.479 123.846C144.479 125.178 144.107 126.21 143.363 126.942C142.619 127.674 141.503 128.04 140.015 128.04ZM139.925 122.118C140.609 122.118 141.119 121.902 141.455 121.47C141.803 121.038 141.995 120.51 142.031 119.886C142.043 119.79 142.049 119.592 142.049 119.292C142.049 119.004 142.043 118.812 142.031 118.716C141.995 118.08 141.803 117.546 141.455 117.114C141.119 116.682 140.609 116.466 139.925 116.466C138.629 116.466 137.945 117.264 137.873 118.86L137.855 119.292C137.855 120.144 138.005 120.828 138.305 121.344C138.617 121.86 139.157 122.118 139.925 122.118ZM149.595 124.26C148.983 124.26 148.419 124.14 147.903 123.9C147.399 123.648 146.997 123.312 146.697 122.892C146.409 122.472 146.265 122.01 146.265 121.506C146.265 120.69 146.595 120.03 147.255 119.526C147.915 119.022 148.821 118.68 149.973 118.5L152.439 118.14V117.762C152.439 117.234 152.307 116.838 152.043 116.574C151.779 116.31 151.353 116.178 150.765 116.178C150.369 116.178 150.045 116.256 149.793 116.412C149.553 116.556 149.361 116.7 149.217 116.844C149.073 117 148.977 117.102 148.929 117.15C148.881 117.294 148.791 117.366 148.659 117.366H147.273C147.165 117.366 147.069 117.33 146.985 117.258C146.913 117.186 146.877 117.09 146.877 116.97C146.889 116.67 147.033 116.328 147.309 115.944C147.597 115.56 148.035 115.23 148.623 114.954C149.211 114.678 149.931 114.54 150.783 114.54C152.199 114.54 153.231 114.858 153.879 115.494C154.527 116.13 154.851 116.964 154.851 117.996V123.648C154.851 123.768 154.809 123.87 154.725 123.954C154.653 124.038 154.551 124.08 154.419 124.08H152.961C152.841 124.08 152.739 124.038 152.655 123.954C152.571 123.87 152.529 123.768 152.529 123.648V122.946C152.265 123.33 151.887 123.648 151.395 123.9C150.915 124.14 150.315 124.26 149.595 124.26ZM150.207 122.55C150.867 122.55 151.407 122.334 151.827 121.902C152.247 121.47 152.457 120.84 152.457 120.012V119.634L150.657 119.922C149.961 120.03 149.433 120.204 149.073 120.444C148.725 120.684 148.551 120.978 148.551 121.326C148.551 121.71 148.713 122.01 149.037 122.226C149.361 122.442 149.751 122.55 150.207 122.55ZM160.706 124.26C159.806 124.26 159.05 124.128 158.438 123.864C157.826 123.588 157.37 123.27 157.07 122.91C156.782 122.538 156.638 122.22 156.638 121.956C156.638 121.836 156.68 121.74 156.764 121.668C156.848 121.596 156.944 121.56 157.052 121.56H158.474C158.582 121.56 158.672 121.602 158.744 121.686C158.792 121.722 158.918 121.83 159.122 122.01C159.326 122.202 159.566 122.352 159.842 122.46C160.118 122.568 160.424 122.622 160.76 122.622C161.24 122.622 161.636 122.526 161.948 122.334C162.26 122.142 162.416 121.878 162.416 121.542C162.416 121.29 162.344 121.086 162.2 120.93C162.068 120.774 161.822 120.636 161.462 120.516C161.102 120.384 160.568 120.246 159.86 120.102C158.84 119.886 158.084 119.556 157.592 119.112C157.112 118.668 156.872 118.08 156.872 117.348C156.872 116.868 157.016 116.418 157.304 115.998C157.592 115.566 158.018 115.218 158.582 114.954C159.158 114.678 159.842 114.54 160.634 114.54C161.438 114.54 162.134 114.672 162.722 114.936C163.31 115.188 163.754 115.494 164.054 115.854C164.366 116.202 164.522 116.514 164.522 116.79C164.522 116.898 164.48 116.994 164.396 117.078C164.324 117.15 164.234 117.186 164.126 117.186H162.794C162.698 117.186 162.596 117.144 162.488 117.06C162.404 117 162.272 116.886 162.092 116.718C161.912 116.55 161.702 116.418 161.462 116.322C161.222 116.226 160.94 116.178 160.616 116.178C160.172 116.178 159.824 116.274 159.572 116.466C159.332 116.658 159.212 116.91 159.212 117.222C159.212 117.45 159.272 117.636 159.392 117.78C159.512 117.924 159.746 118.062 160.094 118.194C160.442 118.326 160.964 118.458 161.66 118.59C162.812 118.818 163.634 119.172 164.126 119.652C164.63 120.132 164.882 120.72 164.882 121.416C164.882 122.256 164.516 122.94 163.784 123.468C163.052 123.996 162.026 124.26 160.706 124.26ZM22.9844 145.26C21.6644 145.26 20.6084 144.894 19.8164 144.162C19.0364 143.43 18.6224 142.416 18.5744 141.12L18.5564 140.4L18.5744 139.68C18.6224 138.384 19.0364 137.37 19.8164 136.638C20.6084 135.906 21.6644 135.54 22.9844 135.54C23.9204 135.54 24.7124 135.708 25.3604 136.044C26.0204 136.38 26.5064 136.794 26.8184 137.286C27.1424 137.766 27.3164 138.222 27.3404 138.654C27.3524 138.774 27.3104 138.876 27.2144 138.96C27.1304 139.044 27.0284 139.086 26.9084 139.086H25.3244C25.2044 139.086 25.1084 139.062 25.0364 139.014C24.9764 138.954 24.9164 138.858 24.8564 138.726C24.6764 138.258 24.4364 137.922 24.1364 137.718C23.8484 137.514 23.4764 137.412 23.0204 137.412C22.4084 137.412 21.9284 137.61 21.5804 138.006C21.2324 138.39 21.0464 138.978 21.0224 139.77L21.0044 140.436L21.0224 141.03C21.0704 142.602 21.7364 143.388 23.0204 143.388C23.4884 143.388 23.8664 143.286 24.1544 143.082C24.4424 142.878 24.6764 142.542 24.8564 142.074C24.9164 141.942 24.9764 141.852 25.0364 141.804C25.1084 141.744 25.2044 141.714 25.3244 141.714H26.9084C27.0284 141.714 27.1304 141.756 27.2144 141.84C27.3104 141.924 27.3524 142.026 27.3404 142.146C27.3164 142.566 27.1484 143.016 26.8364 143.496C26.5244 143.976 26.0444 144.39 25.3964 144.738C24.7484 145.086 23.9444 145.26 22.9844 145.26ZM33.3576 145.26C31.9536 145.26 30.8676 144.9 30.0996 144.18C29.3316 143.448 28.9176 142.452 28.8576 141.192L28.8396 140.4L28.8576 139.608C28.9176 138.36 29.3376 137.37 30.1176 136.638C30.8976 135.906 31.9776 135.54 33.3576 135.54C34.7376 135.54 35.8176 135.906 36.5976 136.638C37.3776 137.37 37.7976 138.36 37.8576 139.608C37.8696 139.752 37.8756 140.016 37.8756 140.4C37.8756 140.784 37.8696 141.048 37.8576 141.192C37.7976 142.452 37.3836 143.448 36.6156 144.18C35.8476 144.9 34.7616 145.26 33.3576 145.26ZM33.3576 143.478C33.9936 143.478 34.4856 143.28 34.8336 142.884C35.1816 142.476 35.3736 141.882 35.4096 141.102C35.4216 140.982 35.4276 140.748 35.4276 140.4C35.4276 140.052 35.4216 139.818 35.4096 139.698C35.3736 138.918 35.1816 138.33 34.8336 137.934C34.4856 137.526 33.9936 137.322 33.3576 137.322C32.7216 137.322 32.2296 137.526 31.8816 137.934C31.5336 138.33 31.3416 138.918 31.3056 139.698L31.2876 140.4L31.3056 141.102C31.3416 141.882 31.5336 142.476 31.8816 142.884C32.2296 143.28 32.7216 143.478 33.3576 143.478ZM40.302 145.08C40.182 145.08 40.08 145.038 39.996 144.954C39.912 144.87 39.87 144.768 39.87 144.648V136.152C39.87 136.032 39.912 135.93 39.996 135.846C40.08 135.762 40.182 135.72 40.302 135.72H41.778C41.898 135.72 42 135.762 42.084 135.846C42.168 135.93 42.21 136.032 42.21 136.152V136.89C42.918 135.99 43.92 135.54 45.216 135.54C46.32 135.54 47.196 135.906 47.844 136.638C48.492 137.358 48.816 138.342 48.816 139.59V144.648C48.816 144.768 48.774 144.87 48.69 144.954C48.618 145.038 48.516 145.08 48.384 145.08H46.8C46.68 145.08 46.578 145.038 46.494 144.954C46.41 144.87 46.368 144.768 46.368 144.648V139.698C46.368 138.99 46.194 138.444 45.846 138.06C45.51 137.664 45.018 137.466 44.37 137.466C43.734 137.466 43.23 137.664 42.858 138.06C42.498 138.456 42.318 139.002 42.318 139.698V144.648C42.318 144.768 42.276 144.87 42.192 144.954C42.12 145.038 42.018 145.08 41.886 145.08H40.302ZM55.2269 145.08C54.1349 145.08 53.3129 144.798 52.7609 144.234C52.2209 143.658 51.9509 142.818 51.9509 141.714V137.628H50.5289C50.4089 137.628 50.3069 137.586 50.2229 137.502C50.1389 137.406 50.0969 137.298 50.0969 137.178V136.152C50.0969 136.032 50.1389 135.93 50.2229 135.846C50.3069 135.762 50.4089 135.72 50.5289 135.72H51.9509V132.732C51.9509 132.6 51.9929 132.498 52.0769 132.426C52.1609 132.342 52.2629 132.3 52.3829 132.3H53.8409C53.9729 132.3 54.0749 132.342 54.1469 132.426C54.2309 132.498 54.2729 132.6 54.2729 132.732V135.72H56.5229C56.6549 135.72 56.7569 135.762 56.8289 135.846C56.9129 135.918 56.9549 136.02 56.9549 136.152V137.178C56.9549 137.31 56.9129 137.418 56.8289 137.502C56.7449 137.586 56.6429 137.628 56.5229 137.628H54.2729V141.534C54.2729 142.05 54.3629 142.44 54.5429 142.704C54.7229 142.968 55.0229 143.1 55.4429 143.1H56.6849C56.8049 143.1 56.9069 143.142 56.9909 143.226C57.0749 143.31 57.1169 143.412 57.1169 143.532V144.648C57.1169 144.768 57.0749 144.87 56.9909 144.954C56.9189 145.038 56.8169 145.08 56.6849 145.08H55.2269ZM59.1457 145.08C59.0257 145.08 58.9237 145.038 58.8397 144.954C58.7557 144.87 58.7137 144.768 58.7137 144.648V136.152C58.7137 136.032 58.7557 135.93 58.8397 135.846C58.9237 135.762 59.0257 135.72 59.1457 135.72H60.6397C60.7717 135.72 60.8737 135.762 60.9457 135.846C61.0297 135.918 61.0717 136.02 61.0717 136.152V144.648C61.0717 144.768 61.0297 144.87 60.9457 144.954C60.8737 145.038 60.7717 145.08 60.6397 145.08H59.1457ZM59.1277 134.37C58.9357 134.37 58.8397 134.274 58.8397 134.082C58.8397 133.986 58.8697 133.908 58.9297 133.848L60.3877 132.066C60.5077 131.934 60.6097 131.85 60.6937 131.814C60.7897 131.766 60.9097 131.742 61.0537 131.742H62.8537C63.0817 131.742 63.1957 131.856 63.1957 132.084C63.1957 132.168 63.1657 132.24 63.1057 132.3L60.8737 134.136C60.7657 134.22 60.6637 134.28 60.5677 134.316C60.4837 134.352 60.3697 134.37 60.2257 134.37H59.1277ZM63.8918 145.08C63.7718 145.08 63.6698 145.038 63.5858 144.954C63.5018 144.87 63.4598 144.768 63.4598 144.648V136.152C63.4598 136.032 63.5018 135.93 63.5858 135.846C63.6698 135.762 63.7718 135.72 63.8918 135.72H65.3678C65.4878 135.72 65.5898 135.762 65.6738 135.846C65.7578 135.93 65.7998 136.032 65.7998 136.152V136.89C66.5078 135.99 67.5098 135.54 68.8058 135.54C69.9098 135.54 70.7858 135.906 71.4338 136.638C72.0818 137.358 72.4058 138.342 72.4058 139.59V144.648C72.4058 144.768 72.3638 144.87 72.2798 144.954C72.2078 145.038 72.1058 145.08 71.9738 145.08H70.3898C70.2698 145.08 70.1678 145.038 70.0838 144.954C69.9998 144.87 69.9578 144.768 69.9578 144.648V139.698C69.9578 138.99 69.7838 138.444 69.4358 138.06C69.0998 137.664 68.6078 137.466 67.9598 137.466C67.3238 137.466 66.8198 137.664 66.4478 138.06C66.0878 138.456 65.9078 139.002 65.9078 139.698V144.648C65.9078 144.768 65.8658 144.87 65.7818 144.954C65.7098 145.038 65.6078 145.08 65.4758 145.08H63.8918ZM78.1662 145.26C77.0622 145.26 76.1922 144.9 75.5562 144.18C74.9202 143.448 74.6022 142.458 74.6022 141.21V136.152C74.6022 136.032 74.6442 135.93 74.7282 135.846C74.8122 135.762 74.9142 135.72 75.0342 135.72H76.6182C76.7502 135.72 76.8522 135.762 76.9242 135.846C77.0082 135.918 77.0502 136.02 77.0502 136.152V141.102C77.0502 142.59 77.7042 143.334 79.0122 143.334C79.6362 143.334 80.1282 143.136 80.4882 142.74C80.8602 142.344 81.0462 141.798 81.0462 141.102V136.152C81.0462 136.032 81.0882 135.93 81.1722 135.846C81.2562 135.762 81.3582 135.72 81.4782 135.72H83.0622C83.1942 135.72 83.2962 135.762 83.3682 135.846C83.4522 135.918 83.4942 136.02 83.4942 136.152V144.648C83.4942 144.768 83.4522 144.87 83.3682 144.954C83.2962 145.038 83.1942 145.08 83.0622 145.08H81.6042C81.4842 145.08 81.3822 145.038 81.2982 144.954C81.2142 144.87 81.1722 144.768 81.1722 144.648V143.91C80.5002 144.81 79.4982 145.26 78.1662 145.26ZM88.5899 145.26C87.9779 145.26 87.4139 145.14 86.8979 144.9C86.3939 144.648 85.9919 144.312 85.6919 143.892C85.4039 143.472 85.2599 143.01 85.2599 142.506C85.2599 141.69 85.5899 141.03 86.2499 140.526C86.9099 140.022 87.8159 139.68 88.9679 139.5L91.4339 139.14V138.762C91.4339 138.234 91.3019 137.838 91.0379 137.574C90.7739 137.31 90.3479 137.178 89.7599 137.178C89.3639 137.178 89.0399 137.256 88.7879 137.412C88.5479 137.556 88.3559 137.7 88.2119 137.844C88.0679 138 87.9719 138.102 87.9239 138.15C87.8759 138.294 87.7859 138.366 87.6539 138.366H86.2679C86.1599 138.366 86.0639 138.33 85.9799 138.258C85.9079 138.186 85.8719 138.09 85.8719 137.97C85.8839 137.67 86.0279 137.328 86.3039 136.944C86.5919 136.56 87.0299 136.23 87.6179 135.954C88.2059 135.678 88.9259 135.54 89.7779 135.54C91.1939 135.54 92.2259 135.858 92.8739 136.494C93.5219 137.13 93.8459 137.964 93.8459 138.996V144.648C93.8459 144.768 93.8039 144.87 93.7199 144.954C93.6479 145.038 93.5459 145.08 93.4139 145.08H91.9559C91.8359 145.08 91.7339 145.038 91.6499 144.954C91.5659 144.87 91.5239 144.768 91.5239 144.648V143.946C91.2599 144.33 90.8819 144.648 90.3899 144.9C89.9099 145.14 89.3099 145.26 88.5899 145.26ZM89.2019 143.55C89.8619 143.55 90.4019 143.334 90.8219 142.902C91.2419 142.47 91.4519 141.84 91.4519 141.012V140.634L89.6519 140.922C88.9559 141.03 88.4279 141.204 88.0679 141.444C87.7199 141.684 87.5459 141.978 87.5459 142.326C87.5459 142.71 87.7079 143.01 88.0319 143.226C88.3559 143.442 88.7459 143.55 89.2019 143.55ZM99.7011 145.26C98.8011 145.26 98.0451 145.128 97.4331 144.864C96.8211 144.588 96.3651 144.27 96.0651 143.91C95.7771 143.538 95.6331 143.22 95.6331 142.956C95.6331 142.836 95.6751 142.74 95.7591 142.668C95.8431 142.596 95.9391 142.56 96.0471 142.56H97.4691C97.5771 142.56 97.6671 142.602 97.7391 142.686C97.7871 142.722 97.9131 142.83 98.1171 143.01C98.3211 143.202 98.5611 143.352 98.8371 143.46C99.1131 143.568 99.4191 143.622 99.7551 143.622C100.235 143.622 100.631 143.526 100.943 143.334C101.255 143.142 101.411 142.878 101.411 142.542C101.411 142.29 101.339 142.086 101.195 141.93C101.063 141.774 100.817 141.636 100.457 141.516C100.097 141.384 99.5631 141.246 98.8551 141.102C97.8351 140.886 97.0791 140.556 96.5871 140.112C96.1071 139.668 95.8671 139.08 95.8671 138.348C95.8671 137.868 96.0111 137.418 96.2991 136.998C96.5871 136.566 97.0131 136.218 97.5771 135.954C98.1531 135.678 98.8371 135.54 99.6291 135.54C100.433 135.54 101.129 135.672 101.717 135.936C102.305 136.188 102.749 136.494 103.049 136.854C103.361 137.202 103.517 137.514 103.517 137.79C103.517 137.898 103.475 137.994 103.391 138.078C103.319 138.15 103.229 138.186 103.121 138.186H101.789C101.693 138.186 101.591 138.144 101.483 138.06C101.399 138 101.267 137.886 101.087 137.718C100.907 137.55 100.697 137.418 100.457 137.322C100.217 137.226 99.9351 137.178 99.6111 137.178C99.1671 137.178 98.8191 137.274 98.5671 137.466C98.3271 137.658 98.2071 137.91 98.2071 138.222C98.2071 138.45 98.2671 138.636 98.3871 138.78C98.5071 138.924 98.7411 139.062 99.0891 139.194C99.4371 139.326 99.9591 139.458 100.655 139.59C101.807 139.818 102.629 140.172 103.121 140.652C103.625 141.132 103.877 141.72 103.877 142.416C103.877 143.256 103.511 143.94 102.779 144.468C102.047 144.996 101.021 145.26 99.7011 145.26ZM113.322 145.26C112.11 145.26 111.18 144.87 110.532 144.09C109.884 143.31 109.536 142.272 109.488 140.976L109.47 140.382L109.488 139.806C109.524 138.546 109.866 137.52 110.514 136.728C111.174 135.936 112.11 135.54 113.322 135.54C114.486 135.54 115.41 135.936 116.094 136.728V132.732C116.094 132.6 116.136 132.498 116.22 132.426C116.304 132.342 116.406 132.3 116.526 132.3H118.056C118.188 132.3 118.29 132.342 118.362 132.426C118.446 132.498 118.488 132.6 118.488 132.732V144.648C118.488 144.768 118.446 144.87 118.362 144.954C118.29 145.038 118.188 145.08 118.056 145.08H116.634C116.514 145.08 116.412 145.038 116.328 144.954C116.244 144.87 116.202 144.768 116.202 144.648V143.982C115.518 144.834 114.558 145.26 113.322 145.26ZM113.988 143.334C114.684 143.334 115.2 143.112 115.536 142.668C115.872 142.224 116.058 141.678 116.094 141.03C116.106 140.886 116.112 140.652 116.112 140.328C116.112 140.016 116.106 139.788 116.094 139.644C116.07 139.044 115.878 138.534 115.518 138.114C115.17 137.682 114.66 137.466 113.988 137.466C112.692 137.466 112.002 138.264 111.918 139.86L111.9 140.4L111.918 140.94C112.002 142.536 112.692 143.334 113.988 143.334ZM125.028 145.26C123.624 145.26 122.538 144.9 121.77 144.18C121.002 143.448 120.588 142.452 120.528 141.192L120.51 140.4L120.528 139.608C120.588 138.36 121.008 137.37 121.788 136.638C122.568 135.906 123.648 135.54 125.028 135.54C126.408 135.54 127.488 135.906 128.268 136.638C129.048 137.37 129.468 138.36 129.528 139.608C129.54 139.752 129.546 140.016 129.546 140.4C129.546 140.784 129.54 141.048 129.528 141.192C129.468 142.452 129.054 143.448 128.286 144.18C127.518 144.9 126.432 145.26 125.028 145.26ZM125.028 143.478C125.664 143.478 126.156 143.28 126.504 142.884C126.852 142.476 127.044 141.882 127.08 141.102C127.092 140.982 127.098 140.748 127.098 140.4C127.098 140.052 127.092 139.818 127.08 139.698C127.044 138.918 126.852 138.33 126.504 137.934C126.156 137.526 125.664 137.322 125.028 137.322C124.392 137.322 123.9 137.526 123.552 137.934C123.204 138.33 123.012 138.918 122.976 139.698L122.958 140.4L122.976 141.102C123.012 141.882 123.204 142.476 123.552 142.884C123.9 143.28 124.392 143.478 125.028 143.478ZM139.199 145.26C138.299 145.26 137.543 145.128 136.931 144.864C136.319 144.588 135.863 144.27 135.563 143.91C135.275 143.538 135.131 143.22 135.131 142.956C135.131 142.836 135.173 142.74 135.257 142.668C135.341 142.596 135.437 142.56 135.545 142.56H136.967C137.075 142.56 137.165 142.602 137.237 142.686C137.285 142.722 137.411 142.83 137.615 143.01C137.819 143.202 138.059 143.352 138.335 143.46C138.611 143.568 138.917 143.622 139.253 143.622C139.733 143.622 140.129 143.526 140.441 143.334C140.753 143.142 140.909 142.878 140.909 142.542C140.909 142.29 140.837 142.086 140.693 141.93C140.561 141.774 140.315 141.636 139.955 141.516C139.595 141.384 139.061 141.246 138.353 141.102C137.333 140.886 136.577 140.556 136.085 140.112C135.605 139.668 135.365 139.08 135.365 138.348C135.365 137.868 135.509 137.418 135.797 136.998C136.085 136.566 136.511 136.218 137.075 135.954C137.651 135.678 138.335 135.54 139.127 135.54C139.931 135.54 140.627 135.672 141.215 135.936C141.803 136.188 142.247 136.494 142.547 136.854C142.859 137.202 143.015 137.514 143.015 137.79C143.015 137.898 142.973 137.994 142.889 138.078C142.817 138.15 142.727 138.186 142.619 138.186H141.287C141.191 138.186 141.089 138.144 140.981 138.06C140.897 138 140.765 137.886 140.585 137.718C140.405 137.55 140.195 137.418 139.955 137.322C139.715 137.226 139.433 137.178 139.109 137.178C138.665 137.178 138.317 137.274 138.065 137.466C137.825 137.658 137.705 137.91 137.705 138.222C137.705 138.45 137.765 138.636 137.885 138.78C138.005 138.924 138.239 139.062 138.587 139.194C138.935 139.326 139.457 139.458 140.153 139.59C141.305 139.818 142.127 140.172 142.619 140.652C143.123 141.132 143.375 141.72 143.375 142.416C143.375 143.256 143.009 143.94 142.277 144.468C141.545 144.996 140.519 145.26 139.199 145.26ZM145.593 134.172C145.473 134.172 145.371 134.13 145.287 134.046C145.203 133.962 145.161 133.86 145.161 133.74V132.444C145.161 132.324 145.203 132.222 145.287 132.138C145.371 132.054 145.473 132.012 145.593 132.012H147.231C147.351 132.012 147.453 132.054 147.537 132.138C147.633 132.222 147.681 132.324 147.681 132.444V133.74C147.681 133.86 147.639 133.962 147.555 134.046C147.471 134.13 147.363 134.172 147.231 134.172H145.593ZM145.665 145.08C145.545 145.08 145.443 145.038 145.359 144.954C145.275 144.87 145.233 144.768 145.233 144.648V136.152C145.233 136.032 145.275 135.93 145.359 135.846C145.443 135.762 145.545 135.72 145.665 135.72H147.159C147.291 135.72 147.393 135.762 147.465 135.846C147.549 135.918 147.591 136.02 147.591 136.152V144.648C147.591 144.768 147.549 144.87 147.465 144.954C147.393 145.038 147.291 145.08 147.159 145.08H145.665ZM154.209 145.08C153.117 145.08 152.295 144.798 151.743 144.234C151.203 143.658 150.933 142.818 150.933 141.714V137.628H149.511C149.391 137.628 149.289 137.586 149.205 137.502C149.121 137.406 149.079 137.298 149.079 137.178V136.152C149.079 136.032 149.121 135.93 149.205 135.846C149.289 135.762 149.391 135.72 149.511 135.72H150.933V132.732C150.933 132.6 150.975 132.498 151.059 132.426C151.143 132.342 151.245 132.3 151.365 132.3H152.823C152.955 132.3 153.057 132.342 153.129 132.426C153.213 132.498 153.255 132.6 153.255 132.732V135.72H155.505C155.637 135.72 155.739 135.762 155.811 135.846C155.895 135.918 155.937 136.02 155.937 136.152V137.178C155.937 137.31 155.895 137.418 155.811 137.502C155.727 137.586 155.625 137.628 155.505 137.628H153.255V141.534C153.255 142.05 153.345 142.44 153.525 142.704C153.705 142.968 154.005 143.1 154.425 143.1H155.667C155.787 143.1 155.889 143.142 155.973 143.226C156.057 143.31 156.099 143.412 156.099 143.532V144.648C156.099 144.768 156.057 144.87 155.973 144.954C155.901 145.038 155.799 145.08 155.667 145.08H154.209ZM161.728 145.26C160.396 145.26 159.334 144.876 158.542 144.108C157.762 143.328 157.348 142.236 157.3 140.832L157.282 140.382L157.3 139.932C157.36 138.564 157.78 137.49 158.56 136.71C159.352 135.93 160.408 135.54 161.728 135.54C163.144 135.54 164.236 135.972 165.004 136.836C165.784 137.7 166.174 138.852 166.174 140.292V140.67C166.174 140.79 166.132 140.892 166.048 140.976C165.964 141.06 165.856 141.102 165.724 141.102H159.748V141.246C159.772 141.906 159.952 142.464 160.288 142.92C160.636 143.364 161.11 143.586 161.71 143.586C162.418 143.586 162.988 143.31 163.42 142.758C163.528 142.626 163.612 142.542 163.672 142.506C163.744 142.47 163.846 142.452 163.978 142.452H165.526C165.634 142.452 165.724 142.488 165.796 142.56C165.88 142.62 165.922 142.698 165.922 142.794C165.922 143.082 165.748 143.424 165.4 143.82C165.064 144.204 164.578 144.54 163.942 144.828C163.306 145.116 162.568 145.26 161.728 145.26ZM163.726 139.59V139.536C163.726 138.828 163.546 138.258 163.186 137.826C162.838 137.394 162.352 137.178 161.728 137.178C161.104 137.178 160.618 137.394 160.27 137.826C159.922 138.258 159.748 138.828 159.748 139.536V139.59H163.726Z" fill="#2E2B2B"/>
<g clip-path="url(#clip0)">
<path d="M136.959 1.47314H46.8178C42.9935 1.47314 39.8819 4.11822 39.8819 7.3687V55.9931C39.8819 56.8065 40.6585 57.4666 41.6154 57.4666H142.161C143.118 57.4666 143.895 56.8065 143.895 55.9931V7.3687C143.895 4.11822 140.783 1.47314 136.959 1.47314ZM140.428 54.5197H43.3491V7.3687C43.3491 5.74191 44.9058 4.42023 46.8178 4.42023H136.959C138.871 4.42023 140.428 5.74191 140.428 7.3687V54.5197Z" fill="#DA0E16"/>
<path d="M142.161 54.52H41.6154C40.6585 54.52 39.8819 55.1802 39.8819 55.9935V63.3596C39.8819 66.6102 42.9935 69.2551 46.8178 69.2551H136.959C140.783 69.2551 143.895 66.6102 143.895 63.3596V55.9935C143.895 55.1802 143.118 54.52 142.161 54.52ZM140.428 63.3597C140.428 64.9865 138.871 66.3082 136.959 66.3082H46.8178C44.9058 66.3082 43.3491 64.9865 43.3491 63.3597V57.4671H140.428V63.3597H140.428Z" fill="#DA0E16"/>
<path d="M97.1131 62.1064H86.7118C85.755 62.1064 84.9783 62.7666 84.9783 63.5799C84.9783 64.3932 85.755 65.0534 86.7118 65.0534H97.1131C98.0699 65.0534 98.8466 64.3932 98.8466 63.5799C98.8466 62.7666 98.0699 62.1064 97.1131 62.1064Z" fill="#DA0E16"/>
<path d="M137.712 2.88379H46.7918C45.1752 2.88379 43.4734 4.05797 43.4734 5.95252V56.1539C43.4734 58.0484 45.1752 59.2226 46.7918 59.2226H137.712C139.329 59.2226 141.031 58.0484 141.031 56.1539V5.95252C141.031 4.05786 139.329 2.88379 137.712 2.88379ZM134.394 53.085H50.1101V9.02125H134.394V53.085Z" fill="#DA0E16" stroke="#DA0E16" stroke-width="3"/>
<path d="M114.424 78.0962H69.3523C66.485 78.0962 64.1516 80.0796 64.1516 82.5167C64.1516 84.9539 66.485 86.9373 69.3523 86.9373H114.425C117.292 86.9373 119.625 84.9539 119.625 82.5167C119.625 80.0796 117.292 78.0962 114.424 78.0962ZM114.424 83.9902H69.3523C68.3954 83.9902 67.6188 83.3287 67.6188 82.5167C67.6188 81.7048 68.3954 81.0433 69.3523 81.0433H114.425C115.381 81.0433 116.158 81.7048 116.158 82.5167C116.158 83.3287 115.381 83.9902 114.424 83.9902Z" fill="#DA0E16" stroke="#DA0E16" stroke-width="4"/>
<path d="M110.957 78.0966C105.205 78.0966 102.29 74.6265 102.29 67.782C102.29 66.9687 101.513 66.3086 100.556 66.3086H83.2207C82.2639 66.3086 81.4872 66.9687 81.4872 67.782C81.4872 74.6265 78.5714 78.0966 72.8194 78.0966C71.8626 78.0966 71.0859 78.7567 71.0859 79.57C71.0859 80.3834 71.8626 81.0435 72.8194 81.0435H110.957C111.914 81.0435 112.691 80.3834 112.691 79.57C112.691 78.7567 111.914 78.0966 110.957 78.0966ZM81.2633 78.0966C83.3974 76.0868 84.6541 73.094 84.9072 69.2555H98.871C99.1223 73.094 100.379 76.0868 102.515 78.0966H81.2633Z" fill="#DA0E16"/>
<path d="M122.718 44.8891L118.533 41.3321L120.861 39.3532C121.293 38.9863 121.466 38.4529 121.317 37.9504C121.168 37.4479 120.719 37.0501 120.135 36.8998L102.799 32.4793C102.187 32.323 101.527 32.466 101.076 32.8492C100.624 33.2323 100.457 33.7951 100.641 34.3138L105.842 49.0489C106.017 49.5469 106.486 49.9285 107.078 50.0553C107.667 50.1791 108.296 50.0346 108.728 49.6678L111.179 47.5827L115.364 51.1413C115.688 51.4182 116.13 51.5729 116.59 51.5729C117.049 51.5729 117.491 51.4182 117.815 51.1413L122.718 46.9726C123.395 46.3966 123.395 45.4653 122.718 44.8891ZM116.59 48.016L112.779 44.7757C112.337 44.3999 111.758 44.2127 111.179 44.2127C110.598 44.2127 110.019 44.4013 109.579 44.7741L108.328 45.838L104.886 36.0877L116.357 39.0127L115.016 40.1533C114.646 40.4686 114.443 40.8871 114.443 41.3321C114.443 41.7787 114.648 42.2 115.019 42.5124L119.041 45.9309L116.59 48.016Z" fill="#DA0E16"/>
<path d="M112.691 13.2617H64.1516C63.1948 13.2617 62.4181 13.9219 62.4181 14.7352V22.1028C62.4181 22.9161 63.1948 23.5763 64.1516 23.5763H112.691C113.648 23.5763 114.424 22.9161 114.424 22.1028V14.7352C114.424 13.9219 113.648 13.2617 112.691 13.2617ZM110.957 20.6293H65.8851V16.2088H110.957V20.6293V20.6293Z" fill="#DA0E16"/>
<path d="M84.9542 29.4702H71.0857C70.1289 29.4702 69.3523 30.1304 69.3523 30.9437V36.8377C69.3523 37.651 70.1289 38.3111 71.0857 38.3111H84.9542C85.911 38.3111 86.6877 37.651 86.6877 36.8377V30.9437C86.6877 30.1304 85.911 29.4702 84.9542 29.4702ZM83.2205 35.3642H72.8192V32.4171H83.2205V35.3642V35.3642Z" fill="#DA0E16"/>
<path d="M112.691 13.2617H64.1516C63.1948 13.2617 62.4181 13.9219 62.4181 14.7352V42.7319C62.4181 43.5452 63.1948 44.2054 64.1516 44.2054H105.421C105.97 44.2054 106.485 43.9859 106.811 43.6115C107.139 43.2373 107.239 42.754 107.081 42.3075L104.887 36.0878L112.194 37.9518C112.719 38.086 113.288 38.0005 113.726 37.722C114.166 37.445 114.425 37.0059 114.425 36.5402V14.7352C114.424 13.9219 113.648 13.2617 112.691 13.2617ZM110.957 34.5599L102.797 32.4793C102.186 32.3231 101.525 32.466 101.074 32.8492C100.622 33.2338 100.456 33.7951 100.639 34.3154L103.09 41.2586H65.8851V16.2088H110.957V34.5599V34.5599Z" fill="#DA0E16"/>
</g>
<defs>
<clipPath id="clip0">
<rect x="39.8819" width="104.013" height="88.4109" fill="white"/>
</clipPath>
</defs>
</svg>
