<svg width="211" height="169" viewBox="0 0 211 169" fill="none" xmlns="http://www.w3.org/2000/svg">
<path d="M34.1055 144C33.9855 144 33.8835 143.958 33.7995 143.874C33.7155 143.79 33.6735 143.688 33.6735 143.568V131.85C33.6735 131.718 33.7095 131.61 33.7815 131.526C33.8655 131.442 33.9735 131.4 34.1055 131.4H38.7675C40.2315 131.4 41.3775 131.742 42.2055 132.426C43.0455 133.11 43.4655 134.082 43.4655 135.342C43.4655 136.218 43.2495 136.956 42.8175 137.556C42.3975 138.144 41.8095 138.57 41.0535 138.834L43.6815 143.424C43.7175 143.496 43.7355 143.562 43.7355 143.622C43.7355 143.73 43.6935 143.82 43.6095 143.892C43.5375 143.964 43.4535 144 43.3575 144H41.7195C41.5275 144 41.3775 143.958 41.2695 143.874C41.1735 143.79 41.0835 143.67 40.9995 143.514L38.6775 139.248H36.1755V143.568C36.1755 143.688 36.1335 143.79 36.0495 143.874C35.9775 143.958 35.8755 144 35.7435 144H34.1055ZM38.7135 137.214C39.4335 137.214 39.9735 137.052 40.3335 136.728C40.7055 136.404 40.8915 135.936 40.8915 135.324C40.8915 134.712 40.7055 134.238 40.3335 133.902C39.9735 133.566 39.4335 133.398 38.7135 133.398H36.1755V137.214H38.7135ZM49.4954 144.18C48.1634 144.18 47.1014 143.796 46.3094 143.028C45.5294 142.248 45.1154 141.156 45.0674 139.752L45.0494 139.302L45.0674 138.852C45.1274 137.484 45.5474 136.41 46.3274 135.63C47.1194 134.85 48.1754 134.46 49.4954 134.46C50.9114 134.46 52.0034 134.892 52.7714 135.756C53.5514 136.62 53.9414 137.772 53.9414 139.212V139.59C53.9414 139.71 53.8994 139.812 53.8154 139.896C53.7314 139.98 53.6234 140.022 53.4914 140.022H47.5154V140.166C47.5394 140.826 47.7194 141.384 48.0554 141.84C48.4034 142.284 48.8774 142.506 49.4774 142.506C50.1854 142.506 50.7554 142.23 51.1874 141.678C51.2954 141.546 51.3794 141.462 51.4394 141.426C51.5114 141.39 51.6134 141.372 51.7454 141.372H53.2934C53.4014 141.372 53.4914 141.408 53.5634 141.48C53.6474 141.54 53.6894 141.618 53.6894 141.714C53.6894 142.002 53.5154 142.344 53.1674 142.74C52.8314 143.124 52.3454 143.46 51.7094 143.748C51.0734 144.036 50.3354 144.18 49.4954 144.18ZM51.4934 138.51V138.456C51.4934 137.748 51.3134 137.178 50.9534 136.746C50.6054 136.314 50.1194 136.098 49.4954 136.098C48.8714 136.098 48.3854 136.314 48.0374 136.746C47.6894 137.178 47.5154 137.748 47.5154 138.456V138.51H51.4934ZM59.9021 144.18C58.5821 144.18 57.5261 143.814 56.7341 143.082C55.9541 142.35 55.5401 141.336 55.4921 140.04L55.4741 139.32L55.4921 138.6C55.5401 137.304 55.9541 136.29 56.7341 135.558C57.5261 134.826 58.5821 134.46 59.9021 134.46C60.8381 134.46 61.6301 134.628 62.2781 134.964C62.9381 135.3 63.4241 135.714 63.7361 136.206C64.0601 136.686 64.2341 137.142 64.2581 137.574C64.2701 137.694 64.2281 137.796 64.1321 137.88C64.0481 137.964 63.9461 138.006 63.8261 138.006H62.2421C62.1221 138.006 62.0261 137.982 61.9541 137.934C61.8941 137.874 61.8341 137.778 61.7741 137.646C61.5941 137.178 61.3541 136.842 61.0541 136.638C60.7661 136.434 60.3941 136.332 59.9381 136.332C59.3261 136.332 58.8461 136.53 58.4981 136.926C58.1501 137.31 57.9641 137.898 57.9401 138.69L57.9221 139.356L57.9401 139.95C57.9881 141.522 58.6541 142.308 59.9381 142.308C60.4061 142.308 60.7841 142.206 61.0721 142.002C61.3601 141.798 61.5941 141.462 61.7741 140.994C61.8341 140.862 61.8941 140.772 61.9541 140.724C62.0261 140.664 62.1221 140.634 62.2421 140.634H63.8261C63.9461 140.634 64.0481 140.676 64.1321 140.76C64.2281 140.844 64.2701 140.946 64.2581 141.066C64.2341 141.486 64.0661 141.936 63.7541 142.416C63.4421 142.896 62.9621 143.31 62.3141 143.658C61.6661 144.006 60.8621 144.18 59.9021 144.18ZM70.1673 144.18C68.8353 144.18 67.7733 143.796 66.9813 143.028C66.2013 142.248 65.7873 141.156 65.7393 139.752L65.7213 139.302L65.7393 138.852C65.7993 137.484 66.2193 136.41 66.9993 135.63C67.7913 134.85 68.8473 134.46 70.1673 134.46C71.5833 134.46 72.6753 134.892 73.4433 135.756C74.2233 136.62 74.6133 137.772 74.6133 139.212V139.59C74.6133 139.71 74.5713 139.812 74.4873 139.896C74.4033 139.98 74.2953 140.022 74.1633 140.022H68.1873V140.166C68.2113 140.826 68.3913 141.384 68.7273 141.84C69.0753 142.284 69.5493 142.506 70.1493 142.506C70.8573 142.506 71.4273 142.23 71.8593 141.678C71.9673 141.546 72.0513 141.462 72.1113 141.426C72.1833 141.39 72.2853 141.372 72.4173 141.372H73.9653C74.0733 141.372 74.1633 141.408 74.2353 141.48C74.3193 141.54 74.3613 141.618 74.3613 141.714C74.3613 142.002 74.1873 142.344 73.8393 142.74C73.5033 143.124 73.0173 143.46 72.3813 143.748C71.7453 144.036 71.0073 144.18 70.1673 144.18ZM72.1653 138.51V138.456C72.1653 137.748 71.9853 137.178 71.6253 136.746C71.2773 136.314 70.7913 136.098 70.1673 136.098C69.5433 136.098 69.0573 136.314 68.7093 136.746C68.3613 137.178 68.1873 137.748 68.1873 138.456V138.51H72.1653ZM81.7079 144.18C80.4719 144.18 79.5119 143.754 78.8279 142.902V143.568C78.8279 143.688 78.7859 143.79 78.7019 143.874C78.6299 143.958 78.5279 144 78.3959 144H76.9739C76.8539 144 76.7519 143.958 76.6679 143.874C76.5839 143.79 76.5419 143.688 76.5419 143.568V131.652C76.5419 131.52 76.5839 131.418 76.6679 131.346C76.7519 131.262 76.8539 131.22 76.9739 131.22H78.5039C78.6359 131.22 78.7379 131.262 78.8099 131.346C78.8939 131.418 78.9359 131.52 78.9359 131.652V135.648C79.6199 134.856 80.5439 134.46 81.7079 134.46C82.9199 134.46 83.8499 134.856 84.4979 135.648C85.1459 136.44 85.4939 137.466 85.5419 138.726C85.5539 138.87 85.5599 139.062 85.5599 139.302C85.5599 139.554 85.5539 139.752 85.5419 139.896C85.4939 141.192 85.1459 142.23 84.4979 143.01C83.8499 143.79 82.9199 144.18 81.7079 144.18ZM81.0419 142.254C82.3379 142.254 83.0279 141.456 83.1119 139.86C83.1239 139.74 83.1299 139.56 83.1299 139.32C83.1299 139.08 83.1239 138.9 83.1119 138.78C83.0279 137.184 82.3379 136.386 81.0419 136.386C80.3699 136.386 79.8539 136.602 79.4939 137.034C79.1459 137.454 78.9599 137.964 78.9359 138.564L78.9179 139.248L78.9359 139.95C78.9719 140.598 79.1579 141.144 79.4939 141.588C79.8299 142.032 80.3459 142.254 81.0419 142.254ZM90.281 144.18C89.669 144.18 89.105 144.06 88.589 143.82C88.085 143.568 87.683 143.232 87.383 142.812C87.095 142.392 86.951 141.93 86.951 141.426C86.951 140.61 87.281 139.95 87.941 139.446C88.601 138.942 89.507 138.6 90.659 138.42L93.125 138.06V137.682C93.125 137.154 92.993 136.758 92.729 136.494C92.465 136.23 92.039 136.098 91.451 136.098C91.055 136.098 90.731 136.176 90.479 136.332C90.239 136.476 90.047 136.62 89.903 136.764C89.759 136.92 89.663 137.022 89.615 137.07C89.567 137.214 89.477 137.286 89.345 137.286H87.959C87.851 137.286 87.755 137.25 87.671 137.178C87.599 137.106 87.563 137.01 87.563 136.89C87.575 136.59 87.719 136.248 87.995 135.864C88.283 135.48 88.721 135.15 89.309 134.874C89.897 134.598 90.617 134.46 91.469 134.46C92.885 134.46 93.917 134.778 94.565 135.414C95.213 136.05 95.537 136.884 95.537 137.916V143.568C95.537 143.688 95.495 143.79 95.411 143.874C95.339 143.958 95.237 144 95.105 144H93.647C93.527 144 93.425 143.958 93.341 143.874C93.257 143.79 93.215 143.688 93.215 143.568V142.866C92.951 143.25 92.573 143.568 92.081 143.82C91.601 144.06 91.001 144.18 90.281 144.18ZM90.893 142.47C91.553 142.47 92.093 142.254 92.513 141.822C92.933 141.39 93.143 140.76 93.143 139.932V139.554L91.343 139.842C90.647 139.95 90.119 140.124 89.759 140.364C89.411 140.604 89.237 140.898 89.237 141.246C89.237 141.63 89.399 141.93 89.723 142.146C90.047 142.362 90.437 142.47 90.893 142.47ZM105.991 144.18C104.659 144.18 103.597 143.796 102.805 143.028C102.025 142.248 101.611 141.156 101.563 139.752L101.545 139.302L101.563 138.852C101.623 137.484 102.043 136.41 102.823 135.63C103.615 134.85 104.671 134.46 105.991 134.46C107.407 134.46 108.499 134.892 109.267 135.756C110.047 136.62 110.437 137.772 110.437 139.212V139.59C110.437 139.71 110.395 139.812 110.311 139.896C110.227 139.98 110.119 140.022 109.987 140.022H104.011V140.166C104.035 140.826 104.215 141.384 104.551 141.84C104.899 142.284 105.373 142.506 105.973 142.506C106.681 142.506 107.251 142.23 107.683 141.678C107.791 141.546 107.875 141.462 107.935 141.426C108.007 141.39 108.109 141.372 108.241 141.372H109.789C109.897 141.372 109.987 141.408 110.059 141.48C110.143 141.54 110.185 141.618 110.185 141.714C110.185 142.002 110.011 142.344 109.663 142.74C109.327 143.124 108.841 143.46 108.205 143.748C107.569 144.036 106.831 144.18 105.991 144.18ZM107.989 138.51V138.456C107.989 137.748 107.809 137.178 107.449 136.746C107.101 136.314 106.615 136.098 105.991 136.098C105.367 136.098 104.881 136.314 104.533 136.746C104.185 137.178 104.011 137.748 104.011 138.456V138.51H107.989ZM112.78 144C112.66 144 112.558 143.958 112.474 143.874C112.39 143.79 112.348 143.688 112.348 143.568V135.072C112.348 134.952 112.39 134.85 112.474 134.766C112.558 134.682 112.66 134.64 112.78 134.64H114.256C114.376 134.64 114.478 134.682 114.562 134.766C114.646 134.85 114.688 134.952 114.688 135.072V135.81C115.396 134.91 116.398 134.46 117.694 134.46C118.798 134.46 119.674 134.826 120.322 135.558C120.97 136.278 121.294 137.262 121.294 138.51V143.568C121.294 143.688 121.252 143.79 121.168 143.874C121.096 143.958 120.994 144 120.862 144H119.278C119.158 144 119.056 143.958 118.972 143.874C118.888 143.79 118.846 143.688 118.846 143.568V138.618C118.846 137.91 118.672 137.364 118.324 136.98C117.988 136.584 117.496 136.386 116.848 136.386C116.212 136.386 115.708 136.584 115.336 136.98C114.976 137.376 114.796 137.922 114.796 138.618V143.568C114.796 143.688 114.754 143.79 114.67 143.874C114.598 143.958 114.496 144 114.364 144H112.78ZM127.705 144C126.613 144 125.791 143.718 125.239 143.154C124.699 142.578 124.429 141.738 124.429 140.634V136.548H123.007C122.887 136.548 122.785 136.506 122.701 136.422C122.617 136.326 122.575 136.218 122.575 136.098V135.072C122.575 134.952 122.617 134.85 122.701 134.766C122.785 134.682 122.887 134.64 123.007 134.64H124.429V131.652C124.429 131.52 124.471 131.418 124.555 131.346C124.639 131.262 124.741 131.22 124.861 131.22H126.319C126.451 131.22 126.553 131.262 126.625 131.346C126.709 131.418 126.751 131.52 126.751 131.652V134.64H129.001C129.133 134.64 129.235 134.682 129.307 134.766C129.391 134.838 129.433 134.94 129.433 135.072V136.098C129.433 136.23 129.391 136.338 129.307 136.422C129.223 136.506 129.121 136.548 129.001 136.548H126.751V140.454C126.751 140.97 126.841 141.36 127.021 141.624C127.201 141.888 127.501 142.02 127.921 142.02H129.163C129.283 142.02 129.385 142.062 129.469 142.146C129.553 142.23 129.595 142.332 129.595 142.452V143.568C129.595 143.688 129.553 143.79 129.469 143.874C129.397 143.958 129.295 144 129.163 144H127.705ZM131.624 144C131.504 144 131.402 143.958 131.318 143.874C131.234 143.79 131.192 143.688 131.192 143.568V135.09C131.192 134.97 131.234 134.868 131.318 134.784C131.402 134.688 131.504 134.64 131.624 134.64H133.082C133.214 134.64 133.322 134.682 133.406 134.766C133.49 134.85 133.532 134.958 133.532 135.09V135.828C133.82 135.444 134.18 135.15 134.612 134.946C135.056 134.742 135.56 134.64 136.124 134.64H136.862C136.994 134.64 137.096 134.682 137.168 134.766C137.252 134.838 137.294 134.94 137.294 135.072V136.368C137.294 136.488 137.252 136.59 137.168 136.674C137.096 136.758 136.994 136.8 136.862 136.8H135.458C134.894 136.8 134.45 136.962 134.126 137.286C133.802 137.61 133.64 138.054 133.64 138.618V143.568C133.64 143.688 133.598 143.79 133.514 143.874C133.43 143.958 133.322 144 133.19 144H131.624ZM142.607 144.18C141.275 144.18 140.213 143.796 139.421 143.028C138.641 142.248 138.227 141.156 138.179 139.752L138.161 139.302L138.179 138.852C138.239 137.484 138.659 136.41 139.439 135.63C140.231 134.85 141.287 134.46 142.607 134.46C144.023 134.46 145.115 134.892 145.883 135.756C146.663 136.62 147.053 137.772 147.053 139.212V139.59C147.053 139.71 147.011 139.812 146.927 139.896C146.843 139.98 146.735 140.022 146.603 140.022H140.627V140.166C140.651 140.826 140.831 141.384 141.167 141.84C141.515 142.284 141.989 142.506 142.589 142.506C143.297 142.506 143.867 142.23 144.299 141.678C144.407 141.546 144.491 141.462 144.551 141.426C144.623 141.39 144.725 141.372 144.857 141.372H146.405C146.513 141.372 146.603 141.408 146.675 141.48C146.759 141.54 146.801 141.618 146.801 141.714C146.801 142.002 146.627 142.344 146.279 142.74C145.943 143.124 145.457 143.46 144.821 143.748C144.185 144.036 143.447 144.18 142.607 144.18ZM144.605 138.51V138.456C144.605 137.748 144.425 137.178 144.065 136.746C143.717 136.314 143.231 136.098 142.607 136.098C141.983 136.098 141.497 136.314 141.149 136.746C140.801 137.178 140.627 137.748 140.627 138.456V138.51H144.605ZM153.193 147.96C152.125 147.96 151.261 147.78 150.601 147.42C149.941 147.072 149.473 146.67 149.197 146.214C148.921 145.758 148.783 145.368 148.783 145.044C148.783 144.936 148.825 144.84 148.909 144.756C149.005 144.672 149.107 144.63 149.215 144.63H150.781C150.889 144.63 150.979 144.654 151.051 144.702C151.135 144.762 151.201 144.864 151.249 145.008C151.369 145.332 151.561 145.602 151.825 145.818C152.101 146.046 152.527 146.16 153.103 146.16C153.823 146.16 154.351 145.998 154.687 145.674C155.035 145.35 155.209 144.792 155.209 144V142.776C154.549 143.556 153.625 143.946 152.437 143.946C151.189 143.946 150.247 143.562 149.611 142.794C148.987 142.026 148.651 140.994 148.603 139.698L148.585 139.212L148.603 138.726C148.651 137.454 148.993 136.428 149.629 135.648C150.265 134.856 151.201 134.46 152.437 134.46C153.073 134.46 153.631 134.58 154.111 134.82C154.591 135.06 154.993 135.39 155.317 135.81V135.09C155.317 134.958 155.359 134.85 155.443 134.766C155.527 134.682 155.629 134.64 155.749 134.64H157.207C157.327 134.64 157.429 134.688 157.513 134.784C157.597 134.868 157.639 134.97 157.639 135.09L157.657 143.766C157.657 145.098 157.285 146.13 156.541 146.862C155.797 147.594 154.681 147.96 153.193 147.96ZM153.103 142.038C153.787 142.038 154.297 141.822 154.633 141.39C154.981 140.958 155.173 140.43 155.209 139.806C155.221 139.71 155.227 139.512 155.227 139.212C155.227 138.924 155.221 138.732 155.209 138.636C155.173 138 154.981 137.466 154.633 137.034C154.297 136.602 153.787 136.386 153.103 136.386C151.807 136.386 151.123 137.184 151.051 138.78L151.033 139.212C151.033 140.064 151.183 140.748 151.483 141.264C151.795 141.78 152.335 142.038 153.103 142.038ZM162.773 144.18C162.161 144.18 161.597 144.06 161.081 143.82C160.577 143.568 160.175 143.232 159.875 142.812C159.587 142.392 159.443 141.93 159.443 141.426C159.443 140.61 159.773 139.95 160.433 139.446C161.093 138.942 161.999 138.6 163.151 138.42L165.617 138.06V137.682C165.617 137.154 165.485 136.758 165.221 136.494C164.957 136.23 164.531 136.098 163.943 136.098C163.547 136.098 163.223 136.176 162.971 136.332C162.731 136.476 162.539 136.62 162.395 136.764C162.251 136.92 162.155 137.022 162.107 137.07C162.059 137.214 161.969 137.286 161.837 137.286H160.451C160.343 137.286 160.247 137.25 160.163 137.178C160.091 137.106 160.055 137.01 160.055 136.89C160.067 136.59 160.211 136.248 160.487 135.864C160.775 135.48 161.213 135.15 161.801 134.874C162.389 134.598 163.109 134.46 163.961 134.46C165.377 134.46 166.409 134.778 167.057 135.414C167.705 136.05 168.029 136.884 168.029 137.916V143.568C168.029 143.688 167.987 143.79 167.903 143.874C167.831 143.958 167.729 144 167.597 144H166.139C166.019 144 165.917 143.958 165.833 143.874C165.749 143.79 165.707 143.688 165.707 143.568V142.866C165.443 143.25 165.065 143.568 164.573 143.82C164.093 144.06 163.493 144.18 162.773 144.18ZM163.385 142.47C164.045 142.47 164.585 142.254 165.005 141.822C165.425 141.39 165.635 140.76 165.635 139.932V139.554L163.835 139.842C163.139 139.95 162.611 140.124 162.251 140.364C161.903 140.604 161.729 140.898 161.729 141.246C161.729 141.63 161.891 141.93 162.215 142.146C162.539 142.362 162.929 142.47 163.385 142.47ZM173.884 144.18C172.984 144.18 172.228 144.048 171.616 143.784C171.004 143.508 170.548 143.19 170.248 142.83C169.96 142.458 169.816 142.14 169.816 141.876C169.816 141.756 169.858 141.66 169.942 141.588C170.026 141.516 170.122 141.48 170.23 141.48H171.652C171.76 141.48 171.85 141.522 171.922 141.606C171.97 141.642 172.096 141.75 172.3 141.93C172.504 142.122 172.744 142.272 173.02 142.38C173.296 142.488 173.602 142.542 173.938 142.542C174.418 142.542 174.814 142.446 175.126 142.254C175.438 142.062 175.594 141.798 175.594 141.462C175.594 141.21 175.522 141.006 175.378 140.85C175.246 140.694 175 140.556 174.64 140.436C174.28 140.304 173.746 140.166 173.038 140.022C172.018 139.806 171.262 139.476 170.77 139.032C170.29 138.588 170.05 138 170.05 137.268C170.05 136.788 170.194 136.338 170.482 135.918C170.77 135.486 171.196 135.138 171.76 134.874C172.336 134.598 173.02 134.46 173.812 134.46C174.616 134.46 175.312 134.592 175.9 134.856C176.488 135.108 176.932 135.414 177.232 135.774C177.544 136.122 177.7 136.434 177.7 136.71C177.7 136.818 177.658 136.914 177.574 136.998C177.502 137.07 177.412 137.106 177.304 137.106H175.972C175.876 137.106 175.774 137.064 175.666 136.98C175.582 136.92 175.45 136.806 175.27 136.638C175.09 136.47 174.88 136.338 174.64 136.242C174.4 136.146 174.118 136.098 173.794 136.098C173.35 136.098 173.002 136.194 172.75 136.386C172.51 136.578 172.39 136.83 172.39 137.142C172.39 137.37 172.45 137.556 172.57 137.7C172.69 137.844 172.924 137.982 173.272 138.114C173.62 138.246 174.142 138.378 174.838 138.51C175.99 138.738 176.812 139.092 177.304 139.572C177.808 140.052 178.06 140.64 178.06 141.336C178.06 142.176 177.694 142.86 176.962 143.388C176.23 143.916 175.204 144.18 173.884 144.18ZM36.1628 165.18C34.8428 165.18 33.7868 164.814 32.9948 164.082C32.2148 163.35 31.8008 162.336 31.7528 161.04L31.7348 160.32L31.7528 159.6C31.8008 158.304 32.2148 157.29 32.9948 156.558C33.7868 155.826 34.8428 155.46 36.1628 155.46C37.0988 155.46 37.8908 155.628 38.5388 155.964C39.1988 156.3 39.6848 156.714 39.9968 157.206C40.3208 157.686 40.4948 158.142 40.5188 158.574C40.5308 158.694 40.4888 158.796 40.3928 158.88C40.3088 158.964 40.2068 159.006 40.0868 159.006H38.5028C38.3828 159.006 38.2868 158.982 38.2148 158.934C38.1548 158.874 38.0948 158.778 38.0348 158.646C37.8548 158.178 37.6148 157.842 37.3148 157.638C37.0268 157.434 36.6548 157.332 36.1988 157.332C35.5868 157.332 35.1068 157.53 34.7588 157.926C34.4108 158.31 34.2248 158.898 34.2008 159.69L34.1828 160.356L34.2008 160.95C34.2488 162.522 34.9148 163.308 36.1988 163.308C36.6668 163.308 37.0448 163.206 37.3328 163.002C37.6208 162.798 37.8548 162.462 38.0348 161.994C38.0948 161.862 38.1548 161.772 38.2148 161.724C38.2868 161.664 38.3828 161.634 38.5028 161.634H40.0868C40.2068 161.634 40.3088 161.676 40.3928 161.76C40.4888 161.844 40.5308 161.946 40.5188 162.066C40.4948 162.486 40.3268 162.936 40.0148 163.416C39.7028 163.896 39.2228 164.31 38.5748 164.658C37.9268 165.006 37.1228 165.18 36.1628 165.18ZM46.536 165.18C45.132 165.18 44.046 164.82 43.278 164.1C42.51 163.368 42.096 162.372 42.036 161.112L42.018 160.32L42.036 159.528C42.096 158.28 42.516 157.29 43.296 156.558C44.076 155.826 45.156 155.46 46.536 155.46C47.916 155.46 48.996 155.826 49.776 156.558C50.556 157.29 50.976 158.28 51.036 159.528C51.048 159.672 51.054 159.936 51.054 160.32C51.054 160.704 51.048 160.968 51.036 161.112C50.976 162.372 50.562 163.368 49.794 164.1C49.026 164.82 47.94 165.18 46.536 165.18ZM46.536 163.398C47.172 163.398 47.664 163.2 48.012 162.804C48.36 162.396 48.552 161.802 48.588 161.022C48.6 160.902 48.606 160.668 48.606 160.32C48.606 159.972 48.6 159.738 48.588 159.618C48.552 158.838 48.36 158.25 48.012 157.854C47.664 157.446 47.172 157.242 46.536 157.242C45.9 157.242 45.408 157.446 45.06 157.854C44.712 158.25 44.52 158.838 44.484 159.618L44.466 160.32L44.484 161.022C44.52 161.802 44.712 162.396 45.06 162.804C45.408 163.2 45.9 163.398 46.536 163.398ZM53.4804 165C53.3604 165 53.2584 164.958 53.1744 164.874C53.0904 164.79 53.0484 164.688 53.0484 164.568V156.072C53.0484 155.952 53.0904 155.85 53.1744 155.766C53.2584 155.682 53.3604 155.64 53.4804 155.64H54.9564C55.0764 155.64 55.1784 155.682 55.2624 155.766C55.3464 155.85 55.3884 155.952 55.3884 156.072V156.81C56.0964 155.91 57.0984 155.46 58.3944 155.46C59.4984 155.46 60.3744 155.826 61.0224 156.558C61.6704 157.278 61.9944 158.262 61.9944 159.51V164.568C61.9944 164.688 61.9524 164.79 61.8684 164.874C61.7964 164.958 61.6944 165 61.5624 165H59.9784C59.8584 165 59.7564 164.958 59.6724 164.874C59.5884 164.79 59.5464 164.688 59.5464 164.568V159.618C59.5464 158.91 59.3724 158.364 59.0244 157.98C58.6884 157.584 58.1964 157.386 57.5484 157.386C56.9124 157.386 56.4084 157.584 56.0364 157.98C55.6764 158.376 55.4964 158.922 55.4964 159.618V164.568C55.4964 164.688 55.4544 164.79 55.3704 164.874C55.2984 164.958 55.1964 165 55.0644 165H53.4804ZM68.4053 165C67.3133 165 66.4913 164.718 65.9393 164.154C65.3993 163.578 65.1293 162.738 65.1293 161.634V157.548H63.7073C63.5873 157.548 63.4853 157.506 63.4013 157.422C63.3173 157.326 63.2753 157.218 63.2753 157.098V156.072C63.2753 155.952 63.3173 155.85 63.4013 155.766C63.4853 155.682 63.5873 155.64 63.7073 155.64H65.1293V152.652C65.1293 152.52 65.1713 152.418 65.2553 152.346C65.3393 152.262 65.4413 152.22 65.5613 152.22H67.0193C67.1513 152.22 67.2533 152.262 67.3253 152.346C67.4093 152.418 67.4513 152.52 67.4513 152.652V155.64H69.7013C69.8333 155.64 69.9353 155.682 70.0073 155.766C70.0913 155.838 70.1333 155.94 70.1333 156.072V157.098C70.1333 157.23 70.0913 157.338 70.0073 157.422C69.9233 157.506 69.8213 157.548 69.7013 157.548H67.4513V161.454C67.4513 161.97 67.5413 162.36 67.7213 162.624C67.9013 162.888 68.2013 163.02 68.6213 163.02H69.8633C69.9833 163.02 70.0853 163.062 70.1693 163.146C70.2533 163.23 70.2953 163.332 70.2953 163.452V164.568C70.2953 164.688 70.2533 164.79 70.1693 164.874C70.0973 164.958 69.9953 165 69.8633 165H68.4053ZM72.3241 165C72.2041 165 72.1021 164.958 72.0181 164.874C71.9341 164.79 71.8921 164.688 71.8921 164.568V156.072C71.8921 155.952 71.9341 155.85 72.0181 155.766C72.1021 155.682 72.2041 155.64 72.3241 155.64H73.8181C73.9501 155.64 74.0521 155.682 74.1241 155.766C74.2081 155.838 74.2501 155.94 74.2501 156.072V164.568C74.2501 164.688 74.2081 164.79 74.1241 164.874C74.0521 164.958 73.9501 165 73.8181 165H72.3241ZM72.3061 154.29C72.1141 154.29 72.0181 154.194 72.0181 154.002C72.0181 153.906 72.0481 153.828 72.1081 153.768L73.5661 151.986C73.6861 151.854 73.7881 151.77 73.8721 151.734C73.9681 151.686 74.0881 151.662 74.2321 151.662H76.0321C76.2601 151.662 76.3741 151.776 76.3741 152.004C76.3741 152.088 76.3441 152.16 76.2841 152.22L74.0521 154.056C73.9441 154.14 73.8421 154.2 73.7461 154.236C73.6621 154.272 73.5481 154.29 73.4041 154.29H72.3061ZM77.0702 165C76.9502 165 76.8482 164.958 76.7642 164.874C76.6802 164.79 76.6382 164.688 76.6382 164.568V156.072C76.6382 155.952 76.6802 155.85 76.7642 155.766C76.8482 155.682 76.9502 155.64 77.0702 155.64H78.5462C78.6662 155.64 78.7682 155.682 78.8522 155.766C78.9362 155.85 78.9782 155.952 78.9782 156.072V156.81C79.6862 155.91 80.6882 155.46 81.9842 155.46C83.0882 155.46 83.9642 155.826 84.6122 156.558C85.2602 157.278 85.5842 158.262 85.5842 159.51V164.568C85.5842 164.688 85.5422 164.79 85.4582 164.874C85.3862 164.958 85.2842 165 85.1522 165H83.5682C83.4482 165 83.3462 164.958 83.2622 164.874C83.1782 164.79 83.1362 164.688 83.1362 164.568V159.618C83.1362 158.91 82.9622 158.364 82.6142 157.98C82.2782 157.584 81.7862 157.386 81.1382 157.386C80.5022 157.386 79.9982 157.584 79.6262 157.98C79.2662 158.376 79.0862 158.922 79.0862 159.618V164.568C79.0862 164.688 79.0442 164.79 78.9602 164.874C78.8882 164.958 78.7862 165 78.6542 165H77.0702ZM91.3446 165.18C90.2406 165.18 89.3706 164.82 88.7346 164.1C88.0986 163.368 87.7806 162.378 87.7806 161.13V156.072C87.7806 155.952 87.8226 155.85 87.9066 155.766C87.9906 155.682 88.0926 155.64 88.2126 155.64H89.7966C89.9286 155.64 90.0306 155.682 90.1026 155.766C90.1866 155.838 90.2286 155.94 90.2286 156.072V161.022C90.2286 162.51 90.8826 163.254 92.1906 163.254C92.8146 163.254 93.3066 163.056 93.6666 162.66C94.0386 162.264 94.2246 161.718 94.2246 161.022V156.072C94.2246 155.952 94.2666 155.85 94.3506 155.766C94.4346 155.682 94.5366 155.64 94.6566 155.64H96.2406C96.3726 155.64 96.4746 155.682 96.5466 155.766C96.6306 155.838 96.6726 155.94 96.6726 156.072V164.568C96.6726 164.688 96.6306 164.79 96.5466 164.874C96.4746 164.958 96.3726 165 96.2406 165H94.7826C94.6626 165 94.5606 164.958 94.4766 164.874C94.3926 164.79 94.3506 164.688 94.3506 164.568V163.83C93.6786 164.73 92.6766 165.18 91.3446 165.18ZM101.768 165.18C101.156 165.18 100.592 165.06 100.076 164.82C99.5723 164.568 99.1703 164.232 98.8703 163.812C98.5823 163.392 98.4383 162.93 98.4383 162.426C98.4383 161.61 98.7683 160.95 99.4283 160.446C100.088 159.942 100.994 159.6 102.146 159.42L104.612 159.06V158.682C104.612 158.154 104.48 157.758 104.216 157.494C103.952 157.23 103.526 157.098 102.938 157.098C102.542 157.098 102.218 157.176 101.966 157.332C101.726 157.476 101.534 157.62 101.39 157.764C101.246 157.92 101.15 158.022 101.102 158.07C101.054 158.214 100.964 158.286 100.832 158.286H99.4463C99.3383 158.286 99.2423 158.25 99.1583 158.178C99.0863 158.106 99.0503 158.01 99.0503 157.89C99.0623 157.59 99.2063 157.248 99.4823 156.864C99.7703 156.48 100.208 156.15 100.796 155.874C101.384 155.598 102.104 155.46 102.956 155.46C104.372 155.46 105.404 155.778 106.052 156.414C106.7 157.05 107.024 157.884 107.024 158.916V164.568C107.024 164.688 106.982 164.79 106.898 164.874C106.826 164.958 106.724 165 106.592 165H105.134C105.014 165 104.912 164.958 104.828 164.874C104.744 164.79 104.702 164.688 104.702 164.568V163.866C104.438 164.25 104.06 164.568 103.568 164.82C103.088 165.06 102.488 165.18 101.768 165.18ZM102.38 163.47C103.04 163.47 103.58 163.254 104 162.822C104.42 162.39 104.63 161.76 104.63 160.932V160.554L102.83 160.842C102.134 160.95 101.606 161.124 101.246 161.364C100.898 161.604 100.724 161.898 100.724 162.246C100.724 162.63 100.886 162.93 101.21 163.146C101.534 163.362 101.924 163.47 102.38 163.47ZM112.88 165.18C111.98 165.18 111.224 165.048 110.612 164.784C110 164.508 109.544 164.19 109.244 163.83C108.956 163.458 108.812 163.14 108.812 162.876C108.812 162.756 108.854 162.66 108.938 162.588C109.022 162.516 109.118 162.48 109.226 162.48H110.648C110.756 162.48 110.846 162.522 110.918 162.606C110.966 162.642 111.092 162.75 111.296 162.93C111.5 163.122 111.74 163.272 112.016 163.38C112.292 163.488 112.598 163.542 112.934 163.542C113.414 163.542 113.81 163.446 114.122 163.254C114.434 163.062 114.59 162.798 114.59 162.462C114.59 162.21 114.518 162.006 114.374 161.85C114.242 161.694 113.996 161.556 113.636 161.436C113.276 161.304 112.742 161.166 112.034 161.022C111.014 160.806 110.258 160.476 109.766 160.032C109.286 159.588 109.046 159 109.046 158.268C109.046 157.788 109.19 157.338 109.478 156.918C109.766 156.486 110.192 156.138 110.756 155.874C111.332 155.598 112.016 155.46 112.808 155.46C113.612 155.46 114.308 155.592 114.896 155.856C115.484 156.108 115.928 156.414 116.228 156.774C116.54 157.122 116.696 157.434 116.696 157.71C116.696 157.818 116.654 157.914 116.57 157.998C116.498 158.07 116.408 158.106 116.3 158.106H114.968C114.872 158.106 114.77 158.064 114.662 157.98C114.578 157.92 114.446 157.806 114.266 157.638C114.086 157.47 113.876 157.338 113.636 157.242C113.396 157.146 113.114 157.098 112.79 157.098C112.346 157.098 111.998 157.194 111.746 157.386C111.506 157.578 111.386 157.83 111.386 158.142C111.386 158.37 111.446 158.556 111.566 158.7C111.686 158.844 111.92 158.982 112.268 159.114C112.616 159.246 113.138 159.378 113.834 159.51C114.986 159.738 115.808 160.092 116.3 160.572C116.804 161.052 117.056 161.64 117.056 162.336C117.056 163.176 116.69 163.86 115.958 164.388C115.226 164.916 114.2 165.18 112.88 165.18ZM126.501 165.18C125.289 165.18 124.359 164.79 123.711 164.01C123.063 163.23 122.715 162.192 122.667 160.896L122.649 160.302L122.667 159.726C122.703 158.466 123.045 157.44 123.693 156.648C124.353 155.856 125.289 155.46 126.501 155.46C127.665 155.46 128.589 155.856 129.273 156.648V152.652C129.273 152.52 129.315 152.418 129.399 152.346C129.483 152.262 129.585 152.22 129.705 152.22H131.235C131.367 152.22 131.469 152.262 131.541 152.346C131.625 152.418 131.667 152.52 131.667 152.652V164.568C131.667 164.688 131.625 164.79 131.541 164.874C131.469 164.958 131.367 165 131.235 165H129.813C129.693 165 129.591 164.958 129.507 164.874C129.423 164.79 129.381 164.688 129.381 164.568V163.902C128.697 164.754 127.737 165.18 126.501 165.18ZM127.167 163.254C127.863 163.254 128.379 163.032 128.715 162.588C129.051 162.144 129.237 161.598 129.273 160.95C129.285 160.806 129.291 160.572 129.291 160.248C129.291 159.936 129.285 159.708 129.273 159.564C129.249 158.964 129.057 158.454 128.697 158.034C128.349 157.602 127.839 157.386 127.167 157.386C125.871 157.386 125.181 158.184 125.097 159.78L125.079 160.32L125.097 160.86C125.181 162.456 125.871 163.254 127.167 163.254ZM138.206 165.18C136.802 165.18 135.716 164.82 134.948 164.1C134.18 163.368 133.766 162.372 133.706 161.112L133.688 160.32L133.706 159.528C133.766 158.28 134.186 157.29 134.966 156.558C135.746 155.826 136.826 155.46 138.206 155.46C139.586 155.46 140.666 155.826 141.446 156.558C142.226 157.29 142.646 158.28 142.706 159.528C142.718 159.672 142.724 159.936 142.724 160.32C142.724 160.704 142.718 160.968 142.706 161.112C142.646 162.372 142.232 163.368 141.464 164.1C140.696 164.82 139.61 165.18 138.206 165.18ZM138.206 163.398C138.842 163.398 139.334 163.2 139.682 162.804C140.03 162.396 140.222 161.802 140.258 161.022C140.27 160.902 140.276 160.668 140.276 160.32C140.276 159.972 140.27 159.738 140.258 159.618C140.222 158.838 140.03 158.25 139.682 157.854C139.334 157.446 138.842 157.242 138.206 157.242C137.57 157.242 137.078 157.446 136.73 157.854C136.382 158.25 136.19 158.838 136.154 159.618L136.136 160.32L136.154 161.022C136.19 161.802 136.382 162.396 136.73 162.804C137.078 163.2 137.57 163.398 138.206 163.398ZM152.378 165.18C151.478 165.18 150.722 165.048 150.11 164.784C149.498 164.508 149.042 164.19 148.742 163.83C148.454 163.458 148.31 163.14 148.31 162.876C148.31 162.756 148.352 162.66 148.436 162.588C148.52 162.516 148.616 162.48 148.724 162.48H150.146C150.254 162.48 150.344 162.522 150.416 162.606C150.464 162.642 150.59 162.75 150.794 162.93C150.998 163.122 151.238 163.272 151.514 163.38C151.79 163.488 152.096 163.542 152.432 163.542C152.912 163.542 153.308 163.446 153.62 163.254C153.932 163.062 154.088 162.798 154.088 162.462C154.088 162.21 154.016 162.006 153.872 161.85C153.74 161.694 153.494 161.556 153.134 161.436C152.774 161.304 152.24 161.166 151.532 161.022C150.512 160.806 149.756 160.476 149.264 160.032C148.784 159.588 148.544 159 148.544 158.268C148.544 157.788 148.688 157.338 148.976 156.918C149.264 156.486 149.69 156.138 150.254 155.874C150.83 155.598 151.514 155.46 152.306 155.46C153.11 155.46 153.806 155.592 154.394 155.856C154.982 156.108 155.426 156.414 155.726 156.774C156.038 157.122 156.194 157.434 156.194 157.71C156.194 157.818 156.152 157.914 156.068 157.998C155.996 158.07 155.906 158.106 155.798 158.106H154.466C154.37 158.106 154.268 158.064 154.16 157.98C154.076 157.92 153.944 157.806 153.764 157.638C153.584 157.47 153.374 157.338 153.134 157.242C152.894 157.146 152.612 157.098 152.288 157.098C151.844 157.098 151.496 157.194 151.244 157.386C151.004 157.578 150.884 157.83 150.884 158.142C150.884 158.37 150.944 158.556 151.064 158.7C151.184 158.844 151.418 158.982 151.766 159.114C152.114 159.246 152.636 159.378 153.332 159.51C154.484 159.738 155.306 160.092 155.798 160.572C156.302 161.052 156.554 161.64 156.554 162.336C156.554 163.176 156.188 163.86 155.456 164.388C154.724 164.916 153.698 165.18 152.378 165.18ZM158.772 154.092C158.652 154.092 158.55 154.05 158.466 153.966C158.382 153.882 158.34 153.78 158.34 153.66V152.364C158.34 152.244 158.382 152.142 158.466 152.058C158.55 151.974 158.652 151.932 158.772 151.932H160.41C160.53 151.932 160.632 151.974 160.716 152.058C160.812 152.142 160.86 152.244 160.86 152.364V153.66C160.86 153.78 160.818 153.882 160.734 153.966C160.65 154.05 160.542 154.092 160.41 154.092H158.772ZM158.844 165C158.724 165 158.622 164.958 158.538 164.874C158.454 164.79 158.412 164.688 158.412 164.568V156.072C158.412 155.952 158.454 155.85 158.538 155.766C158.622 155.682 158.724 155.64 158.844 155.64H160.338C160.47 155.64 160.572 155.682 160.644 155.766C160.728 155.838 160.77 155.94 160.77 156.072V164.568C160.77 164.688 160.728 164.79 160.644 164.874C160.572 164.958 160.47 165 160.338 165H158.844ZM167.388 165C166.296 165 165.474 164.718 164.922 164.154C164.382 163.578 164.112 162.738 164.112 161.634V157.548H162.69C162.57 157.548 162.468 157.506 162.384 157.422C162.3 157.326 162.258 157.218 162.258 157.098V156.072C162.258 155.952 162.3 155.85 162.384 155.766C162.468 155.682 162.57 155.64 162.69 155.64H164.112V152.652C164.112 152.52 164.154 152.418 164.238 152.346C164.322 152.262 164.424 152.22 164.544 152.22H166.002C166.134 152.22 166.236 152.262 166.308 152.346C166.392 152.418 166.434 152.52 166.434 152.652V155.64H168.684C168.816 155.64 168.918 155.682 168.99 155.766C169.074 155.838 169.116 155.94 169.116 156.072V157.098C169.116 157.23 169.074 157.338 168.99 157.422C168.906 157.506 168.804 157.548 168.684 157.548H166.434V161.454C166.434 161.97 166.524 162.36 166.704 162.624C166.884 162.888 167.184 163.02 167.604 163.02H168.846C168.966 163.02 169.068 163.062 169.152 163.146C169.236 163.23 169.278 163.332 169.278 163.452V164.568C169.278 164.688 169.236 164.79 169.152 164.874C169.08 164.958 168.978 165 168.846 165H167.388ZM174.907 165.18C173.575 165.18 172.513 164.796 171.721 164.028C170.941 163.248 170.527 162.156 170.479 160.752L170.461 160.302L170.479 159.852C170.539 158.484 170.959 157.41 171.739 156.63C172.531 155.85 173.587 155.46 174.907 155.46C176.323 155.46 177.415 155.892 178.183 156.756C178.963 157.62 179.353 158.772 179.353 160.212V160.59C179.353 160.71 179.311 160.812 179.227 160.896C179.143 160.98 179.035 161.022 178.903 161.022H172.927V161.166C172.951 161.826 173.131 162.384 173.467 162.84C173.815 163.284 174.289 163.506 174.889 163.506C175.597 163.506 176.167 163.23 176.599 162.678C176.707 162.546 176.791 162.462 176.851 162.426C176.923 162.39 177.025 162.372 177.157 162.372H178.705C178.813 162.372 178.903 162.408 178.975 162.48C179.059 162.54 179.101 162.618 179.101 162.714C179.101 163.002 178.927 163.344 178.579 163.74C178.243 164.124 177.757 164.46 177.121 164.748C176.485 165.036 175.747 165.18 174.907 165.18ZM176.905 159.51V159.456C176.905 158.748 176.725 158.178 176.365 157.746C176.017 157.314 175.531 157.098 174.907 157.098C174.283 157.098 173.797 157.314 173.449 157.746C173.101 158.178 172.927 158.748 172.927 159.456V159.51H176.905Z" fill="#2E2B2B"/>
<path d="M142.449 59.8184C133.205 59.8184 125.684 67.4851 125.684 76.9092C125.684 86.3334 133.205 94.0001 142.449 94.0001C151.695 94.0001 159.214 86.3334 159.214 76.9092C159.214 67.4851 151.693 59.8184 142.449 59.8184ZM142.449 85.4547C137.826 85.4547 134.066 81.622 134.066 76.9092C134.066 72.1965 137.826 68.3638 142.449 68.3638C147.072 68.3638 150.831 72.1965 150.831 76.9092C150.831 81.6222 147.072 85.4547 142.449 85.4547Z" fill="#DA0E16"/>
<path d="M85.1691 59.8184C75.9248 59.8184 68.4043 67.4851 68.4043 76.9092C68.4043 86.3334 75.9248 94.0001 85.1691 94.0001C94.4133 94.0001 101.934 86.3334 101.934 76.9092C101.934 67.4851 94.4133 59.8184 85.1691 59.8184ZM85.1691 85.4547C80.5463 85.4547 76.7867 81.622 76.7867 76.9092C76.7867 72.1965 80.5463 68.3638 85.1691 68.3638C89.7906 68.3638 93.5514 72.1965 93.5514 76.9092C93.5514 81.6222 89.7918 85.4547 85.1691 85.4547Z" fill="#DA0E16"/>
<path d="M153.739 10.8988C153.026 9.45608 151.577 8.5459 149.993 8.5459H127.919V17.0913H147.408L158.821 40.2323L166.312 36.3924L153.739 10.8988Z" fill="#DA0E16"/>
<path d="M129.875 72.7783H98.1621V81.3238H129.875V72.7783Z" fill="#DA0E16"/>
<path d="M72.5953 72.7783H58.0661C55.751 72.7783 53.875 74.6911 53.875 77.0509C53.875 79.411 55.7513 81.3235 58.0661 81.3235H72.5955C74.9106 81.3235 76.7866 79.4107 76.7866 77.0509C76.7866 74.6908 74.9103 72.7783 72.5953 72.7783Z" fill="#DA0E16"/>
<path d="M174.12 46.6579L165.876 35.8337C165.084 34.7911 163.861 34.1815 162.566 34.1815H132.11V4.27259C132.11 1.91252 130.234 0 127.919 0H58.0661C55.751 0 53.875 1.91279 53.875 4.27259C53.875 6.63239 55.7513 8.54518 58.0661 8.54518H123.728V38.4541C123.728 40.8142 125.604 42.7267 127.919 42.7267H160.514L166.618 50.7422V72.7781H155.022C152.707 72.7781 150.831 74.6908 150.831 77.0507C150.831 79.4107 152.707 81.3232 155.022 81.3232H170.809C173.124 81.3232 175 79.4104 175 77.0507V49.2786C175 48.33 174.69 47.4071 174.12 46.6579Z" fill="#DA0E16"/>
<path d="M72.3168 51.1294H53.0373C50.7222 51.1294 48.8462 53.0422 48.8462 55.402C48.8462 57.762 50.7225 59.6746 53.0373 59.6746H72.3166C74.6316 59.6746 76.5076 57.7618 76.5076 55.402C76.5079 53.0422 74.6316 51.1294 72.3168 51.1294Z" fill="#DA0E16"/>
<path d="M81.9559 34.3242H46.1911C43.8763 34.3242 42 36.237 42 38.5971C42 40.9571 43.8763 42.8697 46.1911 42.8697H81.9559C84.2709 42.8697 86.1469 40.9569 86.1469 38.5971C86.1469 36.2373 84.2709 34.3242 81.9559 34.3242Z" fill="#DA0E16"/>
<path d="M88.8021 17.5181H53.0373C50.7222 17.5181 48.8462 19.4309 48.8462 21.7907C48.8462 24.1507 50.7225 26.0632 53.0373 26.0632H88.8021C91.1171 26.0632 92.9931 24.1505 92.9931 21.7907C92.9934 19.4309 91.1171 17.5181 88.8021 17.5181Z" fill="#DA0E16"/>
</svg>
