<svg width="91" height="91" viewBox="0 0 91 91" fill="none" xmlns="http://www.w3.org/2000/svg">
<path d="M13.2841 58.3105C12.769 59.3381 12.9696 60.5801 13.7812 61.3924L14.4332 62.0444C16.3167 59.8123 18.512 57.3899 21.1746 54.7281C21.3627 54.5399 21.5564 54.449 21.7452 54.2754L17.5511 50.0806C15.1128 54.4906 13.691 57.5038 13.2841 58.3105Z" fill="#2E2B2B"/>
<path d="M36.2556 69.809C33.5868 72.4778 31.1708 74.6773 28.9512 76.5622L29.8343 77.4453C30.6535 78.2646 31.9074 78.4618 32.9384 77.9313C34.3193 77.2197 36.491 76.1977 41.101 73.6303L36.709 69.2383C36.5354 69.4278 36.4445 69.6208 36.2556 69.809Z" fill="#2E2B2B"/>
<path d="M34.8345 56.1526C32.9079 54.226 27.4897 55.9534 24.9445 58.4979C16.43 67.0125 12.5844 73.0493 10.8577 76.6137C10.3627 77.635 10.5689 78.8576 11.3715 79.6602C12.1754 80.4648 13.4001 80.6689 14.4221 80.1739C17.9067 78.482 23.8698 74.6544 32.4857 66.0391C35.2844 63.2391 36.6653 57.9841 34.8365 56.1547L34.8345 56.1526Z" fill="#2E2B2B"/>
<path d="M8.32143 35.4949L0.780917 43.0355C-0.0716514 43.8881 -0.246608 45.2079 0.35741 46.2535C0.946849 47.2852 2.18127 47.8107 3.35598 47.4962C7.43137 46.4034 11.0173 45.9417 13.432 46.561C16.8672 40.4535 20.5587 34.8312 24.4682 29.7241C22.2069 28.2744 14.7344 29.0819 8.32143 35.4949Z" fill="#2E2B2B"/>
<path d="M45.1253 90.714C46.1522 91.2333 47.3956 91.0326 48.2086 90.219L55.7498 82.6784C61.588 76.8388 62.6155 69.3045 61.2908 66.9155C55.595 71.2082 49.8249 74.8331 44.4415 77.8678C44.8129 79.9652 44.5658 82.0001 43.6875 87.9431C43.516 89.0935 44.1103 90.2065 45.1253 90.714Z" fill="#2E2B2B"/>
<path d="M52.9293 26.7433C49.8113 29.862 49.8113 34.9351 52.9293 38.0538C56.048 41.1725 61.1217 41.1725 64.2404 38.0538C67.3591 34.9351 67.3591 29.862 64.2404 26.7433C61.1217 23.6246 56.048 23.6246 52.9293 26.7433Z" fill="#2E2B2B"/>
<path d="M90.8428 2.60053C90.747 1.2821 89.6973 0.239989 88.383 0.141402C81.8353 -0.351535 75.3133 0.453827 68.9204 2.40891C69.4015 6.80091 71.6732 11.5539 75.5514 15.4322C79.4762 19.3562 84.3583 21.6272 88.8287 22.0521C90.5505 16.0181 91.367 9.5558 90.8428 2.60053Z" fill="#2E2B2B"/>
<path d="M71.7819 19.2032C67.3454 14.7668 64.6364 9.44584 63.7672 4.26514C47.7579 10.8309 32.4325 25.1691 20.3223 45.3115L26.3388 51.3281C30.4496 49.6591 35.4401 49.2182 38.6053 52.3827C41.7746 55.5528 41.3254 60.5412 39.6571 64.6464L45.8715 70.8609C61.3691 61.5208 79.4119 46.8056 87.0844 27.2277C81.7773 26.4258 76.2905 23.7118 71.7819 19.2032ZM68.0106 41.8249C62.8139 47.0215 54.357 47.0215 49.1596 41.8249C43.9623 36.6275 43.9623 28.1698 49.1596 22.9731C54.357 17.7765 62.8139 17.7765 68.0106 22.9731C73.2079 28.1705 73.2079 36.6275 68.0106 41.8249Z" fill="#2E2B2B"/>
</svg>
