<svg width="175" height="169" viewBox="0 0 175 169" fill="none" xmlns="http://www.w3.org/2000/svg">
<path d="M55.2841 58.3105C54.769 59.3381 54.9696 60.5801 55.7812 61.3924L56.4332 62.0444C58.3167 59.8123 60.512 57.3899 63.1746 54.7281C63.3627 54.5399 63.5564 54.449 63.7452 54.2754L59.5511 50.0806C57.1128 54.4906 55.691 57.5038 55.2841 58.3105Z" fill="#2E2B2B"/>
<path d="M78.2556 69.809C75.5868 72.4778 73.1708 74.6773 70.9512 76.5622L71.8343 77.4453C72.6535 78.2646 73.9074 78.4618 74.9384 77.9313C76.3193 77.2197 78.491 76.1977 83.101 73.6303L78.709 69.2383C78.5354 69.4278 78.4445 69.6208 78.2556 69.809Z" fill="#2E2B2B"/>
<path d="M76.8345 56.1526C74.9079 54.226 69.4897 55.9534 66.9445 58.4979C58.43 67.0125 54.5844 73.0493 52.8577 76.6137C52.3627 77.635 52.5689 78.8576 53.3715 79.6602C54.1754 80.4648 55.4001 80.6689 56.4221 80.1739C59.9067 78.482 65.8698 74.6544 74.4857 66.0391C77.2844 63.2391 78.6653 57.9841 76.8365 56.1547L76.8345 56.1526Z" fill="#2E2B2B"/>
<path d="M50.3214 35.4949L42.7809 43.0355C41.9283 43.8881 41.7534 45.2079 42.3574 46.2535C42.9468 47.2852 44.1813 47.8107 45.356 47.4962C49.4314 46.4034 53.0173 45.9417 55.432 46.561C58.8672 40.4535 62.5587 34.8312 66.4682 29.7241C64.2069 28.2744 56.7344 29.0819 50.3214 35.4949Z" fill="#2E2B2B"/>
<path d="M87.1253 90.714C88.1522 91.2333 89.3956 91.0326 90.2086 90.219L97.7498 82.6784C103.588 76.8388 104.616 69.3045 103.291 66.9155C97.595 71.2082 91.8249 74.8331 86.4415 77.8678C86.8129 79.9652 86.5658 82.0001 85.6875 87.9431C85.516 89.0935 86.1103 90.2065 87.1253 90.714Z" fill="#2E2B2B"/>
<path d="M94.9293 26.7433C91.8113 29.862 91.8113 34.9351 94.9293 38.0538C98.048 41.1725 103.122 41.1725 106.24 38.0538C109.359 34.9351 109.359 29.862 106.24 26.7433C103.122 23.6246 98.048 23.6246 94.9293 26.7433Z" fill="#2E2B2B"/>
<path d="M132.843 2.60053C132.747 1.2821 131.697 0.239989 130.383 0.141402C123.835 -0.351535 117.313 0.453827 110.92 2.40891C111.402 6.80091 113.673 11.5539 117.551 15.4322C121.476 19.3562 126.358 21.6272 130.829 22.0521C132.551 16.0181 133.367 9.5558 132.843 2.60053Z" fill="#2E2B2B"/>
<path d="M113.782 19.2032C109.345 14.7668 106.636 9.44584 105.767 4.26514C89.7579 10.8309 74.4325 25.1691 62.3223 45.3115L68.3388 51.3281C72.4496 49.6591 77.4401 49.2182 80.6053 52.3827C83.7746 55.5528 83.3254 60.5412 81.6571 64.6464L87.8715 70.8609C103.369 61.5208 121.412 46.8056 129.084 27.2277C123.777 26.4258 118.29 23.7118 113.782 19.2032ZM110.011 41.8249C104.814 47.0215 96.357 47.0215 91.1596 41.8249C85.9623 36.6275 85.9623 28.1698 91.1596 22.9731C96.357 17.7765 104.814 17.7765 110.011 22.9731C115.208 28.1705 115.208 36.6275 110.011 41.8249Z" fill="#2E2B2B"/>
<path d="M6.64639 144.18C5.01439 144.18 3.74239 143.766 2.83039 142.938C1.91839 142.11 1.43839 140.88 1.39039 139.248C1.37839 138.9 1.37239 138.39 1.37239 137.718C1.37239 137.034 1.37839 136.518 1.39039 136.17C1.43839 134.574 1.93039 133.35 2.86639 132.498C3.80239 131.646 5.06239 131.22 6.64639 131.22C8.23039 131.22 9.49039 131.646 10.4264 132.498C11.3744 133.35 11.8724 134.574 11.9204 136.17C11.9444 136.866 11.9564 137.382 11.9564 137.718C11.9564 138.042 11.9444 138.552 11.9204 139.248C11.8604 140.88 11.3744 142.11 10.4624 142.938C9.55039 143.766 8.27839 144.18 6.64639 144.18ZM6.64639 142.11C7.45039 142.11 8.09239 141.87 8.57239 141.39C9.05239 140.898 9.31039 140.154 9.34639 139.158C9.37039 138.438 9.38239 137.952 9.38239 137.7C9.38239 137.424 9.37039 136.938 9.34639 136.242C9.31039 135.246 9.05239 134.508 8.57239 134.028C8.09239 133.536 7.45039 133.29 6.64639 133.29C5.85439 133.29 5.21839 133.536 4.73839 134.028C4.25839 134.508 4.00039 135.246 3.96439 136.242C3.95239 136.59 3.94639 137.076 3.94639 137.7C3.94639 138.312 3.95239 138.798 3.96439 139.158C4.00039 140.154 4.25239 140.898 4.72039 141.39C5.20039 141.87 5.84239 142.11 6.64639 142.11ZM19.288 144.18C18.052 144.18 17.092 143.754 16.408 142.902V143.568C16.408 143.688 16.366 143.79 16.282 143.874C16.21 143.958 16.108 144 15.976 144H14.554C14.434 144 14.332 143.958 14.248 143.874C14.164 143.79 14.122 143.688 14.122 143.568V131.652C14.122 131.52 14.164 131.418 14.248 131.346C14.332 131.262 14.434 131.22 14.554 131.22H16.084C16.216 131.22 16.318 131.262 16.39 131.346C16.474 131.418 16.516 131.52 16.516 131.652V135.648C17.2 134.856 18.124 134.46 19.288 134.46C20.5 134.46 21.43 134.856 22.078 135.648C22.726 136.44 23.074 137.466 23.122 138.726C23.134 138.87 23.14 139.062 23.14 139.302C23.14 139.554 23.134 139.752 23.122 139.896C23.074 141.192 22.726 142.23 22.078 143.01C21.43 143.79 20.5 144.18 19.288 144.18ZM18.622 142.254C19.918 142.254 20.608 141.456 20.692 139.86C20.704 139.74 20.71 139.56 20.71 139.32C20.71 139.08 20.704 138.9 20.692 138.78C20.608 137.184 19.918 136.386 18.622 136.386C17.95 136.386 17.434 136.602 17.074 137.034C16.726 137.454 16.54 137.964 16.516 138.564L16.498 139.248L16.516 139.95C16.552 140.598 16.738 141.144 17.074 141.588C17.41 142.032 17.926 142.254 18.622 142.254ZM25.7011 133.092C25.5811 133.092 25.4791 133.05 25.3951 132.966C25.3111 132.882 25.2691 132.78 25.2691 132.66V131.364C25.2691 131.244 25.3111 131.142 25.3951 131.058C25.4791 130.974 25.5811 130.932 25.7011 130.932H27.3931C27.5131 130.932 27.6151 130.974 27.6991 131.058C27.7951 131.142 27.8431 131.244 27.8431 131.364V132.66C27.8431 132.78 27.8011 132.882 27.7171 132.966C27.6331 133.05 27.5251 133.092 27.3931 133.092H25.7011ZM23.5951 147.42C23.4631 147.42 23.3611 147.378 23.2891 147.294C23.2051 147.222 23.1631 147.12 23.1631 146.988V145.962C23.1631 145.83 23.2051 145.722 23.2891 145.638C23.3731 145.554 23.4751 145.512 23.5951 145.512H24.0631C24.5671 145.512 24.9031 145.38 25.0711 145.116C25.2511 144.864 25.3411 144.486 25.3411 143.982V135.072C25.3411 134.94 25.3831 134.838 25.4671 134.766C25.5511 134.682 25.6531 134.64 25.7731 134.64H27.3391C27.4591 134.64 27.5611 134.682 27.6451 134.766C27.7291 134.85 27.7711 134.952 27.7711 135.072V144.018C27.7711 145.098 27.4771 145.932 26.8891 146.52C26.3131 147.12 25.4431 147.42 24.2791 147.42H23.5951ZM34.2024 144.18C32.8704 144.18 31.8084 143.796 31.0164 143.028C30.2364 142.248 29.8224 141.156 29.7744 139.752L29.7564 139.302L29.7744 138.852C29.8344 137.484 30.2544 136.41 31.0344 135.63C31.8264 134.85 32.8824 134.46 34.2024 134.46C35.6184 134.46 36.7104 134.892 37.4784 135.756C38.2584 136.62 38.6484 137.772 38.6484 139.212V139.59C38.6484 139.71 38.6064 139.812 38.5224 139.896C38.4384 139.98 38.3304 140.022 38.1984 140.022H32.2224V140.166C32.2464 140.826 32.4264 141.384 32.7624 141.84C33.1104 142.284 33.5844 142.506 34.1844 142.506C34.8924 142.506 35.4624 142.23 35.8944 141.678C36.0024 141.546 36.0864 141.462 36.1464 141.426C36.2184 141.39 36.3204 141.372 36.4524 141.372H38.0004C38.1084 141.372 38.1984 141.408 38.2704 141.48C38.3544 141.54 38.3964 141.618 38.3964 141.714C38.3964 142.002 38.2224 142.344 37.8744 142.74C37.5384 143.124 37.0524 143.46 36.4164 143.748C35.7804 144.036 35.0424 144.18 34.2024 144.18ZM36.2004 138.51V138.456C36.2004 137.748 36.0204 137.178 35.6604 136.746C35.3124 136.314 34.8264 136.098 34.2024 136.098C33.5784 136.098 33.0924 136.314 32.7444 136.746C32.3964 137.178 32.2224 137.748 32.2224 138.456V138.51H36.2004ZM44.7539 144C43.6619 144 42.8399 143.718 42.2879 143.154C41.7479 142.578 41.4779 141.738 41.4779 140.634V136.548H40.0559C39.9359 136.548 39.8339 136.506 39.7499 136.422C39.6659 136.326 39.6239 136.218 39.6239 136.098V135.072C39.6239 134.952 39.6659 134.85 39.7499 134.766C39.8339 134.682 39.9359 134.64 40.0559 134.64H41.4779V131.652C41.4779 131.52 41.5199 131.418 41.6039 131.346C41.6879 131.262 41.7899 131.22 41.9099 131.22H43.3679C43.4999 131.22 43.6019 131.262 43.6739 131.346C43.7579 131.418 43.7999 131.52 43.7999 131.652V134.64H46.0499C46.1819 134.64 46.2839 134.682 46.3559 134.766C46.4399 134.838 46.4819 134.94 46.4819 135.072V136.098C46.4819 136.23 46.4399 136.338 46.3559 136.422C46.2719 136.506 46.1699 136.548 46.0499 136.548H43.7999V140.454C43.7999 140.97 43.8899 141.36 44.0699 141.624C44.2499 141.888 44.5499 142.02 44.9699 142.02H46.2119C46.3319 142.02 46.4339 142.062 46.5179 142.146C46.6019 142.23 46.6439 142.332 46.6439 142.452V143.568C46.6439 143.688 46.6019 143.79 46.5179 143.874C46.4459 143.958 46.3439 144 46.2119 144H44.7539ZM48.6007 133.092C48.4807 133.092 48.3787 133.05 48.2947 132.966C48.2107 132.882 48.1687 132.78 48.1687 132.66V131.364C48.1687 131.244 48.2107 131.142 48.2947 131.058C48.3787 130.974 48.4807 130.932 48.6007 130.932H50.2387C50.3587 130.932 50.4607 130.974 50.5447 131.058C50.6407 131.142 50.6887 131.244 50.6887 131.364V132.66C50.6887 132.78 50.6467 132.882 50.5627 132.966C50.4787 133.05 50.3707 133.092 50.2387 133.092H48.6007ZM48.6727 144C48.5527 144 48.4507 143.958 48.3667 143.874C48.2827 143.79 48.2407 143.688 48.2407 143.568V135.072C48.2407 134.952 48.2827 134.85 48.3667 134.766C48.4507 134.682 48.5527 134.64 48.6727 134.64H50.1667C50.2987 134.64 50.4007 134.682 50.4727 134.766C50.5567 134.838 50.5987 134.94 50.5987 135.072V143.568C50.5987 143.688 50.5567 143.79 50.4727 143.874C50.4007 143.958 50.2987 144 50.1667 144H48.6727ZM56.2988 144C56.1188 144 55.9808 143.964 55.8848 143.892C55.7888 143.808 55.7108 143.694 55.6508 143.55L52.2848 135.198L52.2488 135.036C52.2488 134.928 52.2848 134.838 52.3568 134.766C52.4408 134.682 52.5368 134.64 52.6448 134.64H54.1028C54.3308 134.64 54.4868 134.754 54.5708 134.982L56.9648 141.3L59.3588 134.982C59.3948 134.898 59.4488 134.82 59.5208 134.748C59.6048 134.676 59.7068 134.64 59.8268 134.64H61.3028C61.3988 134.64 61.4828 134.682 61.5548 134.766C61.6388 134.838 61.6808 134.928 61.6808 135.036C61.6808 135.108 61.6748 135.162 61.6628 135.198L58.2788 143.55C58.2188 143.694 58.1408 143.808 58.0448 143.892C57.9488 143.964 57.8108 144 57.6308 144H56.2988ZM67.1288 144.18C65.7248 144.18 64.6388 143.82 63.8708 143.1C63.1028 142.368 62.6888 141.372 62.6288 140.112L62.6108 139.32L62.6288 138.528C62.6888 137.28 63.1088 136.29 63.8888 135.558C64.6688 134.826 65.7488 134.46 67.1288 134.46C68.5088 134.46 69.5888 134.826 70.3688 135.558C71.1488 136.29 71.5688 137.28 71.6288 138.528C71.6408 138.672 71.6468 138.936 71.6468 139.32C71.6468 139.704 71.6408 139.968 71.6288 140.112C71.5688 141.372 71.1548 142.368 70.3868 143.1C69.6188 143.82 68.5328 144.18 67.1288 144.18ZM67.1288 142.398C67.7648 142.398 68.2568 142.2 68.6048 141.804C68.9528 141.396 69.1448 140.802 69.1808 140.022C69.1928 139.902 69.1988 139.668 69.1988 139.32C69.1988 138.972 69.1928 138.738 69.1808 138.618C69.1448 137.838 68.9528 137.25 68.6048 136.854C68.2568 136.446 67.7648 136.242 67.1288 136.242C66.4928 136.242 66.0008 136.446 65.6528 136.854C65.3048 137.25 65.1128 137.838 65.0768 138.618L65.0588 139.32L65.0768 140.022C65.1128 140.802 65.3048 141.396 65.6528 141.804C66.0008 142.2 66.4928 142.398 67.1288 142.398ZM80.4724 144.18C79.8604 144.18 79.2964 144.06 78.7804 143.82C78.2764 143.568 77.8744 143.232 77.5744 142.812C77.2864 142.392 77.1424 141.93 77.1424 141.426C77.1424 140.61 77.4724 139.95 78.1324 139.446C78.7924 138.942 79.6984 138.6 80.8504 138.42L83.3164 138.06V137.682C83.3164 137.154 83.1844 136.758 82.9204 136.494C82.6564 136.23 82.2304 136.098 81.6424 136.098C81.2464 136.098 80.9224 136.176 80.6704 136.332C80.4304 136.476 80.2384 136.62 80.0944 136.764C79.9504 136.92 79.8544 137.022 79.8064 137.07C79.7584 137.214 79.6684 137.286 79.5364 137.286H78.1504C78.0424 137.286 77.9464 137.25 77.8624 137.178C77.7904 137.106 77.7544 137.01 77.7544 136.89C77.7664 136.59 77.9104 136.248 78.1864 135.864C78.4744 135.48 78.9124 135.15 79.5004 134.874C80.0884 134.598 80.8084 134.46 81.6604 134.46C83.0764 134.46 84.1084 134.778 84.7564 135.414C85.4044 136.05 85.7284 136.884 85.7284 137.916V143.568C85.7284 143.688 85.6864 143.79 85.6024 143.874C85.5304 143.958 85.4284 144 85.2964 144H83.8384C83.7184 144 83.6164 143.958 83.5324 143.874C83.4484 143.79 83.4064 143.688 83.4064 143.568V142.866C83.1424 143.25 82.7644 143.568 82.2724 143.82C81.7924 144.06 81.1924 144.18 80.4724 144.18ZM81.0844 142.47C81.7444 142.47 82.2844 142.254 82.7044 141.822C83.1244 141.39 83.3344 140.76 83.3344 139.932V139.554L81.5344 139.842C80.8384 139.95 80.3104 140.124 79.9504 140.364C79.6024 140.604 79.4284 140.898 79.4284 141.246C79.4284 141.63 79.5904 141.93 79.9144 142.146C80.2384 142.362 80.6284 142.47 81.0844 142.47ZM88.4876 144C88.3676 144 88.2656 143.958 88.1816 143.874C88.0976 143.79 88.0556 143.688 88.0556 143.568V131.652C88.0556 131.52 88.0976 131.418 88.1816 131.346C88.2656 131.262 88.3676 131.22 88.4876 131.22H89.9816C90.1136 131.22 90.2156 131.262 90.2876 131.346C90.3716 131.418 90.4136 131.52 90.4136 131.652V143.568C90.4136 143.688 90.3716 143.79 90.2876 143.874C90.2156 143.958 90.1136 144 89.9816 144H88.4876ZM96.8513 144.18C95.5313 144.18 94.4753 143.814 93.6833 143.082C92.9033 142.35 92.4893 141.336 92.4413 140.04L92.4233 139.32L92.4413 138.6C92.4893 137.304 92.9033 136.29 93.6833 135.558C94.4753 134.826 95.5313 134.46 96.8513 134.46C97.7873 134.46 98.5793 134.628 99.2273 134.964C99.8873 135.3 100.373 135.714 100.685 136.206C101.009 136.686 101.183 137.142 101.207 137.574C101.219 137.694 101.177 137.796 101.081 137.88C100.997 137.964 100.895 138.006 100.775 138.006H99.1913C99.0713 138.006 98.9753 137.982 98.9033 137.934C98.8433 137.874 98.7833 137.778 98.7233 137.646C98.5433 137.178 98.3033 136.842 98.0033 136.638C97.7153 136.434 97.3433 136.332 96.8873 136.332C96.2753 136.332 95.7953 136.53 95.4473 136.926C95.0993 137.31 94.9133 137.898 94.8893 138.69L94.8713 139.356L94.8893 139.95C94.9373 141.522 95.6033 142.308 96.8873 142.308C97.3553 142.308 97.7333 142.206 98.0213 142.002C98.3093 141.798 98.5433 141.462 98.7233 140.994C98.7833 140.862 98.8433 140.772 98.9033 140.724C98.9753 140.664 99.0713 140.634 99.1913 140.634H100.775C100.895 140.634 100.997 140.676 101.081 140.76C101.177 140.844 101.219 140.946 101.207 141.066C101.183 141.486 101.015 141.936 100.703 142.416C100.391 142.896 99.9113 143.31 99.2633 143.658C98.6153 144.006 97.8113 144.18 96.8513 144.18ZM105.802 144.18C105.19 144.18 104.626 144.06 104.11 143.82C103.606 143.568 103.204 143.232 102.904 142.812C102.616 142.392 102.472 141.93 102.472 141.426C102.472 140.61 102.802 139.95 103.462 139.446C104.122 138.942 105.028 138.6 106.18 138.42L108.646 138.06V137.682C108.646 137.154 108.514 136.758 108.25 136.494C107.986 136.23 107.56 136.098 106.972 136.098C106.576 136.098 106.252 136.176 106 136.332C105.76 136.476 105.568 136.62 105.424 136.764C105.28 136.92 105.184 137.022 105.136 137.07C105.088 137.214 104.998 137.286 104.866 137.286H103.48C103.372 137.286 103.276 137.25 103.192 137.178C103.12 137.106 103.084 137.01 103.084 136.89C103.096 136.59 103.24 136.248 103.516 135.864C103.804 135.48 104.242 135.15 104.83 134.874C105.418 134.598 106.138 134.46 106.99 134.46C108.406 134.46 109.438 134.778 110.086 135.414C110.734 136.05 111.058 136.884 111.058 137.916V143.568C111.058 143.688 111.016 143.79 110.932 143.874C110.86 143.958 110.758 144 110.626 144H109.168C109.048 144 108.946 143.958 108.862 143.874C108.778 143.79 108.736 143.688 108.736 143.568V142.866C108.472 143.25 108.094 143.568 107.602 143.82C107.122 144.06 106.522 144.18 105.802 144.18ZM106.414 142.47C107.074 142.47 107.614 142.254 108.034 141.822C108.454 141.39 108.664 140.76 108.664 139.932V139.554L106.864 139.842C106.168 139.95 105.64 140.124 105.28 140.364C104.932 140.604 104.758 140.898 104.758 141.246C104.758 141.63 104.92 141.93 105.244 142.146C105.568 142.362 105.958 142.47 106.414 142.47ZM113.8 144C113.68 144 113.578 143.958 113.494 143.874C113.41 143.79 113.368 143.688 113.368 143.568V135.072C113.368 134.952 113.41 134.85 113.494 134.766C113.578 134.682 113.68 134.64 113.8 134.64H115.276C115.396 134.64 115.498 134.682 115.582 134.766C115.666 134.85 115.708 134.952 115.708 135.072V135.81C116.416 134.91 117.418 134.46 118.714 134.46C119.818 134.46 120.694 134.826 121.342 135.558C121.99 136.278 122.314 137.262 122.314 138.51V143.568C122.314 143.688 122.272 143.79 122.188 143.874C122.116 143.958 122.014 144 121.882 144H120.298C120.178 144 120.076 143.958 119.992 143.874C119.908 143.79 119.866 143.688 119.866 143.568V138.618C119.866 137.91 119.692 137.364 119.344 136.98C119.008 136.584 118.516 136.386 117.868 136.386C117.232 136.386 116.728 136.584 116.356 136.98C115.996 137.376 115.816 137.922 115.816 138.618V143.568C115.816 143.688 115.774 143.79 115.69 143.874C115.618 143.958 115.516 144 115.384 144H113.8ZM128.668 147.96C128.26 147.96 127.894 147.876 127.57 147.708C127.258 147.54 127.102 147.372 127.102 147.204C127.102 147.156 127.132 147.102 127.192 147.042L127.498 146.772C127.558 146.712 127.618 146.682 127.678 146.682C127.726 146.682 127.84 146.736 128.02 146.844C128.2 146.94 128.404 146.988 128.632 146.988C128.824 146.988 128.98 146.928 129.1 146.808C129.232 146.7 129.298 146.556 129.298 146.376C129.298 146.208 129.232 146.07 129.1 145.962C128.98 145.854 128.824 145.8 128.632 145.8C128.5 145.8 128.35 145.824 128.182 145.872C128.014 145.92 127.9 145.944 127.84 145.944C127.732 145.944 127.648 145.908 127.588 145.836L127.264 145.512C127.216 145.452 127.192 145.386 127.192 145.314C127.192 145.218 127.228 145.098 127.3 144.954L127.678 144.09C126.634 143.922 125.812 143.49 125.212 142.794C124.612 142.098 124.288 141.18 124.24 140.04L124.222 139.32L124.24 138.6C124.288 137.304 124.702 136.29 125.482 135.558C126.274 134.826 127.33 134.46 128.65 134.46C129.586 134.46 130.378 134.628 131.026 134.964C131.686 135.3 132.172 135.714 132.484 136.206C132.808 136.686 132.982 137.142 133.006 137.574C133.018 137.694 132.976 137.796 132.88 137.88C132.796 137.964 132.694 138.006 132.574 138.006H130.99C130.87 138.006 130.774 137.982 130.702 137.934C130.642 137.874 130.582 137.778 130.522 137.646C130.342 137.178 130.102 136.842 129.802 136.638C129.514 136.434 129.142 136.332 128.686 136.332C128.074 136.332 127.594 136.53 127.246 136.926C126.898 137.31 126.712 137.898 126.688 138.69L126.67 139.356L126.688 139.95C126.736 141.522 127.402 142.308 128.686 142.308C129.154 142.308 129.532 142.206 129.82 142.002C130.108 141.798 130.342 141.462 130.522 140.994C130.582 140.862 130.642 140.772 130.702 140.724C130.774 140.664 130.87 140.634 130.99 140.634H132.574C132.694 140.634 132.796 140.676 132.88 140.76C132.976 140.844 133.018 140.946 133.006 141.066C132.982 141.486 132.814 141.936 132.502 142.416C132.202 142.896 131.728 143.31 131.08 143.658C130.444 144.006 129.652 144.18 128.704 144.18L128.326 144.954C128.398 144.918 128.494 144.888 128.614 144.864C128.734 144.84 128.848 144.828 128.956 144.828C129.364 144.828 129.7 144.966 129.964 145.242C130.228 145.53 130.36 145.902 130.36 146.358C130.36 146.814 130.21 147.192 129.91 147.492C129.61 147.804 129.196 147.96 128.668 147.96ZM137.601 144.18C136.989 144.18 136.425 144.06 135.909 143.82C135.405 143.568 135.003 143.232 134.703 142.812C134.415 142.392 134.271 141.93 134.271 141.426C134.271 140.61 134.601 139.95 135.261 139.446C135.921 138.942 136.827 138.6 137.979 138.42L140.445 138.06V137.682C140.445 137.154 140.313 136.758 140.049 136.494C139.785 136.23 139.359 136.098 138.771 136.098C138.375 136.098 138.051 136.176 137.799 136.332C137.559 136.476 137.367 136.62 137.223 136.764C137.079 136.92 136.983 137.022 136.935 137.07C136.887 137.214 136.797 137.286 136.665 137.286H135.279C135.171 137.286 135.075 137.25 134.991 137.178C134.919 137.106 134.883 137.01 134.883 136.89C134.895 136.59 135.039 136.248 135.315 135.864C135.603 135.48 136.041 135.15 136.629 134.874C137.217 134.598 137.937 134.46 138.789 134.46C140.205 134.46 141.237 134.778 141.885 135.414C142.533 136.05 142.857 136.884 142.857 137.916V143.568C142.857 143.688 142.815 143.79 142.731 143.874C142.659 143.958 142.557 144 142.425 144H140.967C140.847 144 140.745 143.958 140.661 143.874C140.577 143.79 140.535 143.688 140.535 143.568V142.866C140.271 143.25 139.893 143.568 139.401 143.82C138.921 144.06 138.321 144.18 137.601 144.18ZM138.213 142.47C138.873 142.47 139.413 142.254 139.833 141.822C140.253 141.39 140.463 140.76 140.463 139.932V139.554L138.663 139.842C137.967 139.95 137.439 140.124 137.079 140.364C136.731 140.604 136.557 140.898 136.557 141.246C136.557 141.63 136.719 141.93 137.043 142.146C137.367 142.362 137.757 142.47 138.213 142.47ZM148.641 144.18C147.429 144.18 146.499 143.79 145.851 143.01C145.203 142.23 144.855 141.192 144.807 139.896L144.789 139.302L144.807 138.726C144.843 137.466 145.185 136.44 145.833 135.648C146.493 134.856 147.429 134.46 148.641 134.46C149.805 134.46 150.729 134.856 151.413 135.648V131.652C151.413 131.52 151.455 131.418 151.539 131.346C151.623 131.262 151.725 131.22 151.845 131.22H153.375C153.507 131.22 153.609 131.262 153.681 131.346C153.765 131.418 153.807 131.52 153.807 131.652V143.568C153.807 143.688 153.765 143.79 153.681 143.874C153.609 143.958 153.507 144 153.375 144H151.953C151.833 144 151.731 143.958 151.647 143.874C151.563 143.79 151.521 143.688 151.521 143.568V142.902C150.837 143.754 149.877 144.18 148.641 144.18ZM149.307 142.254C150.003 142.254 150.519 142.032 150.855 141.588C151.191 141.144 151.377 140.598 151.413 139.95C151.425 139.806 151.431 139.572 151.431 139.248C151.431 138.936 151.425 138.708 151.413 138.564C151.389 137.964 151.197 137.454 150.837 137.034C150.489 136.602 149.979 136.386 149.307 136.386C148.011 136.386 147.321 137.184 147.237 138.78L147.219 139.32L147.237 139.86C147.321 141.456 148.011 142.254 149.307 142.254ZM160.346 144.18C158.942 144.18 157.856 143.82 157.088 143.1C156.32 142.368 155.906 141.372 155.846 140.112L155.828 139.32L155.846 138.528C155.906 137.28 156.326 136.29 157.106 135.558C157.886 134.826 158.966 134.46 160.346 134.46C161.726 134.46 162.806 134.826 163.586 135.558C164.366 136.29 164.786 137.28 164.846 138.528C164.858 138.672 164.864 138.936 164.864 139.32C164.864 139.704 164.858 139.968 164.846 140.112C164.786 141.372 164.372 142.368 163.604 143.1C162.836 143.82 161.75 144.18 160.346 144.18ZM160.346 142.398C160.982 142.398 161.474 142.2 161.822 141.804C162.17 141.396 162.362 140.802 162.398 140.022C162.41 139.902 162.416 139.668 162.416 139.32C162.416 138.972 162.41 138.738 162.398 138.618C162.362 137.838 162.17 137.25 161.822 136.854C161.474 136.446 160.982 136.242 160.346 136.242C159.71 136.242 159.218 136.446 158.87 136.854C158.522 137.25 158.33 137.838 158.294 138.618L158.276 139.32L158.294 140.022C158.33 140.802 158.522 141.396 158.87 141.804C159.218 142.2 159.71 142.398 160.346 142.398ZM167.344 140.508C167.224 140.508 167.122 140.466 167.038 140.382C166.954 140.298 166.912 140.196 166.912 140.076V131.832C166.912 131.712 166.954 131.61 167.038 131.526C167.122 131.442 167.224 131.4 167.344 131.4H168.802C168.934 131.4 169.036 131.442 169.108 131.526C169.192 131.598 169.234 131.7 169.234 131.832V140.076C169.234 140.196 169.192 140.298 169.108 140.382C169.036 140.466 168.934 140.508 168.802 140.508H167.344ZM167.236 144C167.116 144 167.014 143.958 166.93 143.874C166.846 143.79 166.804 143.688 166.804 143.568V141.894C166.804 141.762 166.846 141.654 166.93 141.57C167.014 141.486 167.116 141.444 167.236 141.444H168.91C169.042 141.444 169.15 141.486 169.234 141.57C169.318 141.654 169.36 141.762 169.36 141.894V143.568C169.36 143.688 169.318 143.79 169.234 143.874C169.15 143.958 169.042 144 168.91 144H167.236ZM86.7039 161.616C86.6079 161.616 86.5239 161.58 86.4519 161.508C86.3799 161.436 86.3439 161.352 86.3439 161.256V160.68C86.4039 160.116 86.5779 159.624 86.8659 159.204C87.1659 158.772 87.5859 158.28 88.1259 157.728C88.5219 157.344 88.8219 157.014 89.0259 156.738C89.2299 156.462 89.3499 156.18 89.3859 155.892C89.4339 155.4 89.2719 155.01 88.8999 154.722C88.5279 154.422 88.0779 154.272 87.5499 154.272C86.3739 154.272 85.6659 154.854 85.4259 156.018C85.3419 156.294 85.1679 156.432 84.9039 156.432H83.3739C83.2539 156.432 83.1579 156.396 83.0859 156.324C83.0139 156.24 82.9779 156.132 82.9779 156C83.0019 155.34 83.1999 154.722 83.5719 154.146C83.9439 153.57 84.4839 153.108 85.1919 152.76C85.8999 152.4 86.7279 152.22 87.6759 152.22C88.6719 152.22 89.4879 152.382 90.1239 152.706C90.7719 153.018 91.2399 153.42 91.5279 153.912C91.8279 154.404 91.9779 154.914 91.9779 155.442C91.9779 156.054 91.8399 156.582 91.5639 157.026C91.2999 157.458 90.8979 157.962 90.3579 158.538C89.9739 158.958 89.6739 159.318 89.4579 159.618C89.2539 159.906 89.1159 160.218 89.0439 160.554C88.9959 160.854 88.9659 161.058 88.9539 161.166C88.8579 161.466 88.6959 161.616 88.4679 161.616H86.7039ZM86.6499 165C86.5299 165 86.4279 164.958 86.3439 164.874C86.2599 164.79 86.2179 164.688 86.2179 164.568V163.002C86.2179 162.882 86.2599 162.78 86.3439 162.696C86.4279 162.6 86.5299 162.552 86.6499 162.552H88.3959C88.5279 162.552 88.6359 162.594 88.7199 162.678C88.8039 162.762 88.8459 162.87 88.8459 163.002V164.568C88.8459 164.688 88.8039 164.79 88.7199 164.874C88.6359 164.958 88.5279 165 88.3959 165H86.6499Z" fill="#2E2B2B"/>
</svg>
