<svg width="115" height="89" viewBox="0 0 115 89" fill="none" xmlns="http://www.w3.org/2000/svg">
<path d="M109.464 79.1045H5.37866C2.76707 79.1045 0.647522 81.1844 0.647522 83.7576C0.647522 86.3308 2.76707 88.4108 5.37866 88.4108H109.464C112.075 88.4108 114.195 86.3308 114.195 83.7576C114.195 81.1844 112.075 79.1045 109.464 79.1045Z" fill="#2E2B2B"/>
<path d="M50.3246 29.083C50.3246 30.2928 50.4666 31.4561 50.7978 32.5729H19.5722V79.1042H10.11V32.5729C10.11 27.4544 14.368 23.2666 19.5722 23.2666H50.3246V29.083Z" fill="#2E2B2B"/>
<path d="M104.733 42.3915V79.1047H95.2705V43.7874C97.778 43.229 100.049 42.0192 101.894 40.3906L104.26 42.1123C104.402 42.2053 104.543 42.3449 104.733 42.3915Z" fill="#2E2B2B"/>
<path d="M52.6903 60.4919C57.9162 60.4919 62.1526 56.3254 62.1526 51.1857C62.1526 46.046 57.9162 41.8794 52.6903 41.8794C47.4644 41.8794 43.228 46.046 43.228 51.1857C43.228 56.3254 47.4644 60.4919 52.6903 60.4919Z" fill="#2E2B2B"/>
<path d="M71.6143 77.9411V79.1044H33.7652V77.9411C33.7652 70.8684 39.5845 65.145 46.7758 65.145H58.6036C65.795 65.145 71.6143 70.8684 71.6143 77.9411Z" fill="#2E2B2B"/>
<path d="M110.647 37.2263C109.894 37.2263 109.142 36.989 108.517 36.5283L99.9257 30.1908C99.3769 34.1599 95.9043 37.2263 91.722 37.2263H65.7007C61.1351 37.2263 57.4212 33.5736 57.4212 29.0833V6.98093C57.4212 3.76096 59.5881 0.00122707 65.7007 0.00122707H91.722C96.1314 0.00122707 99.746 3.40732 99.9873 7.68355L108.376 0.810872C109.426 -0.0592637 110.902 -0.245389 112.151 0.3316C113.4 0.908588 114.195 2.13702 114.195 3.49108V33.7365C114.195 35.0579 113.433 36.2678 112.231 36.8587C111.73 37.1053 111.186 37.2263 110.647 37.2263V37.2263Z" fill="#2E2B2B"/>
</svg>
