<svg width="210" height="169" viewBox="0 0 210 169" fill="none" xmlns="http://www.w3.org/2000/svg">
<path d="M165.542 91.2632H45.4583C42.4453 91.2632 40 93.6628 40 96.6315C40 99.6002 42.4453 102 45.4583 102H165.542C168.555 102 171 99.6002 171 96.6315C171 93.6628 168.555 91.2632 165.542 91.2632Z" fill="#2E2B2B"/>
<path d="M97.3128 33.5532C97.3128 34.949 97.4766 36.2911 97.8587 37.5795H61.8337V91.2629H50.917V37.5795C50.917 31.6743 55.8295 26.8428 61.8337 26.8428H97.3128V33.5532Z" fill="#2E2B2B"/>
<path d="M160.084 48.907V91.2632H149.167V50.5175C152.06 49.8733 154.68 48.4776 156.809 46.5986L159.538 48.5849C159.702 48.6923 159.865 48.8533 160.084 48.907Z" fill="#2E2B2B"/>
<path d="M100.042 69.7898C106.071 69.7898 110.959 64.9828 110.959 59.0531C110.959 53.1234 106.071 48.3164 100.042 48.3164C94.013 48.3164 89.1255 53.1234 89.1255 59.0531C89.1255 64.9828 94.013 69.7898 100.042 69.7898Z" fill="#2E2B2B"/>
<path d="M121.875 89.9211V91.2632H78.208V89.9211C78.208 81.7613 84.9218 75.1582 93.2184 75.1582H106.864C115.161 75.1582 121.875 81.7613 121.875 89.9211Z" fill="#2E2B2B"/>
<path d="M166.906 42.9481C166.038 42.9481 165.17 42.6744 164.45 42.1429L154.538 34.8312C153.904 39.4104 149.898 42.9481 145.073 42.9481H115.052C109.785 42.9481 105.5 38.734 105.5 33.5535V8.05393C105.5 4.33904 108 0.00141567 115.052 0.00141567H145.073C150.16 0.00141567 154.33 3.93104 154.609 8.86455L164.286 0.935507C165.498 -0.0683728 167.201 -0.283106 168.642 0.382568C170.083 1.04824 171 2.46548 171 4.02767V38.9219C171 40.4465 170.121 41.8423 168.735 42.524C168.156 42.8086 167.529 42.9481 166.906 42.9481Z" fill="#2E2B2B"/>
<path d="M27.4742 144C27.3542 144 27.2522 143.958 27.1682 143.874C27.0842 143.79 27.0422 143.688 27.0422 143.568V133.614H23.7122C23.5922 133.614 23.4902 133.572 23.4062 133.488C23.3222 133.404 23.2802 133.302 23.2802 133.182V131.85C23.2802 131.718 23.3162 131.61 23.3882 131.526C23.4722 131.442 23.5802 131.4 23.7122 131.4H32.8922C33.0242 131.4 33.1322 131.442 33.2162 131.526C33.3002 131.61 33.3422 131.718 33.3422 131.85V133.182C33.3422 133.302 33.3002 133.404 33.2162 133.488C33.1322 133.572 33.0242 133.614 32.8922 133.614H29.5802V143.568C29.5802 143.688 29.5382 143.79 29.4542 143.874C29.3702 143.958 29.2622 144 29.1302 144H27.4742ZM37.3323 144.18C36.0003 144.18 34.9383 143.796 34.1463 143.028C33.3663 142.248 32.9523 141.156 32.9043 139.752L32.8863 139.302L32.9043 138.852C32.9643 137.484 33.3843 136.41 34.1643 135.63C34.9563 134.85 36.0123 134.46 37.3323 134.46C38.7483 134.46 39.8403 134.892 40.6083 135.756C41.3883 136.62 41.7783 137.772 41.7783 139.212V139.59C41.7783 139.71 41.7363 139.812 41.6523 139.896C41.5683 139.98 41.4603 140.022 41.3283 140.022H35.3523V140.166C35.3763 140.826 35.5563 141.384 35.8923 141.84C36.2403 142.284 36.7143 142.506 37.3143 142.506C38.0223 142.506 38.5923 142.23 39.0243 141.678C39.1323 141.546 39.2163 141.462 39.2763 141.426C39.3483 141.39 39.4503 141.372 39.5823 141.372H41.1303C41.2383 141.372 41.3283 141.408 41.4003 141.48C41.4843 141.54 41.5263 141.618 41.5263 141.714C41.5263 142.002 41.3523 142.344 41.0043 142.74C40.6683 143.124 40.1823 143.46 39.5463 143.748C38.9103 144.036 38.1723 144.18 37.3323 144.18ZM39.3303 138.51V138.456C39.3303 137.748 39.1503 137.178 38.7903 136.746C38.4423 136.314 37.9563 136.098 37.3323 136.098C36.7083 136.098 36.2223 136.314 35.8743 136.746C35.5263 137.178 35.3523 137.748 35.3523 138.456V138.51H39.3303ZM44.121 144C44.001 144 43.899 143.958 43.815 143.874C43.731 143.79 43.689 143.688 43.689 143.568V135.072C43.689 134.952 43.731 134.85 43.815 134.766C43.899 134.682 44.001 134.64 44.121 134.64H45.597C45.717 134.64 45.819 134.682 45.903 134.766C45.987 134.85 46.029 134.952 46.029 135.072V135.81C46.737 134.91 47.739 134.46 49.035 134.46C50.139 134.46 51.015 134.826 51.663 135.558C52.311 136.278 52.635 137.262 52.635 138.51V143.568C52.635 143.688 52.593 143.79 52.509 143.874C52.437 143.958 52.335 144 52.203 144H50.619C50.499 144 50.397 143.958 50.313 143.874C50.229 143.79 50.187 143.688 50.187 143.568V138.618C50.187 137.91 50.013 137.364 49.665 136.98C49.329 136.584 48.837 136.386 48.189 136.386C47.553 136.386 47.049 136.584 46.677 136.98C46.317 137.376 46.137 137.922 46.137 138.618V143.568C46.137 143.688 46.095 143.79 46.011 143.874C45.939 143.958 45.837 144 45.705 144H44.121ZM55.3714 144C55.2514 144 55.1494 143.958 55.0654 143.874C54.9814 143.79 54.9394 143.688 54.9394 143.568V131.652C54.9394 131.52 54.9814 131.418 55.0654 131.346C55.1494 131.262 55.2514 131.22 55.3714 131.22H56.9734C57.1054 131.22 57.2074 131.262 57.2794 131.346C57.3634 131.418 57.4054 131.52 57.4054 131.652V135.756C58.1254 134.892 59.0974 134.46 60.3214 134.46C61.4254 134.46 62.3074 134.826 62.9674 135.558C63.6274 136.278 63.9574 137.262 63.9574 138.51V143.568C63.9574 143.688 63.9154 143.79 63.8314 143.874C63.7594 143.958 63.6574 144 63.5254 144H61.9054C61.7854 144 61.6834 143.958 61.5994 143.874C61.5154 143.79 61.4734 143.688 61.4734 143.568V138.618C61.4734 137.91 61.2994 137.364 60.9514 136.98C60.6154 136.584 60.1234 136.386 59.4754 136.386C58.8394 136.386 58.3354 136.584 57.9634 136.98C57.5914 137.376 57.4054 137.922 57.4054 138.618V143.568C57.4054 143.688 57.3634 143.79 57.2794 143.874C57.2074 143.958 57.1054 144 56.9734 144H55.3714ZM68.9597 144.18C68.3477 144.18 67.7837 144.06 67.2677 143.82C66.7637 143.568 66.3617 143.232 66.0617 142.812C65.7737 142.392 65.6297 141.93 65.6297 141.426C65.6297 140.61 65.9597 139.95 66.6197 139.446C67.2797 138.942 68.1857 138.6 69.3377 138.42L71.8037 138.06V137.682C71.8037 137.154 71.6717 136.758 71.4077 136.494C71.1437 136.23 70.7177 136.098 70.1297 136.098C69.7337 136.098 69.4097 136.176 69.1577 136.332C68.9177 136.476 68.7257 136.62 68.5817 136.764C68.4377 136.92 68.3417 137.022 68.2937 137.07C68.2457 137.214 68.1557 137.286 68.0237 137.286H66.6377C66.5297 137.286 66.4337 137.25 66.3497 137.178C66.2777 137.106 66.2417 137.01 66.2417 136.89C66.2537 136.59 66.3977 136.248 66.6737 135.864C66.9617 135.48 67.3997 135.15 67.9877 134.874C68.5757 134.598 69.2957 134.46 70.1477 134.46C71.5637 134.46 72.5957 134.778 73.2437 135.414C73.8917 136.05 74.2157 136.884 74.2157 137.916V143.568C74.2157 143.688 74.1737 143.79 74.0897 143.874C74.0177 143.958 73.9157 144 73.7837 144H72.3257C72.2057 144 72.1037 143.958 72.0197 143.874C71.9357 143.79 71.8937 143.688 71.8937 143.568V142.866C71.6297 143.25 71.2517 143.568 70.7597 143.82C70.2797 144.06 69.6797 144.18 68.9597 144.18ZM69.5717 142.47C70.2317 142.47 70.7717 142.254 71.1917 141.822C71.6117 141.39 71.8217 140.76 71.8217 139.932V139.554L70.0217 139.842C69.3257 139.95 68.7977 140.124 68.4377 140.364C68.0897 140.604 67.9157 140.898 67.9157 141.246C67.9157 141.63 68.0777 141.93 68.4017 142.146C68.7257 142.362 69.1157 142.47 69.5717 142.47ZM84.1122 144.18C83.0082 144.18 82.1382 143.82 81.5022 143.1C80.8662 142.368 80.5482 141.378 80.5482 140.13V135.072C80.5482 134.952 80.5902 134.85 80.6742 134.766C80.7582 134.682 80.8602 134.64 80.9802 134.64H82.5642C82.6962 134.64 82.7982 134.682 82.8702 134.766C82.9542 134.838 82.9962 134.94 82.9962 135.072V140.022C82.9962 141.51 83.6502 142.254 84.9582 142.254C85.5822 142.254 86.0742 142.056 86.4342 141.66C86.8062 141.264 86.9922 140.718 86.9922 140.022V135.072C86.9922 134.952 87.0342 134.85 87.1182 134.766C87.2022 134.682 87.3042 134.64 87.4242 134.64H89.0082C89.1402 134.64 89.2422 134.682 89.3142 134.766C89.3982 134.838 89.4402 134.94 89.4402 135.072V143.568C89.4402 143.688 89.3982 143.79 89.3142 143.874C89.2422 143.958 89.1402 144 89.0082 144H87.5502C87.4302 144 87.3282 143.958 87.2442 143.874C87.1602 143.79 87.1182 143.688 87.1182 143.568V142.83C86.4462 143.73 85.4442 144.18 84.1122 144.18ZM92.2499 144C92.1299 144 92.0279 143.958 91.9439 143.874C91.8599 143.79 91.8179 143.688 91.8179 143.568V135.072C91.8179 134.952 91.8599 134.85 91.9439 134.766C92.0279 134.682 92.1299 134.64 92.2499 134.64H93.6539C93.7739 134.64 93.8759 134.682 93.9599 134.766C94.0439 134.85 94.0859 134.952 94.0859 135.072V135.684C94.7099 134.868 95.5799 134.46 96.6959 134.46C98.0279 134.46 98.9579 134.994 99.4859 136.062C99.7739 135.582 100.182 135.198 100.71 134.91C101.238 134.61 101.808 134.46 102.42 134.46C103.404 134.46 104.208 134.796 104.832 135.468C105.456 136.14 105.768 137.118 105.768 138.402V143.568C105.768 143.688 105.726 143.79 105.642 143.874C105.57 143.958 105.468 144 105.336 144H103.86C103.74 144 103.638 143.958 103.554 143.874C103.47 143.79 103.428 143.688 103.428 143.568V138.546C103.428 137.79 103.266 137.244 102.942 136.908C102.63 136.56 102.21 136.386 101.682 136.386C101.214 136.386 100.812 136.56 100.476 136.908C100.152 137.256 99.9899 137.802 99.9899 138.546V143.568C99.9899 143.688 99.9479 143.79 99.8639 143.874C99.7799 143.958 99.6779 144 99.5579 144H98.0819C97.9619 144 97.8599 143.958 97.7759 143.874C97.6919 143.79 97.6499 143.688 97.6499 143.568V138.546C97.6499 137.79 97.4819 137.244 97.1459 136.908C96.8219 136.56 96.4079 136.386 95.9039 136.386C95.4239 136.386 95.0159 136.56 94.6799 136.908C94.3559 137.256 94.1939 137.802 94.1939 138.546V143.568C94.1939 143.688 94.1519 143.79 94.0679 143.874C93.9839 143.958 93.8819 144 93.7619 144H92.2499ZM110.778 144.18C110.166 144.18 109.602 144.06 109.086 143.82C108.582 143.568 108.18 143.232 107.88 142.812C107.592 142.392 107.448 141.93 107.448 141.426C107.448 140.61 107.778 139.95 108.438 139.446C109.098 138.942 110.004 138.6 111.156 138.42L113.622 138.06V137.682C113.622 137.154 113.49 136.758 113.226 136.494C112.962 136.23 112.536 136.098 111.948 136.098C111.552 136.098 111.228 136.176 110.976 136.332C110.736 136.476 110.544 136.62 110.4 136.764C110.256 136.92 110.16 137.022 110.112 137.07C110.064 137.214 109.974 137.286 109.842 137.286H108.456C108.348 137.286 108.252 137.25 108.168 137.178C108.096 137.106 108.06 137.01 108.06 136.89C108.072 136.59 108.216 136.248 108.492 135.864C108.78 135.48 109.218 135.15 109.806 134.874C110.394 134.598 111.114 134.46 111.966 134.46C113.382 134.46 114.414 134.778 115.062 135.414C115.71 136.05 116.034 136.884 116.034 137.916V143.568C116.034 143.688 115.992 143.79 115.908 143.874C115.836 143.958 115.734 144 115.602 144H114.144C114.024 144 113.922 143.958 113.838 143.874C113.754 143.79 113.712 143.688 113.712 143.568V142.866C113.448 143.25 113.07 143.568 112.578 143.82C112.098 144.06 111.498 144.18 110.778 144.18ZM111.39 142.47C112.05 142.47 112.59 142.254 113.01 141.822C113.43 141.39 113.64 140.76 113.64 139.932V139.554L111.84 139.842C111.144 139.95 110.616 140.124 110.256 140.364C109.908 140.604 109.734 140.898 109.734 141.246C109.734 141.63 109.896 141.93 110.22 142.146C110.544 142.362 110.934 142.47 111.39 142.47ZM122.889 144C122.769 144 122.667 143.958 122.583 143.874C122.499 143.79 122.457 143.688 122.457 143.568V135.09C122.457 134.97 122.499 134.868 122.583 134.784C122.667 134.688 122.769 134.64 122.889 134.64H124.347C124.479 134.64 124.587 134.682 124.671 134.766C124.755 134.85 124.797 134.958 124.797 135.09V135.828C125.085 135.444 125.445 135.15 125.877 134.946C126.321 134.742 126.825 134.64 127.389 134.64H128.127C128.259 134.64 128.361 134.682 128.433 134.766C128.517 134.838 128.559 134.94 128.559 135.072V136.368C128.559 136.488 128.517 136.59 128.433 136.674C128.361 136.758 128.259 136.8 128.127 136.8H126.723C126.159 136.8 125.715 136.962 125.391 137.286C125.067 137.61 124.905 138.054 124.905 138.618V143.568C124.905 143.688 124.863 143.79 124.779 143.874C124.695 143.958 124.587 144 124.455 144H122.889ZM133.871 144.18C132.539 144.18 131.477 143.796 130.685 143.028C129.905 142.248 129.491 141.156 129.443 139.752L129.425 139.302L129.443 138.852C129.503 137.484 129.923 136.41 130.703 135.63C131.495 134.85 132.551 134.46 133.871 134.46C135.287 134.46 136.379 134.892 137.147 135.756C137.927 136.62 138.317 137.772 138.317 139.212V139.59C138.317 139.71 138.275 139.812 138.191 139.896C138.107 139.98 137.999 140.022 137.867 140.022H131.891V140.166C131.915 140.826 132.095 141.384 132.431 141.84C132.779 142.284 133.253 142.506 133.853 142.506C134.561 142.506 135.131 142.23 135.563 141.678C135.671 141.546 135.755 141.462 135.815 141.426C135.887 141.39 135.989 141.372 136.121 141.372H137.669C137.777 141.372 137.867 141.408 137.939 141.48C138.023 141.54 138.065 141.618 138.065 141.714C138.065 142.002 137.891 142.344 137.543 142.74C137.207 143.124 136.721 143.46 136.085 143.748C135.449 144.036 134.711 144.18 133.871 144.18ZM135.869 138.51V138.456C135.869 137.748 135.689 137.178 135.329 136.746C134.981 136.314 134.495 136.098 133.871 136.098C133.247 136.098 132.761 136.314 132.413 136.746C132.065 137.178 131.891 137.748 131.891 138.456V138.51H135.869ZM143.702 144.18C142.598 144.18 141.728 143.82 141.092 143.1C140.456 142.368 140.138 141.378 140.138 140.13V135.072C140.138 134.952 140.18 134.85 140.264 134.766C140.348 134.682 140.45 134.64 140.57 134.64H142.154C142.286 134.64 142.388 134.682 142.46 134.766C142.544 134.838 142.586 134.94 142.586 135.072V140.022C142.586 141.51 143.24 142.254 144.548 142.254C145.172 142.254 145.664 142.056 146.024 141.66C146.396 141.264 146.582 140.718 146.582 140.022V135.072C146.582 134.952 146.624 134.85 146.708 134.766C146.792 134.682 146.894 134.64 147.014 134.64H148.598C148.73 134.64 148.832 134.682 148.904 134.766C148.988 134.838 149.03 134.94 149.03 135.072V143.568C149.03 143.688 148.988 143.79 148.904 143.874C148.832 143.958 148.73 144 148.598 144H147.14C147.02 144 146.918 143.958 146.834 143.874C146.75 143.79 146.708 143.688 146.708 143.568V142.83C146.036 143.73 145.034 144.18 143.702 144.18ZM151.84 144C151.72 144 151.618 143.958 151.534 143.874C151.45 143.79 151.408 143.688 151.408 143.568V135.072C151.408 134.952 151.45 134.85 151.534 134.766C151.618 134.682 151.72 134.64 151.84 134.64H153.316C153.436 134.64 153.538 134.682 153.622 134.766C153.706 134.85 153.748 134.952 153.748 135.072V135.81C154.456 134.91 155.458 134.46 156.754 134.46C157.858 134.46 158.734 134.826 159.382 135.558C160.03 136.278 160.354 137.262 160.354 138.51V143.568C160.354 143.688 160.312 143.79 160.228 143.874C160.156 143.958 160.054 144 159.922 144H158.338C158.218 144 158.116 143.958 158.032 143.874C157.948 143.79 157.906 143.688 157.906 143.568V138.618C157.906 137.91 157.732 137.364 157.384 136.98C157.048 136.584 156.556 136.386 155.908 136.386C155.272 136.386 154.768 136.584 154.396 136.98C154.036 137.376 153.856 137.922 153.856 138.618V143.568C153.856 143.688 153.814 143.79 153.73 143.874C153.658 143.958 153.556 144 153.424 144H151.84ZM163 133.092C162.88 133.092 162.778 133.05 162.694 132.966C162.61 132.882 162.568 132.78 162.568 132.66V131.364C162.568 131.244 162.61 131.142 162.694 131.058C162.778 130.974 162.88 130.932 163 130.932H164.638C164.758 130.932 164.86 130.974 164.944 131.058C165.04 131.142 165.088 131.244 165.088 131.364V132.66C165.088 132.78 165.046 132.882 164.962 132.966C164.878 133.05 164.77 133.092 164.638 133.092H163ZM163.072 144C162.952 144 162.85 143.958 162.766 143.874C162.682 143.79 162.64 143.688 162.64 143.568V135.072C162.64 134.952 162.682 134.85 162.766 134.766C162.85 134.682 162.952 134.64 163.072 134.64H164.566C164.698 134.64 164.8 134.682 164.872 134.766C164.956 134.838 164.998 134.94 164.998 135.072V143.568C164.998 143.688 164.956 143.79 164.872 143.874C164.8 143.958 164.698 144 164.566 144H163.072ZM170.104 144.18C169.492 144.18 168.928 144.06 168.412 143.82C167.908 143.568 167.506 143.232 167.206 142.812C166.918 142.392 166.774 141.93 166.774 141.426C166.774 140.61 167.104 139.95 167.764 139.446C168.424 138.942 169.33 138.6 170.482 138.42L172.948 138.06V137.682C172.948 137.154 172.816 136.758 172.552 136.494C172.288 136.23 171.862 136.098 171.274 136.098C170.878 136.098 170.554 136.176 170.302 136.332C170.062 136.476 169.87 136.62 169.726 136.764C169.582 136.92 169.486 137.022 169.438 137.07C169.39 137.214 169.3 137.286 169.168 137.286H167.782C167.674 137.286 167.578 137.25 167.494 137.178C167.422 137.106 167.386 137.01 167.386 136.89C167.398 136.59 167.542 136.248 167.818 135.864C168.106 135.48 168.544 135.15 169.132 134.874C169.72 134.598 170.44 134.46 171.292 134.46C172.708 134.46 173.74 134.778 174.388 135.414C175.036 136.05 175.36 136.884 175.36 137.916V143.568C175.36 143.688 175.318 143.79 175.234 143.874C175.162 143.958 175.06 144 174.928 144H173.47C173.35 144 173.248 143.958 173.164 143.874C173.08 143.79 173.038 143.688 173.038 143.568V142.866C172.774 143.25 172.396 143.568 171.904 143.82C171.424 144.06 170.824 144.18 170.104 144.18ZM170.716 142.47C171.376 142.47 171.916 142.254 172.336 141.822C172.756 141.39 172.966 140.76 172.966 139.932V139.554L171.166 139.842C170.47 139.95 169.942 140.124 169.582 140.364C169.234 140.604 169.06 140.898 169.06 141.246C169.06 141.63 169.222 141.93 169.546 142.146C169.87 142.362 170.26 142.47 170.716 142.47ZM172.246 133.38C172.018 133.38 171.82 133.35 171.652 133.29C171.484 133.218 171.304 133.122 171.112 133.002C171.088 132.99 171.004 132.942 170.86 132.858C170.716 132.786 170.572 132.75 170.428 132.75C170.32 132.75 170.236 132.774 170.176 132.822C170.116 132.87 170.05 132.942 169.978 133.038C169.918 133.134 169.864 133.2 169.816 133.236C169.768 133.272 169.702 133.29 169.618 133.29H168.79C168.706 133.29 168.634 133.26 168.574 133.2C168.514 133.14 168.484 133.068 168.484 132.984C168.484 132.708 168.544 132.42 168.664 132.12C168.796 131.82 168.994 131.568 169.258 131.364C169.522 131.16 169.846 131.058 170.23 131.058C170.47 131.058 170.674 131.094 170.842 131.166C171.01 131.226 171.19 131.316 171.382 131.436C171.49 131.496 171.598 131.556 171.706 131.616C171.826 131.664 171.946 131.688 172.066 131.688C172.174 131.688 172.258 131.664 172.318 131.616C172.39 131.556 172.456 131.478 172.516 131.382C172.576 131.298 172.63 131.238 172.678 131.202C172.726 131.154 172.792 131.13 172.876 131.13H173.704C173.8 131.13 173.872 131.166 173.92 131.238C173.98 131.298 174.01 131.37 174.01 131.454C174.01 131.73 173.944 132.018 173.812 132.318C173.68 132.606 173.482 132.858 173.218 133.074C172.954 133.278 172.63 133.38 172.246 133.38ZM181.809 144.18C180.405 144.18 179.319 143.82 178.551 143.1C177.783 142.368 177.369 141.372 177.309 140.112L177.291 139.32L177.309 138.528C177.369 137.28 177.789 136.29 178.569 135.558C179.349 134.826 180.429 134.46 181.809 134.46C183.189 134.46 184.269 134.826 185.049 135.558C185.829 136.29 186.249 137.28 186.309 138.528C186.321 138.672 186.327 138.936 186.327 139.32C186.327 139.704 186.321 139.968 186.309 140.112C186.249 141.372 185.835 142.368 185.067 143.1C184.299 143.82 183.213 144.18 181.809 144.18ZM181.809 142.398C182.445 142.398 182.937 142.2 183.285 141.804C183.633 141.396 183.825 140.802 183.861 140.022C183.873 139.902 183.879 139.668 183.879 139.32C183.879 138.972 183.873 138.738 183.861 138.618C183.825 137.838 183.633 137.25 183.285 136.854C182.937 136.446 182.445 136.242 181.809 136.242C181.173 136.242 180.681 136.446 180.333 136.854C179.985 137.25 179.793 137.838 179.757 138.618L179.739 139.32L179.757 140.022C179.793 140.802 179.985 141.396 180.333 141.804C180.681 142.2 181.173 142.398 181.809 142.398ZM42.6874 165.18C41.2834 165.18 40.1974 164.82 39.4294 164.1C38.6614 163.368 38.2474 162.372 38.1874 161.112L38.1694 160.32L38.1874 159.528C38.2474 158.28 38.6674 157.29 39.4474 156.558C40.2274 155.826 41.3074 155.46 42.6874 155.46C44.0674 155.46 45.1474 155.826 45.9274 156.558C46.7074 157.29 47.1274 158.28 47.1874 159.528C47.1994 159.672 47.2054 159.936 47.2054 160.32C47.2054 160.704 47.1994 160.968 47.1874 161.112C47.1274 162.372 46.7134 163.368 45.9454 164.1C45.1774 164.82 44.0914 165.18 42.6874 165.18ZM42.6874 163.398C43.3234 163.398 43.8154 163.2 44.1634 162.804C44.5114 162.396 44.7034 161.802 44.7394 161.022C44.7514 160.902 44.7574 160.668 44.7574 160.32C44.7574 159.972 44.7514 159.738 44.7394 159.618C44.7034 158.838 44.5114 158.25 44.1634 157.854C43.8154 157.446 43.3234 157.242 42.6874 157.242C42.0514 157.242 41.5594 157.446 41.2114 157.854C40.8634 158.25 40.6714 158.838 40.6354 159.618L40.6174 160.32L40.6354 161.022C40.6714 161.802 40.8634 162.396 41.2114 162.804C41.5594 163.2 42.0514 163.398 42.6874 163.398ZM49.6317 165C49.5117 165 49.4097 164.958 49.3257 164.874C49.2417 164.79 49.1997 164.688 49.1997 164.568V156.072C49.1997 155.952 49.2417 155.85 49.3257 155.766C49.4097 155.682 49.5117 155.64 49.6317 155.64H51.1077C51.2277 155.64 51.3297 155.682 51.4137 155.766C51.4977 155.85 51.5397 155.952 51.5397 156.072V156.81C52.2477 155.91 53.2497 155.46 54.5457 155.46C55.6497 155.46 56.5257 155.826 57.1737 156.558C57.8217 157.278 58.1457 158.262 58.1457 159.51V164.568C58.1457 164.688 58.1037 164.79 58.0197 164.874C57.9477 164.958 57.8457 165 57.7137 165H56.1297C56.0097 165 55.9077 164.958 55.8237 164.874C55.7397 164.79 55.6977 164.688 55.6977 164.568V159.618C55.6977 158.91 55.5237 158.364 55.1757 157.98C54.8397 157.584 54.3477 157.386 53.6997 157.386C53.0637 157.386 52.5597 157.584 52.1877 157.98C51.8277 158.376 51.6477 158.922 51.6477 159.618V164.568C51.6477 164.688 51.6057 164.79 51.5217 164.874C51.4497 164.958 51.3477 165 51.2157 165H49.6317ZM60.8821 165C60.7621 165 60.6601 164.958 60.5761 164.874C60.4921 164.79 60.4501 164.688 60.4501 164.568V152.652C60.4501 152.52 60.4921 152.418 60.5761 152.346C60.6601 152.262 60.7621 152.22 60.8821 152.22H62.3761C62.5081 152.22 62.6101 152.262 62.6821 152.346C62.7661 152.418 62.8081 152.52 62.8081 152.652V164.568C62.8081 164.688 62.7661 164.79 62.6821 164.874C62.6101 164.958 62.5081 165 62.3761 165H60.8821ZM65.5558 154.092C65.4358 154.092 65.3338 154.05 65.2498 153.966C65.1658 153.882 65.1238 153.78 65.1238 153.66V152.364C65.1238 152.244 65.1658 152.142 65.2498 152.058C65.3338 151.974 65.4358 151.932 65.5558 151.932H67.1938C67.3138 151.932 67.4158 151.974 67.4998 152.058C67.5958 152.142 67.6438 152.244 67.6438 152.364V153.66C67.6438 153.78 67.6018 153.882 67.5178 153.966C67.4338 154.05 67.3258 154.092 67.1938 154.092H65.5558ZM65.6278 165C65.5078 165 65.4058 164.958 65.3218 164.874C65.2378 164.79 65.1958 164.688 65.1958 164.568V156.072C65.1958 155.952 65.2378 155.85 65.3218 155.766C65.4058 155.682 65.5078 155.64 65.6278 155.64H67.1218C67.2538 155.64 67.3558 155.682 67.4278 155.766C67.5118 155.838 67.5538 155.94 67.5538 156.072V164.568C67.5538 164.688 67.5118 164.79 67.4278 164.874C67.3558 164.958 67.2538 165 67.1218 165H65.6278ZM70.3739 165C70.2539 165 70.1519 164.958 70.0679 164.874C69.9839 164.79 69.9419 164.688 69.9419 164.568V156.072C69.9419 155.952 69.9839 155.85 70.0679 155.766C70.1519 155.682 70.2539 155.64 70.3739 155.64H71.8499C71.9699 155.64 72.0719 155.682 72.1559 155.766C72.2399 155.85 72.2819 155.952 72.2819 156.072V156.81C72.9899 155.91 73.9919 155.46 75.2879 155.46C76.3919 155.46 77.2679 155.826 77.9159 156.558C78.5639 157.278 78.8879 158.262 78.8879 159.51V164.568C78.8879 164.688 78.8459 164.79 78.7619 164.874C78.6899 164.958 78.5879 165 78.4559 165H76.8719C76.7519 165 76.6499 164.958 76.5659 164.874C76.4819 164.79 76.4399 164.688 76.4399 164.568V159.618C76.4399 158.91 76.2659 158.364 75.9179 157.98C75.5819 157.584 75.0899 157.386 74.4419 157.386C73.8059 157.386 73.3019 157.584 72.9299 157.98C72.5699 158.376 72.3899 158.922 72.3899 159.618V164.568C72.3899 164.688 72.3479 164.79 72.2639 164.874C72.1919 164.958 72.0899 165 71.9579 165H70.3739ZM85.2063 165.18C83.8743 165.18 82.8123 164.796 82.0203 164.028C81.2403 163.248 80.8263 162.156 80.7783 160.752L80.7603 160.302L80.7783 159.852C80.8383 158.484 81.2583 157.41 82.0383 156.63C82.8303 155.85 83.8863 155.46 85.2063 155.46C86.6223 155.46 87.7143 155.892 88.4823 156.756C89.2623 157.62 89.6523 158.772 89.6523 160.212V160.59C89.6523 160.71 89.6103 160.812 89.5263 160.896C89.4423 160.98 89.3343 161.022 89.2023 161.022H83.2263V161.166C83.2503 161.826 83.4303 162.384 83.7663 162.84C84.1143 163.284 84.5883 163.506 85.1883 163.506C85.8963 163.506 86.4663 163.23 86.8983 162.678C87.0063 162.546 87.0903 162.462 87.1503 162.426C87.2223 162.39 87.3243 162.372 87.4563 162.372H89.0043C89.1123 162.372 89.2023 162.408 89.2743 162.48C89.3583 162.54 89.4003 162.618 89.4003 162.714C89.4003 163.002 89.2263 163.344 88.8783 163.74C88.5423 164.124 88.0563 164.46 87.4203 164.748C86.7843 165.036 86.0463 165.18 85.2063 165.18ZM87.2043 159.51V159.456C87.2043 158.748 87.0243 158.178 86.6643 157.746C86.3163 157.314 85.8303 157.098 85.2063 157.098C84.5823 157.098 84.0963 157.314 83.7483 157.746C83.4003 158.178 83.2263 158.748 83.2263 159.456V159.51H87.2043ZM99.7263 165.18C98.4063 165.18 97.3503 164.814 96.5583 164.082C95.7783 163.35 95.3643 162.336 95.3163 161.04L95.2983 160.32L95.3163 159.6C95.3643 158.304 95.7783 157.29 96.5583 156.558C97.3503 155.826 98.4063 155.46 99.7263 155.46C100.662 155.46 101.454 155.628 102.102 155.964C102.762 156.3 103.248 156.714 103.56 157.206C103.884 157.686 104.058 158.142 104.082 158.574C104.094 158.694 104.052 158.796 103.956 158.88C103.872 158.964 103.77 159.006 103.65 159.006H102.066C101.946 159.006 101.85 158.982 101.778 158.934C101.718 158.874 101.658 158.778 101.598 158.646C101.418 158.178 101.178 157.842 100.878 157.638C100.59 157.434 100.218 157.332 99.7623 157.332C99.1503 157.332 98.6703 157.53 98.3223 157.926C97.9743 158.31 97.7883 158.898 97.7643 159.69L97.7463 160.356L97.7643 160.95C97.8123 162.522 98.4783 163.308 99.7623 163.308C100.23 163.308 100.608 163.206 100.896 163.002C101.184 162.798 101.418 162.462 101.598 161.994C101.658 161.862 101.718 161.772 101.778 161.724C101.85 161.664 101.946 161.634 102.066 161.634H103.65C103.77 161.634 103.872 161.676 103.956 161.76C104.052 161.844 104.094 161.946 104.082 162.066C104.058 162.486 103.89 162.936 103.578 163.416C103.266 163.896 102.786 164.31 102.138 164.658C101.49 165.006 100.686 165.18 99.7263 165.18ZM110.099 165.18C108.695 165.18 107.609 164.82 106.841 164.1C106.073 163.368 105.659 162.372 105.599 161.112L105.581 160.32L105.599 159.528C105.659 158.28 106.079 157.29 106.859 156.558C107.639 155.826 108.719 155.46 110.099 155.46C111.479 155.46 112.559 155.826 113.339 156.558C114.119 157.29 114.539 158.28 114.599 159.528C114.611 159.672 114.617 159.936 114.617 160.32C114.617 160.704 114.611 160.968 114.599 161.112C114.539 162.372 114.125 163.368 113.357 164.1C112.589 164.82 111.503 165.18 110.099 165.18ZM110.099 163.398C110.735 163.398 111.227 163.2 111.575 162.804C111.923 162.396 112.115 161.802 112.151 161.022C112.163 160.902 112.169 160.668 112.169 160.32C112.169 159.972 112.163 159.738 112.151 159.618C112.115 158.838 111.923 158.25 111.575 157.854C111.227 157.446 110.735 157.242 110.099 157.242C109.463 157.242 108.971 157.446 108.623 157.854C108.275 158.25 108.083 158.838 108.047 159.618L108.029 160.32L108.047 161.022C108.083 161.802 108.275 162.396 108.623 162.804C108.971 163.2 109.463 163.398 110.099 163.398ZM117.044 165C116.924 165 116.822 164.958 116.738 164.874C116.654 164.79 116.612 164.688 116.612 164.568V156.072C116.612 155.952 116.654 155.85 116.738 155.766C116.822 155.682 116.924 155.64 117.044 155.64H118.52C118.64 155.64 118.742 155.682 118.826 155.766C118.91 155.85 118.952 155.952 118.952 156.072V156.81C119.66 155.91 120.662 155.46 121.958 155.46C123.062 155.46 123.938 155.826 124.586 156.558C125.234 157.278 125.558 158.262 125.558 159.51V164.568C125.558 164.688 125.516 164.79 125.432 164.874C125.36 164.958 125.258 165 125.126 165H123.542C123.422 165 123.32 164.958 123.236 164.874C123.152 164.79 123.11 164.688 123.11 164.568V159.618C123.11 158.91 122.936 158.364 122.588 157.98C122.252 157.584 121.76 157.386 121.112 157.386C120.476 157.386 119.972 157.584 119.6 157.98C119.24 158.376 119.06 158.922 119.06 159.618V164.568C119.06 164.688 119.018 164.79 118.934 164.874C118.862 164.958 118.76 165 118.628 165H117.044ZM131.984 165.18C130.58 165.18 129.494 164.82 128.726 164.1C127.958 163.368 127.544 162.372 127.484 161.112L127.466 160.32L127.484 159.528C127.544 158.28 127.964 157.29 128.744 156.558C129.524 155.826 130.604 155.46 131.984 155.46C133.364 155.46 134.444 155.826 135.224 156.558C136.004 157.29 136.424 158.28 136.484 159.528C136.496 159.672 136.502 159.936 136.502 160.32C136.502 160.704 136.496 160.968 136.484 161.112C136.424 162.372 136.01 163.368 135.242 164.1C134.474 164.82 133.388 165.18 131.984 165.18ZM131.984 163.398C132.62 163.398 133.112 163.2 133.46 162.804C133.808 162.396 134 161.802 134.036 161.022C134.048 160.902 134.054 160.668 134.054 160.32C134.054 159.972 134.048 159.738 134.036 159.618C134 158.838 133.808 158.25 133.46 157.854C133.112 157.446 132.62 157.242 131.984 157.242C131.348 157.242 130.856 157.446 130.508 157.854C130.16 158.25 129.968 158.838 129.932 159.618L129.914 160.32L129.932 161.022C129.968 161.802 130.16 162.396 130.508 162.804C130.856 163.2 131.348 163.398 131.984 163.398ZM142.043 165.18C141.143 165.18 140.387 165.048 139.775 164.784C139.163 164.508 138.707 164.19 138.407 163.83C138.119 163.458 137.975 163.14 137.975 162.876C137.975 162.756 138.017 162.66 138.101 162.588C138.185 162.516 138.281 162.48 138.389 162.48H139.811C139.919 162.48 140.009 162.522 140.081 162.606C140.129 162.642 140.255 162.75 140.459 162.93C140.663 163.122 140.903 163.272 141.179 163.38C141.455 163.488 141.761 163.542 142.097 163.542C142.577 163.542 142.973 163.446 143.285 163.254C143.597 163.062 143.753 162.798 143.753 162.462C143.753 162.21 143.681 162.006 143.537 161.85C143.405 161.694 143.159 161.556 142.799 161.436C142.439 161.304 141.905 161.166 141.197 161.022C140.177 160.806 139.421 160.476 138.929 160.032C138.449 159.588 138.209 159 138.209 158.268C138.209 157.788 138.353 157.338 138.641 156.918C138.929 156.486 139.355 156.138 139.919 155.874C140.495 155.598 141.179 155.46 141.971 155.46C142.775 155.46 143.471 155.592 144.059 155.856C144.647 156.108 145.091 156.414 145.391 156.774C145.703 157.122 145.859 157.434 145.859 157.71C145.859 157.818 145.817 157.914 145.733 157.998C145.661 158.07 145.571 158.106 145.463 158.106H144.131C144.035 158.106 143.933 158.064 143.825 157.98C143.741 157.92 143.609 157.806 143.429 157.638C143.249 157.47 143.039 157.338 142.799 157.242C142.559 157.146 142.277 157.098 141.953 157.098C141.509 157.098 141.161 157.194 140.909 157.386C140.669 157.578 140.549 157.83 140.549 158.142C140.549 158.37 140.609 158.556 140.729 158.7C140.849 158.844 141.083 158.982 141.431 159.114C141.779 159.246 142.301 159.378 142.997 159.51C144.149 159.738 144.971 160.092 145.463 160.572C145.967 161.052 146.219 161.64 146.219 162.336C146.219 163.176 145.853 163.86 145.121 164.388C144.389 164.916 143.363 165.18 142.043 165.18ZM152.127 165.18C150.807 165.18 149.751 164.814 148.959 164.082C148.179 163.35 147.765 162.336 147.717 161.04L147.699 160.32L147.717 159.6C147.765 158.304 148.179 157.29 148.959 156.558C149.751 155.826 150.807 155.46 152.127 155.46C153.063 155.46 153.855 155.628 154.503 155.964C155.163 156.3 155.649 156.714 155.961 157.206C156.285 157.686 156.459 158.142 156.483 158.574C156.495 158.694 156.453 158.796 156.357 158.88C156.273 158.964 156.171 159.006 156.051 159.006H154.467C154.347 159.006 154.251 158.982 154.179 158.934C154.119 158.874 154.059 158.778 153.999 158.646C153.819 158.178 153.579 157.842 153.279 157.638C152.991 157.434 152.619 157.332 152.163 157.332C151.551 157.332 151.071 157.53 150.723 157.926C150.375 158.31 150.189 158.898 150.165 159.69L150.147 160.356L150.165 160.95C150.213 162.522 150.879 163.308 152.163 163.308C152.631 163.308 153.009 163.206 153.297 163.002C153.585 162.798 153.819 162.462 153.999 161.994C154.059 161.862 154.119 161.772 154.179 161.724C154.251 161.664 154.347 161.634 154.467 161.634H156.051C156.171 161.634 156.273 161.676 156.357 161.76C156.453 161.844 156.495 161.946 156.483 162.066C156.459 162.486 156.291 162.936 155.979 163.416C155.667 163.896 155.187 164.31 154.539 164.658C153.891 165.006 153.087 165.18 152.127 165.18ZM162.5 165.18C161.096 165.18 160.01 164.82 159.242 164.1C158.474 163.368 158.06 162.372 158 161.112L157.982 160.32L158 159.528C158.06 158.28 158.48 157.29 159.26 156.558C160.04 155.826 161.12 155.46 162.5 155.46C163.88 155.46 164.96 155.826 165.74 156.558C166.52 157.29 166.94 158.28 167 159.528C167.012 159.672 167.018 159.936 167.018 160.32C167.018 160.704 167.012 160.968 167 161.112C166.94 162.372 166.526 163.368 165.758 164.1C164.99 164.82 163.904 165.18 162.5 165.18ZM162.5 163.398C163.136 163.398 163.628 163.2 163.976 162.804C164.324 162.396 164.516 161.802 164.552 161.022C164.564 160.902 164.57 160.668 164.57 160.32C164.57 159.972 164.564 159.738 164.552 159.618C164.516 158.838 164.324 158.25 163.976 157.854C163.628 157.446 163.136 157.242 162.5 157.242C161.864 157.242 161.372 157.446 161.024 157.854C160.676 158.25 160.484 158.838 160.448 159.618L160.43 160.32L160.448 161.022C160.484 161.802 160.676 162.396 161.024 162.804C161.372 163.2 161.864 163.398 162.5 163.398ZM169.498 161.508C169.378 161.508 169.276 161.466 169.192 161.382C169.108 161.298 169.066 161.196 169.066 161.076V152.832C169.066 152.712 169.108 152.61 169.192 152.526C169.276 152.442 169.378 152.4 169.498 152.4H170.956C171.088 152.4 171.19 152.442 171.262 152.526C171.346 152.598 171.388 152.7 171.388 152.832V161.076C171.388 161.196 171.346 161.298 171.262 161.382C171.19 161.466 171.088 161.508 170.956 161.508H169.498ZM169.39 165C169.27 165 169.168 164.958 169.084 164.874C169 164.79 168.958 164.688 168.958 164.568V162.894C168.958 162.762 169 162.654 169.084 162.57C169.168 162.486 169.27 162.444 169.39 162.444H171.064C171.196 162.444 171.304 162.486 171.388 162.57C171.472 162.654 171.514 162.762 171.514 162.894V164.568C171.514 164.688 171.472 164.79 171.388 164.874C171.304 164.958 171.196 165 171.064 165H169.39Z" fill="#2E2B2B"/>
</svg>
