<svg width="212" height="169" viewBox="0 0 212 169" fill="none" xmlns="http://www.w3.org/2000/svg">
<path d="M123.5 6.9375H115.898C114.456 2.89987 110.564 0 106 0C101.436 0 97.544 2.89987 96.095 6.9375H88.5C86.568 6.9375 85 8.4915 85 10.4062V24.2812C85 26.196 86.568 27.75 88.5 27.75H123.5C125.432 27.75 127 26.196 127 24.2812V10.4062C127 8.4915 125.432 6.9375 123.5 6.9375Z" fill="#DA0E16"/>
<path d="M141 9H134V19.9286C134 25.9539 129.289 30.8571 123.5 30.8571H88.5C82.711 30.8571 78 25.9539 78 19.9286V9H71C67.143 9 64 12.2713 64 16.2857V103.714C64 107.802 67.073 111 71 111H141C144.927 111 148 107.802 148 103.714V16.2857C148 12.1984 144.927 9 141 9ZM104.978 73.5077L90.978 88.0791C90.292 88.7859 89.396 89.1429 88.5 89.1429C87.604 89.1429 86.708 88.7859 86.022 88.0791L79.022 80.7934C77.657 79.3727 77.657 77.0631 79.022 75.6424C80.387 74.2217 82.606 74.2217 83.971 75.6424L88.5 80.349L100.022 68.3567C101.387 66.936 103.606 66.936 104.971 68.3567C106.336 69.7774 106.343 72.0797 104.978 73.5077ZM104.978 44.3649L90.978 58.9363C90.292 59.643 89.396 60 88.5 60C87.604 60 86.708 59.643 86.022 58.9363L79.022 51.6506C77.657 50.2299 77.657 47.9203 79.022 46.4996C80.387 45.0789 82.606 45.0789 83.971 46.4996L88.5 51.2061L100.022 39.2139C101.387 37.7931 103.606 37.7931 104.971 39.2139C106.336 40.6346 106.343 42.9369 104.978 44.3649ZM130.5 81.8571H116.5C114.568 81.8571 113 80.2251 113 78.2143C113 76.2034 114.568 74.5714 116.5 74.5714H130.5C132.432 74.5714 134 76.2034 134 78.2143C134 80.2251 132.432 81.8571 130.5 81.8571ZM130.5 52.7143H116.5C114.568 52.7143 113 51.0823 113 49.0714C113 47.0606 114.568 45.4286 116.5 45.4286H130.5C132.432 45.4286 134 47.0606 134 49.0714C134 51.0823 132.432 52.7143 130.5 52.7143Z" fill="#DA0E16"/>
<path d="M7.78179 144C7.66179 144 7.55979 143.958 7.47579 143.874C7.39179 143.79 7.34979 143.688 7.34979 143.568V131.85C7.34979 131.718 7.38579 131.61 7.45779 131.526C7.54179 131.442 7.64979 131.4 7.78179 131.4H15.7018C15.8338 131.4 15.9418 131.442 16.0258 131.526C16.1098 131.61 16.1518 131.718 16.1518 131.85V133.038C16.1518 133.17 16.1098 133.278 16.0258 133.362C15.9418 133.434 15.8338 133.47 15.7018 133.47H9.77979V136.656H15.3058C15.4378 136.656 15.5458 136.698 15.6298 136.782C15.7138 136.854 15.7558 136.956 15.7558 137.088V138.204C15.7558 138.336 15.7138 138.444 15.6298 138.528C15.5458 138.6 15.4378 138.636 15.3058 138.636H9.77979V141.93H15.8458C15.9778 141.93 16.0858 141.972 16.1698 142.056C16.2538 142.14 16.2958 142.248 16.2958 142.38V143.568C16.2958 143.7 16.2538 143.808 16.1698 143.892C16.0858 143.964 15.9778 144 15.8458 144H7.78179ZM21.8771 144.18C20.9771 144.18 20.2211 144.048 19.6091 143.784C18.9971 143.508 18.5411 143.19 18.2411 142.83C17.9531 142.458 17.8091 142.14 17.8091 141.876C17.8091 141.756 17.8511 141.66 17.9351 141.588C18.0191 141.516 18.1151 141.48 18.2231 141.48H19.6451C19.7531 141.48 19.8431 141.522 19.9151 141.606C19.9631 141.642 20.0891 141.75 20.2931 141.93C20.4971 142.122 20.7371 142.272 21.0131 142.38C21.2891 142.488 21.5951 142.542 21.9311 142.542C22.4111 142.542 22.8071 142.446 23.1191 142.254C23.4311 142.062 23.5871 141.798 23.5871 141.462C23.5871 141.21 23.5151 141.006 23.3711 140.85C23.2391 140.694 22.9931 140.556 22.6331 140.436C22.2731 140.304 21.7391 140.166 21.0311 140.022C20.0111 139.806 19.2551 139.476 18.7631 139.032C18.2831 138.588 18.0431 138 18.0431 137.268C18.0431 136.788 18.1871 136.338 18.4751 135.918C18.7631 135.486 19.1891 135.138 19.7531 134.874C20.3291 134.598 21.0131 134.46 21.8051 134.46C22.6091 134.46 23.3051 134.592 23.8931 134.856C24.4811 135.108 24.9251 135.414 25.2251 135.774C25.5371 136.122 25.6931 136.434 25.6931 136.71C25.6931 136.818 25.6511 136.914 25.5671 136.998C25.4951 137.07 25.4051 137.106 25.2971 137.106H23.9651C23.8691 137.106 23.7671 137.064 23.6591 136.98C23.5751 136.92 23.4431 136.806 23.2631 136.638C23.0831 136.47 22.8731 136.338 22.6331 136.242C22.3931 136.146 22.1111 136.098 21.7871 136.098C21.3431 136.098 20.9951 136.194 20.7431 136.386C20.5031 136.578 20.3831 136.83 20.3831 137.142C20.3831 137.37 20.4431 137.556 20.5631 137.7C20.6831 137.844 20.9171 137.982 21.2651 138.114C21.6131 138.246 22.1351 138.378 22.8311 138.51C23.9831 138.738 24.8051 139.092 25.2971 139.572C25.8011 140.052 26.0531 140.64 26.0531 141.336C26.0531 142.176 25.6871 142.86 24.9551 143.388C24.2231 143.916 23.1971 144.18 21.8771 144.18ZM31.9611 144.18C30.6411 144.18 29.5851 143.814 28.7931 143.082C28.0131 142.35 27.5991 141.336 27.5511 140.04L27.5331 139.32L27.5511 138.6C27.5991 137.304 28.0131 136.29 28.7931 135.558C29.5851 134.826 30.6411 134.46 31.9611 134.46C32.8971 134.46 33.6891 134.628 34.3371 134.964C34.9971 135.3 35.4831 135.714 35.7951 136.206C36.1191 136.686 36.2931 137.142 36.3171 137.574C36.3291 137.694 36.2871 137.796 36.1911 137.88C36.1071 137.964 36.0051 138.006 35.8851 138.006H34.3011C34.1811 138.006 34.0851 137.982 34.0131 137.934C33.9531 137.874 33.8931 137.778 33.8331 137.646C33.6531 137.178 33.4131 136.842 33.1131 136.638C32.8251 136.434 32.4531 136.332 31.9971 136.332C31.3851 136.332 30.9051 136.53 30.5571 136.926C30.2091 137.31 30.0231 137.898 29.9991 138.69L29.9811 139.356L29.9991 139.95C30.0471 141.522 30.7131 142.308 31.9971 142.308C32.4651 142.308 32.8431 142.206 33.1311 142.002C33.4191 141.798 33.6531 141.462 33.8331 140.994C33.8931 140.862 33.9531 140.772 34.0131 140.724C34.0851 140.664 34.1811 140.634 34.3011 140.634H35.8851C36.0051 140.634 36.1071 140.676 36.1911 140.76C36.2871 140.844 36.3291 140.946 36.3171 141.066C36.2931 141.486 36.1251 141.936 35.8131 142.416C35.5011 142.896 35.0211 143.31 34.3731 143.658C33.7251 144.006 32.9211 144.18 31.9611 144.18ZM42.3343 144.18C40.9303 144.18 39.8443 143.82 39.0763 143.1C38.3083 142.368 37.8943 141.372 37.8343 140.112L37.8163 139.32L37.8343 138.528C37.8943 137.28 38.3143 136.29 39.0943 135.558C39.8743 134.826 40.9543 134.46 42.3343 134.46C43.7143 134.46 44.7943 134.826 45.5743 135.558C46.3543 136.29 46.7743 137.28 46.8343 138.528C46.8463 138.672 46.8523 138.936 46.8523 139.32C46.8523 139.704 46.8463 139.968 46.8343 140.112C46.7743 141.372 46.3603 142.368 45.5923 143.1C44.8243 143.82 43.7383 144.18 42.3343 144.18ZM42.3343 142.398C42.9703 142.398 43.4623 142.2 43.8103 141.804C44.1583 141.396 44.3503 140.802 44.3863 140.022C44.3983 139.902 44.4043 139.668 44.4043 139.32C44.4043 138.972 44.3983 138.738 44.3863 138.618C44.3503 137.838 44.1583 137.25 43.8103 136.854C43.4623 136.446 42.9703 136.242 42.3343 136.242C41.6983 136.242 41.2063 136.446 40.8583 136.854C40.5103 137.25 40.3183 137.838 40.2823 138.618L40.2643 139.32L40.2823 140.022C40.3183 140.802 40.5103 141.396 40.8583 141.804C41.2063 142.2 41.6983 142.398 42.3343 142.398ZM49.2967 144C49.1767 144 49.0747 143.958 48.9907 143.874C48.9067 143.79 48.8647 143.688 48.8647 143.568V131.652C48.8647 131.52 48.9067 131.418 48.9907 131.346C49.0747 131.262 49.1767 131.22 49.2967 131.22H50.7907C50.9227 131.22 51.0247 131.262 51.0967 131.346C51.1807 131.418 51.2227 131.52 51.2227 131.652V143.568C51.2227 143.688 51.1807 143.79 51.0967 143.874C51.0247 143.958 50.9227 144 50.7907 144H49.2967ZM54.0603 144C53.9403 144 53.8383 143.958 53.7543 143.874C53.6703 143.79 53.6283 143.688 53.6283 143.568V131.652C53.6283 131.52 53.6703 131.418 53.7543 131.346C53.8383 131.262 53.9403 131.22 54.0603 131.22H55.6623C55.7943 131.22 55.8963 131.262 55.9683 131.346C56.0523 131.418 56.0943 131.52 56.0943 131.652V135.756C56.8143 134.892 57.7863 134.46 59.0103 134.46C60.1143 134.46 60.9963 134.826 61.6563 135.558C62.3163 136.278 62.6463 137.262 62.6463 138.51V143.568C62.6463 143.688 62.6043 143.79 62.5203 143.874C62.4483 143.958 62.3463 144 62.2143 144H60.5943C60.4743 144 60.3723 143.958 60.2883 143.874C60.2043 143.79 60.1623 143.688 60.1623 143.568V138.618C60.1623 137.91 59.9883 137.364 59.6403 136.98C59.3043 136.584 58.8123 136.386 58.1643 136.386C57.5283 136.386 57.0243 136.584 56.6523 136.98C56.2803 137.376 56.0943 137.922 56.0943 138.618V143.568C56.0943 143.688 56.0523 143.79 55.9683 143.874C55.8963 143.958 55.7943 144 55.6623 144H54.0603ZM67.6487 144.18C67.0367 144.18 66.4727 144.06 65.9567 143.82C65.4527 143.568 65.0507 143.232 64.7507 142.812C64.4627 142.392 64.3187 141.93 64.3187 141.426C64.3187 140.61 64.6487 139.95 65.3087 139.446C65.9687 138.942 66.8747 138.6 68.0267 138.42L70.4927 138.06V137.682C70.4927 137.154 70.3607 136.758 70.0967 136.494C69.8327 136.23 69.4067 136.098 68.8187 136.098C68.4227 136.098 68.0987 136.176 67.8467 136.332C67.6067 136.476 67.4147 136.62 67.2707 136.764C67.1267 136.92 67.0307 137.022 66.9827 137.07C66.9347 137.214 66.8447 137.286 66.7127 137.286H65.3267C65.2187 137.286 65.1227 137.25 65.0387 137.178C64.9667 137.106 64.9307 137.01 64.9307 136.89C64.9427 136.59 65.0867 136.248 65.3627 135.864C65.6507 135.48 66.0887 135.15 66.6767 134.874C67.2647 134.598 67.9847 134.46 68.8367 134.46C70.2527 134.46 71.2847 134.778 71.9327 135.414C72.5807 136.05 72.9047 136.884 72.9047 137.916V143.568C72.9047 143.688 72.8627 143.79 72.7787 143.874C72.7067 143.958 72.6047 144 72.4727 144H71.0147C70.8947 144 70.7927 143.958 70.7087 143.874C70.6247 143.79 70.5827 143.688 70.5827 143.568V142.866C70.3187 143.25 69.9407 143.568 69.4487 143.82C68.9687 144.06 68.3687 144.18 67.6487 144.18ZM68.2607 142.47C68.9207 142.47 69.4607 142.254 69.8807 141.822C70.3007 141.39 70.5107 140.76 70.5107 139.932V139.554L68.7107 139.842C68.0147 139.95 67.4867 140.124 67.1267 140.364C66.7787 140.604 66.6047 140.898 66.6047 141.246C66.6047 141.63 66.7667 141.93 67.0907 142.146C67.4147 142.362 67.8047 142.47 68.2607 142.47ZM83.4671 144.18C82.0631 144.18 80.9771 143.82 80.2091 143.1C79.4411 142.368 79.0271 141.372 78.9671 140.112L78.9491 139.32L78.9671 138.528C79.0271 137.28 79.4471 136.29 80.2271 135.558C81.0071 134.826 82.0871 134.46 83.4671 134.46C84.8471 134.46 85.9271 134.826 86.7071 135.558C87.4871 136.29 87.9071 137.28 87.9671 138.528C87.9791 138.672 87.9851 138.936 87.9851 139.32C87.9851 139.704 87.9791 139.968 87.9671 140.112C87.9071 141.372 87.4931 142.368 86.7251 143.1C85.9571 143.82 84.8711 144.18 83.4671 144.18ZM83.4671 142.398C84.1031 142.398 84.5951 142.2 84.9431 141.804C85.2911 141.396 85.4831 140.802 85.5191 140.022C85.5311 139.902 85.5371 139.668 85.5371 139.32C85.5371 138.972 85.5311 138.738 85.5191 138.618C85.4831 137.838 85.2911 137.25 84.9431 136.854C84.5951 136.446 84.1031 136.242 83.4671 136.242C82.8311 136.242 82.3391 136.446 81.9911 136.854C81.6431 137.25 81.4511 137.838 81.4151 138.618L81.3971 139.32L81.4151 140.022C81.4511 140.802 81.6431 141.396 81.9911 141.804C82.3391 142.2 82.8311 142.398 83.4671 142.398ZM94.5248 144C94.4048 144 94.3028 143.958 94.2188 143.874C94.1348 143.79 94.0928 143.688 94.0928 143.568V135.072C94.0928 134.952 94.1348 134.85 94.2188 134.766C94.3028 134.682 94.4048 134.64 94.5248 134.64H95.9288C96.0488 134.64 96.1508 134.682 96.2348 134.766C96.3188 134.85 96.3608 134.952 96.3608 135.072V135.684C96.9848 134.868 97.8548 134.46 98.9708 134.46C100.303 134.46 101.233 134.994 101.761 136.062C102.049 135.582 102.457 135.198 102.985 134.91C103.513 134.61 104.083 134.46 104.695 134.46C105.679 134.46 106.483 134.796 107.107 135.468C107.731 136.14 108.043 137.118 108.043 138.402V143.568C108.043 143.688 108.001 143.79 107.917 143.874C107.845 143.958 107.743 144 107.611 144H106.135C106.015 144 105.913 143.958 105.829 143.874C105.745 143.79 105.703 143.688 105.703 143.568V138.546C105.703 137.79 105.541 137.244 105.217 136.908C104.905 136.56 104.485 136.386 103.957 136.386C103.489 136.386 103.087 136.56 102.751 136.908C102.427 137.256 102.265 137.802 102.265 138.546V143.568C102.265 143.688 102.223 143.79 102.139 143.874C102.055 143.958 101.953 144 101.833 144H100.357C100.237 144 100.135 143.958 100.051 143.874C99.9668 143.79 99.9248 143.688 99.9248 143.568V138.546C99.9248 137.79 99.7568 137.244 99.4208 136.908C99.0968 136.56 98.6828 136.386 98.1788 136.386C97.6988 136.386 97.2908 136.56 96.9548 136.908C96.6308 137.256 96.4688 137.802 96.4688 138.546V143.568C96.4688 143.688 96.4268 143.79 96.3428 143.874C96.2588 143.958 96.1568 144 96.0368 144H94.5248ZM114.367 144.18C113.035 144.18 111.973 143.796 111.181 143.028C110.401 142.248 109.987 141.156 109.939 139.752L109.921 139.302L109.939 138.852C109.999 137.484 110.419 136.41 111.199 135.63C111.991 134.85 113.047 134.46 114.367 134.46C115.783 134.46 116.875 134.892 117.643 135.756C118.423 136.62 118.813 137.772 118.813 139.212V139.59C118.813 139.71 118.771 139.812 118.687 139.896C118.603 139.98 118.495 140.022 118.363 140.022H112.387V140.166C112.411 140.826 112.591 141.384 112.927 141.84C113.275 142.284 113.749 142.506 114.349 142.506C115.057 142.506 115.627 142.23 116.059 141.678C116.167 141.546 116.251 141.462 116.311 141.426C116.383 141.39 116.485 141.372 116.617 141.372H118.165C118.273 141.372 118.363 141.408 118.435 141.48C118.519 141.54 118.561 141.618 118.561 141.714C118.561 142.002 118.387 142.344 118.039 142.74C117.703 143.124 117.217 143.46 116.581 143.748C115.945 144.036 115.207 144.18 114.367 144.18ZM116.365 138.51V138.456C116.365 137.748 116.185 137.178 115.825 136.746C115.477 136.314 114.991 136.098 114.367 136.098C113.743 136.098 113.257 136.314 112.909 136.746C112.561 137.178 112.387 137.748 112.387 138.456V138.51H116.365ZM121.174 144C121.054 144 120.952 143.958 120.868 143.874C120.784 143.79 120.742 143.688 120.742 143.568V131.652C120.742 131.52 120.784 131.418 120.868 131.346C120.952 131.262 121.054 131.22 121.174 131.22H122.668C122.8 131.22 122.902 131.262 122.974 131.346C123.058 131.418 123.1 131.52 123.1 131.652V143.568C123.1 143.688 123.058 143.79 122.974 143.874C122.902 143.958 122.8 144 122.668 144H121.174ZM125.937 144C125.817 144 125.715 143.958 125.631 143.874C125.547 143.79 125.505 143.688 125.505 143.568V131.652C125.505 131.52 125.547 131.418 125.631 131.346C125.715 131.262 125.817 131.22 125.937 131.22H127.539C127.671 131.22 127.773 131.262 127.845 131.346C127.929 131.418 127.971 131.52 127.971 131.652V135.756C128.691 134.892 129.663 134.46 130.887 134.46C131.991 134.46 132.873 134.826 133.533 135.558C134.193 136.278 134.523 137.262 134.523 138.51V143.568C134.523 143.688 134.481 143.79 134.397 143.874C134.325 143.958 134.223 144 134.091 144H132.471C132.351 144 132.249 143.958 132.165 143.874C132.081 143.79 132.039 143.688 132.039 143.568V138.618C132.039 137.91 131.865 137.364 131.517 136.98C131.181 136.584 130.689 136.386 130.041 136.386C129.405 136.386 128.901 136.584 128.529 136.98C128.157 137.376 127.971 137.922 127.971 138.618V143.568C127.971 143.688 127.929 143.79 127.845 143.874C127.773 143.958 127.671 144 127.539 144H125.937ZM140.948 144.18C139.544 144.18 138.458 143.82 137.69 143.1C136.922 142.368 136.508 141.372 136.448 140.112L136.43 139.32L136.448 138.528C136.508 137.28 136.928 136.29 137.708 135.558C138.488 134.826 139.568 134.46 140.948 134.46C142.328 134.46 143.408 134.826 144.188 135.558C144.968 136.29 145.388 137.28 145.448 138.528C145.46 138.672 145.466 138.936 145.466 139.32C145.466 139.704 145.46 139.968 145.448 140.112C145.388 141.372 144.974 142.368 144.206 143.1C143.438 143.82 142.352 144.18 140.948 144.18ZM140.948 142.398C141.584 142.398 142.076 142.2 142.424 141.804C142.772 141.396 142.964 140.802 143 140.022C143.012 139.902 143.018 139.668 143.018 139.32C143.018 138.972 143.012 138.738 143 138.618C142.964 137.838 142.772 137.25 142.424 136.854C142.076 136.446 141.584 136.242 140.948 136.242C140.312 136.242 139.82 136.446 139.472 136.854C139.124 137.25 138.932 137.838 138.896 138.618L138.878 139.32L138.896 140.022C138.932 140.802 139.124 141.396 139.472 141.804C139.82 142.2 140.312 142.398 140.948 142.398ZM147.892 144C147.772 144 147.67 143.958 147.586 143.874C147.502 143.79 147.46 143.688 147.46 143.568V135.09C147.46 134.97 147.502 134.868 147.586 134.784C147.67 134.688 147.772 134.64 147.892 134.64H149.35C149.482 134.64 149.59 134.682 149.674 134.766C149.758 134.85 149.8 134.958 149.8 135.09V135.828C150.088 135.444 150.448 135.15 150.88 134.946C151.324 134.742 151.828 134.64 152.392 134.64H153.13C153.262 134.64 153.364 134.682 153.436 134.766C153.52 134.838 153.562 134.94 153.562 135.072V136.368C153.562 136.488 153.52 136.59 153.436 136.674C153.364 136.758 153.262 136.8 153.13 136.8H151.726C151.162 136.8 150.718 136.962 150.394 137.286C150.07 137.61 149.908 138.054 149.908 138.618V143.568C149.908 143.688 149.866 143.79 149.782 143.874C149.698 143.958 149.59 144 149.458 144H147.892ZM159.142 147.42C159.022 147.42 158.92 147.378 158.836 147.294C158.752 147.222 158.71 147.12 158.71 146.988V135.072C158.71 134.94 158.752 134.838 158.836 134.766C158.92 134.682 159.022 134.64 159.142 134.64H160.564C160.696 134.64 160.798 134.682 160.87 134.766C160.954 134.838 160.996 134.94 160.996 135.072V135.792C161.668 134.904 162.628 134.46 163.876 134.46C165.088 134.46 166.018 134.844 166.666 135.612C167.314 136.368 167.662 137.394 167.71 138.69C167.722 138.834 167.728 139.044 167.728 139.32C167.728 139.608 167.722 139.824 167.71 139.968C167.662 141.228 167.314 142.248 166.666 143.028C166.018 143.796 165.088 144.18 163.876 144.18C162.664 144.18 161.74 143.754 161.104 142.902V146.988C161.104 147.12 161.062 147.222 160.978 147.294C160.906 147.378 160.804 147.42 160.672 147.42H159.142ZM163.21 142.254C164.506 142.254 165.196 141.456 165.28 139.86C165.292 139.74 165.298 139.56 165.298 139.32C165.298 139.08 165.292 138.9 165.28 138.78C165.196 137.184 164.506 136.386 163.21 136.386C162.514 136.386 161.998 136.608 161.662 137.052C161.326 137.496 161.14 138.042 161.104 138.69L161.086 139.374L161.104 140.076C161.128 140.676 161.314 141.192 161.662 141.624C162.022 142.044 162.538 142.254 163.21 142.254ZM170.199 144C170.079 144 169.977 143.958 169.893 143.874C169.809 143.79 169.767 143.688 169.767 143.568V131.652C169.767 131.52 169.809 131.418 169.893 131.346C169.977 131.262 170.079 131.22 170.199 131.22H171.693C171.825 131.22 171.927 131.262 171.999 131.346C172.083 131.418 172.125 131.52 172.125 131.652V143.568C172.125 143.688 172.083 143.79 171.999 143.874C171.927 143.958 171.825 144 171.693 144H170.199ZM177.231 144.18C176.619 144.18 176.055 144.06 175.539 143.82C175.035 143.568 174.633 143.232 174.333 142.812C174.045 142.392 173.901 141.93 173.901 141.426C173.901 140.61 174.231 139.95 174.891 139.446C175.551 138.942 176.457 138.6 177.609 138.42L180.075 138.06V137.682C180.075 137.154 179.943 136.758 179.679 136.494C179.415 136.23 178.989 136.098 178.401 136.098C178.005 136.098 177.681 136.176 177.429 136.332C177.189 136.476 176.997 136.62 176.853 136.764C176.709 136.92 176.613 137.022 176.565 137.07C176.517 137.214 176.427 137.286 176.295 137.286H174.909C174.801 137.286 174.705 137.25 174.621 137.178C174.549 137.106 174.513 137.01 174.513 136.89C174.525 136.59 174.669 136.248 174.945 135.864C175.233 135.48 175.671 135.15 176.259 134.874C176.847 134.598 177.567 134.46 178.419 134.46C179.835 134.46 180.867 134.778 181.515 135.414C182.163 136.05 182.487 136.884 182.487 137.916V143.568C182.487 143.688 182.445 143.79 182.361 143.874C182.289 143.958 182.187 144 182.055 144H180.597C180.477 144 180.375 143.958 180.291 143.874C180.207 143.79 180.165 143.688 180.165 143.568V142.866C179.901 143.25 179.523 143.568 179.031 143.82C178.551 144.06 177.951 144.18 177.231 144.18ZM177.843 142.47C178.503 142.47 179.043 142.254 179.463 141.822C179.883 141.39 180.093 140.76 180.093 139.932V139.554L178.293 139.842C177.597 139.95 177.069 140.124 176.709 140.364C176.361 140.604 176.187 140.898 176.187 141.246C176.187 141.63 176.349 141.93 176.673 142.146C176.997 142.362 177.387 142.47 177.843 142.47ZM185.228 144C185.108 144 185.006 143.958 184.922 143.874C184.838 143.79 184.796 143.688 184.796 143.568V135.072C184.796 134.952 184.838 134.85 184.922 134.766C185.006 134.682 185.108 134.64 185.228 134.64H186.704C186.824 134.64 186.926 134.682 187.01 134.766C187.094 134.85 187.136 134.952 187.136 135.072V135.81C187.844 134.91 188.846 134.46 190.142 134.46C191.246 134.46 192.122 134.826 192.77 135.558C193.418 136.278 193.742 137.262 193.742 138.51V143.568C193.742 143.688 193.7 143.79 193.616 143.874C193.544 143.958 193.442 144 193.31 144H191.726C191.606 144 191.504 143.958 191.42 143.874C191.336 143.79 191.294 143.688 191.294 143.568V138.618C191.294 137.91 191.12 137.364 190.772 136.98C190.436 136.584 189.944 136.386 189.296 136.386C188.66 136.386 188.156 136.584 187.784 136.98C187.424 137.376 187.244 137.922 187.244 138.618V143.568C187.244 143.688 187.202 143.79 187.118 143.874C187.046 143.958 186.944 144 186.812 144H185.228ZM200.168 144.18C198.764 144.18 197.678 143.82 196.91 143.1C196.142 142.368 195.728 141.372 195.668 140.112L195.65 139.32L195.668 138.528C195.728 137.28 196.148 136.29 196.928 135.558C197.708 134.826 198.788 134.46 200.168 134.46C201.548 134.46 202.628 134.826 203.408 135.558C204.188 136.29 204.608 137.28 204.668 138.528C204.68 138.672 204.686 138.936 204.686 139.32C204.686 139.704 204.68 139.968 204.668 140.112C204.608 141.372 204.194 142.368 203.426 143.1C202.658 143.82 201.572 144.18 200.168 144.18ZM200.168 142.398C200.804 142.398 201.296 142.2 201.644 141.804C201.992 141.396 202.184 140.802 202.22 140.022C202.232 139.902 202.238 139.668 202.238 139.32C202.238 138.972 202.232 138.738 202.22 138.618C202.184 137.838 201.992 137.25 201.644 136.854C201.296 136.446 200.804 136.242 200.168 136.242C199.532 136.242 199.04 136.446 198.692 136.854C198.344 137.25 198.152 137.838 198.116 138.618L198.098 139.32L198.116 140.022C198.152 140.802 198.344 141.396 198.692 141.804C199.04 142.2 199.532 142.398 200.168 142.398ZM33.6521 168.42C33.5321 168.42 33.4301 168.378 33.3461 168.294C33.2621 168.222 33.2201 168.12 33.2201 167.988V156.072C33.2201 155.94 33.2621 155.838 33.3461 155.766C33.4301 155.682 33.5321 155.64 33.6521 155.64H35.0741C35.2061 155.64 35.3081 155.682 35.3801 155.766C35.4641 155.838 35.5061 155.94 35.5061 156.072V156.792C36.1781 155.904 37.1381 155.46 38.3861 155.46C39.5981 155.46 40.5281 155.844 41.1761 156.612C41.8241 157.368 42.1721 158.394 42.2201 159.69C42.2321 159.834 42.2381 160.044 42.2381 160.32C42.2381 160.608 42.2321 160.824 42.2201 160.968C42.1721 162.228 41.8241 163.248 41.1761 164.028C40.5281 164.796 39.5981 165.18 38.3861 165.18C37.1741 165.18 36.2501 164.754 35.6141 163.902V167.988C35.6141 168.12 35.5721 168.222 35.4881 168.294C35.4161 168.378 35.3141 168.42 35.1821 168.42H33.6521ZM37.7201 163.254C39.0161 163.254 39.7061 162.456 39.7901 160.86C39.8021 160.74 39.8081 160.56 39.8081 160.32C39.8081 160.08 39.8021 159.9 39.7901 159.78C39.7061 158.184 39.0161 157.386 37.7201 157.386C37.0241 157.386 36.5081 157.608 36.1721 158.052C35.8361 158.496 35.6501 159.042 35.6141 159.69L35.5961 160.374L35.6141 161.076C35.6381 161.676 35.8241 162.192 36.1721 162.624C36.5321 163.044 37.0481 163.254 37.7201 163.254ZM46.9768 165.18C46.3648 165.18 45.8008 165.06 45.2848 164.82C44.7808 164.568 44.3788 164.232 44.0788 163.812C43.7908 163.392 43.6468 162.93 43.6468 162.426C43.6468 161.61 43.9768 160.95 44.6368 160.446C45.2968 159.942 46.2028 159.6 47.3548 159.42L49.8208 159.06V158.682C49.8208 158.154 49.6888 157.758 49.4248 157.494C49.1608 157.23 48.7348 157.098 48.1468 157.098C47.7508 157.098 47.4268 157.176 47.1748 157.332C46.9348 157.476 46.7428 157.62 46.5988 157.764C46.4548 157.92 46.3588 158.022 46.3108 158.07C46.2628 158.214 46.1728 158.286 46.0408 158.286H44.6548C44.5468 158.286 44.4508 158.25 44.3668 158.178C44.2948 158.106 44.2588 158.01 44.2588 157.89C44.2708 157.59 44.4148 157.248 44.6908 156.864C44.9788 156.48 45.4168 156.15 46.0048 155.874C46.5928 155.598 47.3128 155.46 48.1648 155.46C49.5808 155.46 50.6128 155.778 51.2608 156.414C51.9088 157.05 52.2328 157.884 52.2328 158.916V164.568C52.2328 164.688 52.1908 164.79 52.1068 164.874C52.0348 164.958 51.9328 165 51.8008 165H50.3428C50.2228 165 50.1208 164.958 50.0368 164.874C49.9528 164.79 49.9108 164.688 49.9108 164.568V163.866C49.6468 164.25 49.2688 164.568 48.7768 164.82C48.2968 165.06 47.6968 165.18 46.9768 165.18ZM47.5888 163.47C48.2488 163.47 48.7888 163.254 49.2088 162.822C49.6288 162.39 49.8388 161.76 49.8388 160.932V160.554L48.0388 160.842C47.3428 160.95 46.8148 161.124 46.4548 161.364C46.1068 161.604 45.9328 161.898 45.9328 162.246C45.9328 162.63 46.0948 162.93 46.4188 163.146C46.7428 163.362 47.1328 163.47 47.5888 163.47ZM54.974 165C54.854 165 54.752 164.958 54.668 164.874C54.584 164.79 54.542 164.688 54.542 164.568V156.09C54.542 155.97 54.584 155.868 54.668 155.784C54.752 155.688 54.854 155.64 54.974 155.64H56.432C56.564 155.64 56.672 155.682 56.756 155.766C56.84 155.85 56.882 155.958 56.882 156.09V156.828C57.17 156.444 57.53 156.15 57.962 155.946C58.406 155.742 58.91 155.64 59.474 155.64H60.212C60.344 155.64 60.446 155.682 60.518 155.766C60.602 155.838 60.644 155.94 60.644 156.072V157.368C60.644 157.488 60.602 157.59 60.518 157.674C60.446 157.758 60.344 157.8 60.212 157.8H58.808C58.244 157.8 57.8 157.962 57.476 158.286C57.152 158.61 56.99 159.054 56.99 159.618V164.568C56.99 164.688 56.948 164.79 56.864 164.874C56.78 164.958 56.672 165 56.54 165H54.974ZM64.6252 165.18C64.0132 165.18 63.4492 165.06 62.9332 164.82C62.4292 164.568 62.0272 164.232 61.7272 163.812C61.4392 163.392 61.2952 162.93 61.2952 162.426C61.2952 161.61 61.6252 160.95 62.2852 160.446C62.9452 159.942 63.8512 159.6 65.0032 159.42L67.4692 159.06V158.682C67.4692 158.154 67.3372 157.758 67.0732 157.494C66.8092 157.23 66.3832 157.098 65.7952 157.098C65.3992 157.098 65.0752 157.176 64.8232 157.332C64.5832 157.476 64.3912 157.62 64.2472 157.764C64.1032 157.92 64.0072 158.022 63.9592 158.07C63.9112 158.214 63.8212 158.286 63.6892 158.286H62.3032C62.1952 158.286 62.0992 158.25 62.0152 158.178C61.9432 158.106 61.9072 158.01 61.9072 157.89C61.9192 157.59 62.0632 157.248 62.3392 156.864C62.6272 156.48 63.0652 156.15 63.6532 155.874C64.2412 155.598 64.9612 155.46 65.8132 155.46C67.2292 155.46 68.2612 155.778 68.9092 156.414C69.5572 157.05 69.8812 157.884 69.8812 158.916V164.568C69.8812 164.688 69.8392 164.79 69.7552 164.874C69.6832 164.958 69.5812 165 69.4492 165H67.9912C67.8712 165 67.7692 164.958 67.6852 164.874C67.6012 164.79 67.5592 164.688 67.5592 164.568V163.866C67.2952 164.25 66.9172 164.568 66.4252 164.82C65.9452 165.06 65.3452 165.18 64.6252 165.18ZM65.2372 163.47C65.8972 163.47 66.4372 163.254 66.8572 162.822C67.2772 162.39 67.4872 161.76 67.4872 160.932V160.554L65.6872 160.842C64.9912 160.95 64.4632 161.124 64.1032 161.364C63.7552 161.604 63.5812 161.898 63.5812 162.246C63.5812 162.63 63.7432 162.93 64.0672 163.146C64.3912 163.362 64.7812 163.47 65.2372 163.47ZM79.8497 165.18C78.9497 165.18 78.1937 165.048 77.5817 164.784C76.9697 164.508 76.5137 164.19 76.2137 163.83C75.9257 163.458 75.7817 163.14 75.7817 162.876C75.7817 162.756 75.8237 162.66 75.9077 162.588C75.9917 162.516 76.0877 162.48 76.1957 162.48H77.6177C77.7257 162.48 77.8157 162.522 77.8877 162.606C77.9357 162.642 78.0617 162.75 78.2657 162.93C78.4697 163.122 78.7097 163.272 78.9857 163.38C79.2617 163.488 79.5677 163.542 79.9037 163.542C80.3837 163.542 80.7797 163.446 81.0917 163.254C81.4037 163.062 81.5597 162.798 81.5597 162.462C81.5597 162.21 81.4877 162.006 81.3437 161.85C81.2117 161.694 80.9657 161.556 80.6057 161.436C80.2457 161.304 79.7117 161.166 79.0037 161.022C77.9837 160.806 77.2277 160.476 76.7357 160.032C76.2557 159.588 76.0157 159 76.0157 158.268C76.0157 157.788 76.1597 157.338 76.4477 156.918C76.7357 156.486 77.1617 156.138 77.7257 155.874C78.3017 155.598 78.9857 155.46 79.7777 155.46C80.5817 155.46 81.2777 155.592 81.8657 155.856C82.4537 156.108 82.8977 156.414 83.1977 156.774C83.5097 157.122 83.6657 157.434 83.6657 157.71C83.6657 157.818 83.6237 157.914 83.5397 157.998C83.4677 158.07 83.3777 158.106 83.2697 158.106H81.9377C81.8417 158.106 81.7397 158.064 81.6317 157.98C81.5477 157.92 81.4157 157.806 81.2357 157.638C81.0557 157.47 80.8457 157.338 80.6057 157.242C80.3657 157.146 80.0837 157.098 79.7597 157.098C79.3157 157.098 78.9677 157.194 78.7157 157.386C78.4757 157.578 78.3557 157.83 78.3557 158.142C78.3557 158.37 78.4157 158.556 78.5357 158.7C78.6557 158.844 78.8897 158.982 79.2377 159.114C79.5857 159.246 80.1077 159.378 80.8037 159.51C81.9557 159.738 82.7777 160.092 83.2697 160.572C83.7737 161.052 84.0257 161.64 84.0257 162.336C84.0257 163.176 83.6597 163.86 82.9277 164.388C82.1957 164.916 81.1697 165.18 79.8497 165.18ZM89.9158 165.18C88.5838 165.18 87.5218 164.796 86.7298 164.028C85.9498 163.248 85.5358 162.156 85.4878 160.752L85.4698 160.302L85.4878 159.852C85.5478 158.484 85.9678 157.41 86.7478 156.63C87.5398 155.85 88.5958 155.46 89.9158 155.46C91.3318 155.46 92.4238 155.892 93.1918 156.756C93.9718 157.62 94.3618 158.772 94.3618 160.212V160.59C94.3618 160.71 94.3198 160.812 94.2358 160.896C94.1518 160.98 94.0438 161.022 93.9118 161.022H87.9358V161.166C87.9598 161.826 88.1398 162.384 88.4758 162.84C88.8238 163.284 89.2978 163.506 89.8978 163.506C90.6058 163.506 91.1758 163.23 91.6078 162.678C91.7158 162.546 91.7998 162.462 91.8598 162.426C91.9318 162.39 92.0338 162.372 92.1658 162.372H93.7138C93.8218 162.372 93.9118 162.408 93.9838 162.48C94.0678 162.54 94.1098 162.618 94.1098 162.714C94.1098 163.002 93.9358 163.344 93.5878 163.74C93.2518 164.124 92.7658 164.46 92.1298 164.748C91.4938 165.036 90.7558 165.18 89.9158 165.18ZM91.9138 159.51V159.456C91.9138 158.748 91.7338 158.178 91.3738 157.746C91.0258 157.314 90.5398 157.098 89.9158 157.098C89.2918 157.098 88.8058 157.314 88.4578 157.746C88.1098 158.178 87.9358 158.748 87.9358 159.456V159.51H91.9138ZM99.7465 165.18C98.6425 165.18 97.7725 164.82 97.1365 164.1C96.5005 163.368 96.1825 162.378 96.1825 161.13V156.072C96.1825 155.952 96.2245 155.85 96.3085 155.766C96.3925 155.682 96.4945 155.64 96.6145 155.64H98.1985C98.3305 155.64 98.4325 155.682 98.5045 155.766C98.5885 155.838 98.6305 155.94 98.6305 156.072V161.022C98.6305 162.51 99.2845 163.254 100.592 163.254C101.216 163.254 101.708 163.056 102.068 162.66C102.44 162.264 102.626 161.718 102.626 161.022V156.072C102.626 155.952 102.668 155.85 102.752 155.766C102.836 155.682 102.938 155.64 103.058 155.64H104.642C104.774 155.64 104.876 155.682 104.948 155.766C105.032 155.838 105.074 155.94 105.074 156.072V164.568C105.074 164.688 105.032 164.79 104.948 164.874C104.876 164.958 104.774 165 104.642 165H103.184C103.064 165 102.962 164.958 102.878 164.874C102.794 164.79 102.752 164.688 102.752 164.568V163.83C102.08 164.73 101.078 165.18 99.7465 165.18ZM111.997 165C111.877 165 111.775 164.958 111.691 164.874C111.607 164.79 111.565 164.688 111.565 164.568V156.072C111.565 155.952 111.607 155.85 111.691 155.766C111.775 155.682 111.877 155.64 111.997 155.64H113.473C113.593 155.64 113.695 155.682 113.779 155.766C113.863 155.85 113.905 155.952 113.905 156.072V156.81C114.613 155.91 115.615 155.46 116.911 155.46C118.015 155.46 118.891 155.826 119.539 156.558C120.187 157.278 120.511 158.262 120.511 159.51V164.568C120.511 164.688 120.469 164.79 120.385 164.874C120.313 164.958 120.211 165 120.079 165H118.495C118.375 165 118.273 164.958 118.189 164.874C118.105 164.79 118.063 164.688 118.063 164.568V159.618C118.063 158.91 117.889 158.364 117.541 157.98C117.205 157.584 116.713 157.386 116.065 157.386C115.429 157.386 114.925 157.584 114.553 157.98C114.193 158.376 114.013 158.922 114.013 159.618V164.568C114.013 164.688 113.971 164.79 113.887 164.874C113.815 164.958 113.713 165 113.581 165H111.997ZM126.83 165.18C125.498 165.18 124.436 164.796 123.644 164.028C122.864 163.248 122.45 162.156 122.402 160.752L122.384 160.302L122.402 159.852C122.462 158.484 122.882 157.41 123.662 156.63C124.454 155.85 125.51 155.46 126.83 155.46C128.246 155.46 129.338 155.892 130.106 156.756C130.886 157.62 131.276 158.772 131.276 160.212V160.59C131.276 160.71 131.234 160.812 131.15 160.896C131.066 160.98 130.958 161.022 130.826 161.022H124.85V161.166C124.874 161.826 125.054 162.384 125.39 162.84C125.738 163.284 126.212 163.506 126.812 163.506C127.52 163.506 128.09 163.23 128.522 162.678C128.63 162.546 128.714 162.462 128.774 162.426C128.846 162.39 128.948 162.372 129.08 162.372H130.628C130.736 162.372 130.826 162.408 130.898 162.48C130.982 162.54 131.024 162.618 131.024 162.714C131.024 163.002 130.85 163.344 130.502 163.74C130.166 164.124 129.68 164.46 129.044 164.748C128.408 165.036 127.67 165.18 126.83 165.18ZM128.828 159.51V159.456C128.828 158.748 128.648 158.178 128.288 157.746C127.94 157.314 127.454 157.098 126.83 157.098C126.206 157.098 125.72 157.314 125.372 157.746C125.024 158.178 124.85 158.748 124.85 159.456V159.51H128.828ZM137.417 168.96C136.349 168.96 135.485 168.78 134.825 168.42C134.165 168.072 133.697 167.67 133.421 167.214C133.145 166.758 133.007 166.368 133.007 166.044C133.007 165.936 133.049 165.84 133.133 165.756C133.229 165.672 133.331 165.63 133.439 165.63H135.005C135.113 165.63 135.203 165.654 135.275 165.702C135.359 165.762 135.425 165.864 135.473 166.008C135.593 166.332 135.785 166.602 136.049 166.818C136.325 167.046 136.751 167.16 137.327 167.16C138.047 167.16 138.575 166.998 138.911 166.674C139.259 166.35 139.433 165.792 139.433 165V163.776C138.773 164.556 137.849 164.946 136.661 164.946C135.413 164.946 134.471 164.562 133.835 163.794C133.211 163.026 132.875 161.994 132.827 160.698L132.809 160.212L132.827 159.726C132.875 158.454 133.217 157.428 133.853 156.648C134.489 155.856 135.425 155.46 136.661 155.46C137.297 155.46 137.855 155.58 138.335 155.82C138.815 156.06 139.217 156.39 139.541 156.81V156.09C139.541 155.958 139.583 155.85 139.667 155.766C139.751 155.682 139.853 155.64 139.973 155.64H141.431C141.551 155.64 141.653 155.688 141.737 155.784C141.821 155.868 141.863 155.97 141.863 156.09L141.881 164.766C141.881 166.098 141.509 167.13 140.765 167.862C140.021 168.594 138.905 168.96 137.417 168.96ZM137.327 163.038C138.011 163.038 138.521 162.822 138.857 162.39C139.205 161.958 139.397 161.43 139.433 160.806C139.445 160.71 139.451 160.512 139.451 160.212C139.451 159.924 139.445 159.732 139.433 159.636C139.397 159 139.205 158.466 138.857 158.034C138.521 157.602 138.011 157.386 137.327 157.386C136.031 157.386 135.347 158.184 135.275 159.78L135.257 160.212C135.257 161.064 135.407 161.748 135.707 162.264C136.019 162.78 136.559 163.038 137.327 163.038ZM148.418 165.18C147.014 165.18 145.928 164.82 145.16 164.1C144.392 163.368 143.978 162.372 143.918 161.112L143.9 160.32L143.918 159.528C143.978 158.28 144.398 157.29 145.178 156.558C145.958 155.826 147.038 155.46 148.418 155.46C149.798 155.46 150.878 155.826 151.658 156.558C152.438 157.29 152.858 158.28 152.918 159.528C152.93 159.672 152.936 159.936 152.936 160.32C152.936 160.704 152.93 160.968 152.918 161.112C152.858 162.372 152.444 163.368 151.676 164.1C150.908 164.82 149.822 165.18 148.418 165.18ZM148.418 163.398C149.054 163.398 149.546 163.2 149.894 162.804C150.242 162.396 150.434 161.802 150.47 161.022C150.482 160.902 150.488 160.668 150.488 160.32C150.488 159.972 150.482 159.738 150.47 159.618C150.434 158.838 150.242 158.25 149.894 157.854C149.546 157.446 149.054 157.242 148.418 157.242C147.782 157.242 147.29 157.446 146.942 157.854C146.594 158.25 146.402 158.838 146.366 159.618L146.348 160.32L146.366 161.022C146.402 161.802 146.594 162.396 146.942 162.804C147.29 163.2 147.782 163.398 148.418 163.398ZM147.626 154.29C147.434 154.29 147.338 154.194 147.338 154.002C147.338 153.906 147.368 153.828 147.428 153.768L148.886 151.986C149.006 151.854 149.108 151.77 149.192 151.734C149.288 151.686 149.408 151.662 149.552 151.662H151.352C151.58 151.662 151.694 151.776 151.694 152.004C151.694 152.088 151.664 152.16 151.604 152.22L149.372 154.056C149.264 154.14 149.162 154.2 149.066 154.236C148.982 154.272 148.868 154.29 148.724 154.29H147.626ZM158.981 165.18C157.661 165.18 156.605 164.814 155.813 164.082C155.033 163.35 154.619 162.336 154.571 161.04L154.553 160.32L154.571 159.6C154.619 158.304 155.033 157.29 155.813 156.558C156.605 155.826 157.661 155.46 158.981 155.46C159.917 155.46 160.709 155.628 161.357 155.964C162.017 156.3 162.503 156.714 162.815 157.206C163.139 157.686 163.313 158.142 163.337 158.574C163.349 158.694 163.307 158.796 163.211 158.88C163.127 158.964 163.025 159.006 162.905 159.006H161.321C161.201 159.006 161.105 158.982 161.033 158.934C160.973 158.874 160.913 158.778 160.853 158.646C160.673 158.178 160.433 157.842 160.133 157.638C159.845 157.434 159.473 157.332 159.017 157.332C158.405 157.332 157.925 157.53 157.577 157.926C157.229 158.31 157.043 158.898 157.019 159.69L157.001 160.356L157.019 160.95C157.067 162.522 157.733 163.308 159.017 163.308C159.485 163.308 159.863 163.206 160.151 163.002C160.439 162.798 160.673 162.462 160.853 161.994C160.913 161.862 160.973 161.772 161.033 161.724C161.105 161.664 161.201 161.634 161.321 161.634H162.905C163.025 161.634 163.127 161.676 163.211 161.76C163.307 161.844 163.349 161.946 163.337 162.066C163.313 162.486 163.145 162.936 162.833 163.416C162.521 163.896 162.041 164.31 161.393 164.658C160.745 165.006 159.941 165.18 158.981 165.18ZM165.574 154.092C165.454 154.092 165.352 154.05 165.268 153.966C165.184 153.882 165.142 153.78 165.142 153.66V152.364C165.142 152.244 165.184 152.142 165.268 152.058C165.352 151.974 165.454 151.932 165.574 151.932H167.212C167.332 151.932 167.434 151.974 167.518 152.058C167.614 152.142 167.662 152.244 167.662 152.364V153.66C167.662 153.78 167.62 153.882 167.536 153.966C167.452 154.05 167.344 154.092 167.212 154.092H165.574ZM165.646 165C165.526 165 165.424 164.958 165.34 164.874C165.256 164.79 165.214 164.688 165.214 164.568V156.072C165.214 155.952 165.256 155.85 165.34 155.766C165.424 155.682 165.526 155.64 165.646 155.64H167.14C167.272 155.64 167.374 155.682 167.446 155.766C167.53 155.838 167.572 155.94 167.572 156.072V164.568C167.572 164.688 167.53 164.79 167.446 164.874C167.374 164.958 167.272 165 167.14 165H165.646ZM174.1 165.18C172.696 165.18 171.61 164.82 170.842 164.1C170.074 163.368 169.66 162.372 169.6 161.112L169.582 160.32L169.6 159.528C169.66 158.28 170.08 157.29 170.86 156.558C171.64 155.826 172.72 155.46 174.1 155.46C175.48 155.46 176.56 155.826 177.34 156.558C178.12 157.29 178.54 158.28 178.6 159.528C178.612 159.672 178.618 159.936 178.618 160.32C178.618 160.704 178.612 160.968 178.6 161.112C178.54 162.372 178.126 163.368 177.358 164.1C176.59 164.82 175.504 165.18 174.1 165.18ZM174.1 163.398C174.736 163.398 175.228 163.2 175.576 162.804C175.924 162.396 176.116 161.802 176.152 161.022C176.164 160.902 176.17 160.668 176.17 160.32C176.17 159.972 176.164 159.738 176.152 159.618C176.116 158.838 175.924 158.25 175.576 157.854C175.228 157.446 174.736 157.242 174.1 157.242C173.464 157.242 172.972 157.446 172.624 157.854C172.276 158.25 172.084 158.838 172.048 159.618L172.03 160.32L172.048 161.022C172.084 161.802 172.276 162.396 172.624 162.804C172.972 163.2 173.464 163.398 174.1 163.398Z" fill="#2E2B2B"/>
</svg>
