<svg width="133" height="94" viewBox="0 0 133 94" fill="none" xmlns="http://www.w3.org/2000/svg">
<path d="M100.449 59.8184C91.2046 59.8184 83.6841 67.4851 83.6841 76.9092C83.6841 86.3334 91.2046 94.0001 100.449 94.0001C109.695 94.0001 117.214 86.3334 117.214 76.9092C117.214 67.4851 109.693 59.8184 100.449 59.8184ZM100.449 85.4547C95.8261 85.4547 92.0665 81.622 92.0665 76.9092C92.0665 72.1965 95.8261 68.3638 100.449 68.3638C105.072 68.3638 108.831 72.1965 108.831 76.9092C108.831 81.6222 105.072 85.4547 100.449 85.4547Z" fill="#DA0E16"/>
<path d="M43.1691 59.8184C33.9248 59.8184 26.4043 67.4851 26.4043 76.9092C26.4043 86.3334 33.9248 94.0001 43.1691 94.0001C52.4133 94.0001 59.9338 86.3334 59.9338 76.9092C59.9338 67.4851 52.4133 59.8184 43.1691 59.8184ZM43.1691 85.4547C38.5463 85.4547 34.7867 81.622 34.7867 76.9092C34.7867 72.1965 38.5463 68.3638 43.1691 68.3638C47.7906 68.3638 51.5514 72.1965 51.5514 76.9092C51.5514 81.6222 47.7918 85.4547 43.1691 85.4547Z" fill="#DA0E16"/>
<path d="M111.739 10.8988C111.026 9.45608 109.577 8.5459 107.993 8.5459H85.9194V17.0913H105.408L116.821 40.2323L124.312 36.3924L111.739 10.8988Z" fill="#DA0E16"/>
<path d="M87.8754 72.7783H56.1621V81.3238H87.8754V72.7783Z" fill="#DA0E16"/>
<path d="M30.5953 72.7783H16.0661C13.751 72.7783 11.875 74.6911 11.875 77.0509C11.875 79.411 13.7513 81.3235 16.0661 81.3235H30.5955C32.9106 81.3235 34.7866 79.4107 34.7866 77.0509C34.7866 74.6908 32.9103 72.7783 30.5953 72.7783Z" fill="#DA0E16"/>
<path d="M132.12 46.6579L123.876 35.8337C123.084 34.7911 121.861 34.1815 120.566 34.1815H90.1102V4.27259C90.1102 1.91252 88.2339 0 85.9192 0H16.0661C13.751 0 11.875 1.91279 11.875 4.27259C11.875 6.63239 13.7513 8.54518 16.0661 8.54518H81.7279V38.4541C81.7279 40.8142 83.6041 42.7267 85.9189 42.7267H118.514L124.618 50.7422V72.7781H113.022C110.707 72.7781 108.831 74.6908 108.831 77.0507C108.831 79.4107 110.707 81.3232 113.022 81.3232H128.809C131.124 81.3232 133 79.4104 133 77.0507V49.2786C133 48.33 132.69 47.4071 132.12 46.6579Z" fill="#DA0E16"/>
<path d="M30.3168 51.1294H11.0373C8.72222 51.1294 6.84619 53.0422 6.84619 55.402C6.84619 57.762 8.72248 59.6746 11.0373 59.6746H30.3166C32.6316 59.6746 34.5076 57.7618 34.5076 55.402C34.5079 53.0422 32.6316 51.1294 30.3168 51.1294Z" fill="#DA0E16"/>
<path d="M39.9559 34.3242H4.19106C1.87629 34.3242 0 36.237 0 38.5971C0 40.9571 1.87629 42.8697 4.19106 42.8697H39.9559C42.2709 42.8697 44.1469 40.9569 44.1469 38.5971C44.1469 36.2373 42.2709 34.3242 39.9559 34.3242Z" fill="#DA0E16"/>
<path d="M46.8021 17.5181H11.0373C8.72222 17.5181 6.84619 19.4309 6.84619 21.7907C6.84619 24.1507 8.72248 26.0632 11.0373 26.0632H46.8021C49.1171 26.0632 50.9931 24.1505 50.9931 21.7907C50.9934 19.4309 49.1171 17.5181 46.8021 17.5181Z" fill="#DA0E16"/>
</svg>
