<svg width="84" height="98" viewBox="0 0 84 98" fill="none" xmlns="http://www.w3.org/2000/svg">
<path d="M76.9999 0.875H69.9999V11.2812C69.9999 17.0186 65.2889 21.6875 59.4999 21.6875H24.5C18.711 21.6875 14 17.0186 14 11.2812V0.875H6.99999C3.143 0.875 0 3.98994 0 7.8125V91.0625C0 94.9544 3.073 98 6.99999 98H76.9999C80.9269 98 83.9999 94.9544 83.9999 91.0625V7.8125C83.9999 3.92056 80.9269 0.875 76.9999 0.875ZM40.9779 62.2996L26.978 76.1746C26.292 76.8476 25.396 77.1875 24.5 77.1875C23.604 77.1875 22.708 76.8476 22.022 76.1746L15.022 69.2371C13.657 67.8843 13.657 65.6851 15.022 64.3323C16.387 62.9795 18.606 62.9795 19.971 64.3323L24.5 68.8139L36.0219 57.3948C37.3869 56.042 39.6059 56.042 40.9709 57.3948C42.3359 58.7476 42.3429 60.9399 40.9779 62.2996ZM40.9779 34.5496L26.978 48.4246C26.292 49.0976 25.396 49.4375 24.5 49.4375C23.604 49.4375 22.708 49.0976 22.022 48.4246L15.022 41.4871C13.657 40.1343 13.657 37.9351 15.022 36.5823C16.387 35.2295 18.606 35.2295 19.971 36.5823L24.5 41.0639L36.0219 29.6448C37.3869 28.292 39.6059 28.292 40.9709 29.6448C42.3359 30.9976 42.3429 33.1899 40.9779 34.5496ZM66.4999 70.25H52.4999C50.5679 70.25 48.9999 68.696 48.9999 66.7812C48.9999 64.8665 50.5679 63.3125 52.4999 63.3125H66.4999C68.4319 63.3125 69.9999 64.8665 69.9999 66.7812C69.9999 68.696 68.4319 70.25 66.4999 70.25ZM66.4999 42.5H52.4999C50.5679 42.5 48.9999 40.946 48.9999 39.0312C48.9999 37.1165 50.5679 35.5625 52.4999 35.5625H66.4999C68.4319 35.5625 69.9999 37.1165 69.9999 39.0312C69.9999 40.946 68.4319 42.5 66.4999 42.5Z" fill="#DA0E16"/>
</svg>
