<svg width="105" height="89" viewBox="0 0 105 89" fill="none" xmlns="http://www.w3.org/2000/svg">
<g clip-path="url(#clip0)">
<path d="M97.9588 1.47314H7.81785C3.99355 1.47314 0.881897 4.11822 0.881897 7.3687V55.9931C0.881897 56.8065 1.65854 57.4666 2.61538 57.4666H103.161C104.118 57.4666 104.895 56.8065 104.895 55.9931V7.3687C104.895 4.11822 101.783 1.47314 97.9588 1.47314ZM101.428 54.5197H4.34906V7.3687C4.34906 5.74191 5.9058 4.42023 7.81785 4.42023H97.9588C99.8708 4.42023 101.428 5.74191 101.428 7.3687V54.5197Z" fill="#DA0E16"/>
<path d="M103.161 54.52H2.61538C1.65854 54.52 0.881897 55.1802 0.881897 55.9935V63.3596C0.881897 66.6102 3.99355 69.2551 7.81784 69.2551H97.9588C101.783 69.2551 104.895 66.6102 104.895 63.3596V55.9935C104.895 55.1802 104.118 54.52 103.161 54.52ZM101.428 63.3597C101.428 64.9865 99.8708 66.3082 97.9588 66.3082H7.81784C5.9058 66.3082 4.34906 64.9865 4.34906 63.3597V57.4671H101.428V63.3597H101.428Z" fill="#DA0E16"/>
<path d="M58.1131 62.1064H47.7118C46.755 62.1064 45.9783 62.7666 45.9783 63.5799C45.9783 64.3932 46.755 65.0534 47.7118 65.0534H58.1131C59.0699 65.0534 59.8466 64.3932 59.8466 63.5799C59.8466 62.7666 59.0699 62.1064 58.1131 62.1064Z" fill="#DA0E16"/>
<path d="M98.712 2.88379H7.79176C6.17518 2.88379 4.47342 4.05797 4.47342 5.95252V56.1539C4.47342 58.0484 6.17518 59.2226 7.79176 59.2226H98.7122C100.329 59.2226 102.031 58.0484 102.031 56.1539V5.95252C102.031 4.05786 100.329 2.88379 98.712 2.88379ZM95.3936 53.085H11.1101V9.02125H95.3936V53.085Z" fill="#DA0E16" stroke="#DA0E16" stroke-width="3"/>
<path d="M75.4243 78.0962H30.3523C27.485 78.0962 25.1516 80.0796 25.1516 82.5167C25.1516 84.9539 27.485 86.9373 30.3523 86.9373H75.4245C78.2918 86.9373 80.6252 84.9539 80.6252 82.5167C80.6252 80.0796 78.2916 78.0962 75.4243 78.0962ZM75.4243 83.9902H30.3523C29.3954 83.9902 28.6188 83.3287 28.6188 82.5167C28.6188 81.7048 29.3954 81.0433 30.3523 81.0433H75.4245C76.3814 81.0433 77.158 81.7048 77.158 82.5167C77.158 83.3287 76.3814 83.9902 75.4243 83.9902Z" fill="#DA0E16" stroke="#DA0E16" stroke-width="4"/>
<path d="M71.9574 78.0966C66.2054 78.0966 63.2896 74.6265 63.2896 67.782C63.2896 66.9687 62.5129 66.3086 61.5561 66.3086H44.2207C43.2639 66.3086 42.4872 66.9687 42.4872 67.782C42.4872 74.6265 39.5714 78.0966 33.8194 78.0966C32.8626 78.0966 32.0859 78.7567 32.0859 79.57C32.0859 80.3834 32.8626 81.0435 33.8194 81.0435H71.9574C72.9142 81.0435 73.6909 80.3834 73.6909 79.57C73.6909 78.7567 72.9142 78.0966 71.9574 78.0966ZM42.2633 78.0966C44.3974 76.0868 45.6541 73.094 45.9072 69.2555H59.871C60.1223 73.094 61.3792 76.0868 63.5149 78.0966H42.2633Z" fill="#DA0E16"/>
<path d="M83.7177 44.8891L79.5331 41.3321L81.8612 39.3532C82.2929 38.9863 82.4661 38.4529 82.317 37.9504C82.1679 37.4479 81.7189 37.0501 81.1347 36.8998L63.7993 32.4793C63.1874 32.323 62.527 32.466 62.0762 32.8492C61.6238 33.2323 61.4574 33.7951 61.641 34.3138L66.8417 49.0489C67.0168 49.5469 67.4865 49.9285 68.0776 50.0553C68.667 50.1791 69.2963 50.0346 69.728 49.6678L72.1792 47.5827L76.3639 51.1413C76.6881 51.4182 77.1302 51.5729 77.5895 51.5729C78.0488 51.5729 78.4909 51.4182 78.8151 51.1413L83.7175 46.9726C84.3955 46.3966 84.3954 45.4653 83.7177 44.8891ZM77.5895 48.016L73.7792 44.7757C73.3372 44.3999 72.7582 44.2127 72.1792 44.2127C71.5984 44.2127 71.0195 44.4013 70.5792 44.7741L69.3276 45.838L65.8865 36.0877L77.3573 39.0127L76.0155 40.1533C75.6462 40.4686 75.4434 40.8871 75.4434 41.3321C75.4434 41.7787 75.648 42.2 76.019 42.5124L80.0407 45.9309L77.5895 48.016Z" fill="#DA0E16"/>
<path d="M73.6908 13.2617H25.1516C24.1948 13.2617 23.4181 13.9219 23.4181 14.7352V22.1028C23.4181 22.9161 24.1948 23.5763 25.1516 23.5763H73.6908C74.6477 23.5763 75.4243 22.9161 75.4243 22.1028V14.7352C75.4243 13.9219 74.6477 13.2617 73.6908 13.2617ZM71.9574 20.6293H26.8851V16.2088H71.9574V20.6293V20.6293Z" fill="#DA0E16"/>
<path d="M45.9542 29.4702H32.0857C31.1289 29.4702 30.3523 30.1304 30.3523 30.9437V36.8377C30.3523 37.651 31.1289 38.3111 32.0857 38.3111H45.9542C46.911 38.3111 47.6877 37.651 47.6877 36.8377V30.9437C47.6877 30.1304 46.911 29.4702 45.9542 29.4702ZM44.2205 35.3642H33.8192V32.4171H44.2205V35.3642V35.3642Z" fill="#DA0E16"/>
<path d="M73.6909 13.2617H25.1516C24.1948 13.2617 23.4181 13.9219 23.4181 14.7352V42.7319C23.4181 43.5452 24.1948 44.2054 25.1516 44.2054H66.4205C66.97 44.2054 67.4848 43.9859 67.8109 43.6115C68.1386 43.2373 68.2391 42.754 68.0813 42.3075L65.8866 36.0878L73.1935 37.9518C73.7189 38.086 74.2875 38.0005 74.7259 37.722C75.1661 37.445 75.4245 37.0059 75.4245 36.5402V14.7352C75.4243 13.9219 74.6477 13.2617 73.6909 13.2617ZM71.9574 34.5599L63.7975 32.4793C63.1856 32.3231 62.5251 32.466 62.0743 32.8492C61.6219 33.2338 61.4555 33.7951 61.6392 34.3154L64.0904 41.2586H26.8851V16.2088H71.9574V34.5599V34.5599Z" fill="#DA0E16"/>
</g>
<defs>
<clipPath id="clip0">
<rect x="0.881897" width="104.013" height="88.4109" fill="white"/>
</clipPath>
</defs>
</svg>
